<?xml version="1.0" encoding="utf-8"?>
<!-- Generator: Adobe Illustrator 22.0.1, SVG Export Plug-In . SVG Version: 6.00 Build 0)  -->
<svg version="1.1" id="_x31_c04cb57-5b83-4fe5-b665-05639f110a33"
	 xmlns="http://www.w3.org/2000/svg" xmlns:xlink="http://www.w3.org/1999/xlink" x="0px" y="0px" viewBox="0 0 1134 812.3"
	 style="enable-background:new 0 0 1134 812.3;" xml:space="preserve">
<style type="text/css">
	.st0{opacity:0.1;fill:#6C63FF;enable-background:new    ;}
	.st1{opacity:0.3;fill:#FFFFFF;enable-background:new    ;}
	.st2{fill:#FFB6D4;}
	.st3{fill:#6C63FF;}
	.st4{opacity:0.2;enable-background:new    ;}
	.st5{fill:#636780;}
	.st6{opacity:0.4;enable-background:new    ;}
	.st7{opacity:0.2;fill:#FFFFFF;enable-background:new    ;}
	.st8{opacity:0.1;fill:#FFFFFF;enable-background:new    ;}
	.st9{opacity:0.1;enable-background:new    ;}
	.st10{fill:#DCE0ED;}
	.st11{fill:#F0F0F4;}
	.st12{fill:none;}
	.st13{fill:#A8A8A8;}
	.st14{opacity:0.1;}
	.st15{fill:url(#SVGID_1_);}
	.st16{opacity:5.000000e-02;enable-background:new    ;}
	.st17{opacity:3.000000e-02;enable-background:new    ;}
	.st18{fill:#CC8294;}
	.st19{fill:#4B4B5B;}
	.st20{fill:#0984E3;}
	.st21{fill:#838383;}
	.st22{fill:#00CEC9;}
	.st23{fill:#D63031;}
	.st24{fill:#9B9B9B;}
	.st25{fill:#CECECE;}
	.st26{fill:#ECECEC;}
	.st27{fill:#6BD9E7;}
	.st28{fill:#A6E7F0;}
</style>
<title>city driver</title>
<ellipse class="st0" cx="1023.4" cy="788.6" rx="29.9" ry="5.1"/>
<ellipse class="st0" cx="1117.2" cy="694.2" rx="16.9" ry="2.8"/>
<path class="st1" d="M514.3,784.5c1.3-0.8,2.7-1.3,4.2-1.4c2.8,0.3,5.6,0.2,8.4-0.3c-0.7,2.4-0.9,4.9-0.6,7.4l-2.5-0.1
	C523.7,790.1,514.2,788,514.3,784.5z"/>
<g id="XMLID_1_">
	<g>
		<path class="st2" d="M1107.5,406.3c28.3,71.7,38.6,156.1,7.3,226c-28.1,62.9-85.1,105-144.2,132.6
			c-79.6,37.3-167.3,52.2-253.7,45.9c-15.1-1-30.2-2.9-45.3-5.3c-52.3-8.3-103.3-24.4-151.5-48c-13.9-6.8-27.5-14.2-40.9-22.3
			c-22.3-13.4-43.7-28.6-64-45.3c-5.1-4.3-10.1-8.6-15.1-13c-3.5-3.1-6.9-6.2-10.3-9.3c-7.3-6.4-14.8-12.5-23.2-17.1
			c-2.5-1.4-5.1-2.6-7.7-3.7c-26.5-10.9-57.1-6.8-84.7,1.7c-20.9,6.4-41.5,15.4-62.4,21.7c-9.3,2.9-18.8,5-28.4,6.5
			c-21.5,3-43.3,0.9-64-6.1l-1.8-0.6c-3-1-5.9-2.1-8.8-3.3l-1.8-0.7c-2.8-1.2-5.6-2.4-8.2-3.8l-1.8-0.9c-2.9-1.4-5.6-2.9-8.3-4.5
			c-0.9-0.6-1.9-1.2-2.8-1.7c-15.3-9.3-29.3-21.1-41.5-35c-0.3-0.3-0.6-0.8-1.1-1.1c-1.7-2-3.4-4-5-6.1c-0.6-0.8-1.2-1.5-1.8-2.3
			c-1.9-2.5-3.7-5-5.5-7.7c-0.3-0.3-0.5-0.8-0.7-1.1c-7.2-10.8-13.2-22.6-17.9-35c-0.1-0.3-0.3-0.8-0.4-1.2c-1.4-3.9-2.6-7.9-3.9-12
			c-0.4-1.7-0.9-3.4-1.4-5.2c-0.1-0.5-0.3-1-0.4-1.5C0.6,522.3,0,496.4,0,470.6c0-3,0-6,0-9.1c0.2-41.6,0.7-84.1,6.4-125.2
			c0-0.3,0.1-0.6,0.1-0.8c1.9-13.9,4.4-27.5,7.7-41.1c3.4-14.2,7.7-28.1,13-41.6c13-33.3,32-63.6,53.1-91.7
			C133.4,90.8,203,31.5,284.3,9.3c87.8-24,185.3-1,256,60.1c21.6,18.6,40.9,40.7,65.1,55c21.1,12.4,45.9,17.6,68.5,7.8
			c18.7-8,30.9-12.2,51.9-10.9c43.6,2.6,86.4,12.4,127.3,28.9c1.7,0.7,3.3,1.4,5,2.1c106.5,44.3,198,132.1,245.6,245
			C1105.1,400.3,1106.2,403.2,1107.5,406.3z"/>
	</g>
	<g>
	</g>
</g>
<g>
	<ellipse class="st0" cx="791.6" cy="592.9" rx="113.9" ry="16.3"/>
	<rect x="831.6" y="336.1" class="st0" width="28.6" height="36.9"/>
	<rect x="831.6" y="412.7" class="st0" width="28.6" height="36.9"/>
	<path class="st0" d="M860.2,489.2v29.1c-9.5-0.8-19.1-2.2-28.6-4v-25.2H860.2z"/>
	<rect x="643.8" y="309.4" class="st0" width="100.1" height="16.7"/>
	<rect x="643.8" y="360.2" class="st0" width="100.1" height="16.7"/>
	<path class="st0" d="M743.8,411v16.7h-73.9c-3.2-3.2-6.4-6.5-9.5-9.7c-2.2-2.3-4.3-4.7-6.5-7L743.8,411L743.8,411z"/>
	<path class="st0" d="M743.8,461.8v16.7H736c-8.7-5.2-17.3-10.7-25.8-16.7H743.8z"/>
	<rect x="505" y="262.1" class="st0" width="18.6" height="24"/>
	<rect x="505" y="317.9" class="st0" width="18.6" height="24"/>
	<rect x="505" y="373.7" class="st0" width="18.6" height="24"/>
	<rect x="908" y="325.1" class="st0" width="18.6" height="24"/>
	<rect x="908" y="384.4" class="st0" width="18.6" height="24"/>
	<rect x="979" y="384.4" class="st0" width="18.6" height="24"/>
	<rect x="908" y="443.6" class="st0" width="18.6" height="24"/>
	<rect x="979" y="443.6" class="st0" width="18.6" height="24"/>
	<polygon class="st0" points="908,518.4 908,502.9 926.6,502.9 926.6,516.2 	"/>
	<path class="st0" d="M427.1,361.6c0.1,0.3,0.3,0.6,0.5,0.9h3.5v5.8c0.4,0.6,0.7,1.1,1.1,1.7v-7.5h5.2v12.1h-2.1
		c0.2,0.3,0.4,0.6,0.7,0.9h47.3v-13.8H427.1z M443.8,374.6h-5.2v-12.1h5.2V374.6z M450.1,374.6h-5.2v-12.1h5.2V374.6z M456.4,374.6
		h-5.2v-12.1h5.2V374.6z M462.8,374.6h-5.2v-12.1h5.2V374.6z M469.1,374.6h-5.2v-12.1h5.2V374.6z M475.4,374.6h-5.2v-12.1h5.2V374.6
		z M482.1,374.6h-5.5v-12.1h5.5V374.6z"/>
	<path class="st0" d="M462,401.6c0.6,0.4,1.2,0.9,1.8,1.3v-0.4h5.2v3.8l1.1,0.7v-4.5h5.2v7.3l1.1,0.5v-7.8h5.5v10.3l1.1,0.4v-11.6
		H462z"/>
	<path class="st0" d="M594.5,254c0,0-5.4,19.4,5.8,21.1c1.1,0.7,2.3,0.4,3.1-0.7c0,0-0.8-0.3-0.1-2.2c0.3-0.7,0.5-1.4,0.6-2.2
		c0.2-0.9,0.1-2-0.3-2.9l0,0c0,0-0.5-6.2-7-11c0,0-1.2-2.2-1.6-2.2l0.3,3.8c0,0,2.1-0.4,3.5,1c0,0-3.3-1.2-3.4-0.5
		c0,0.2,0.3,2,0.3,2s3.7-0.7,5.7,1.6c0,0-3.9-2.1-5.6-0.9l0.5,2.8c0,0,3.9-1,6.2,1.6c0,0-4.1-2-6.1-0.9l0.8,2.6c0,0,3.8-0.9,5.7,1.3
		c0,0-4.9-1.7-5.5-0.7c0.3,1,0.8,2,1.3,2.8c0,0,2.7-0.5,3.8,0.9c0,0-3.3-0.7-3.5-0.3c0,0,1.7,2.7,3.1,3.4c-1.3-0.6-2.5-1.6-3.5-3
		c-0.1,1.1,0.1,2.2,0.5,3.3c0,0-1.5-0.9-0.9-3.9c0,0-1.3-2.2-1.3-2.6c0,0-0.9,2.9-0.7,5c0,0-1.1-2.2,0.5-5.6l-0.9-2.6
		c0,0-1.3,3.8-1.3,5.6c0,0-0.8-2.4,1.1-6.3l-0.5-2.7c-0.7,1.6-1.2,3.4-1.6,5.2c0,0-0.4-2.4,1.5-5.9L595,259c0,0-0.9,2.3-1.1,3
		c-0.2,0.7-0.4,0.7-0.4,0.7c0.1-1.6,0.7-3.2,1.5-4.5C594.9,257.8,594.7,254,594.5,254z"/>
	<polygon class="st3" points="1007.1,488.3 1013.8,497.6 1024.5,473.3 1023.5,470.6 	"/>
	<polygon class="st4" points="1007.1,488.3 1013.8,497.6 1024.5,473.3 1023.5,470.6 	"/>
	<path class="st5" d="M534.8,467.6c0,46-24.4,55.7-48.8,55.7c-24.4,0-38.2-38.8-38.2-84.8s19.8-83.3,44.3-83.3
		C516.5,355.3,534.8,421.6,534.8,467.6z"/>
	<path class="st4" d="M534.8,467.6c0,46-24.4,55.7-48.8,55.7c-24.4,0-38.2-38.8-38.2-84.8s19.8-83.3,44.3-83.3
		C516.5,355.3,534.8,421.6,534.8,467.6z"/>
	<path class="st5" d="M517.9,440.1c0,46-15.7,83.3-35.1,83.3S447,486.1,447,440.1c0-6.4-0.7-12.6-0.2-18.5
		c3.5-37.1,19.3-64.8,36-64.8C502.2,356.8,517.9,394.1,517.9,440.1z"/>
	<path class="st3" d="M514.4,237.3c0,0-30.8,44.5-40.5,81.7l265.5,37.8l142.2-37.9c0,0-56.3-87.2-71.6-90.5
		C794.8,225,514.4,237.3,514.4,237.3z"/>
	<path class="st6" d="M514.4,237.3c0,0-30.8,44.5-40.5,81.7l265.5,37.8l142.2-37.9c0,0-56.3-87.2-71.6-90.5
		C794.8,225,514.4,237.3,514.4,237.3z"/>
	<polygon class="st3" points="709.2,350.6 751.9,505 751.9,465.9 763.7,422.1 796.6,403.3 838.3,427.8 853.2,433.8 854.5,398.2 
		804.9,366.6 781.9,352.3 729,346.4 714.5,343 	"/>
	<path class="st3" d="M728.2,366.6l38.8,5.8c-1.7-20,9.7-20,9.7-20l-38.8-8.7h-18.1"/>
	<path class="st5" d="M751.9,528.7h27.5l79.6-3.4c0,0,1.7,19.6,22.7,15c0,0,11.5,0.9,12.8-7.1s-26.3-83-26.3-83l-37.6-36.2l-34-10.7
		l-24.4,9.3l-15.5,31.9l-9.7,43.7L751.9,528.7z"/>
	<path class="st4" d="M751.9,528.7h27.5l79.6-3.4c0,0,1.7,19.6,22.7,15c0,0,11.5,0.9,12.8-7.1s-26.3-83-26.3-83l-37.6-36.2l-34-10.7
		l-24.4,9.3l-15.5,31.9l-9.7,43.7L751.9,528.7z"/>
	<path class="st3" d="M519.7,248c-3.9,4.1-16.3,19-26.8,50.6c-1.3,3.9,0.1,8.4,3.1,10c0.5,0.3,1,0.4,1.6,0.5l62.4,10.4
		c4.7,0.8,9.2-3.2,10.4-9.2l11-57.8c0.6-3.1-0.9-6.2-3.3-7c-0.4-0.1-0.8-0.2-1.1-0.2l-54.6,1.3C521.5,246.7,520.5,247.2,519.7,248z"
		/>
	<path class="st7" d="M519.7,248c-3.9,4.1-16.3,19-26.8,50.6c-1.3,3.9,0.1,8.4,3.1,10c0.5,0.3,1,0.4,1.6,0.5l62.4,10.4
		c4.7,0.8,9.2-3.2,10.4-9.2l11-57.8c0.6-3.1-0.9-6.2-3.3-7c-0.4-0.1-0.8-0.2-1.1-0.2l-54.6,1.3C521.5,246.7,520.5,247.2,519.7,248z"
		/>
	<path class="st3" d="M610.5,245.3l70.3-0.9c5.1-0.1,9.6,4.3,11.3,10.9l21.9,64.3c1.9,7.5-2.3,15.3-8,14.9l-102.6-8.7
		c-8.5-0.6-14.5-11.9-12.5-23.4l7.4-43.7C599.6,250.9,604.7,245.3,610.5,245.3z"/>
	<path class="st7" d="M610.5,245.3l70.3-0.9c5.1-0.1,9.6,4.3,11.3,10.9l21.9,64.3c1.9,7.5-2.3,15.3-8,14.9l-102.6-8.7
		c-8.5-0.6-14.5-11.9-12.5-23.4l7.4-43.7C599.6,250.9,604.7,245.3,610.5,245.3z"/>
	<path class="st3" d="M719.8,244.2c19.2-0.4,70.2-2.3,95.5-9.9c0,0,43.5,42.3,56.5,74.2c0,0-67.8,21.3-114.6,24.2
		c-7.1,0.4-13.7-4.7-16.8-12.9l-24.8-66.6c-1.2-3.1-0.2-6.8,2.2-8.4C718.4,244.5,719,244.2,719.8,244.2z"/>
	<path class="st7" d="M719.8,244.2c19.2-0.4,70.2-2.3,95.5-9.9c0,0,43.5,42.3,56.5,74.2c0,0-67.8,21.3-114.6,24.2
		c-7.1,0.4-13.7-4.7-16.8-12.9l-24.8-66.6c-1.2-3.1-0.2-6.8,2.2-8.4C718.4,244.5,719,244.2,719.8,244.2z"/>
	<path class="st8" d="M744.1,253.9c8-0.2,23.6-0.7,38.9-2.2c22.8-2.2,45,9.4,60.2,31.4l0.5,0.7c3.5,5.1,3,12.8-0.9,17.3
		c-1.2,1.4-2.7,2.3-4.3,2.8c-16.8,4.7-45.5,11.8-67.6,13.2c-5.1,0.3-9.9-3.3-12.1-9.2L741,260.3c-0.8-2.2-0.1-4.9,1.6-5.9
		C743.2,254,743.6,253.9,744.1,253.9z"/>
	<path class="st3" d="M751.9,505v23.8l-203.3-40.1c-9.9-4.5-15.9-1.7-15.9-1.7c-7.3-4.7-12.7-22.7-12.8-23.3l0,0l3.9-14.4
		l-31.2-66.5l-41.5,2.2c6.5-67.3,25.3-70.5,25.3-70.5l243.5,29.2L751.9,505z"/>
	<path class="st9" d="M708.1,363.3c-1.6,2.2-4.5,4.3-9.9,4.1c-8.3-0.3-9.8-9.3-10-14.7c-0.1-1.3,0-2.7,0.1-4l10.8-4.3l2.2,2.7
		l6.5,7.8C709.6,357.2,709.8,360.9,708.1,363.3z"/>
	<path class="st10" d="M708.1,362.5c-1.6,2.2-4.5,4.3-9.9,4.1c-8.3-0.3-9.8-9.3-10-14.7c-0.1-1.3,0-2.7,0.1-4l10.8-4.3l2.2,2.7
		l6.5,7.8C709.6,356.4,709.8,360.1,708.1,362.5z"/>
	<path class="st9" d="M701.3,346.3c-1.4,4.6-5.5,5.8-5.5,5.8l-7.6-0.2c-0.1-1.3,0-2.7,0.1-4l10.8-4.3L701.3,346.3z"/>
	<path class="st11" d="M673.7,311.5c0,0-17.2,3-12.7,23.1c3.5,15.2,11.3,16.3,14.8,15.8c2.1-0.3,4.1-0.3,6.3-0.3l13.6,0.3
		c0,0,7.7-2.3,5.5-12.3C699.1,328.2,689.3,309.9,673.7,311.5z"/>
	<ellipse class="st4" cx="580.4" cy="359" rx="7.9" ry="13.4"/>
	<path class="st9" d="M571.5,353.4l22.6,3.1c1.9,0.3,3.3,2.5,3.1,5l0,0c-0.2,2.5-1.9,4.3-3.9,4l-22.6-3.1c-1.9-0.3-3.3-2.5-3.1-5
		l0,0C567.8,355,569.5,353.2,571.5,353.4z"/>
	<path class="st11" d="M571.5,352.8l22.6,3.1c1.9,0.3,3.3,2.5,3.1,5l0,0c-0.2,2.5-1.9,4.3-3.9,4l-22.6-3.1c-1.9-0.3-3.3-2.5-3.1-5
		l0,0C567.8,354.2,569.5,352.5,571.5,352.8z"/>
	<path class="st9" d="M448.6,446.2c0,0-14.3-18.2,3.1-61.9c0,0,22.2-43.4,56.7,4c0,0,19.8,28.6,25.6,74.2l-13.5,0.3
		c0,0-12.9-80.9-50.8-76.8C469.6,386.1,442,392.4,448.6,446.2z"/>
	<path class="st9" d="M448,448.5c0,0-14.3-18.2,3.1-61.9c0,0,22.2-43.4,56.7,4c0,0,19.8,28.6,25.6,74.2l-13.5,0.3
		c0,0-12.9-80.9-50.9-76.8C469,388.3,441.4,394.6,448,448.5z"/>
	<path class="st3" d="M448,446.9c0,0-14.3-18.2,3.1-61.9c0,0,22.2-43.4,56.7,4c0,0,19.8,28.6,25.6,74.2l-13.5,0.3
		c0,0-12.9-80.9-50.9-76.8C469,386.9,441.4,393.2,448,446.9z"/>
	<path class="st4" d="M448,446.9c0,0-14.3-18.2,3.1-61.9c0,0,22.2-43.4,56.7,4c0,0,19.8,28.6,25.6,74.2l-13.5,0.3
		c0,0-12.9-80.9-50.9-76.8C469,386.9,441.4,393.2,448,446.9z"/>
	<path class="st12" d="M751.9,505v23.8l-203.3-40.1c-9.9-4.5-15.9-1.7-15.9-1.7c-7.3-4.7-12.7-22.7-12.8-23.3l0,0l13.5-0.3l39.1,7.1
		l142,26.4c0,0,25.2,3.7,26.6,5.2C742.6,503.4,751.9,505,751.9,505z"/>
	<path class="st9" d="M751.9,504.2V528l-203.3-40.1c-9.9-4.5-15.9-1.7-15.9-1.7c-7.3-4.7-12.7-22.7-12.8-23.3l0,0l13.5-0.3l39.1,7.1
		l142,26.4c0,0,25.2,3.7,26.6,5.2C742.6,502.6,751.9,504.2,751.9,504.2z"/>
	<path class="st3" d="M751.9,505v23.8l-203.3-40.1c-9.9-4.5-15.9-1.7-15.9-1.7c-7.3-4.7-12.7-22.7-12.8-23.3l0,0l13.5-0.3l39.1,7.1
		l142,26.4c0,0,25.2,3.7,26.6,5.2C742.6,503.4,751.9,505,751.9,505z"/>
	<path class="st4" d="M751.9,505v23.8l-203.3-40.1c-9.9-4.5-15.9-1.7-15.9-1.7c-7.3-4.7-12.7-22.7-12.8-23.3l0,0l13.5-0.3l39.1,7.1
		l142,26.4c0,0,25.2,3.7,26.6,5.2C742.6,503.4,751.9,505,751.9,505z"/>
	<path class="st12" d="M1026.2,417.6c0,0-67.9,44.5-151.4,40.1c0,0-18.8,1.2-20.1-1s4.9,9.4,4.9,9.4s2.3-3.1,4.6-3.1s12.8,1,12.8,1
		s120.2-6.5,151-41.8L1026.2,417.6z"/>
	<path class="st4" d="M572.2,470.4c-12.6-52.4-11.9-88.9-9.1-110.3c3-23.3,9.1-34.2,9.2-34.3l0.5,0.4c-0.1,0.1-6.1,11-9.1,34.1
		c-2.8,21.4-3.5,57.6,9.1,109.9L572.2,470.4z"/>
	<path class="st3" d="M1028.1,447.4c0.5,2.4,1.7,9.2-0.2,11c-0.7,0.7-1.3,2.4-1.8,4.4c-0.7,3.4-1.3,6.9-1.6,10.4l-19.5,28.2
		l-33,16.7l-79.1,7.1L845.2,425L738,343.6l29.3-2.1c29.3-2.1,112.3-25.8,112.3-25.8l94,26.8c15.2,4.3,28.6,15.8,37.7,32
		c11.5,20.7,16.7,43.1,16.7,43.1c1.4,2.2,1.9,5.8,2.1,9.7c0.1,6.4-1,13.7-1.7,17.1c-0.2,1.3-0.4,2.1-0.4,2.1
		S1028,446.9,1028.1,447.4z"/>
	<path class="st9" d="M741.1,500.4c0,0-5.7-79.3,37.4-100.9c0,0,60.6-33.1,96.3,56.8l18.1,51.3c0,0,5.2,12.6,19.3,12.2
		c0,0,66.4-2.6,101.4-31.5l10.9-16.4c0,0-5.5,23-10.9,28.2c0,0-21.5,32.6-100,38.6c0,0-32.1,4.5-41.8-34.9c0,0-13.1-89.1-79.8-88.3
		c0,0-39.2,1-40.2,88L741.1,500.4z"/>
	<path class="st3" d="M741.1,501.9c0,0-5.7-79.3,37.4-100.9c0,0,60.6-33,96.3,56.8l18.1,51.2c0,0,5.2,12.6,19.3,12.2
		c0,0,66.4-2.6,101.4-31.5l10.9-16.4c0,0-5.5,23-10.9,28.2c0,0-21.5,32.6-100,38.6c0,0-32.1,4.5-41.8-34.9c0,0-13.1-89.1-79.8-88.3
		c0,0-39.2,1-40.2,88L741.1,501.9z"/>
	<path class="st4" d="M741.1,501.9c0,0-5.7-79.3,37.4-100.9c0,0,60.6-33,96.3,56.8l18.1,51.2c0,0,5.2,12.6,19.3,12.2
		c0,0,66.4-2.6,101.4-31.5l10.9-16.4c0,0-5.5,23-10.9,28.2c0,0-21.5,32.6-100,38.6c0,0-32.1,4.5-41.8-34.9c0,0-13.1-89.1-79.8-88.3
		c0,0-39.2,1-40.2,88L741.1,501.9z"/>
	<path class="st4" d="M731.2,499.5L728.6,389c0.3-7.5,0.1-15-0.7-22.4c-0.1-0.4-2.1-11.9-4.9-18.3c-1.8-3.4-3.3-4.3-3.3-4.4
		l-1.5-0.5l1.7-0.2c1.2,0.3,2.3,1.9,3.3,4.1c1.9,3.4,4.1,9.2,5.3,19.2c0.8,7.4,1,15,0.7,22.5l2.6,110.3L731.2,499.5z"/>
	<path class="st4" d="M783.9,417.5l-0.5,0.1c0-0.1-1.2-9.2-5.1-16.5c-8.3-15.2-10.9-25.6-11.3-32.5c-0.1-2.4,0.1-4.8,0.7-7.1
		c1.3-4.7,4.7-8.1,9.4-9.8l0,0l1,0.3c-4.5,1.6-8.7,5.4-9.9,9.8c-0.6,2.2-0.8,4.7-0.7,7c0.3,6.7,3,16.9,11.1,32
		C782.7,408.1,783.9,417.5,783.9,417.5z"/>
	<path class="st4" d="M968,381.6c-36.6-28.3-114.2-54.4-114.9-54.7l0.1-0.7c0.8,0.3,78.4,26.5,115.1,54.8L968,381.6z"/>
	<path class="st4" d="M1021.3,420.7c-13.8-31.4-51-57.3-79.9-73.5c-19.5-10.9-39.4-20.2-59.8-27.9l0.1-0.7
		c20.4,7.8,40.4,17.1,59.9,27.9c28.9,16.2,66.2,42.2,80.1,73.8L1021.3,420.7z"/>
	
		<ellipse transform="matrix(0.8695 -0.4939 0.4939 0.8695 -57.8834 546.3518)" class="st9" cx="1005.2" cy="382.7" rx="7.1" ry="33.6"/>
	
		<ellipse transform="matrix(0.8695 -0.4939 0.4939 0.8695 -57.1581 546.1656)" class="st10" cx="1005.2" cy="381.3" rx="7.1" ry="33.6"/>
	
		<ellipse transform="matrix(0.8672 -0.4979 0.4979 0.8672 -56.2944 551.5503)" class="st9" cx="1006" cy="381.3" rx="4.6" ry="27.7"/>
	
		<ellipse transform="matrix(0.8672 -0.4979 0.4979 0.8672 -55.915 551.4401)" class="st11" cx="1005.9" cy="380.6" rx="4.6" ry="27.7"/>
	<path class="st9" d="M936.1,438.2c0,0,1.9-18.2,12.9-22.2c0,0,37.6-14,45.8-14.3c0,0,8.5-3.4,14.1,4.8l5.7,10c0,0,4,8.2-4.9,9.6
		c0,0-45.5,21.5-65.2,23.8c-1.1,0.2-2.3,0.3-3.3,0.7C938.4,451.4,932.3,451.6,936.1,438.2z"/>
	<path class="st11" d="M936.7,437.5c0,0,1.9-18.2,12.9-22.2c0,0,37.6-14,45.8-14.3c0,0,8.5-3.4,14.1,4.8l5.7,10c0,0,4,8.2-4.9,9.6
		c0,0-45.5,21.5-65.2,23.8c-1.1,0.2-2.3,0.3-3.3,0.7C938.9,450.6,932.9,450.9,936.7,437.5z"/>
	<path class="st9" d="M940.7,436c0,0,1.7-15.5,12-19c0,0,35-12.1,42.6-12.2c0,0,7.9-2.8,13.1,4.1l5.3,8.6c0,0,3.7,7-4.5,8.3
		c0,0-42.3,18.4-60.6,20.3c-1,0.1-2.1,0.3-3.1,0.6C942.7,447.2,937.1,447.3,940.7,436z"/>
	<path class="st5" d="M941.2,435.2c0,0,1.7-15.5,12-19c0,0,35-12.1,42.6-12.2c0,0,7.9-2.8,13.1,4.1l5.3,8.6c0,0,3.7,7-4.5,8.3
		c0,0-42.3,18.4-60.6,20.3c-1,0.1-2.1,0.3-3.1,0.6C943.3,446.4,937.7,446.7,941.2,435.2z"/>
	<path class="st11" d="M944.2,425.6l-0.1-0.8c0.5-0.1,51.6-8.3,62.6-19.2l0.3,0.6C996,417.3,946.3,425.3,944.2,425.6z"/>
	<path class="st11" d="M941.5,434.2l-0.1-0.7c0.5-0.2,56.8-13.6,68.9-23.3l0.3,0.6C998.4,420.6,942.1,434,941.5,434.2z"/>
	<path class="st11" d="M940.2,441.2l-0.1-0.7c0.7-0.2,65.4-15.9,73.4-25.2l0.4,0.5C1005.7,425.2,942.9,440.5,940.2,441.2z"/>
	<path class="st9" d="M1007.5,441.6c0,0-24.4,13.2-50,19c-2.3,0.5-4.5,1.2-6.7,2c-2.6,0.9-6.3,2-8.3,1.3c-3.3-1.1-5.1,4-1.5,8.2
		l0.2,0.3c2.6,2.9,6,4.4,9.5,4l5.5-0.6c0,0,44.6-12.6,57-22.5c0,0,5.7-5,6.1-10.7s0.9-10.1-3.5-6.7
		C1011.1,439.2,1007.5,441.6,1007.5,441.6z"/>
	<path class="st11" d="M1008,440.8c-0.9,0.5-24.9,13.3-50,19c-2.3,0.5-4.5,1.2-6.7,2c-2.6,0.9-6.3,2-8.3,1.3c-3.3-1.1-5.1,4-1.5,8.2
		l0.1,0.1c2.7,3.1,6.2,4.6,9.8,4.2l5.3-0.6h0.1c1.5-0.4,44.7-12.7,56.9-22.4h0.1c0.4-0.3,5.7-5.2,6.1-10.7c0.5-5.7,0.9-10.1-3.5-6.7
		C1011.9,438.4,1008.4,440.7,1008,440.8L1008,440.8z"/>
	<path class="st9" d="M1004.8,445c0,0-20,10.8-41.5,16.9c-2.1,0.6-4.3,1.3-6.3,2.1c-2.1,0.8-5.1,1.7-6.8,1.5c-2.9-0.5-4.2,3.2-1,5.7
		l0.1,0.1c2.4,1.9,5.3,2.6,8.1,2.1l4.9-0.9c0,0,37.5-12.1,47.7-19.9c0,0,4.7-3.9,4.8-7.8c0.1-3.9,0.4-6.9-3.3-4.3
		C1007.8,443,1004.8,445,1004.8,445z"/>
	<path class="st5" d="M1005.4,444.2c-0.4,0.3-20.2,10.8-41.5,16.9c-2.1,0.6-4.3,1.3-6.3,2.1c-2.1,0.8-5.1,1.7-6.8,1.5
		c-2.9-0.5-4.2,3.2-1,5.7l0,0c2.5,1.9,5.4,2.7,8.3,2.2l4.8-0.9l0,0c0.8-0.3,37.6-12.2,47.7-19.8l0,0c0.1-0.2,4.7-4,4.8-7.8
		c0.1-3.8,0.4-6.9-3.3-4.3C1008.4,442.3,1005.5,444.2,1005.4,444.2L1005.4,444.2z"/>
	
		<ellipse transform="matrix(2.589387e-02 -0.9997 0.9997 2.589387e-02 418.8916 1381.2966)" class="st9" cx="918.2" cy="475.7" rx="9.7" ry="5.6"/>
	
		<ellipse transform="matrix(2.578191e-02 -0.9997 0.9997 2.578191e-02 418.8736 1381.0956)" class="st11" cx="918" cy="475.6" rx="9.7" ry="5.6"/>
	<path class="st9" d="M951,483.1c0,0-29.2,5.8-37,6.3c-7.8,0.5-8.9,6.1-8.9,6.1s-1.9,14.1,8.9,10l38.2-5.6c0,0,5.2,0.2,5.2-8.9v-2.1
		c0-1.1,0.1-2.2,0.3-3.4C957.8,484.2,957.3,481.9,951,483.1z"/>
	<path class="st11" d="M951.5,482.4c0,0-29.2,5.8-37,6.3s-8.9,6.1-8.9,6.1s-1.9,14.1,8.9,10l38.2-5.6c0,0,5.2,0.2,5.2-8.9v-2
		c0-1.1,0.1-2.2,0.3-3.4C958.4,483.5,957.8,481.2,951.5,482.4z"/>
	<path class="st11" d="M1027.9,458.5c-0.7,0.7-1.3,2.4-1.8,4.4l0,0l-9.5,8.7c-0.3,0.3-0.8,0.2-1.1-0.3c-0.1-0.2-0.1-0.3-0.1-0.6v-9
		c0-2.7,1.1-5.1,2.9-6.5l9.9-7.7C1028.6,449.9,1029.8,456.6,1027.9,458.5z"/>
	<path class="st5" d="M960.9,483.6l-0.5,9.2c-0.2,3.4,1.7,6.4,4.3,6.6c0.3,0,0.7,0,1.1,0c16.1-3.4,31.6-10.5,45.7-21.2l1.3-18.8
		c0.1-1.5-0.7-2.8-1.8-2.9c-0.3-0.1-0.7,0-1,0.2c-8,4.6-29.5,16.5-43.1,18.7C963.6,475.9,961.1,479.3,960.9,483.6z"/>
	<path class="st3" d="M965.3,478.9v15c0,0,35.6-10.9,43.6-18.2v-14.2C994.9,469.6,980.3,475.4,965.3,478.9z"/>
	<path class="st3" d="M1027.7,445.3c-1.8-0.2-3.3-4.1-3.3-9c0-4.9,1.5-9,3.3-9c0.6,0,1.1,0.3,1.5,0.9
		C1029.5,434.5,1028.3,441.7,1027.7,445.3z"/>
	<path class="st11" d="M1028.3,444.5c-1.8-0.2-3.3-4.1-3.3-9c0-4.9,1.5-9,3.3-9c0.6,0,1.1,0.4,1.5,0.9
		C1030.1,433.7,1028.9,441.1,1028.3,444.5z"/>
	<path class="st5" d="M864.4,507.9c0,81.6-26.7,83.3-61.5,83.3c-27.8,0-39.2-37.3-39.2-83.3s8.9-83.2,36.8-83.2
		S864.4,461.9,864.4,507.9z"/>
	<path class="st4" d="M864.4,507.9c0,81.6-26.7,83.3-61.5,83.3c-27.8,0-39.2-37.3-39.2-83.3s8.9-83.2,36.8-83.2
		S864.4,461.9,864.4,507.9z"/>
	<ellipse class="st5" cx="798.8" cy="507.9" rx="35.1" ry="83.3"/>
	<path class="st11" d="M498.2,458.5c0,25-5.6,45.1-17.3,45.1c-11.7,0-25.4-20.3-25.4-45.3c0-25,4.9-46.9,16.5-46.9
		S498.2,433.5,498.2,458.5z"/>
	<path class="st5" d="M498.2,457.5c0,1.9-0.1,3.8-0.1,5.6c-0.1,4.8-0.7,9.6-1.6,14.2c-1.9,9.2-5.3,15.6-10.3,16.8
		c-0.6,0.2-1.2,0.2-1.8,0.2c-2.7-0.1-5.3-1.2-7.5-3.1c-4.8-4-9.2-11.3-11.5-20.5c-0.9-3.4-1.3-6.9-1.5-10.4c-0.1-0.9-0.1-2-0.1-2.9
		c-0.1-6.8,0.5-13.6,1.6-20.2c0.6-4,1.8-7.9,3.4-11.5c2.1-4.1,4.8-6.6,8.3-6.6c2.6,0.2,5.1,1.2,7.3,3.2c3.2,2.8,5.9,6.5,8,10.7
		C496.1,440.1,498.1,448.6,498.2,457.5z"/>
	<path class="st11" d="M497.9,464.2c-0.3,4.8-1.1,9.5-2.2,14.1c-0.3-0.4-6.4-10.6-11.6-4.6c-3.8,4.4-1.2,15.1,0.6,20.7
		c-0.6,0.1-1.2,0.1-1.8,0.1c-2.7-0.3-5.2-1.5-7.3-3.6l0-0.7c0,0,3.4-11.6-4.1-19.3c0,0-3.7-2.2-6.6-1.2c-0.7-3.4-1.1-7-1.1-10.5
		c0.7-0.6,5.5-5.4,4-15c-0.4-2.7-0.9-5.4-1.6-8c0.8-4,2.1-7.8,3.8-11.2c0,0,1.1,10.6,6.8,11.6c5.7,1,8.8-13.7,8.9-14.1
		c3.1,3,5.7,6.8,7.6,11.2c0,0-9.4,4.3-7.2,17.6C487.7,460.5,494.2,463.4,497.9,464.2z"/>
	
		<ellipse transform="matrix(0.9959 -9.049223e-02 9.049223e-02 0.9959 -39.2479 45.1758)" class="st5" cx="478.6" cy="455.4" rx="4.4" ry="9.6"/>
	<path class="st11" d="M804.9,511.3c0,30-4.9,53.9-15.2,53.9c-10.3,0-22.5-24.3-22.5-54.3s4.3-56.3,14.5-56.3
		C792,454.7,804.9,481.4,804.9,511.3z"/>
	<path class="st5" d="M804.9,510.2c0,2.3-0.1,4.6-0.1,6.7c-0.1,5.7-0.6,11.4-1.5,17.1c-1.7,11-4.7,18.7-9.1,20.2
		c-0.5,0.2-1.1,0.3-1.6,0.3c-2.1,0-4.4-1.3-6.5-3.7c-4.3-4.7-8.1-13.6-10.1-24.6c-0.7-4.1-1.2-8.3-1.3-12.5
		c-0.1-1.1-0.1-2.3-0.1-3.5c-0.1-8.1,0.4-16.2,1.4-24.3c0.5-4.7,1.5-9.4,3.1-13.8c1.8-5,4.2-8,7.3-8c2.1,0,4.3,1.4,6.4,3.8
		c2.5,2.9,5.1,7.3,7.1,12.8C803.2,489.8,804.9,500,804.9,510.2z"/>
	<path class="st11" d="M804.8,516.9c-0.1,5.7-0.6,11.4-1.5,17.1c-0.2-0.4-6-12.2-10.4-4.7c-3.2,5.5-0.5,18.2,1.3,24.8
		c-0.5,0.2-1.1,0.3-1.6,0.3c-2.1,0-4.4-1.3-6.5-3.7v-0.9c0,0,2.6-14.1-4.3-22.8c0,0-3.3-2.3-5.9-0.9c-0.7-4.1-1.2-8.3-1.3-12.5
		c0.6-0.9,4.6-6.9,3-18.3c-0.6-4.3-1.2-7.4-1.7-9.5c0.5-4.7,1.5-9.4,3.1-13.8c0,0,1.3,12.6,6.4,13.4c5.1,0.8,7.3-17.1,7.3-17.5
		c2.5,2.9,5.1,7.3,7.1,12.8c0,0-8.1,5.9-5.7,21.6C795.7,513.3,801.6,516.2,804.8,516.9z"/>
	
		<ellipse transform="matrix(0.9983 -5.813927e-02 5.813927e-02 0.9983 -28.2659 46.5523)" class="st5" cx="785.9" cy="509" rx="3.8" ry="11.5"/>
	<path d="M738,343.7"/>
	<path class="st4" d="M882.8,380.9l-0.2,0.7c-0.2-0.2-20.1-11.2-93.7-27.3c-3.5-0.8-7-1.6-10.7-2.3c-0.3-0.1-0.7-0.2-1-0.2
		c-11.8-2.5-24.8-5.1-39.2-7.8l0.1-0.8c19.5,3.6,36.4,7.1,51.2,10.3C862.7,369.7,882.5,380.8,882.8,380.9z"/>
	<path class="st9" d="M493.7,300c10.3-31.5,22.8-46.4,26.8-50.6c0.8-0.8,1.7-1.3,2.7-1.3l54.6-1.3c1.5-0.1,2.9,0.9,3.7,2.5
		c-0.6-2.4-2.3-4-4.3-4l-54.6,1.3c-1,0-1.9,0.4-2.7,1.3c-3.9,4.1-16.3,19-26.8,50.6c-0.8,2.3-0.6,5,0.5,7.1
		C493.1,303.8,493.1,301.8,493.7,300z"/>
	<path class="st9" d="M592,303.5l7.4-43.7c1.3-7.9,6.4-13.5,12.2-13.6l70.3-0.9c2.7,0,5.3,1.2,7.3,3.4c-2.2-3-5.3-4.8-8.5-4.7
		l-70.3,0.9c-5.9,0.1-10.9,5.7-12.2,13.6l-7.5,43.7c-1.3,7.1,0.6,14.6,4.9,19.5C592.3,316.8,590.8,309.9,592,303.5z"/>
	<path class="st9" d="M744,321.9l-24.9-66.6c-1.1-3.1-0.1-6.9,2.3-8.4c0.6-0.4,1.3-0.6,2-0.6c18.9-0.4,68.8-2.2,94.5-9.6
		c-1.6-1.6-2.5-2.5-2.5-2.5c-25.4,7.6-76.3,9.4-95.5,9.9c-2.7,0.1-4.8,2.9-4.7,6.4c0,0.9,0.2,1.8,0.5,2.6l24.9,66.6
		c2.1,5.5,5.7,9.7,10.2,11.7C747.7,329.1,745.4,325.8,744,321.9z"/>
	<rect x="741.1" y="501.9" class="st3" width="10.7" height="4.3"/>
	<rect x="741.1" y="501.9" class="st4" width="10.7" height="4.3"/>
	<path class="st3" d="M532.9,459.7l-13.2,2.9c0.1,0.6,0.2,1.2,0.4,1.7c0.3,0.9,14.7-0.7,14.7-0.7l-1.4-0.3L532.9,459.7z"/>
	<path class="st4" d="M532.9,459.7l-13.2,2.9c0.1,0.6,0.2,1.2,0.4,1.7c0.3,0.9,14.7-0.7,14.7-0.7l-1.4-0.3L532.9,459.7z"/>
	<path class="st9" d="M483.1,501.4c-11.6,0-25.5-20.2-25.5-45.2c0-17.1,2.3-32.9,7.5-41.1c-6.7,7-9.6,24.5-9.6,43.8
		c0,25,13.9,45.2,25.5,45.2c3.9,0,7.2-2.3,9.7-6.3C488.6,500.1,485.9,501.4,483.1,501.4z"/>
	<path class="st9" d="M792,562c-10.4,0-22.8-24.4-22.8-54.4c0-20.6,2-39.5,6.7-49.3c-6,8.4-8.6,29.4-8.6,52.6
		c0,30,12.4,54.4,22.8,54.4c3.5,0,6.4-2.8,8.7-7.6C796.9,560.4,794.6,562,792,562z"/>
	
		<ellipse transform="matrix(0.8377 -0.5462 0.5462 0.8377 -81.6965 554.6375)" class="st9" cx="892.2" cy="414.8" rx="19" ry="39.2"/>
	<ellipse transform="matrix(0.8377 -0.5462 0.5462 0.8377 -81.2138 554.806)" class="st10" cx="892.8" cy="414" rx="19" ry="39.2"/>
	<ellipse transform="matrix(0.8244 -0.566 0.566 0.8244 -76.9198 578.8613)" class="st9" cx="894.4" cy="413.4" rx="14" ry="33.1"/>
	
		<ellipse transform="matrix(0.8244 -0.566 0.566 0.8244 -76.4888 578.7184)" class="st11" cx="894.4" cy="412.6" rx="14" ry="33.1"/>
	<path class="st3" d="M1093.5,556.7c0,0-28.2-2.2-24.9,23.3c0,0-0.7,4.5,2.5,6.5c0,0,0.1-1.9,2.9-1.3c1,0.3,2.1,0.3,3.1,0.2
		c1.4-0.1,2.7-0.9,3.7-2l0,0c0,0,7.9-4.2,11-20.9c0,0,2.3-3.6,2.2-4.6l-4.7,2.6c0,0,1.6,4.5,0.3,8.1c0,0-0.1-7.9-1.1-7.8
		c-0.2,0-2.5,1.6-2.5,1.6s2.8,7.8,0.7,13.4c0,0,0.8-9.5-1.5-12.7l-3.3,2.5c0,0,3.3,8,1.1,14.5c0,0,0.5-10-1.7-13.9l-3.1,3
		c0,0,3.1,7.8,1.2,13.3c0,0-0.3-11.6-1.9-12.5c0,0-2.7,3-3.1,4.3c0,0,2.1,5.7,0.8,8.7c0,0-0.8-7.8-1.5-7.8c0,0-2.7,5.2-2.9,8.6
		c0,0,0.1-5.3,2.3-9.1c-1.5,0.3-2.9,1.3-4.1,2.8c0,0,0.4-3.6,4.7-4c0,0,2.2-3.9,2.8-4.1c0,0-4.3-0.4-6.9,1c0,0,2.3-3.4,7.7-1.9
		l3-3.2c0,0-5.6-1-8,0.1c0,0,2.7-3,8.8-0.9l3.3-2.5c0,0-4.8-1.3-7.7-0.9c0,0,3-2.1,8.6,0.2l2.3-1.4c0,0-3.5-0.9-4.5-1
		c-1-0.2-1.1-0.5-1.1-0.5c2.2-0.5,4.5-0.2,6.6,0.9C1088.6,559.3,1093.6,557.1,1093.5,556.7z"/>
	<ellipse class="st0" cx="1074.1" cy="588.8" rx="19.9" ry="4.4"/>
	<path class="st3" d="M1053.7,501.9c0,0-19.2-1.5-16.9,15.8c-0.3,1.8,0.5,3.6,1.7,4.5c0,0,0-1.3,2-0.9c0.7,0.2,1.4,0.2,2.1,0.2
		c0.9-0.1,1.9-0.6,2.5-1.4l0,0c0,0,5.4-2.8,7.5-14.3c0,0,1.5-2.5,1.5-3.1l-3.2,1.8c0,0,1.1,3,0.2,5.5c0,0-0.1-5.4-0.7-5.3
		c-0.1,0-1.7,1-1.7,1s1.9,5.3,0.5,9c0,0,0.5-6.5-1.1-8.7l-2.3,1.7c0,0,2.2,5.4,0.7,9.9c0,0,0.4-6.8-1.2-9.5l-2.1,2.1
		c0,0,2.1,5.3,0.8,9c0,0-0.2-7.9-1.3-8.5c0,0-1.8,2.1-2.1,2.9c0,0,1.5,3.9,0.5,5.9c0,0-0.5-5.3-1-5.3c0,0-1.8,3.4-2,5.9
		c0.1-2.2,0.6-4.4,1.5-6.2c-1.1,0.3-2,0.9-2.7,1.8c0,0,0.3-2.5,3.2-2.7c0,0,1.5-2.7,1.9-2.8c0,0-2.9-0.3-4.7,0.7
		c0,0,1.5-2.3,5.2-1.3l2.1-2.2c0,0-3.8-0.7-5.5,0.1c0,0,1.9-2.1,6-0.6l2.2-1.7c0,0-3.3-0.9-5.2-0.6c0,0,2.1-1.5,5.9,0.1l1.6-0.9
		c0,0-2.4-0.6-3.1-0.7c-0.7-0.1-0.7-0.3-0.7-0.3c1.5-0.3,3.1-0.1,4.5,0.7C1050.5,503.8,1053.8,502.1,1053.7,501.9z"/>
	<ellipse class="st0" cx="1040.5" cy="523.7" rx="13.6" ry="2.9"/>
	<ellipse class="st0" cx="411.3" cy="550.6" rx="19.9" ry="4.4"/>
	<path class="st13" d="M397.9,530.4c0,0,11.4-0.4,14.8-3.6s17.5-6.9,18.3-1.9s17.1,25.2,4.3,25.3c-12.8,0.2-29.9-2.6-33.3-5.3
		C398.6,542.3,397.9,530.4,397.9,530.4z"/>
	<path class="st4" d="M435.6,548.5c-12.9,0.2-29.9-2.6-33.3-5.3c-2.6-2.1-3.7-9.4-4-12.8h-0.4c0,0,0.7,11.9,4.1,14.6
		c3.4,2.7,20.4,5.4,33.3,5.3c3.7,0,5-1.7,4.9-4.3C439.8,547.5,438.3,548.5,435.6,548.5z"/>
	<g class="st14">
		
			<linearGradient id="SVGID_1_" gradientUnits="userSpaceOnUse" x1="826.8197" y1="328.9109" x2="845.0403" y2="328.9109" gradientTransform="matrix(1 0 0 1 -32.98 0.16)">
			<stop  offset="0" style="stop-color:#808080;stop-opacity:0.25"/>
			<stop  offset="0.54" style="stop-color:#808080;stop-opacity:0.12"/>
			<stop  offset="1" style="stop-color:#808080;stop-opacity:0.1"/>
		</linearGradient>
		<path class="st15" d="M798.9,347.7c-0.3,0.7-2.2,2.2-4.6,3.8c-0.2-2.2-0.4-4-0.4-4.5c-0.1-1.9,3-10.5,3-10.5s6.1-10.5,5.9-12.1
			c-0.1-1.6,2.3-6.1,2.3-6.1l5.5-11.5c-0.6,1.8-0.4,3.9,0.5,5.4c1.7,2.8,0.3,8.4,0.3,8.4l0.3,7.1v0.7c-0.2,0.3-1.1,1.4-3.1,3.6
			c-1.8,2.1-1.5,2.8-1.3,2.9c-0.4,0.9,0.1,1.1,0.1,1.1c0.1,0,0.3,0,0.5-0.1l-0.5,0.5C804.3,340.5,799.4,346.6,798.9,347.7z"/>
	</g>
	<path class="st16" d="M757.1,465.1c0,0,7.5,2.6,6.9,5.4L757.1,465.1z"/>
	<path class="st17" d="M753.1,467.2c0,0.8-0.1,1.2-0.1,1.2l3.4,26.5c0.6,0.8,1.2,1.5,1.7,2.2c1.7,2,3.3,4.1,4.7,6.5
		c2,4,9.1,2,8.9,1.6c-0.1-0.4-3.1-19.3-3.1-19.3l-2.3-7.7c0,0-2.4,2-4.7-1.3c-1.5-2.1-4.8-6-7.1-8.7l-1.6-1.9
		C753.1,466.6,753.1,467,753.1,467.2z"/>
	<path class="st16" d="M757.8,497.1l0.4,0.5c0.5,0.6,0.9,1.2,1.3,1.7c0.6,0.8,1.1,1.5,1.5,2l1.7-2.8c-0.6-0.6-1.2-1.1-1.9-1.6
		C759.8,496.4,758.7,496.5,757.8,497.1L757.8,497.1z"/>
	<path class="st18" d="M758.7,503.5c0.5,0.3,0.9,0.5,1.4,0.7l1.3-2.2l1.7-2.9c-0.6-0.6-1.2-1.1-1.9-1.6c-0.9-0.5-2-0.5-2.9,0.1
		c-0.7,0.5-1.2,1.3-1.5,2.2C756.7,499.9,756.1,501.8,758.7,503.5z"/>
	<path class="st16" d="M758.4,503.2l0.3,0.3c0.5,0.3,0.9,0.5,1.4,0.7l1.3-2.2c0.1,0.2,0.3,0.4,0.3,0.6c2,4,9.1,2,8.9,1.6
		c-0.1-0.4-3-19.3-3-19.3l-2.3-7.7c-0.9,0.7-2.1,0.8-3,0.3c-0.5,0.7-0.6,1.6,0,2.8c1.3,2.6,2.1,5.5,2.3,8.6c0.9,3.2-1.9,7.1-3.4,8.8
		c-0.3,0.3-0.5,0.5-0.9,0.7c-0.3,0.3-0.6,0.6-0.8,1.1C759.1,500.6,758.7,501.9,758.4,503.2z"/>
	<ellipse class="st19" cx="763.5" cy="500.7" rx="0.9" ry="1.1"/>
	<ellipse class="st19" cx="764.9" cy="505" rx="0.9" ry="1.1"/>
	<ellipse class="st19" cx="769.1" cy="511.9" rx="0.9" ry="1.1"/>
	<ellipse class="st19" cx="767" cy="508.3" rx="0.9" ry="1.1"/>
	<ellipse class="st19" cx="770.8" cy="516" rx="0.9" ry="1.1"/>
	<path class="st9" d="M774.3,519.5c0,0,0.7,11.2,0,16.5c1.3,1.9,3.5,2.2,4.9,0.6c0.1-0.1,0.2-0.2,0.2-0.2c5-5.3,2.5-29.5,0.9-32.9
		c-1.7-3.4-1.9-20.7-2.5-26.2c-0.3-2.6-1.3-3.4-2.7-3.4c-1.4-0.1-3.2,0.7-4.7,0.9c0,5.5,0.3,18.1,1.3,22.3
		C773.1,502.5,774.3,519.5,774.3,519.5z"/>
	<path class="st9" d="M776.5,496.6c0.9,4.2,2.3,15.9,2.2,22.1c-0.1,4.6,0.3,13.4,0.5,17.8c0.1-0.1,0.2-0.2,0.2-0.2
		c5-5.3,2.5-29.5,0.9-32.9s-1.9-20.7-2.5-26.2c-0.3-2.6-1.3-3.4-2.7-3.4C775.3,479.6,775.8,493.3,776.5,496.6z"/>
	<path class="st18" d="M773.1,474.2c0.2,4.4,0.7,16.2,1.7,19.6c1.1,4.2,2.3,24.4,2.4,25.2h-0.4c0-0.3-1.3-21-2.4-25.2
		c-0.9-3.4-1.5-15.2-1.7-19.6H773.1z"/>
	<path class="st9" d="M681.5,569.6l-0.7-0.2L681.5,569.6z"/>
	<path class="st1" d="M734.4,585.3c0.9-0.7,1.8-1.1,2.8-1.2c1.9,0.3,3.7,0.2,5.6-0.3c-0.5,2.1-0.6,4.2-0.4,6.4l-1.7-0.1
		C740.7,590.1,734.4,588.3,734.4,585.3z"/>
	<path class="st9" d="M682,569.7l-0.3-0.1L682,569.7z"/>
	<path class="st9" d="M672.4,564.8L672.4,564.8z"/>
	<path class="st9" d="M672.5,564.8L672.5,564.8z"/>
	<path class="st9" d="M681.6,569.6L681.6,569.6L681.6,569.6z"/>
	<path class="st1" d="M773.3,530.1c0.1,1,0.1,2,0.1,2.8c0,1.1,0.3,2.2,0.9,3l0.1,0.1c0.2-2.1,0.3-4,0.3-6.1
		C774.5,530.2,773.9,530.2,773.3,530.1z"/>
</g>
<g>
	<g id="XMLID_2_">
		<g>
			<path class="st20" d="M378.1,309.7c5.4,10.8,4.4,21.8,4.4,35.8v11.3c0,12.7,0.3,21.5-7.7,23.4c-0.1-3.5-1.8-6.4-4-6.8
				c1.2-4.1,1.1-9.8,1.1-16.7v-8.5c0-14-0.6-23.2-6-34l-9.8-19.7l-0.4-6v0l2.3-6.3c1.3-3.6,5-3,6.6,0.2L378.1,309.7z"/>
			<path class="st20" d="M378.3,116.4v14.7c0,6.3-3.1,11.4-7,11.4h-37.5c3.8,0,7-5.1,7-11.4v-14.7c0-14.4-7.3-26.1-16.1-26.1h37.5
				C371,90.4,378.3,102.1,378.3,116.4z"/>
			<path class="st21" d="M366,499.6c6.8,0,12.3,8.9,12.3,19.8c0,10.9-5.5,19.8-12.3,19.8h-24.7c6.8,0,12.3-8.9,12.3-19.8
				c0-10.9-5.5-19.8-12.3-19.8H366z"/>
			<path class="st21" d="M374.8,380.6v23.1c0,16.9-8.5,30.6-18.9,30.6h-43.3c-0.3,0-0.5,0-0.8-0.1v-7.1v-7.1
				c0.3-0.1,0.5-0.1,0.8-0.1h43.3c5.5,0,10-7.3,10-16.2v-23.1h3.7h1.4c1.4,0,2.7-0.1,3.8-0.4C374.8,380.3,374.8,380.5,374.8,380.6z"
				/>
			<path class="st20" d="M370.8,373.5c2.2,0.3,3.9,3.2,4,6.8c-1.1,0.3-2.4,0.4-3.8,0.4h-1.4h-3.7c0-0.3,0-0.7,0.1-1
				C368.5,378.5,370,376.4,370.8,373.5z"/>
			<path class="st22" d="M371.9,356.8c0,6.9,0.1,12.6-1.1,16.7c-0.1,0-0.3,0-0.4,0c-2.3,0-4.1,2.7-4.4,6.2c-1.5,0.7-3.3,1-5.6,1
				h-3.5c-3.7,0-4.5-0.5-6-6l-7.5-28.4c-2.3-8.9-4.2-12.4-1.3-20.6l2.9-7.9l12.3-6.5l-1.2-16.6l9.8,19.7c5.4,10.8,6,20,6,34V356.8z"
				/>
			<path class="st22" d="M370.3,373.4c0.1,0,0.3,0,0.4,0c-0.8,2.9-2.3,5-4.8,6.1C366.2,376.1,368.1,373.4,370.3,373.4z"/>
			<path class="st22" d="M365.9,379.6c0,0.3-0.1,0.7-0.1,1h-5.5C362.6,380.6,364.5,380.3,365.9,379.6z"/>
			<polygon class="st22" points="356.1,294.5 357.3,311.1 345,317.6 350.3,303.1 350.3,303.1 354.6,291.4 			"/>
			<polygon class="st23" points="356.1,294.5 354.6,291.4 355.6,288.5 			"/>
			<path class="st21" d="M355.6,288.5L355.6,288.5l-1.1,3l-4.2,11.6l-6.4-10.9c-6.2-10.3-7.4-10-15.6-10h-16.6v-14.6h21.9
				c8.1,0,9.4-0.3,15.6,10L355.6,288.5z"/>
			<polygon class="st21" points="354.6,291.4 350.3,303.1 350.3,303.1 			"/>
			<path class="st24" d="M341.3,499.6c6.8,0,12.3,8.9,12.3,19.8c0,10.9-5.5,19.8-12.3,19.8H101.8c-6.8,0-12.3-8.9-12.3-19.8
				c0-10.9,5.5-19.8,12.3-19.8h5.1l11.5,16.3l11.5-16.3h31.5v0l80.3,17.5l83.9-17.5H341.3z"/>
			<path class="st24" d="M343.9,292.2l6.4,10.9l-5.3,14.6l-3.9-7c-3.2-5.5-4.9-10.6-10.2-10.6h-19.2v-17.8h16.6
				C336.5,282.2,337.7,281.9,343.9,292.2z"/>
			<path class="st22" d="M340.8,116.4v14.7c0,6.3-3.2,11.4-7,11.4H130l-11.4-8.3l-11.7,8.3H96.6c-3.8,0-7-5.1-7-11.4v-14.7
				c0-14.4,7.3-26.1,16.1-26.1h219C333.6,90.4,340.8,102.1,340.8,116.4z"/>
			<path class="st20" d="M325.6,481.4v18.2h-13.9h-1.2v-18.2c0-6.7-2.3-12.6-5.6-15.7l6.8-2.4h2.7
				C320.6,463.3,325.6,471.4,325.6,481.4z"/>
			<polygon class="st24" points="325.6,499.6 241.8,517 161.5,499.6 173,499.6 310.6,499.6 311.7,499.6 			"/>
			<path class="st25" d="M311.7,434.2v29h-12.4H298v-30.7v-193v-18.2c0-14.8-7.5-27-16.7-27h13.8c9.2,0,16.7,12.1,16.7,27v46.2
				l-6,13.6l6,18.8v120c-2.1,0.6-3.7,3.5-3.7,7.1S309.7,433.6,311.7,434.2z"/>
			<path class="st25" d="M311.7,427.1v7.1c-2.1-0.6-3.7-3.5-3.7-7.1s1.6-6.5,3.7-7.1V427.1z"/>
			<polygon class="st25" points="311.7,282.2 311.7,300 305.8,281.2 311.7,267.6 			"/>
			<path class="st23" d="M311.7,463.3l-6.8,2.4c0,0,0,0,0,0c-1.7-1.5-3.6-2.4-5.6-2.4H311.7z"/>
			<path class="st22" d="M310.6,481.4v18.2H173h-11.4v-18.2c0-10,5.1-18.2,11.2-18.2h0.2l70.6,24.2l61.4-21.8
				C308.3,468.8,310.6,474.7,310.6,481.4z"/>
			<path class="st22" d="M304.9,465.7l-61.4,21.8L173,463.3h125h1.3C301.4,463.3,303.3,464.1,304.9,465.7
				C304.9,465.7,304.9,465.7,304.9,465.7z"/>
			<path class="st26" d="M298,432.5v30.7H173V221.4c0-14.8,7.5-27,16.7-27h91.7c9.2,0,16.7,12.1,16.7,27v18.2V432.5z M290.5,315.5
				v-75.9c0-3.6-1.2-6.9-3-8.6c-0.9-0.9-2-1.5-3.2-1.5h-29.4h-20.2h-30.6c-1.2,0-2.3,0.5-3.3,1.5c-1.8,1.8-3,5-3,8.6v9.3v66.7
				c0,5.5,2.8,10.1,6.3,10.1h35.6h9.5h30.1h5C287.7,325.6,290.5,321.1,290.5,315.5z M284.4,361.2c0-4-2-7.2-4.5-7.2h-22.8
				c-2.5,0-4.5,3.2-4.5,7.2c0,4,2,7.2,4.5,7.2h22.8C282.4,368.4,284.4,365.2,284.4,361.2z M284.4,395.6c0-4-2-7.2-4.5-7.2h-22.8
				c-2.5,0-4.5,3.2-4.5,7.2c0,4,2,7.2,4.5,7.2h22.8C282.4,402.8,284.4,399.6,284.4,395.6z M236.1,361.2c0-4-2-7.2-4.5-7.2h-22.8
				c-2.5,0-4.5,3.2-4.5,7.2c0,4,2,7.2,4.5,7.2h22.8C234.1,368.4,236.1,365.2,236.1,361.2z M236.1,395.6c0-4-2-7.2-4.5-7.2h-22.8
				c-2.5,0-4.5,3.2-4.5,7.2c0,4,2,7.2,4.5,7.2h22.8C234.1,402.8,236.1,399.6,236.1,395.6z"/>
			<path class="st27" d="M290.5,239.6v75.9c0,5.5-2.8,10.1-6.3,10.1h-5v-71.4c0-3.8-0.4-5.3-3.9-5.3h-77.5v-9.3c0-3.6,1.2-6.9,3-8.6
				c0.9-0.9,2.1-1.5,3.3-1.5h80.1c1.2,0,2.3,0.5,3.2,1.5C289.3,232.7,290.5,235.9,290.5,239.6z"/>
			<path class="st27" d="M284.3,229.5c1.2,0,2.3,0.5,3.2,1.5C286.6,230,285.5,229.5,284.3,229.5l-80.1,0c-1.2,0-2.3,0.5-3.3,1.5
				c0.9-0.9,2.1-1.5,3.3-1.5h30.6h20.2H284.3z"/>
			<path class="st21" d="M279.9,354c2.5,0,4.5,3.2,4.5,7.2c0,4-2,7.2-4.5,7.2h-22.8c-2.5,0-4.5-3.2-4.5-7.2c0-4,2-7.2,4.5-7.2H279.9
				z"/>
			<path class="st21" d="M279.9,388.4c2.5,0,4.5,3.2,4.5,7.2c0,4-2,7.2-4.5,7.2h-22.8c-2.5,0-4.5-3.2-4.5-7.2c0-4,2-7.2,4.5-7.2
				H279.9z"/>
			<path class="st28" d="M279.3,254.2v71.4h-30.1l13.4-42.6c1.1-3.5,0.2-7.9-2-9.7c-2.2-1.8-4.9-0.4-6,3.1l-14.4,45.9
				c-0.3,1.1-0.5,2.2-0.5,3.3h-35.6c-3.5,0-6.3-4.6-6.3-10.1v-66.7h77.5C278.9,248.8,279.3,250.4,279.3,254.2z"/>
			<path class="st21" d="M260.7,273.3c2.2,1.8,3.1,6.1,2,9.7l-13.4,42.6h-9.5c0-1.1,0.1-2.2,0.5-3.3l14.4-45.9
				C255.8,272.9,258.5,271.5,260.7,273.3z"/>
			<path class="st21" d="M231.6,354c2.5,0,4.5,3.2,4.5,7.2c0,4-2,7.2-4.5,7.2h-22.8c-2.5,0-4.5-3.2-4.5-7.2c0-4,2-7.2,4.5-7.2H231.6
				z"/>
			<path class="st21" d="M231.6,388.4c2.5,0,4.5,3.2,4.5,7.2c0,4-2,7.2-4.5,7.2h-22.8c-2.5,0-4.5-3.2-4.5-7.2c0-4,2-7.2,4.5-7.2
				H231.6z"/>
			<rect x="118.5" y="142.5" class="st25" width="11.5" height="357.1"/>
			<polygon class="st24" points="130,499.6 118.5,515.9 107,499.6 118.5,499.6 			"/>
			<polygon class="st22" points="130,142.5 118.5,142.5 107,142.5 118.7,134.2 			"/>
			<rect x="107" y="142.5" class="st26" width="11.5" height="357.1"/>
		</g>
		<g>
		</g>
	</g>
</g>
</svg>
