<?xml version="1.0" encoding="utf-8"?>
<!-- Generator: Adobe Illustrator 22.0.1, SVG Export Plug-In . SVG Version: 6.00 Build 0)  -->
<svg version="1.1" id="_x31_c04cb57-5b83-4fe5-b665-05639f110a33"
	 xmlns="http://www.w3.org/2000/svg" xmlns:xlink="http://www.w3.org/1999/xlink" x="0px" y="0px" viewBox="0 0 1134 812.3"
	 style="enable-background:new 0 0 1134 812.3;" xml:space="preserve">
<style type="text/css">
	.st0{opacity:0.1;fill:#6C63FF;enable-background:new    ;}
	.st1{fill:#6C63FF;}
	.st2{opacity:0.2;enable-background:new    ;}
	.st3{fill:#636780;}
	.st4{opacity:0.4;enable-background:new    ;}
	.st5{opacity:0.2;fill:#FFFFFF;enable-background:new    ;}
	.st6{opacity:0.1;fill:#FFFFFF;enable-background:new    ;}
	.st7{opacity:0.1;enable-background:new    ;}
	.st8{fill:#DCE0ED;}
	.st9{fill:#F0F0F4;}
	.st10{fill:none;}
	.st11{fill:#FFFFFF;}
	.st12{fill:#A8A8A8;}
	.st13{opacity:0.1;}
	.st14{fill:url(#SVGID_1_);}
	.st15{opacity:5.000000e-02;enable-background:new    ;}
	.st16{opacity:3.000000e-02;enable-background:new    ;}
	.st17{fill:#CC8294;}
	.st18{fill:#4B4B5B;}
	.st19{opacity:0.3;fill:#FFFFFF;enable-background:new    ;}
</style>
<title>city driver</title>
<ellipse class="st0" cx="600" cy="793.4" rx="170.7" ry="18.9"/>
<path class="st0" d="M1079.2,551.2c-26.6,54.8-80.5,91.5-136.4,115.6c-75.3,32.5-158.2,45.5-239.9,40c-14.3-0.9-28.6-2.5-42.8-4.6
	c-49.5-7.2-97.7-21.3-143.3-41.8c-13.1-5.9-26-12.4-38.7-19.4c-21.1-11.7-41.3-24.9-60.5-39.5c-4.8-3.7-9.6-7.5-14.3-11.3
	c-3.3-2.7-6.5-5.4-9.7-8.1c-6.9-5.6-14-10.9-21.9-14.9c-2.4-1.2-4.8-2.3-7.3-3.2c-25.1-9.5-54-5.9-80.1,1.5
	c-19.8,5.6-39.2,13.4-59,18.9c-8.8,2.5-17.8,4.4-26.9,5.7c-20.3,2.6-40.9,0.8-60.5-5.3l-1.7-0.5c-2.8-0.9-5.6-1.8-8.3-2.9l-1.7-0.6
	c-2.7-1-5.3-2.1-7.8-3.3l-1.7-0.8c-2.7-1.2-5.3-2.5-7.8-3.9c-0.9-0.5-1.8-1-2.7-1.5c-14.5-8.1-27.7-18.4-39.2-30.5
	c-0.3-0.3-0.6-0.7-1-1c-1.6-1.7-3.2-3.5-4.7-5.3c-0.6-0.7-1.1-1.3-1.7-2c-1.8-2.2-3.5-4.4-5.2-6.7c-0.3-0.3-0.5-0.7-0.7-1
	c-6.8-9.4-12.5-19.7-16.9-30.5c-0.1-0.3-0.3-0.7-0.4-1c-1.3-3.4-2.5-6.9-3.7-10.5c-0.4-1.5-0.9-3-1.3-4.5c-0.1-0.4-0.3-0.9-0.4-1.3
	c-5.5-21.7-6.1-44.3-6.1-66.8c0-2.6,0-5.2,0-7.9c0.2-36.3,0.7-73.3,6.1-109.1c0-0.3,0.1-0.5,0.1-0.7c1.8-12.1,4.2-24,7.3-35.8
	c3.2-12.4,7.3-24.5,12.3-36.3c12.3-29,30.3-55.4,50.2-79.9C151.1,79.2,216.9,27.5,293.8,8.2C376.8-12.7,469,7.3,535.9,60.6
	c20.4,16.2,38.7,35.5,61.6,47.9c20,10.8,43.4,15.3,64.8,6.8c17.7-7,29.2-10.6,49.1-9.5c41.2,2.3,81.7,10.8,120.4,25.2
	c1.6,0.6,3.1,1.2,4.7,1.8c100.7,38.6,187.3,115.1,232.3,213.5c1.2,2.6,2.3,5.2,3.5,7.9C1099.1,416.7,1108.8,490.2,1079.2,551.2z"/>
<path class="st0" d="M225.2,205.3v379.2c-8.8,2.5-17.8,4.4-26.9,5.7c-20.3,2.6-40.9,0.8-60.5-5.3l-1.7-0.5c-2.8-0.9-5.6-1.8-8.3-2.9
	l-1.7-0.6c-2.7-1-5.3-2.1-7.8-3.3l-1.7-0.8c-2.7-1.2-5.3-2.5-7.8-3.9c-0.9-0.5-1.8-1-2.7-1.5c-14.5-8.1-27.7-18.4-39.2-30.5
	c-0.3-0.3-0.6-0.7-1-1c-1.6-1.7-3.2-3.5-4.7-5.3c-0.6-0.7-1.1-1.3-1.7-2c-1.8-2.2-3.5-4.4-5.2-6.7c-0.3-0.3-0.5-0.7-0.7-1
	c-6.8-9.4-12.5-19.7-16.9-30.5c-0.1-0.3-0.3-0.7-0.4-1c-1.3-3.4-2.5-6.9-3.7-10.5c-0.4-1.5-0.9-3-1.3-4.5c-0.1-0.4-0.3-0.9-0.4-1.3
	c-5.5-21.7-6.1-44.3-6.1-66.8c0-2.6,0-5.2,0-7.9c0.2-36.3,0.7-73.3,6.1-109.1c0-0.3,0.1-0.5,0.1-0.7c1.8-12.1,4.2-24,7.3-35.8h102.1
	v-51.5H161v-41.4h43.8v41.4H225.2z"/>
<path class="st0" d="M1079.2,551.2c-26.6,54.8-80.5,91.5-136.4,115.6c-75.3,32.5-158.2,45.5-239.9,40c-14.3-0.9-28.6-2.5-42.8-4.6
	c-49.5-7.2-97.7-21.3-143.3-41.8c-13.1-5.9-26-12.4-38.7-19.4c-21.1-11.7-41.3-24.9-60.5-39.5c-4.8-3.7-9.6-7.5-14.3-11.3
	c-3.3-2.7-6.5-5.4-9.7-8.1c-6.9-5.6-14-10.9-21.9-14.9c-2.4-1.2-4.8-2.3-7.3-3.2V408.9h185.6v34.5h81.5V190.8h95.9v101h47.4V232
	h39.2v-63.9h18v-37.2c1.6,0.6,3.1,1.2,4.7,1.8v35.5H854v63.9h39.2v59.8h57.7v227.8h91.8V354h29.6
	C1099.1,416.7,1108.8,490.2,1079.2,551.2z"/>
<rect x="660" y="228.8" class="st0" width="42.8" height="42.9"/>
<rect x="660" y="317.7" class="st0" width="42.8" height="42.9"/>
<rect x="660" y="406.5" class="st0" width="42.8" height="42.9"/>
<rect x="660" y="495.3" class="st0" width="42.8" height="42.8"/>
<rect x="660" y="584.2" class="st0" width="42.8" height="42.8"/>
<path class="st0" d="M702.8,673v33.8c-14.3-0.9-28.6-2.5-42.8-4.6V673H702.8z"/>
<rect x="378.4" y="464.3" class="st0" width="150" height="19.4"/>
<rect x="378.4" y="523.2" class="st0" width="150" height="19.4"/>
<path class="st0" d="M528.4,582.2v19.4H417.6c-4.8-3.7-9.6-7.5-14.3-11.3c-3.3-2.7-6.5-5.4-9.7-8.1H528.4z"/>
<path class="st0" d="M528.4,641.2v19.4h-11.7c-13.1-6-26-12.4-38.7-19.4H528.4z"/>
<rect x="774.4" y="344.9" class="st0" width="27.9" height="27.9"/>
<rect x="170.4" y="214.9" class="st0" width="27.9" height="27.9"/>
<rect x="170.4" y="279.7" class="st0" width="27.9" height="27.9"/>
<rect x="170.4" y="344.5" class="st0" width="27.9" height="27.9"/>
<rect x="170.4" y="409.3" class="st0" width="27.9" height="27.9"/>
<rect x="170.4" y="474.1" class="st0" width="27.9" height="27.9"/>
<rect x="170.4" y="538.9" class="st0" width="27.9" height="27.9"/>
<rect x="880.9" y="344.9" class="st0" width="27.9" height="27.9"/>
<rect x="774.4" y="413.7" class="st0" width="27.9" height="27.9"/>
<rect x="880.9" y="413.7" class="st0" width="27.9" height="27.9"/>
<rect x="774.4" y="482.5" class="st0" width="27.9" height="27.9"/>
<rect x="880.9" y="482.5" class="st0" width="27.9" height="27.9"/>
<rect x="774.4" y="551.3" class="st0" width="27.9" height="27.9"/>
<rect x="880.9" y="551.3" class="st0" width="27.9" height="27.9"/>
<rect x="774.4" y="620.1" class="st0" width="27.9" height="27.9"/>
<rect x="880.9" y="620.1" class="st0" width="27.9" height="27.9"/>
<polygon class="st0" points="774.4,706.9 774.4,688.9 802.3,688.9 802.3,704.3 "/>
<path class="st0" d="M31.1,292.6v16h106.7v-16H31.1z M40.6,307.6h-7.8v-14h7.8L40.6,307.6z M50.1,307.6h-7.8v-14h7.8L50.1,307.6z
	 M59.6,307.6h-7.8v-14h7.8L59.6,307.6z M69.1,307.6h-7.8v-14h7.8V307.6z M78.6,307.6h-7.8v-14h7.8V307.6z M88.1,307.6h-7.8v-14h7.8
	V307.6z M97.6,307.6h-7.8v-14h7.8V307.6z M107.1,307.6h-7.8v-14h7.8V307.6z M116.6,307.6h-7.8v-14h7.8V307.6z M126.1,307.6h-7.8v-14
	h7.8V307.6z M136.1,307.6h-8.3v-14h8.3V307.6z"/>
<path class="st0" d="M31.1,339.1v16h106.7v-16H31.1z M40.6,354.1h-7.8v-14h7.8L40.6,354.1z M50.1,354.1h-7.8v-14h7.8L50.1,354.1z
	 M59.6,354.1h-7.8v-14h7.8L59.6,354.1z M69.1,354.1h-7.8v-14h7.8V354.1z M78.6,354.1h-7.8v-14h7.8V354.1z M88.1,354.1h-7.8v-14h7.8
	V354.1z M97.6,354.1h-7.8v-14h7.8V354.1z M107.1,354.1h-7.8v-14h7.8V354.1z M116.6,354.1h-7.8v-14h7.8V354.1z M126.1,354.1h-7.8v-14
	h7.8V354.1z M136.1,354.1h-8.3v-14h8.3V354.1z"/>
<path class="st0" d="M31.1,385.6v16h106.7v-16H31.1z M40.6,400.5h-7.8v-14h7.8L40.6,400.5z M50.1,400.5h-7.8v-14h7.8L50.1,400.5z
	 M59.6,400.5h-7.8v-14h7.8L59.6,400.5z M69.1,400.5h-7.8v-14h7.8V400.5z M78.6,400.5h-7.8v-14h7.8V400.5z M88.1,400.5h-7.8v-14h7.8
	V400.5z M97.6,400.5h-7.8v-14h7.8V400.5z M107.1,400.5h-7.8v-14h7.8V400.5z M116.6,400.5h-7.8v-14h7.8V400.5z M126.1,400.5h-7.8v-14
	h7.8V400.5z M136.1,400.5h-8.3v-14h8.3V400.5z"/>
<path class="st0" d="M31.1,432v16h106.7v-16H31.1z M40.6,447h-7.8v-14h7.8L40.6,447z M50.1,447h-7.8v-14h7.8L50.1,447z M59.6,447
	h-7.8v-14h7.8L59.6,447z M69.1,447h-7.8v-14h7.8V447z M78.6,447h-7.8v-14h7.8V447z M88.1,447h-7.8v-14h7.8V447z M97.6,447h-7.8v-14
	h7.8V447z M107.1,447h-7.8v-14h7.8V447z M116.6,447h-7.8v-14h7.8V447z M126.1,447h-7.8v-14h7.8V447z M136.1,447h-8.3v-14h8.3V447z"
	/>
<path class="st0" d="M31.5,478.4c0.4,1.5,0.8,3,1.3,4.5v-3.5h7.8v14h-4.2c0.1,0.3,0.3,0.7,0.4,1h101v-16H31.5z M50.1,493.4h-7.8v-14
	h7.8L50.1,493.4z M59.6,493.4h-7.8v-14h7.8L59.6,493.4z M69.1,493.4h-7.8v-14h7.8V493.4z M78.6,493.4h-7.8v-14h7.8V493.4z
	 M88.1,493.4h-7.8v-14h7.8V493.4z M97.6,493.4h-7.8v-14h7.8V493.4z M107.1,493.4h-7.8v-14h7.8V493.4z M116.6,493.4h-7.8v-14h7.8
	V493.4z M126.1,493.4h-7.8v-14h7.8V493.4z M136.1,493.4h-8.3v-14h8.3V493.4z"/>
<path class="st0" d="M53.7,524.9c0.2,0.3,0.5,0.7,0.7,1h5.2v6.7c0.6,0.7,1.1,1.3,1.7,2v-8.7h7.8v14h-3.2c0.3,0.3,0.6,0.7,1,1h70.9
	v-16L53.7,524.9z M78.6,539.9h-7.8v-14h7.8V539.9z M88.1,539.9h-7.8v-14h7.8V539.9z M97.6,539.9h-7.8v-14h7.8V539.9z M107.1,539.9
	h-7.8v-14h7.8V539.9z M116.6,539.9h-7.8v-14h7.8V539.9z M126.1,539.9h-7.8v-14h7.8V539.9z M136.1,539.9h-8.3v-14h8.3V539.9z"/>
<path class="st0" d="M106,571.3c0.9,0.5,1.8,1,2.7,1.5v-0.5h7.8v4.4l1.7,0.8v-5.2h7.8v8.5l1.7,0.6v-9.1h8.3v12l1.7,0.5v-13.5H106z"
	/>
<path class="st0" d="M434.9,154.2c0,0-23.8-1.4-21,15.3c-0.3,1.7,0.6,3.5,2.1,4.3c0,0,0-1.2,2.5-0.8c0.9,0.1,1.7,0.2,2.6,0.1
	c1.2-0.1,2.3-0.5,3.2-1.3l0,0c0,0,6.7-2.8,9.3-13.7c0,0,1.9-2.4,1.9-3l-4,1.7c0,0,1.4,2.9,0.3,5.3c0,0-0.1-5.2-0.9-5.1
	c-0.2,0-2.1,1-2.1,1s2.4,5.1,0.6,8.7c0,0,0.7-6.2-1.3-8.4l-2.8,1.6c0,0,2.8,5.2,0.9,9.5c0,0,0.5-6.5-1.5-9.1l-2.6,2
	c0,0,2.6,5.1,1,8.7c0,0-0.2-7.6-1.6-8.2c-1,0.8-1.8,1.8-2.6,2.8c0,0,1.8,3.7,0.7,5.7c0,0-0.7-5.1-1.2-5.1c0,0-2.2,3.4-2.5,5.7
	c0.1-2.1,0.8-4.2,1.9-6c-1.3,0.2-2.5,0.9-3.4,1.8c0,0,0.4-2.4,4-2.6c0,0,1.9-2.6,2.3-2.7c0,0-3.6-0.3-5.8,0.7c0,0,1.9-2.2,6.5-1.2
	l2.5-2.1c0,0-4.8-0.7-6.8,0c0,0,2.3-2,7.5-0.5l2.8-1.6c-2.1-0.5-4.3-0.7-6.5-0.6c0,0,2.5-1.4,7.3,0.1l2-0.9c0,0-3-0.6-3.8-0.7
	s-0.9-0.3-0.9-0.3c1.9-0.3,3.8-0.1,5.6,0.6C430.8,156,435,154.4,434.9,154.2z"/>
<path class="st0" d="M372.4,235.4c0,0-8.1,22.5,8.7,24.5c1.6,0.8,3.5,0.4,4.7-0.8c0,0-1.2-0.4-0.1-2.6c0.4-0.8,0.7-1.6,0.9-2.5
	c0.3-1.1,0.1-2.3-0.4-3.4l0,0c0,0-0.8-7.2-10.5-12.8c0,0-1.7-2.5-2.4-2.6l0.5,4.3c0,0,3.2-0.5,5.2,1.2c0,0-5-1.4-5.1-0.6
	c0,0.2,0.4,2.3,0.4,2.3s5.5-0.8,8.5,1.9c0,0-5.8-2.4-8.4-1.1l0.8,3.2c0,0,5.8-1.2,9.4,1.8c0,0-6.1-2.3-9.1-1.1l1.2,3
	c0,0,5.7-1,8.6,1.5c0,0-7.4-2-8.3-0.8c0.5,1.2,1.2,2.3,1.9,3.3c0,0,4.1-0.6,5.7,1c0,0-5-0.8-5.2-0.3c0,0,2.6,3.1,4.7,4
	c-2-0.7-3.8-1.9-5.2-3.5c-0.1,1.3,0.1,2.6,0.7,3.8c0,0-2.2-1-1.3-4.5c0,0-1.9-2.5-1.9-3c0,0-1.3,3.4-1,5.7c0,0-1.6-2.5,0.7-6.5
	l-1.3-3c0,0-2,4.4-1.9,6.5c0,0-1.2-2.8,1.6-7.3l-0.8-3.1c-1,1.9-1.8,3.9-2.4,6c0,0-0.6-2.8,2.2-6.9l-0.3-2.1c0,0-1.4,2.7-1.7,3.5
	s-0.6,0.8-0.6,0.8c0.2-1.9,1-3.7,2.2-5.2C373,239.9,372.6,235.4,372.4,235.4z"/>
<path class="st0" d="M530.4,216.5c0,0-8.2,22.4,8.7,24.5c1.6,0.8,3.5,0.5,4.7-0.8c0,0-1.2-0.4-0.1-2.6c0.4-0.8,0.7-1.6,0.9-2.4
	c0.3-1.1,0.1-2.3-0.4-3.4l0,0c0,0-0.8-7.2-10.5-12.8c0,0-1.7-2.5-2.3-2.6l0.5,4.4c0,0,3.2-0.5,5.2,1.2c0,0-5-1.4-5.1-0.6
	c0,0.2,0.4,2.3,0.4,2.3s5.5-0.8,8.5,1.9c0,0-5.8-2.4-8.4-1.1l0.8,3.2c0,0,5.8-1.2,9.3,1.8c0,0-6.1-2.3-9.1-1.1l1.2,3
	c0,0,5.7-1,8.6,1.5c0,0-7.4-2-8.3-0.8c0.5,1.2,1.2,2.3,1.9,3.3c0,0,4.1-0.6,5.7,1c0,0-5-0.8-5.2-0.3c0,0,2.6,3.1,4.7,4
	c-2-0.7-3.8-1.9-5.2-3.5c-0.1,1.3,0.1,2.6,0.7,3.8c0,0-2.2-1-1.3-4.5c0,0-1.9-2.5-1.9-3c0,0-1.3,3.4-1,5.8c0,0-1.6-2.5,0.7-6.5
	l-1.3-3c0,0-2,4.4-1.9,6.5c0,0-1.2-2.8,1.6-7.3l-0.8-3.1c-1,1.9-1.8,3.9-2.4,6c0,0-0.6-2.8,2.2-6.9l-0.3-2.1c0,0-1.4,2.7-1.7,3.5
	s-0.6,0.8-0.6,0.8c0.2-1.9,1-3.7,2.2-5.2C531,221,530.7,216.5,530.4,216.5z"/>
<path class="st0" d="M304.5,400c0,0-8.1,22.5,8.7,24.5c1.6,0.8,3.5,0.5,4.7-0.8c0,0-1.2-0.4-0.1-2.6c0.4-0.8,0.7-1.6,0.9-2.5
	c0.3-1.1,0.1-2.3-0.4-3.4l0,0c0,0-0.8-7.2-10.5-12.8c0,0-1.8-2.5-2.4-2.6l0.5,4.4c0,0,3.2-0.5,5.2,1.2c0,0-5-1.4-5.1-0.6
	c0,0.2,0.4,2.3,0.4,2.3s5.5-0.8,8.5,1.9c0,0-5.8-2.4-8.4-1.1l0.8,3.2c0,0,5.8-1.2,9.3,1.8c0,0-6.1-2.3-9.1-1.1l1.2,3
	c0,0,5.7-1,8.6,1.5c0,0-7.4-2-8.3-0.8c0.5,1.2,1.2,2.3,2,3.3c0,0,4.1-0.6,5.7,1c0,0-5-0.8-5.2-0.3c0,0,2.6,3.1,4.7,4
	c-2-0.7-3.8-1.9-5.2-3.5c-0.1,1.3,0.1,2.6,0.7,3.8c0,0-2.2-1-1.3-4.5c0,0-1.9-2.5-1.9-3c0,0-1.3,3.4-1,5.8c0,0-1.6-2.5,0.7-6.5
	l-1.3-3c0,0-2,4.4-1.9,6.5c0,0-1.2-2.8,1.6-7.3l-0.8-3.1c-1,1.9-1.8,3.9-2.4,6c0,0-0.6-2.8,2.2-6.9l-0.3-2.1c0,0-1.4,2.7-1.7,3.5
	s-0.6,0.8-0.6,0.8c0.2-1.9,1-3.7,2.2-5.2C305.1,404.4,304.8,400,304.5,400z"/>
<path class="st0" d="M272.2,188.4c0,0-8.1,22.4,8.7,24.5c1.6,0.8,3.5,0.4,4.7-0.8c0,0-1.2-0.4-0.1-2.6c0.4-0.8,0.7-1.6,0.9-2.4
	c0.3-1.1,0.1-2.3-0.4-3.4l0,0c0,0-0.8-7.2-10.5-12.8c0,0-1.7-2.5-2.4-2.6l0.5,4.3c0,0,3.2-0.5,5.2,1.2c0,0-5-1.4-5.1-0.6
	c0,0.2,0.4,2.3,0.4,2.3s5.5-0.8,8.5,1.9c0,0-5.8-2.4-8.4-1.1l0.8,3.2c0,0,5.8-1.2,9.3,1.8c0,0-6.1-2.3-9.1-1.2l1.2,3
	c0,0,5.7-1,8.6,1.5c0,0-7.4-2-8.3-0.8c0.5,1.2,1.2,2.3,2,3.3c0,0,4.1-0.6,5.7,1c0,0-5-0.8-5.2-0.3c0,0,2.6,3.1,4.7,4
	c-2-0.7-3.8-1.9-5.2-3.5c-0.1,1.3,0.1,2.6,0.7,3.8c0,0-2.2-1-1.4-4.5c0,0-1.9-2.5-1.9-3c0,0-1.3,3.4-1,5.8c0,0-1.6-2.5,0.7-6.5
	l-1.3-3c0,0-2,4.4-1.9,6.5c0,0-1.2-2.8,1.6-7.3l-0.8-3.1c-1,1.9-1.8,3.9-2.4,6c0,0-0.6-2.8,2.2-6.9l-0.3-2.1c0,0-1.4,2.7-1.7,3.5
	s-0.6,0.8-0.6,0.8c0.2-1.9,1-3.7,2.2-5.2C272.8,192.8,272.4,188.4,272.2,188.4z"/>
<path class="st0" d="M332.6,310.6c0,0,6.3,23,21.2,15c1.7-0.3,3.1-1.6,3.4-3.4c0,0-1.2,0.4-1.6-2c-0.1-0.9-0.4-1.7-0.7-2.5
	c-0.5-1.1-1.2-2-2.3-2.6l0,0c0,0-4.8-5.5-16-4.4c0,0-2.9-1.1-3.4-0.8l2.9,3.3c0,0,2.3-2.2,4.9-2c0,0-4.9,1.8-4.5,2.5
	c0.1,0.1,1.6,1.7,1.6,1.7s4-3.9,8.1-3.4c0,0-6.1,1.4-7.5,3.9l2.5,2.2c0,0,4-4.3,8.7-3.9c0,0-6.3,1.6-8.1,4.3l2.7,1.8
	c0,0,4-4.1,7.9-3.8c0,0-7.1,2.6-7.2,4.1c1.1,0.7,2.3,1.2,3.5,1.6c0,0,3-2.9,5.2-2.5c0,0-4.6,2.3-4.4,2.8c0,0,3.9,1,6.1,0.5
	c-2,0.6-4.2,0.6-6.3,0.1c0.6,1.1,1.6,2.1,2.8,2.7c0,0-2.4,0.4-3.7-2.9c0,0-3-0.9-3.3-1.4c0,0,0.9,3.5,2.5,5.3c0,0-2.7-1.1-3.2-5.7
	l-2.8-1.7c0,0,0.9,4.7,2.2,6.4c0,0-2.6-1.6-2.9-6.9l-2.5-2.1c0.2,2.2,0.8,4.3,1.5,6.3c0,0-2.1-2-2.2-6.9l-1.5-1.6c0,0,0.4,3,0.6,3.9
	s0,1,0,1c-0.9-1.7-1.3-3.6-1.2-5.5C335.6,313.9,332.8,310.4,332.6,310.6z"/>
<path class="st0" d="M503.2,331.2c0,0,6.3,23,21.2,15c1.7-0.3,3.1-1.6,3.4-3.4c0,0-1.2,0.4-1.6-2c-0.1-0.9-0.4-1.7-0.7-2.5
	c-0.5-1.1-1.2-2-2.3-2.6l0,0c0,0-4.8-5.5-16-4.4c0,0-2.9-1.1-3.4-0.8l2.9,3.3c0,0,2.3-2.2,4.9-2c0,0-4.9,1.8-4.5,2.5
	c0.1,0.1,1.6,1.6,1.6,1.6s4-3.9,8.1-3.4c0,0-6.1,1.4-7.5,3.9l2.5,2.2c0,0,4.1-4.3,8.7-3.9c0,0-6.3,1.6-8.1,4.3l2.7,1.8
	c0,0,4-4.1,7.9-3.8c0,0-7.1,2.6-7.3,4.1c1.1,0.7,2.3,1.2,3.5,1.5c0,0,3-2.9,5.2-2.5c0,0-4.6,2.3-4.4,2.8c0,0,3.9,1,6.2,0.5
	c-2,0.6-4.2,0.6-6.3,0.1c0.6,1.1,1.6,2.1,2.8,2.7c0,0-2.4,0.4-3.7-2.9c0,0-3-0.9-3.3-1.4c0,0,0.9,3.5,2.5,5.3c0,0-2.7-1.1-3.2-5.7
	l-2.8-1.7c0,0,0.9,4.7,2.2,6.4c0,0-2.6-1.6-2.9-6.9l-2.4-2.1c0.2,2.2,0.8,4.3,1.5,6.3c0,0-2.1-2-2.2-6.9l-1.5-1.6c0,0,0.4,3,0.6,3.9
	s0,1,0,1c-0.9-1.7-1.3-3.6-1.2-5.5C506.3,334.5,503.5,331,503.2,331.2z"/>
<polygon class="st1" points="923,672 933,682.7 949,654.5 947.6,651.4 "/>
<polygon class="st2" points="923,672 933,682.7 949,654.5 947.6,651.4 "/>
<path class="st3" d="M215.1,647.9c0,53.4-36.6,64.7-73.2,64.7s-57.3-45-57.3-98.4s29.7-96.7,66.4-96.7S215.1,594.5,215.1,647.9z"/>
<path class="st2" d="M215.1,647.9c0,53.4-36.6,64.7-73.2,64.7s-57.3-45-57.3-98.4s29.7-96.7,66.4-96.7S215.1,594.5,215.1,647.9z"/>
<path class="st3" d="M189.7,616c0,53.4-23.5,96.7-52.6,96.7S83.4,669.4,83.4,616c0-7.4-1.1-14.6-0.3-21.5c5.3-43.1,29-75.2,54-75.2
	C166.2,519.3,189.7,562.6,189.7,616z"/>
<path class="st1" d="M184.5,380.6c0,0-46.1,51.7-60.7,94.8l398,43.9L735,475.3c0,0-84.4-101.2-107.3-105.1S184.5,380.6,184.5,380.6z
	"/>
<path class="st4" d="M184.5,380.6c0,0-46.1,51.7-60.7,94.8l398,43.9L735,475.3c0,0-84.4-101.2-107.3-105.1S184.5,380.6,184.5,380.6z
	"/>
<polygon class="st1" points="476.5,512.1 540.4,691.3 540.4,645.9 558.2,595.1 607.5,573.3 669.9,601.7 692.3,608.7 694.2,567.3 
	619.9,530.7 585.4,514.1 506.2,507.2 484.4,503.3 "/>
<path class="st1" d="M505,530.7l58.1,6.7c-2.6-23.2,14.6-23.2,14.6-23.2l-58.1-10.1h-27.1"/>
<path class="st3" d="M540.4,718.8h41.2l119.3-4c0,0,2.6,22.8,34,17.4c0,0,17.3,1.1,19.2-8.3s-39.4-96.3-39.4-96.3l-56.3-42l-51-12.4
	l-36.6,10.8l-23.3,37l-14.6,50.7L540.4,718.8z"/>
<path class="st2" d="M540.4,718.8h41.2l119.3-4c0,0,2.6,22.8,34,17.4c0,0,17.3,1.1,19.2-8.3s-39.4-96.3-39.4-96.3l-56.3-42l-51-12.4
	l-36.6,10.8l-23.3,37l-14.6,50.7L540.4,718.8z"/>
<path class="st1" d="M192.5,393c-5.9,4.8-24.5,22.1-40.1,58.7c-1.9,4.5,0.2,9.7,4.6,11.6c0.8,0.3,1.5,0.5,2.4,0.6L253,476
	c7.1,0.9,13.8-3.7,15.6-10.7l16.5-67.1c0.9-3.6-1.3-7.2-4.9-8.1c-0.6-0.1-1.2-0.2-1.7-0.2l-81.8,1.5
	C195.1,391.5,193.7,392,192.5,393z"/>
<path class="st5" d="M192.5,393c-5.9,4.8-24.5,22.1-40.1,58.7c-1.9,4.5,0.2,9.7,4.6,11.6c0.8,0.3,1.5,0.5,2.4,0.6L253,476
	c7.1,0.9,13.8-3.7,15.6-10.7l16.5-67.1c0.9-3.6-1.3-7.2-4.9-8.1c-0.6-0.1-1.2-0.2-1.7-0.2l-81.8,1.5
	C195.1,391.5,193.7,392,192.5,393z"/>
<path class="st1" d="M328.5,389.8l105.4-1c7.6-0.1,14.4,5,17,12.7l32.9,74.6c2.9,8.7-3.4,17.8-12,17.3l-153.8-10.1
	c-12.8-0.7-21.8-13.8-18.8-27.2l11.1-50.7C312.2,396.4,319.8,389.9,328.5,389.8z"/>
<path class="st5" d="M328.5,389.8l105.4-1c7.6-0.1,14.4,5,17,12.7l32.9,74.6c2.9,8.7-3.4,17.8-12,17.3l-153.8-10.1
	c-12.8-0.7-21.8-13.8-18.8-27.2l11.1-50.7C312.2,396.4,319.8,389.9,328.5,389.8z"/>
<path class="st1" d="M492.3,388.6c28.8-0.5,105.2-2.7,143.1-11.5c0,0,65.2,49.1,84.7,86.1c0,0-101.6,24.7-171.8,28.1
	c-10.6,0.5-20.5-5.4-25.2-15L485.9,399c-1.8-3.6-0.3-7.9,3.3-9.7C490.2,388.9,491.2,388.6,492.3,388.6z"/>
<path class="st5" d="M492.3,388.6c28.8-0.5,105.2-2.7,143.1-11.5c0,0,65.2,49.1,84.7,86.1c0,0-101.6,24.7-171.8,28.1
	c-10.6,0.5-20.5-5.4-25.2-15L485.9,399c-1.8-3.6-0.3-7.9,3.3-9.7C490.2,388.9,491.2,388.6,492.3,388.6z"/>
<path class="st6" d="M528.8,399.8c12-0.2,35.4-0.8,58.3-2.5c34.1-2.6,67.5,10.9,90.2,36.5l0.7,0.8c5.2,5.9,4.5,14.9-1.4,20.1
	c-1.8,1.6-4,2.7-6.4,3.2c-25.2,5.4-68.2,13.7-101.3,15.3c-7.6,0.4-14.8-3.8-18.1-10.7l-26.6-55.2c-1.2-2.6-0.2-5.7,2.4-6.9
	C527.4,400,528.1,399.8,528.8,399.8z"/>
<path class="st1" d="M540.4,691.3v27.6l-304.7-46.5c-14.9-5.2-23.8-2-23.8-2c-11-5.4-19-26.3-19.2-27l0,0l5.8-16.7l-46.7-77.2
	L89.6,552c9.8-78.1,37.9-81.8,37.9-81.8l365,33.9L540.4,691.3z"/>
<path class="st7" d="M474.8,526.8c-2.4,2.6-6.8,5-14.8,4.8c-12.4-0.3-14.7-10.8-15-17.1c-0.1-1.5,0-3.1,0.1-4.6l16.2-5l3.3,3.1
	l9.8,9.1C477.1,519.7,477.3,524,474.8,526.8z"/>
<path class="st8" d="M474.8,525.9c-2.4,2.6-6.8,5-14.8,4.8c-12.4-0.3-14.7-10.8-15-17.1c-0.1-1.5,0-3.1,0.1-4.6l16.2-5l3.3,3.1
	l9.8,9.1C477.1,518.8,477.3,523.1,474.8,525.9z"/>
<path class="st7" d="M464.6,507.1c-2.1,5.3-8.2,6.7-8.2,6.7l-11.4-0.2c-0.1-1.5,0-3.1,0.1-4.6l16.2-5L464.6,507.1z"/>
<path class="st9" d="M423.3,466.7c0,0-25.8,3.5-19,26.8c5.2,17.7,16.9,18.9,22.2,18.4c3.1-0.3,6.2-0.4,9.4-0.3l20.4,0.4
	c0,0,11.5-2.7,8.3-14.3S446.6,464.8,423.3,466.7z"/>
<ellipse class="st2" cx="283.4" cy="521.9" rx="11.9" ry="15.5"/>
<path class="st7" d="M270,515.4l33.9,3.6c2.9,0.3,5,2.9,4.7,5.8l0,0c-0.3,2.9-2.9,5-5.8,4.7l-33.9-3.6c-2.9-0.3-5-2.9-4.7-5.8l0,0
	C264.5,517.2,267.1,515.1,270,515.4z"/>
<path class="st9" d="M270,514.6l33.9,3.6c2.9,0.3,5,2.9,4.7,5.8l0,0c-0.3,2.9-2.9,5-5.8,4.7l-33.9-3.6c-2.9-0.3-5-2.9-4.7-5.8l0,0
	C264.5,516.3,267.1,514.3,270,514.6z"/>
<path class="st7" d="M85.9,623.1c0,0-21.4-21.1,4.6-71.9c0,0,33.3-50.4,85,4.7c0,0,29.7,33.2,38.3,86.1l-20.2,0.4
	c0,0-19.4-93.9-76.2-89.2C117.3,553.3,75.9,560.6,85.9,623.1z"/>
<path class="st7" d="M85,625.7c0,0-21.4-21.1,4.6-71.9c0,0,33.3-50.4,85,4.7c0,0,29.7,33.2,38.3,86.1l-20.3,0.4
	c0,0-19.4-93.9-76.3-89.2C116.4,555.9,75.1,563.2,85,625.7z"/>
<path class="st1" d="M85,623.9c0,0-21.4-21.1,4.6-71.9c0,0,33.3-50.4,85,4.7c0,0,29.7,33.2,38.3,86.1l-20.3,0.4
	c0,0-19.4-93.9-76.3-89.2C116.4,554.2,75.1,561.5,85,623.9z"/>
<path class="st2" d="M85,623.9c0,0-21.4-21.1,4.6-71.9c0,0,33.3-50.4,85,4.7c0,0,29.7,33.2,38.3,86.1l-20.3,0.4
	c0,0-19.4-93.9-76.3-89.2C116.4,554.2,75.1,561.5,85,623.9z"/>
<path class="st10" d="M540.4,691.3v27.6l-304.7-46.5c-14.9-5.2-23.8-2-23.8-2c-11-5.4-19-26.3-19.2-27l0,0l20.3-0.4l58.6,8.2
	l212.9,30.6c0,0,37.8,4.3,39.9,6S540.4,691.3,540.4,691.3z"/>
<path class="st7" d="M540.4,690.4V718l-304.7-46.5c-14.9-5.2-23.8-2-23.8-2c-11-5.4-19-26.3-19.2-27l0,0l20.3-0.4l58.6,8.2
	l212.9,30.6c0,0,37.8,4.3,39.9,6S540.4,690.4,540.4,690.4z"/>
<path class="st1" d="M540.4,691.3v27.6l-304.7-46.5c-14.9-5.2-23.8-2-23.8-2c-11-5.4-19-26.3-19.2-27l0,0l20.3-0.4l58.6,8.2
	l212.9,30.6c0,0,37.8,4.3,39.9,6S540.4,691.3,540.4,691.3z"/>
<path class="st2" d="M540.4,691.3v27.6l-304.7-46.5c-14.9-5.2-23.8-2-23.8-2c-11-5.4-19-26.3-19.2-27l0,0l20.3-0.4l58.6,8.2
	l212.9,30.6c0,0,37.8,4.3,39.9,6S540.4,691.3,540.4,691.3z"/>
<path class="st10" d="M951.6,589.9c0,0-101.7,51.7-227,46.5c0,0-28.2,1.4-30.1-1.2s7.3,10.9,7.3,10.9s3.5-3.6,6.9-3.6
	s19.2,1.2,19.2,1.2s180.2-7.6,226.3-48.5L951.6,589.9z"/>
<path class="st2" d="M271.1,651.2c-18.9-60.8-17.9-103.2-13.7-128c4.5-27,13.7-39.7,13.8-39.8l0.7,0.5c-0.1,0.1-9.2,12.8-13.7,39.6
	c-4.2,24.8-5.2,66.9,13.7,127.6L271.1,651.2z"/>
<path class="st1" d="M954.5,624.5c0.8,2.8,2.5,10.7-0.3,12.8c-1.1,0.8-2,2.8-2.7,5.1c-1.1,4-1.9,8-2.4,12.1l-29.3,32.7l-49.5,19.4
	l-118.5,8.2l-71.5-116.3l-160.7-94.5l43.9-2.4c43.9-2.4,168.4-30,168.4-30l140.9,31.1c22.8,5,42.9,18.3,56.5,37.2
	c17.2,24,25,50,25,50c2.1,2.5,2.9,6.7,3.1,11.3c0.2,7.4-1.5,15.9-2.5,19.9c-0.3,1.5-0.6,2.4-0.6,2.4S954.3,623.9,954.5,624.5z"/>
<path class="st7" d="M524.3,686c0,0-8.6-92.1,56-117.1c0,0,90.9-38.4,144.3,65.9l27.1,59.5c0,0,7.8,14.6,28.9,14.2
	c0,0,99.5-3,152-36.6l16.4-19c0,0-8.2,26.7-16.4,32.7c0,0-32.3,37.9-149.9,44.8c0,0-48.1,5.2-62.6-40.5c0,0-19.7-103.4-119.6-102.5
	c0,0-58.7,1.2-60.2,102.2L524.3,686z"/>
<path class="st1" d="M524.3,687.7c0,0-8.6-92.1,56-117.1c0,0,90.9-38.3,144.3,65.9l27.1,59.4c0,0,7.8,14.6,28.9,14.2
	c0,0,99.5-3,152-36.6l16.4-19c0,0-8.2,26.7-16.4,32.7c0,0-32.3,37.9-149.9,44.8c0,0-48.1,5.2-62.6-40.5c0,0-19.7-103.4-119.6-102.5
	c0,0-58.7,1.2-60.2,102.2L524.3,687.7z"/>
<path class="st2" d="M524.3,687.7c0,0-8.6-92.1,56-117.1c0,0,90.9-38.3,144.3,65.9l27.1,59.4c0,0,7.8,14.6,28.9,14.2
	c0,0,99.5-3,152-36.6l16.4-19c0,0-8.2,26.7-16.4,32.7c0,0-32.3,37.9-149.9,44.8c0,0-48.1,5.2-62.6-40.5c0,0-19.7-103.4-119.6-102.5
	c0,0-58.7,1.2-60.2,102.2L524.3,687.7z"/>
<path class="st2" d="M509.4,684.9l-3.9-128.2c0.5-8.7,0.2-17.4-1-26c-0.1-0.5-3.2-13.8-7.3-21.3c-2.7-3.9-4.9-5-5-5.1l-2.3-0.6
	l2.6-0.2c1.8,0.3,3.5,2.2,5,4.8c2.8,3.9,6.1,10.7,7.9,22.3c1.2,8.6,1.5,17.4,1,26.1l3.9,128.1L509.4,684.9z"/>
<path class="st2" d="M588.5,589.8l-0.8,0.1c0-0.1-1.8-10.7-7.7-19.2c-12.4-17.7-16.4-29.7-16.9-37.7c-0.2-2.8,0.1-5.6,1-8.2
	c1.9-5.4,7.1-9.4,14.1-11.4l0,0l1.5,0.3c-6.8,1.9-13,6.3-14.8,11.4c-0.9,2.6-1.2,5.4-1,8.1c0.5,7.8,4.5,19.6,16.7,37.1
	C586.7,578.9,588.5,589.7,588.5,589.8z"/>
<path class="st2" d="M864.4,548.1c-54.9-32.8-171.1-63.2-172.2-63.5l0.2-0.8c1.2,0.3,117.5,30.8,172.5,63.6L864.4,548.1z"/>
<path class="st2" d="M944.2,593.5c-20.7-36.5-76.5-66.5-119.7-85.3c-29.2-12.6-59.1-23.4-89.7-32.4l0.2-0.8
	c30.6,9,60.5,19.8,89.8,32.4c43.3,18.8,99.2,49,120.1,85.7L944.2,593.5z"/>
<ellipse transform="matrix(0.7986 -0.6018 0.6018 0.7986 -145.3549 664.3615)" class="st7" cx="920.1" cy="549.4" rx="9.9" ry="42.1"/>
<ellipse transform="matrix(0.7986 -0.6018 0.6018 0.7986 -144.3166 664.0174)" class="st8" cx="920.1" cy="547.7" rx="9.9" ry="42.1"/>
<ellipse transform="matrix(0.7986 -0.6018 0.6018 0.7986 -144.1406 664.7231)" class="st7" cx="921.3" cy="547.8" rx="6.4" ry="34.8"/>
<ellipse transform="matrix(0.7986 -0.6018 0.6018 0.7986 -143.6244 664.552)" class="st9" cx="921.3" cy="546.9" rx="6.4" ry="34.8"/>
<path class="st7" d="M816.6,613.8c0,0,2.8-21.1,19.4-25.8c0,0,56.4-16.3,68.7-16.6c0,0,12.7-3.9,21.1,5.6l8.6,11.6
	c0,0,6,9.5-7.3,11.2c0,0-68.2,25-97.8,27.6c-1.7,0.2-3.4,0.4-5,0.8C820,629.1,810.9,629.3,816.6,613.8z"/>
<path class="st9" d="M817.4,613c0,0,2.8-21.1,19.4-25.8c0,0,56.4-16.3,68.7-16.6c0,0,12.7-3.9,21.1,5.6l8.6,11.6c0,0,6,9.5-7.3,11.2
	c0,0-68.2,25-97.8,27.6c-1.7,0.2-3.4,0.4-5,0.8C820.8,628.2,811.8,628.5,817.4,613z"/>
<path class="st7" d="M823.4,611.2c0,0,2.6-18,18-22.1c0,0,52.5-14,63.9-14.2c0,0,11.8-3.3,19.6,4.8l8,10c0,0,5.6,8.1-6.8,9.6
	c0,0-63.4,21.4-90.9,23.6c-1.5,0.1-3.1,0.3-4.6,0.7C826.5,624.2,818.1,624.4,823.4,611.2z"/>
<path class="st3" d="M824.2,610.3c0,0,2.6-18,18-22.1c0,0,52.5-14,63.9-14.2c0,0,11.8-3.3,19.6,4.8l8,10c0,0,5.6,8.1-6.8,9.6
	c0,0-63.4,21.4-90.9,23.6c-1.5,0.1-3.1,0.3-4.6,0.7C827.4,623.3,819,623.6,824.2,610.3z"/>
<path class="st9" d="M828.7,599.2l-0.1-0.9c0.8-0.1,77.4-9.6,93.9-22.3l0.5,0.7C906.3,589.5,831.8,598.8,828.7,599.2z"/>
<path class="st9" d="M824.6,609.1l-0.2-0.8c0.8-0.2,85.1-15.8,103.3-27l0.5,0.7C909.9,593.3,825.5,608.9,824.6,609.1z"/>
<path class="st9" d="M822.7,617.3l-0.2-0.8c1-0.2,98-18.5,110-29.2l0.6,0.6C920.9,598.7,826.7,616.5,822.7,617.3z"/>
<path class="st7" d="M923.6,617.7c0,0-36.6,15.3-75,22.1c-3.4,0.6-6.8,1.4-10.1,2.3c-3.9,1.1-9.4,2.3-12.5,1.5
	c-5-1.3-7.7,4.7-2.3,9.5l0.3,0.3c3.9,3.4,9,5.1,14.2,4.7l8.2-0.7c0,0,66.8-14.6,85.4-26.1c0,0,8.5-5.8,9.2-12.4s1.4-11.7-5.3-7.8
	S923.6,617.7,923.6,617.7z"/>
<path class="st9" d="M924.4,616.8c-1.4,0.6-37.3,15.4-75,22.1c-3.4,0.6-6.8,1.4-10.1,2.3c-3.9,1.1-9.4,2.3-12.5,1.5
	c-5-1.3-7.7,4.7-2.3,9.5l0.2,0.1c4,3.6,9.3,5.3,14.7,4.9l7.9-0.7h0.1c2.3-0.5,67-14.8,85.3-26h0.1c0.6-0.4,8.5-6,9.1-12.4
	c0.7-6.6,1.4-11.7-5.3-7.8C930.2,614,925,616.7,924.4,616.8L924.4,616.8z"/>
<path class="st7" d="M919.5,621.7c0,0-30,12.5-62.2,19.6c-3.2,0.7-6.4,1.5-9.5,2.4s-7.7,2-10.2,1.7c-4.3-0.6-6.3,3.7-1.5,6.6
	l0.2,0.1c3.6,2.2,7.9,3,12.1,2.4l7.4-1c0,0,56.2-14.1,71.5-23.1c0,0,7-4.5,7.2-9s0.6-8-4.9-5S919.5,621.7,919.5,621.7z"/>
<path class="st3" d="M920.4,620.8c-0.6,0.3-30.3,12.5-62.2,19.6c-3.2,0.7-6.4,1.5-9.5,2.4s-7.6,2-10.2,1.7c-4.3-0.6-6.3,3.7-1.5,6.6
	l0,0c3.7,2.2,8.1,3.1,12.4,2.5l7.2-1l0,0c1.2-0.3,56.3-14.2,71.5-23l0,0c0.2-0.2,7-4.6,7.2-9s0.6-8-4.9-5S920.6,620.7,920.4,620.8
	L920.4,620.8z"/>
<ellipse transform="matrix(4.993762e-02 -0.9988 0.9988 4.993762e-02 93.7116 1413.2523)" class="st7" cx="789.7" cy="657.4" rx="11.3" ry="8.4"/>
<ellipse transform="matrix(4.972135e-02 -0.9988 0.9988 4.972135e-02 93.7052 1413.1217)" class="st9" cx="789.5" cy="657.3" rx="11.3" ry="8.4"/>
<path class="st7" d="M838.9,665.9c0,0-43.8,6.7-55.5,7.3s-13.4,7.1-13.4,7.1s-2.8,16.4,13.3,11.6l57.3-6.5c0,0,7.8,0.2,7.8-10.3
	v-2.4c0-1.3,0.2-2.6,0.4-4C849.1,667.2,848.3,664.5,838.9,665.9z"/>
<path class="st9" d="M839.7,665.1c0,0-43.8,6.7-55.5,7.3s-13.3,7.1-13.3,7.1s-2.8,16.4,13.3,11.6l57.3-6.5c0,0,7.8,0.2,7.8-10.3V672
	c0-1.3,0.2-2.6,0.4-4C850,666.4,849.1,663.7,839.7,665.1z"/>
<path class="st9" d="M954.2,637.3c-1.1,0.8-2,2.8-2.7,5.1l0,0l-14.2,10.1c-0.5,0.4-1.2,0.2-1.6-0.3c-0.1-0.2-0.2-0.4-0.2-0.7V641
	c0-3.1,1.6-5.9,4.3-7.5l14.8-8.9C955.2,627.4,957,635.2,954.2,637.3z"/>
<path class="st3" d="M853.7,666.5l-0.7,10.7c-0.3,3.9,2.6,7.4,6.5,7.7c0.5,0,1,0,1.6,0c24.2-3.9,47.4-12.2,68.5-24.6l1.9-21.8
	c0.2-1.7-1.1-3.2-2.7-3.4c-0.5-0.1-1,0-1.5,0.2c-12,5.3-44.2,19.1-64.6,21.7C857.8,657.5,854,661.5,853.7,666.5z"/>
<path class="st1" d="M860.3,661v17.4c0,0,53.4-12.6,65.3-21.1v-16.5C904.7,650.2,882.8,657,860.3,661z"/>
<path class="st1" d="M953.9,622c-2.7-0.2-4.9-4.8-4.9-10.5s2.3-10.5,5-10.5c0.9,0,1.7,0.4,2.3,1.1
	C956.5,609.5,954.8,617.9,953.9,622z"/>
<path class="st9" d="M954.8,621.1c-2.7-0.2-4.9-4.8-4.9-10.5s2.3-10.5,5-10.5c0.9,0,1.7,0.5,2.3,1.1
	C957.4,608.6,955.7,617.1,954.8,621.1z"/>
<path class="st3" d="M709.1,694.7c0,94.7-40,96.7-92.2,96.7c-41.7,0-58.7-43.3-58.7-96.7s13.4-96.6,55.1-96.6
	S709.1,641.3,709.1,694.7z"/>
<path class="st2" d="M709.1,694.7c0,94.7-40,96.7-92.2,96.7c-41.7,0-58.7-43.3-58.7-96.7s13.4-96.6,55.1-96.6
	S709.1,641.3,709.1,694.7z"/>
<ellipse class="st3" cx="610.8" cy="694.7" rx="52.6" ry="96.7"/>
<path class="st9" d="M160.2,637.3c0,29-8.4,52.3-25.9,52.3S96.2,666,96.2,637s7.3-54.5,24.7-54.5S160.2,608.3,160.2,637.3z"/>
<path class="st3" d="M160.2,636.2c0,2.2-0.1,4.4-0.2,6.5c-0.2,5.6-1.1,11.1-2.4,16.5c-2.8,10.7-8,18.1-15.5,19.5
	c-0.9,0.2-1.8,0.2-2.7,0.2c-4-0.1-7.9-1.4-11.2-3.6c-7.2-4.6-13.8-13.1-17.2-23.8c-1.3-3.9-2-8-2.3-12.1c-0.1-1.1-0.1-2.3-0.1-3.4
	c-0.1-7.9,0.7-15.8,2.4-23.5c0.9-4.7,2.7-9.2,5.1-13.4c3.1-4.8,7.2-7.7,12.4-7.7c3.9,0.2,7.7,1.4,10.9,3.7c4.8,3.3,8.9,7.5,12,12.4
	C157,616,160.1,625.9,160.2,636.2z"/>
<path class="st9" d="M160,642.7c-0.2,5.6-1.1,11.1-2.4,16.5c-0.4-0.4-10.2-11.8-17.7-4.5c-5.4,5.4-0.9,17.6,2.1,24
	c-0.9,0.2-1.8,0.2-2.7,0.2c-4-0.1-7.9-1.4-11.2-3.6v-0.8c0,0,4.4-13.7-7.3-22.1c0,0-5.7-2.3-9.9-0.9c-1.3-3.9-2-8-2.3-12.1
	c1-0.8,7.9-6.7,5.1-17.7c-0.8-3.1-1.7-6.2-2.8-9.2c1-4.7,2.7-9.2,5.1-13.3c0,0,2.3,12.2,10.9,12.9s12.4-16.5,12.5-17
	c4.8,3.3,8.9,7.5,12,12.4c0,0-13.8,5.7-9.7,20.9C144.6,639.2,154.5,642,160,642.7z"/>
<ellipse transform="matrix(0.9901 -0.14 0.14 0.9901 -87.4506 24.5578)" class="st3" cx="130.8" cy="633.8" rx="6.5" ry="11.2"/>
<path class="st9" d="M619.9,698.7c0,34.8-7.4,62.6-22.8,62.6s-33.7-28.2-33.7-63s6.4-65.4,21.8-65.4S619.9,663.9,619.9,698.7z"/>
<path class="st3" d="M619.9,697.4c0,2.7-0.1,5.3-0.2,7.8c-0.2,6.6-0.9,13.2-2.2,19.8c-2.5,12.8-7,21.7-13.7,23.4
	c-0.8,0.2-1.6,0.3-2.4,0.3c-3.2,0-6.6-1.5-9.8-4.3c-6.4-5.5-12.2-15.8-15.2-28.5c-1.1-4.8-1.8-9.6-2-14.5c-0.1-1.3-0.1-2.7-0.1-4.1
	c-0.1-9.4,0.6-18.8,2.1-28.2c0.8-5.5,2.3-10.9,4.6-16c2.7-5.8,6.3-9.3,11-9.3c3.1,0,6.4,1.6,9.6,4.4c3.8,3.4,7.6,8.5,10.6,14.9
	C617.3,673.7,619.9,685.5,619.9,697.4z"/>
<path class="st9" d="M619.8,705.2c-0.2,6.6-0.9,13.2-2.2,19.8c-0.3-0.5-9-14.2-15.6-5.4c-4.8,6.4-0.8,21.1,1.9,28.8
	c-0.8,0.2-1.6,0.3-2.4,0.3c-3.2,0-6.6-1.5-9.8-4.3v-1c0,0,3.9-16.4-6.5-26.5c0,0-5-2.7-8.8-1.1c-1.1-4.8-1.8-9.6-2-14.5
	c0.9-1,6.9-8,4.5-21.2c-0.9-5-1.8-8.6-2.5-11c0.8-5.5,2.3-10.9,4.6-16c0,0,2,14.6,9.6,15.5s10.9-19.8,11-20.3
	c3.8,3.4,7.6,8.5,10.6,14.9c0,0-12.1,6.9-8.6,25.1C606.1,701,614.9,704.3,619.8,705.2z"/>
<ellipse transform="matrix(0.9967 -8.159061e-02 8.159061e-02 0.9967 -54.8133 50.5755)" class="st3" cx="591.4" cy="696" rx="5.7" ry="13.4"/>
<path d="M519.6,504.1"/>
<path class="st2" d="M736.7,547.3l-0.3,0.8c-0.3-0.2-30.1-13-140.5-31.7c-5.2-0.9-10.5-1.8-16-2.7c-0.5-0.1-1-0.2-1.5-0.2
	c-17.7-2.9-37.2-5.9-58.7-9l0.1-0.9c29.2,4.2,54.6,8.2,76.8,12C706.6,534.3,736.3,547.2,736.7,547.3z"/>
<path class="st7" d="M176.9,383.7c0,0,10-17,44.2-18.5c0,0,250.1-32.7,408,1.3c0,0,13.5,6-1.2,9.5S277.1,391.6,176.9,383.7z"/>
<path class="st11" d="M176.9,382c0,0,10-17,44.2-18.5c0,0,250.1-32.7,408,1.3c0,0,13.5,6-1.2,9.5S277.1,389.9,176.9,382z"/>
<path class="st7" d="M153.5,453.4c15.5-36.6,34.2-53.9,40.1-58.7c1.2-0.9,2.6-1.5,4.1-1.5l81.8-1.5c2.2-0.1,4.4,1,5.6,2.9
	c-0.9-2.8-3.5-4.7-6.5-4.6l-81.8,1.5c-1.5,0-2.9,0.5-4.1,1.5c-5.9,4.8-24.5,22.1-40.1,58.7c-1.2,2.7-0.9,5.8,0.7,8.3
	C152.5,457.8,152.6,455.4,153.5,453.4z"/>
<path class="st7" d="M300.8,457.4l11.1-50.7c2-9.2,9.6-15.7,18.3-15.8l105.4-1c4,0,7.9,1.4,11,3.9c-3.3-3.5-7.9-5.6-12.7-5.5
	l-105.4,1c-8.8,0.1-16.3,6.6-18.3,15.8L299,455.8c-1.9,8.3,0.9,17,7.4,22.6C301.2,472.8,299,464.9,300.8,457.4z"/>
<path class="st7" d="M528.6,478.8l-37.3-77.3c-1.7-3.6-0.2-8,3.4-9.7c0.9-0.5,2-0.7,3-0.7c28.4-0.5,103.1-2.6,141.6-11.1
	c-2.4-1.9-3.8-2.9-3.8-2.9c-38,8.8-114.3,10.9-143.1,11.5c-4,0.1-7.2,3.4-7.1,7.4c0,1,0.3,2.1,0.7,3l37.3,77.3
	c3.1,6.4,8.6,11.3,15.3,13.6C534.2,487.1,530.8,483.3,528.6,478.8z"/>
<rect x="524.3" y="687.7" class="st1" width="16.1" height="5"/>
<rect x="524.3" y="687.7" class="st2" width="16.1" height="5"/>
<path class="st1" d="M212.2,638.7l-19.8,3.4c0.1,0.7,0.3,1.4,0.6,2c0.4,1,22-0.8,22-0.8l-2.1-0.4L212.2,638.7z"/>
<path class="st2" d="M212.2,638.7l-19.8,3.4c0.1,0.7,0.3,1.4,0.6,2c0.4,1,22-0.8,22-0.8l-2.1-0.4L212.2,638.7z"/>
<path class="st7" d="M137.6,687.2c-17.4,0-38.2-23.5-38.2-52.5c0-19.9,3.4-38.2,11.2-47.7c-10,8.1-14.4,28.4-14.4,50.9
	c0,29,20.8,52.5,38.2,52.5c5.9,0,10.8-2.7,14.6-7.3C145.8,685.7,141.8,687.2,137.6,687.2z"/>
<path class="st7" d="M600.6,757.5c-15.6,0-34.2-28.3-34.2-63.1c0-23.9,3-45.8,10-57.2c-9,9.7-12.9,34.1-12.9,61.1
	c0,34.8,18.6,63.1,34.2,63.1c5.3,0,9.6-3.2,13.1-8.8C607.9,755.7,604.5,757.5,600.6,757.5z"/>
<ellipse transform="matrix(0.7071 -0.7071 0.7071 0.7071 -194.8732 702.6791)" class="st7" cx="750.8" cy="586.6" rx="25.7" ry="50.3"/>
<ellipse transform="matrix(0.7071 -0.7071 0.7071 0.7071 -194.0158 703.0364)" class="st8" cx="751.6" cy="585.7" rx="25.7" ry="50.3"/>
<ellipse transform="matrix(0.7071 -0.7071 0.7071 0.7071 -192.7654 704.5615)" class="st7" cx="754.1" cy="585" rx="18.9" ry="42.6"/>
<ellipse transform="matrix(0.7071 -0.7071 0.7071 0.7071 -192.151 704.3086)" class="st9" cx="754.1" cy="584.1" rx="18.9" ry="42.6"/>
<path class="st1" d="M1052.5,751.3c0,0-42.3-2.5-37.3,27.1c0,0-1,5.2,3.8,7.6c0,0,0.1-2.2,4.3-1.5c1.5,0.3,3.1,0.3,4.6,0.2
	c2.1-0.1,4-1,5.6-2.3l0,0c0,0,11.9-4.9,16.5-24.3c0,0,3.4-4.2,3.3-5.3l-7.1,3c0,0,2.4,5.2,0.5,9.4c0,0-0.2-9.2-1.6-9
	c-0.3,0-3.7,1.8-3.7,1.8s4.2,9,1,15.5c0,0,1.2-11-2.3-14.8l-5,2.9c0,0,4.9,9.3,1.6,16.8c0,0,0.8-11.6-2.6-16.1l-4.6,3.5
	c0,0,4.6,9.1,1.8,15.4c0,0-0.4-13.5-2.8-14.5c0,0-4,3.5-4.6,5c0,0,3.2,6.6,1.2,10.1c0,0-1.2-9-2.2-9c0,0-4,6-4.4,10
	c0,0,0.2-6.1,3.4-10.6c-2.3,0.4-4.4,1.5-6.1,3.2c0,0,0.6-4.2,7-4.6c0,0,3.3-4.5,4.2-4.8c0,0-6.4-0.5-10.3,1.2c0,0,3.4-4,11.5-2.2
	l4.5-3.7c0,0-8.4-1.2-12,0.1c0,0,4.1-3.5,13.2-1l4.9-2.9c0,0-7.2-1.5-11.5-1c0,0,4.5-2.4,12.9,0.2l3.5-1.6c0,0-5.3-1-6.8-1.2
	s-1.6-0.6-1.6-0.6c3.3-0.6,6.8-0.2,9.9,1.1C1045.1,754.4,1052.6,751.8,1052.5,751.3z"/>
<ellipse class="st0" cx="1023.4" cy="788.6" rx="29.9" ry="5.1"/>
<ellipse class="st0" cx="1117.2" cy="694.2" rx="16.9" ry="2.8"/>
<path class="st1" d="M992.9,687.7c0,0-28.8-1.7-25.4,18.4c-0.4,2.1,0.7,4.2,2.6,5.2c0,0,0-1.5,3-1c1,0.2,2.1,0.2,3.1,0.2
	c1.4-0.1,2.8-0.7,3.8-1.6l0,0c0,0,8.1-3.3,11.2-16.6c0,0,2.3-2.9,2.2-3.6l-4.8,2.1c0,0,1.7,3.5,0.3,6.4c0,0-0.2-6.3-1.1-6.1
	c-0.2,0-2.5,1.2-2.5,1.2s2.8,6.1,0.7,10.5c0,0,0.8-7.5-1.6-10.1l-3.4,2c0,0,3.3,6.3,1.1,11.5c0,0,0.6-7.9-1.8-11l-3.1,2.4
	c0,0,3.1,6.2,1.2,10.5c0,0-0.3-9.2-1.9-9.9c0,0-2.7,2.4-3.1,3.4c0,0,2.2,4.5,0.8,6.9c0,0-0.8-6.1-1.5-6.2c0,0-2.7,4-3,6.8
	c0.1-2.6,0.9-5.1,2.3-7.2c-1.6,0.3-3,1-4.1,2.1c0,0,0.4-2.9,4.8-3.1c0,0,2.2-3.1,2.8-3.3c0,0-4.3-0.4-7,0.8c0,0,2.3-2.7,7.8-1.5
	l3.1-2.5c0,0-5.7-0.8-8.2,0.1c0,0,2.8-2.4,9-0.7l3.3-2c0,0-4.9-1-7.8-0.7c0,0,3.1-1.7,8.8,0.1l2.4-1.1c0,0-3.6-0.7-4.6-0.8
	s-1.1-0.4-1.1-0.4c2.3-0.4,4.6-0.1,6.7,0.8C988,689.9,993,688,992.9,687.7z"/>
<ellipse class="st0" cx="973.1" cy="713.1" rx="20.4" ry="3.4"/>
<ellipse class="st0" cx="29.9" cy="744.3" rx="29.9" ry="5.1"/>
<path class="st12" d="M9.8,720.8c0,0,17.1-0.5,22.2-4.2s26.3-8,27.5-2.2s25.6,29.2,6.4,29.4s-44.8-3-49.9-6.1S9.8,720.8,9.8,720.8z"
	/>
<path class="st2" d="M66.3,741.8c-19.3,0.2-44.8-3-49.9-6.1c-3.9-2.4-5.5-10.9-6-14.9H9.8c0,0,1.1,13.8,6.2,16.9s30.6,6.3,49.9,6.1
	c5.6,0,7.5-2,7.4-5C72.6,740.7,70.4,741.8,66.3,741.8z"/>
<g class="st13">
	
		<linearGradient id="SVGID_1_" gradientUnits="userSpaceOnUse" x1="636.3132" y1="281.01" x2="663.6239" y2="281.01" gradientTransform="matrix(1 0 0 -1 -32.98 768.16)">
		<stop  offset="0" style="stop-color:#808080;stop-opacity:0.25"/>
		<stop  offset="0.54" style="stop-color:#808080;stop-opacity:0.12"/>
		<stop  offset="1" style="stop-color:#808080;stop-opacity:0.1"/>
	</linearGradient>
	<path class="st14" d="M610.9,508.7c-0.4,0.8-3.3,2.5-6.9,4.4c-0.3-2.6-0.6-4.6-0.6-5.2c-0.2-2.2,4.5-12.2,4.5-12.2
		s9.1-12.2,8.9-14.1s3.5-7.1,3.5-7.1l8.3-13.4c-0.9,2.1-0.6,4.5,0.8,6.3c2.5,3.3,0.4,9.8,0.4,9.8l0.5,8.2v0.8
		c-0.3,0.3-1.6,1.6-4.6,4.2c-2.7,2.4-2.2,3.2-1.9,3.4c-0.6,1.1,0.1,1.3,0.1,1.3c0.2,0,0.5,0,0.7-0.1l-0.7,0.6
		C619,500.4,611.6,507.4,610.9,508.7z"/>
</g>
<path class="st15" d="M548.3,645c0,0,11.3,3,10.3,6.3L548.3,645z"/>
<path class="st16" d="M542.2,647.4c0,0.9-0.1,1.4-0.1,1.4l5.1,30.8c0.9,0.9,1.8,1.7,2.6,2.5c2.6,2.3,4.9,4.8,7.1,7.5
	c3,4.7,13.6,2.3,13.4,1.8s-4.6-22.4-4.6-22.4l-3.5-8.9c0,0-3.6,2.3-7.1-1.5c-2.2-2.4-7.2-7-10.6-10.1l-2.4-2.2
	C542.2,646.8,542.2,647.2,542.2,647.4z"/>
<path class="st15" d="M549.3,682.2l0.6,0.6c0.7,0.7,1.4,1.4,2,2c0.9,0.9,1.6,1.7,2.2,2.3l2.5-3.3c-0.9-0.7-1.8-1.3-2.9-1.8
	C552.3,681.4,550.7,681.5,549.3,682.2L549.3,682.2z"/>
<path class="st17" d="M550.6,689.6c0.7,0.3,1.4,0.6,2.1,0.8l2-2.6l2.6-3.4c-0.9-0.7-1.8-1.3-2.9-1.8c-1.4-0.6-3-0.6-4.4,0.1
	c-1,0.6-1.8,1.5-2.3,2.6C547.6,685.4,546.8,687.6,550.6,689.6z"/>
<path class="st15" d="M550.2,689.2l0.4,0.4c0.7,0.3,1.4,0.6,2.1,0.8l2-2.6c0.2,0.2,0.4,0.5,0.5,0.7c3,4.7,13.6,2.3,13.4,1.8
	s-4.5-22.4-4.5-22.4l-3.5-8.9c-1.4,0.8-3.1,0.9-4.5,0.3c-0.8,0.8-0.9,1.8,0,3.2c2,3,3.1,6.4,3.4,10c1.3,3.7-2.8,8.3-5.1,10.2
	c-0.4,0.3-0.8,0.6-1.3,0.8c-0.5,0.3-0.9,0.7-1.2,1.3C551.2,686.2,550.6,687.7,550.2,689.2z"/>
<circle class="st18" cx="557.9" cy="686.3" r="1.3"/>
<circle class="st18" cx="560" cy="691.3" r="1.3"/>
<circle class="st18" cx="566.2" cy="699.3" r="1.3"/>
<circle class="st18" cx="563.1" cy="695.2" r="1.3"/>
<circle class="st18" cx="568.8" cy="704.1" r="1.3"/>
<path class="st7" d="M574.1,708.2c0,0,1.1,13,0,19.2c1.9,2.2,5.2,2.5,7.4,0.7c0.2-0.1,0.3-0.2,0.3-0.2c7.5-6.2,3.8-34.3,1.3-38.2
	s-2.9-24-3.8-30.4c-0.4-3-2-3.9-4.1-4s-4.8,0.8-7.1,1.1c0,6.4,0.4,21,2,25.9C572.3,688.4,574.1,708.2,574.1,708.2z"/>
<path class="st7" d="M577.4,681.6c1.4,4.9,3.5,18.5,3.3,25.7c-0.2,5.3,0.5,15.6,0.8,20.7c0.2-0.1,0.3-0.2,0.3-0.2
	c7.5-6.2,3.8-34.3,1.3-38.2s-2.9-24-3.8-30.4c-0.4-3-2-3.9-4.1-4C575.5,661.8,576.3,677.7,577.4,681.6z"/>
<path class="st17" d="M572.3,655.6c0.3,5.1,1.1,18.8,2.5,22.7c1.7,4.9,3.5,28.3,3.6,29.3h-0.6c0-0.3-1.9-24.4-3.6-29.2
	c-1.4-4-2.3-17.6-2.5-22.8L572.3,655.6z"/>
<path class="st7" d="M435,766.3l-1-0.2L435,766.3z"/>
<path class="st19" d="M514.3,784.5c1.3-0.8,2.7-1.3,4.2-1.4c2.8,0.3,5.6,0.2,8.4-0.3c-0.7,2.4-0.9,4.9-0.6,7.4l-2.5-0.1
	C523.7,790.1,514.2,788,514.3,784.5z"/>
<path class="st7" d="M435.7,766.4l-0.5-0.1L435.7,766.4z"/>
<path class="st7" d="M421.3,760.7L421.3,760.7z"/>
<path class="st7" d="M421.4,760.7L421.4,760.7z"/>
<path class="st7" d="M435.1,766.3H435H435.1z"/>
<path class="st19" d="M572.5,720.5c0.1,1.2,0.2,2.3,0.2,3.3c0,1.3,0.5,2.5,1.4,3.5l0.1,0.1c0.3-2.4,0.5-4.7,0.4-7.1
	C574.4,720.6,573.5,720.6,572.5,720.5z"/>
</svg>
