<?xml version="1.0" encoding="utf-8"?>
<!-- Generator: Adobe Illustrator 22.0.1, SVG Export Plug-In . SVG Version: 6.00 Build 0)  -->
<svg version="1.1" id="_x33_749cc32-969d-4bed-b310-fe7588ba7e4f"
	 xmlns="http://www.w3.org/2000/svg" xmlns:xlink="http://www.w3.org/1999/xlink" x="0px" y="0px" viewBox="0 0 990.3 727"
	 style="enable-background:new 0 0 990.3 727;" xml:space="preserve">
<style type="text/css">
	.st0{opacity:0.1;fill:#6C63FF;enable-background:new    ;}
	.st1{opacity:0.5;}
	.st2{fill:#6C63FF;}
	.st3{fill:none;stroke:#535461;stroke-width:2;stroke-miterlimit:10;}
	.st4{opacity:0.1;enable-background:new    ;}
	.st5{fill:#FFD037;}
	.st6{fill:#A8A8A8;}
	.st7{opacity:0.2;enable-background:new    ;}
	.st8{fill:#8CD0F3;}
	.st9{opacity:0.1;fill:#8CD0F3;enable-background:new    ;}
	.st10{fill:#121C3F;}
	.st11{fill:#2856B8;}
	.st12{opacity:0.2;fill:#FFFFFF;enable-background:new    ;}
	.st13{opacity:0.5;fill:#18218A;enable-background:new    ;}
	.st14{fill:#182A7C;}
	.st15{fill:#3F8FFE;}
	.st16{opacity:0.2;fill:none;stroke:#FFFFFF;stroke-miterlimit:10;enable-background:new    ;}
	.st17{opacity:5.000000e-02;enable-background:new    ;}
</style>
<title>by_my_car</title>
<path class="st0" d="M71.6,291.7c20.8,47.1-5.8,101.3-37,142.2c-10.5,13.7-22,28-23.5,45.2c-1.8,21,12.5,40.3,29.4,52.9
	c30.8,23,72.8,30.1,109.4,18.5c31.6-10,58.3-32.7,90.2-41.8c53.4-15.3,110,10.1,155.7,41.6c32.3,22.3,67,49.5,106,44.7
	c27.5-3.4,50.8-22.6,66.6-45.3c7.6-11,14.3-23.2,25.4-30.6c6.6-4.4,14.4-6.7,22.1-8.4c70.9-15.2,146.1,21.8,216.1,2.8
	c47.3-12.8,84.9-50.2,108.3-93.2s34.4-91.5,43.5-139.7c6.5-34.2,11.8-71.1-3-102.5c-15.7-33.3-52.2-53.5-88.8-57.2
	s-73.3,6.7-107.1,21.4c-42.2,18.4-83.5,44.2-129.5,44.3c-31.3,0.1-61.2-12-91.2-21.1c-50.2-15.3-102.2-22.9-154.1-30
	c-49.7-6.7-99.9-13-149.9-9c-35.4,2.8-66.6,16.3-100.9,22.6c-22.4,4.1-44.9,1-66.8,7.9c-27,8.4-54.8,28.1-56.3,58.9
	C34.9,245.3,60.6,266.8,71.6,291.7z"/>
<g class="st1">
	<path class="st2" d="M697.9,183.2c-5,1.4-11.2,5.2-14.3,15.4c-6,20,7.9,33.7,3.3,54.5c-1.2,5.5-3.6,10.7-7,15.3
		c-5.6,7.5-11.6,11.1-17.5,16.4c-7.4,6.8-12.8,15.5-15.4,25.2c-2.8,10.7-3.1,22-0.7,32.8c2.1,9.1,5.7,15.6,8.8,23
		c3.9,9.4,6.9,19.1,9,29c1.2,4.8,1.9,9.7,2,14.7c0.1,6.2-0.9,13-1.8,19.7l-8.5,59.1c-1.1,7.9-2.3,15.9-2.3,23.4
		c-0.1,8.7,1.3,16.1,2.7,23.3c3,15.6,6.2,31.9,13,40.1c6.8,8.3,18.4,5.4,25.5-11.5c6.8-16,6.9-37.4,12.9-54.5
		c9.4-27,28.2-30.6,38.5-56.3c10-24.7,6.9-55,12-83.1c3.6-20.2,11.3-38.6,15.9-58.5c6.6-28.7,5.9-58.5,0.7-80.6
		s-14.7-37.2-25.1-48.7c-4.4-4.9-9.1-9.2-14.7-9.6c-5.9-0.5-11,7-16.8,9.2C711.5,183.9,704.7,181.2,697.9,183.2z"/>
	<path class="st3" d="M729.8,173.6c0,0-10,255.3-51.9,405.8"/>
	<path class="st3" d="M683.4,199.8c0,0,44.8,40.8,36.3,118.6"/>
	<path class="st3" d="M645.8,315.9c0,0,73.6,14.8,68.1,58.8"/>
	<path class="st3" d="M774.9,229.9c0,0-29.8,26.1-56.3,99.9"/>
	<path class="st3" d="M745.8,453.1c0,0-20.3,16-36.6-39.8"/>
	<path class="st3" d="M658.2,485.6c0,0,41.4-5.4,45.3-31.4"/>
</g>
<path class="st2" d="M798.1,11.9c-10.3,1.5-22.6,6.3-27.7,20.9c-9.9,28.8,20.3,50.5,13.3,80.6c-2.1,9-7.2,16.3-12.7,21.7
	c-10.6,10.5-22.8,15-34.3,22.1s-23.4,18.2-28.8,35.4c-5.2,16.5-2.9,34.6,2.4,48.2s13.6,23.7,20.8,34.9c8.9,13.8,16.3,28.4,22.2,43.7
	c2.6,6.7,5,13.8,5.8,21.9c0.9,9.2-0.3,19.1-1.4,28.8l-10.5,86c-1.4,11.5-2.8,23.1-2,34.1c0.9,12.7,4.7,23.8,8.4,34.7
	c8,23.4,16.6,47.7,31.6,60.6c15.1,13,38.8,10.1,51.5-13.8c12.1-22.8,9.9-54.3,20.2-78.8c16.3-38.6,54.7-41.7,73.1-78.4
	c17.7-35.2,7.8-80.1,14.9-121c5.1-29.3,18.9-55.4,26-84.3c10.2-41.5,5.3-85.5-8.2-118.6S928.1,34.1,905.2,16
	c-9.7-7.7-20-14.6-31.5-15.9c-12.2-1.4-22,8.9-33.8,11.5C826.3,14.7,812,9.9,798.1,11.9z"/>
<path class="st3" d="M862.9,1.6c0,0,9.7,374.8-59.4,591.5"/>
<path class="st3" d="M770,34.7c0,0,97.6,65.4,89.3,178.9"/>
<path class="st3" d="M705.9,201.2c0,0,154.1,30.5,148,94.7"/>
<path class="st3" d="M963,89.9c0,0-58.6,34.9-104.7,140.5"/>
<path class="st3" d="M929.3,415.1c0,0-40.2,21.1-80.5-63"/>
<path class="st3" d="M751.6,452.7c0,0,85.1-3.1,90-40.8"/>
<ellipse class="st0" cx="488.2" cy="584.7" rx="427.7" ry="41.1"/>
<path class="st2" d="M67.3,535.8c0,0,8.4,11-3.9,27.5S41,593.8,45.2,604.1c0,0,18.5-30.7,33.5-31.2S83.8,554.3,67.3,535.8z"/>
<path class="st4" d="M67.3,535.8c0.7,1.1,1.3,2.2,1.7,3.4c14.7,17.2,22.5,33.3,8.4,33.7c-13.1,0.4-28.9,23.9-32.7,29.8
	c0.1,0.5,0.3,0.9,0.4,1.3c0,0,18.5-30.7,33.5-31.2S83.8,554.3,67.3,535.8z"/>
<path class="st5" d="M82.8,549.8c0,3.9-0.4,7-1,7s-1-3.1-1-7s0.5-2,1.1-2S82.8,545.9,82.8,549.8z"/>
<path class="st5" d="M88.2,554.4c-3.4,1.8-6.3,3-6.6,2.5s2.3-2.3,5.7-4.2s2.1-0.5,2.3,0S91.6,552.5,88.2,554.4z"/>
<path class="st2" d="M23,535.8c0,0-8.4,11,3.9,27.5s22.3,30.5,18.3,40.8c0,0-18.5-30.7-33.5-31.2S6.4,554.3,23,535.8z"/>
<path class="st4" d="M23,535.8c-0.7,1.1-1.3,2.2-1.7,3.4C6.6,556.5-1.2,572.6,12.9,573c13.1,0.4,28.9,23.9,32.7,29.8
	c-0.1,0.5-0.3,0.9-0.4,1.3c0,0-18.5-30.7-33.5-31.2S6.4,554.3,23,535.8z"/>
<path class="st5" d="M7.4,549.8c0,3.9,0.4,7,1,7s1-3.1,1-7s-0.5-2-1.1-2S7.4,545.9,7.4,549.8z"/>
<path class="st5" d="M2.1,554.4c3.4,1.8,6.3,3,6.6,2.5s-2.3-2.3-5.7-4.2s-2.1-0.5-2.3,0S-1.3,552.5,2.1,554.4z"/>
<path class="st6" d="M10.1,602.7c0,0,23.4-0.7,30.5-5.8s36-11,37.8-3s35.2,40.1,8.8,40.3s-61.5-4.1-68.5-8.4S10.1,602.7,10.1,602.7z
	"/>
<path class="st7" d="M87.6,631.5c-26.4,0.2-61.5-4.1-68.5-8.4c-5.4-3.3-7.5-15-8.2-20.4h-0.8c0,0,1.5,18.9,8.5,23.2
	s42.1,8.6,68.6,8.4c7.6-0.1,10.3-2.8,10.1-6.8C96.2,629.9,93.3,631.5,87.6,631.5z"/>
<path class="st8" d="M315,450.9c0,0,117.3-74.9,198.3-74.9c0,0,97.6-15.2,203.7,10.5c106.2,25.7,145.4,59,174.8,49.2l-123.6,3.6
	L315,450.9z"/>
<path class="st9" d="M315,450.9c0,0,117.3-74.9,198.3-74.9c0,0,97.6-15.2,203.7,10.5c106.2,25.7,145.4,59,174.8,49.2l-123.6,3.6
	L315,450.9z"/>
<polygon class="st10" points="867.7,565.6 152.6,565.6 172.3,486.8 293.9,454.5 867.7,469.6 "/>
<path class="st11" d="M905.3,516.4v25.1c0,0-21.2,15.4-23.2,27.5c0,0-30.4,7.7-39.1,7.7c-0.8,0-1.7,0-2.5,0.1
	c1.4-3.6,2.4-7.4,3.2-11.2c8-39.9-18-78.7-57.9-86.7c-39.9-8-78.7,18-86.7,57.9c-1.9,9.5-1.9,19.3,0,28.8c1,5.2,2.6,10.2,4.7,15
	h-41.2c0,0-0.4,0.1-1,0.4c-2.2,1-7.4,3.6-8.2,7.8H311.8l-7-0.1c1.5-2.5,2.8-5.1,4-7.7c2.2-4.9,3.8-10.1,4.9-15.4
	c8-39.9-17.8-78.8-57.8-86.9c-39.9-8-78.8,17.8-86.9,57.8c-1,4.8-1.5,9.7-1.4,14.6c0,4.9,0.5,9.7,1.4,14.5
	c1.6,8.1,4.6,15.8,8.7,22.9c-4.9-1.2-15.5-4.6-15.5-4.6s-45.4-4.8-56.9-15l1.8-1.2l7.4-5.1l-3.4-13c-0.4-0.5-0.7-1.1-1-1.8
	c-0.9-2.2-1.7-6.2,1.5-11.3c4.8-7.7,2.4-35.2,2.4-35.2s65.6-45.3,194.9-55.5c0,0,3.1,2.4,9.5,2.9c4.3,0.3,10.1-0.2,17.6-2.9
	c0,0,10.6,4.8,56-21.2c0,0,77.2-53.1,178.5-48.2c0,0,104.2-6.3,193,28c38.3,14.8,67.4,22.6,88.1,26.8c19.2,3.8,31.2,4.6,36.7,4.6
	h0.1c1.8,0,2.9,0,3.3,0h0.2c0,0,0,11.5,0.6,25.1v0.1c0.2,4.7,0.5,9.7,0.9,14.5v0.3c1.2,13.5,3.2,25.7,6.6,28.1L905.3,516.4z"/>
<path class="st8" d="M124.4,500.3c0,0,29.1-22.7,65.3-17.8c0,0-32.9,26.1-47.8,24.4l-2.5-2.2l-15,0.8
	C124.4,505.5,122.2,502,124.4,500.3z"/>
<path class="st12" d="M152.7,539.5v13.4c0,0-1,12.8-12.6,13.3l-33,1.6l7.4-5.1l-3.4-13c-0.4-0.5-0.7-1.1-1-1.8
	c3-2.8,10.1-7.4,24.4-8.4L152.7,539.5z"/>
<path class="st12" d="M306.2,483.4l25.3-1c0,0-10.3,8.1-17.5,8.8S306.2,483.4,306.2,483.4z"/>
<path class="st12" d="M359.5,560.2c0,0,229.1-31.8,284.4-21.7c0,0,16.3,1.1,22.4,7.6c6.2,6.5,0,2.3,0,2.3L359.5,560.2z"/>
<path class="st13" d="M487.8,470.8c0,0,2.9-5.4,7.6-5.5l30.5-1.6c0,0-0.5,4.2-5.9,5.8L487.8,470.8z"/>
<path class="st13" d="M664.4,461.7c0,0,2.9-5.4,7.6-5.5l30.5-1.6c0,0-0.5,4.2-5.9,5.8L664.4,461.7z"/>
<path class="st8" d="M560.2,387.3l-23.4,61.4l-84.4,0.1h-21.7h-18.9h-16.4h-18.5c0,0,11.3-8.3,29.5-18.8c6-3.5,12.8-7.2,20.2-11
	c6.8-3.5,14.1-7,21.8-10.3c6-2.6,12.3-5.2,18.8-7.5C496.3,390.4,529.2,383.2,560.2,387.3z"/>
<path class="st8" d="M692.8,432.1c0,0-35.3,5.2-68.9,9.1c-12.9,1.5-25.5,2.8-35.8,3.5l-1.4,0.1c-4,0.3-7.7,0.4-10.9,0.5
	c-5,0.1-8.7-0.1-10.6-0.7l9.7-58.8c0,0,12,0.1,29.8,1l3.9,0.2c3.7,0.2,7.6,0.5,11.6,0.7c5.8,0.4,11.9,0.9,18.2,1.5
	c30.4,2.8,64.9,7.8,86.7,16.8C771.5,425.2,692.8,432.1,692.8,432.1z"/>
<path class="st8" d="M855.4,461.7v15.7c0,0-25.3,0.4-19.9-4.7c3.5-3.4,6.7-7,9.5-11L855.4,461.7z"/>
<path class="st8" d="M893.4,475.8l-20.6,1.6v-18.8c0,0,9.5-13.4,19.1,1.5l0.5,0.9L893.4,475.8z"/>
<circle class="st14" cx="241.4" cy="551.1" r="58.9"/>
<path class="st15" d="M288.6,551.1c0,26.2-21.1,47.4-47.3,47.5c-26.2,0-47.4-21.1-47.5-47.3c0-26.2,21.1-47.4,47.3-47.5
	c22.5,0,41.9,15.7,46.5,37.7C288.3,544.6,288.6,547.8,288.6,551.1z"/>
<ellipse class="st13" cx="241.3" cy="551.1" rx="40.6" ry="40.7"/>
<path class="st15" d="M254.9,505.6v1.7l-13.5,44.7l-10.8-47.2C238.6,503,247,503.3,254.9,505.6L254.9,505.6z"/>
<path class="st15" d="M254.8,596.5c-7.7,2.3-15.9,2.6-23.8,0.8l10.4-45.3L254.8,596.5z"/>
<path class="st15" d="M288.6,551.1c0,4.9-0.8,9.8-2.3,14.5h-0.2l-44.7-13.5l46.3-10.6C288.3,544.6,288.6,547.9,288.6,551.1z"/>
<path class="st15" d="M241.4,552.1l-44.7,13.5h-0.4c-2.5-7.8-2.9-16.1-1.3-24.2L241.4,552.1z"/>
<circle class="st14" cx="241.3" cy="551.1" r="5.2"/>
<circle class="st14" cx="771.1" cy="551.1" r="58.9"/>
<path class="st15" d="M818.3,551.1c0,26.2-21.1,47.4-47.3,47.5c-26.2,0-47.4-21.1-47.5-47.3c0-26.2,21.1-47.4,47.3-47.5
	c22.5,0,41.9,15.7,46.5,37.7C817.9,544.6,818.3,547.8,818.3,551.1z"/>
<ellipse class="st13" cx="771" cy="551.1" rx="40.6" ry="40.7"/>
<path class="st15" d="M784.6,505.6v1.7l-13.5,44.7l-10.8-47.2C768.3,503,776.7,503.3,784.6,505.6z"/>
<path class="st15" d="M784.5,596.5c-7.7,2.3-15.9,2.6-23.8,0.8l10.4-45.3L784.5,596.5z"/>
<path class="st15" d="M818.3,551.1c0,4.9-0.8,9.8-2.3,14.5h-0.2l-44.7-13.5l46.3-10.6C818,544.6,818.3,547.8,818.3,551.1z"/>
<path class="st15" d="M771.1,552.1l-44.7,13.5H726c-2.5-7.8-2.9-16.1-1.3-24.2L771.1,552.1z"/>
<circle class="st14" cx="771" cy="551.1" r="5.2"/>
<path class="st12" d="M426.4,419l-14.8,29.8h-16.4l10.9-18.8C412.3,426.5,419.1,422.8,426.4,419z"/>
<path class="st12" d="M467,401.1l-14.7,47.7h-21.7l17.7-40.1C454.3,406,460.6,403.5,467,401.1z"/>
<path class="st12" d="M620.2,387.8l-32.1,56.9l-1.4,0.1c-4,0.3-7.7,0.4-10.9,0.5l28.9-58.4l3.9,0.2
	C612.2,387.3,616.1,387.5,620.2,387.8z"/>
<polygon class="st16" points="377.3,448.6 359,574.8 512,571.5 537.2,449.2 "/>
<path class="st13" d="M661.6,581c-2.2,1-7.4,3.6-8.2,7.8H311.8l-7-0.1c1.5-2.5,2.8-5.1,4-7.7L661.6,581z"/>
<path class="st2" d="M557.7,670.3c1.6-2.1,3.1-4.6,3.5-7.6c0.5-3-0.4-6.6-2.5-7.7c-2.3-1.2-4.7,1-6.5,3.3c-1.8,2.3-3.9,4.8-6.4,4.4
	c2.5-3.2,3.7-8.1,3-12.9c-0.1-1-0.4-1.9-0.8-2.6c-1.3-1.9-3.5-1.1-5.1,0.4c-4.8,4.8-6.1,14-6.2,22.4c-0.5-3-0.1-6.1-0.1-9.2
	c0-3.1-0.6-6.5-2.4-8.2c-1.1-0.9-2.4-1.3-3.7-1.2c-2.2-0.1-4.6,0.2-6,2.4c-1.8,2.8-1.4,7.5,0.2,10.5c1.6,3.1,4,5,6.2,7.1
	c1.8,1.5,3.3,3.6,4.5,6c0.1,0.3,0.2,0.7,0.3,1.1h13.5C552.4,676.3,555.2,673.5,557.7,670.3z"/>
<path class="st2" d="M240.2,654.3c2.3-2.2,4.5-4.7,5.2-7.8s-0.6-6.8-3.6-8c-3.3-1.3-6.9,1-9.6,3.4s-5.8,5-9.3,4.5
	c3.7-3.4,5.4-8.4,4.4-13.3c-0.2-1-0.6-1.9-1.2-2.7c-1.9-2-5.2-1.1-7.4,0.4c-7,5-9,14.5-9,23.2c-0.7-3.1-0.1-6.3-0.1-9.5
	s-0.9-6.7-3.6-8.4c-1.7-0.9-3.6-1.3-5.5-1.3c-3.2-0.1-6.7,0.2-8.9,2.5c-2.7,2.9-2,7.7,0.4,10.9s5.9,5.2,9.2,7.3
	c2.6,1.6,4.9,3.7,6.5,6.3c0.2,0.4,0.4,0.7,0.5,1.1H228C232.4,660.5,236.6,657.7,240.2,654.3z"/>
<path class="st2" d="M747,675.5c1.8-1.5,3.2-3.5,3.8-5.8c0.5-2.3-0.5-5-2.7-5.9c-2.5-0.9-5.1,0.8-7.1,2.5s-4.3,3.7-6.9,3.3
	c2.7-2.5,4-6.2,3.2-9.8c-0.1-0.7-0.4-1.4-0.9-2c-1.4-1.5-3.8-0.8-5.5,0.3c-5.2,3.7-6.7,10.7-6.7,17.1c-0.5-2.3-0.1-4.7-0.1-7
	s-0.7-5-2.6-6.2c-1.2-0.7-2.6-1-4-1c-2.3-0.1-4.9,0.2-6.5,1.9c-2,2.1-1.5,5.7,0.3,8s4.3,3.8,6.8,5.4c1.9,1.2,3.6,2.7,4.8,4.6
	c0.1,0.3,0.3,0.5,0.4,0.8H738C741.3,680,744.3,677.9,747,675.5z"/>
<path class="st2" d="M846.4,656.5c1.8-1.5,3.2-3.5,3.8-5.8c0.5-2.3-0.5-5-2.7-5.9c-2.5-0.9-5.1,0.8-7.1,2.5s-4.3,3.7-6.9,3.3
	c2.7-2.5,4-6.2,3.2-9.8c-0.1-0.7-0.4-1.4-0.9-2c-1.4-1.5-3.8-0.8-5.5,0.3c-5.2,3.7-6.7,10.7-6.7,17.1c-0.5-2.3-0.1-4.7-0.1-7
	c0-2.3-0.7-5-2.6-6.2c-1.2-0.7-2.6-1-4-1c-2.3-0.1-4.9,0.2-6.5,1.9c-2,2.1-1.5,5.7,0.3,8s4.3,3.8,6.8,5.4c1.9,1.2,3.6,2.7,4.8,4.6
	c0.1,0.3,0.3,0.5,0.4,0.8h14.7C840.6,661.1,843.6,659,846.4,656.5z"/>
<path class="st4" d="M518.5,527.9h-0.3C518.2,527.9,529.7,524.8,518.5,527.9z"/>
<path class="st4" d="M613.6,585.8v1.7C613.4,586.9,613.4,586.3,613.6,585.8z"/>
<path class="st4" d="M645.1,613.5c-6.6,2-13.6,2.1-20.2,0.2l-1.7-4.4l20.1-4.3C643.3,605,644,608.5,645.1,613.5z"/>
<path class="st17" d="M533.4,578.4c0,0,17.7,3,22.1,12.5c4.4,9.5,31,35.4,31,35.4"/>
</svg>
