<?xml version="1.0" encoding="utf-8"?>
<!-- Generator: Adobe Illustrator 22.0.1, SVG Export Plug-In . SVG Version: 6.00 Build 0)  -->
<svg version="1.1" id="Layer_1" xmlns="http://www.w3.org/2000/svg" xmlns:xlink="http://www.w3.org/1999/xlink" x="0px" y="0px"
	 viewBox="0 0 1366 768" style="enable-background:new 0 0 1366 768;" xml:space="preserve">
<style type="text/css">
	.st0{opacity:0.1;fill:#6C63FF;enable-background:new    ;}
	.st1{fill:#6C63FF;}
	.st2{opacity:0.2;enable-background:new    ;}
	.st3{fill:#636780;}
	.st4{opacity:0.4;enable-background:new    ;}
	.st5{opacity:0.2;fill:#FFFFFF;enable-background:new    ;}
	.st6{opacity:0.1;fill:#FFFFFF;enable-background:new    ;}
	.st7{opacity:0.1;enable-background:new    ;}
	.st8{fill:#DCE0ED;}
	.st9{fill:#F0F0F4;}
	.st10{fill:none;}
	.st11{fill:#A8A8A8;}
	.st12{opacity:0.1;}
	.st13{fill:url(#SVGID_1_);}
	.st14{opacity:5.000000e-02;enable-background:new    ;}
	.st15{opacity:3.000000e-02;enable-background:new    ;}
	.st16{fill:#CC8294;}
	.st17{fill:#4B4B5B;}
	.st18{opacity:0.3;fill:#FFFFFF;enable-background:new    ;}
	.st19{fill:#838383;}
	.st20{fill:#ECECEC;}
	.st21{fill:#9B9B9B;}
	.st22{fill:#80D261;}
	.st23{fill:#CECECE;}
	.st24{fill:#4FC122;}
	.st25{fill:#A6E7F0;}
	.st26{fill:#6BD9E7;}
</style>
<path class="st0" d="M1088.1,539.9c-20.4,43.7-61.8,73-104.7,92.2C925.6,658,862,668.4,799.3,664c-11-0.7-21.9-2-32.8-3.7
	c-38-5.7-75-17-110-33.4c-10.1-4.7-20-9.9-29.7-15.5c-16.2-9.3-31.7-19.9-46.4-31.5c-3.7-3-7.4-6-11-9c-2.5-2.2-5-4.3-7.4-6.5
	c-5.3-4.5-10.7-8.7-16.8-11.9c-1.8-1-3.7-1.8-5.6-2.6c-19.3-7.6-41.4-4.7-61.5,1.2c-15.2,4.5-30.1,10.7-45.3,15.1
	c-6.8,2-13.7,3.5-20.6,4.5c-15.6,2.1-31.4,0.6-46.4-4.2l-1.3-0.4c-2.1-0.7-4.3-1.4-6.4-2.3l-1.3-0.5c-2.1-0.8-4.1-1.7-6-2.6
	l-1.3-0.6c-2.1-1-4.1-2-6-3.1c-0.7-0.4-1.4-0.8-2.1-1.2c-11.1-6.5-21.3-14.7-30.1-24.3c-0.2-0.2-0.5-0.6-0.8-0.8
	c-1.2-1.4-2.5-2.8-3.6-4.2c-0.5-0.6-0.8-1-1.3-1.6c-1.4-1.8-2.7-3.5-4-5.3c-0.2-0.2-0.4-0.6-0.5-0.8c-5.2-7.5-9.6-15.7-13-24.3
	c-0.1-0.2-0.2-0.6-0.3-0.8c-1-2.7-1.9-5.5-2.8-8.4c-0.3-1.2-0.7-2.4-1-3.6c-0.1-0.3-0.2-0.7-0.3-1c-4.2-17.3-4.7-35.4-4.7-53.3
	c0-2.1,0-4.1,0-6.3c0.2-29,0.5-58.5,4.7-87.1c0-0.2,0.1-0.4,0.1-0.6c1.4-9.7,3.2-19.2,5.6-28.6c2.5-9.9,5.6-19.6,9.4-29
	c9.4-23.1,23.3-44.2,38.5-63.8c38.5-48.9,89-90.2,148-105.6c63.7-16.7,134.4-0.7,185.8,41.8c15.7,12.9,29.7,28.3,47.3,38.2
	c15.3,8.6,33.3,12.2,49.7,5.4c13.6-5.6,22.4-8.5,37.7-7.6c31.6,1.8,62.7,8.6,92.4,20.1c1.2,0.5,2.4,1,3.6,1.4
	c77.3,30.8,143.7,91.8,178.3,170.4c0.9,2.1,1.8,4.1,2.7,6.3C1103.3,432.5,1110.8,491.2,1088.1,539.9z"/>
<g>
	<ellipse class="st0" cx="853.5" cy="512.4" rx="82.7" ry="11.3"/>
	<rect x="882.6" y="333.8" class="st0" width="20.7" height="25.6"/>
	<rect x="882.6" y="387.1" class="st0" width="20.7" height="25.6"/>
	<path class="st0" d="M903.3,440.3v20.2c-6.9-0.5-13.8-1.5-20.7-2.8v-17.5H903.3z"/>
	<rect x="746.2" y="315.3" class="st0" width="72.6" height="11.6"/>
	<rect x="746.2" y="350.5" class="st0" width="72.6" height="11.6"/>
	<path class="st0" d="M818.8,385.9v11.6h-53.6c-2.3-2.2-4.6-4.5-6.9-6.8c-1.6-1.6-3.1-3.2-4.7-4.9L818.8,385.9L818.8,385.9z"/>
	<path class="st0" d="M818.8,421.2v11.6h-5.7c-6.3-3.6-12.6-7.4-18.7-11.6H818.8z"/>
	<rect x="645.5" y="282.3" class="st0" width="13.5" height="16.7"/>
	<rect x="645.5" y="321.1" class="st0" width="13.5" height="16.7"/>
	<rect x="645.5" y="360" class="st0" width="13.5" height="16.7"/>
	<rect x="938" y="326.2" class="st0" width="13.5" height="16.7"/>
	<rect x="938" y="367.4" class="st0" width="13.5" height="16.7"/>
	<rect x="989.5" y="367.4" class="st0" width="13.5" height="16.7"/>
	<rect x="938" y="408.6" class="st0" width="13.5" height="16.7"/>
	<rect x="989.5" y="408.6" class="st0" width="13.5" height="16.7"/>
	<polygon class="st0" points="938,460.6 938,449.8 951.5,449.8 951.5,459 	"/>
	<path class="st0" d="M589,351.6c0.1,0.2,0.2,0.4,0.3,0.6h2.5v4c0.3,0.4,0.5,0.8,0.8,1.2v-5.2h3.8v8.4h-1.5c0.1,0.2,0.3,0.4,0.5,0.6
		h34.3v-9.6H589z M601.1,360.6h-3.8v-8.4h3.8V360.6z M605.7,360.6h-3.8v-8.4h3.8V360.6z M610.3,360.6h-3.8v-8.4h3.8V360.6z
		 M614.9,360.6h-3.8v-8.4h3.8V360.6z M619.5,360.6h-3.8v-8.4h3.8V360.6z M624.1,360.6h-3.8v-8.4h3.8V360.6z M628.9,360.6h-4v-8.4h4
		V360.6z"/>
	<path class="st0" d="M614.3,379.4c0.4,0.3,0.9,0.6,1.3,0.9V380h3.8v2.6l0.8,0.5V380h3.8v5.1l0.8,0.4V380h4v7.2l0.8,0.3v-8.1H614.3z
		"/>
	<path class="st0" d="M710.4,276.7c0,0-3.9,13.5,4.2,14.7c0.8,0.5,1.7,0.3,2.3-0.5c0,0-0.6-0.2,0-1.6c0.2-0.5,0.3-1,0.4-1.5
		c0.1-0.7,0-1.4-0.2-2l0,0c0,0-0.4-4.3-5.1-7.7c0,0-0.9-1.5-1.2-1.6l0.2,2.6c0,0,1.5-0.3,2.5,0.7c0,0-2.4-0.8-2.5-0.4
		c0,0.1,0.2,1.4,0.2,1.4s2.7-0.5,4.1,1.1c0,0-2.8-1.4-4.1-0.7l0.4,1.9c0,0,2.8-0.7,4.5,1.1c0,0-3-1.4-4.4-0.7l0.6,1.8
		c0,0,2.8-0.6,4.2,0.9c0,0-3.6-1.2-4-0.5c0.2,0.7,0.6,1.4,1,2c0,0,2-0.4,2.8,0.6c0,0-2.4-0.5-2.5-0.2c0,0,1.3,1.9,2.3,2.4
		c-1-0.4-1.8-1.1-2.5-2.1c0,0.8,0,1.6,0.3,2.3c0,0-1.1-0.6-0.6-2.7c0,0-0.9-1.5-0.9-1.8c0,0-0.6,2-0.5,3.5c0,0-0.8-1.5,0.3-3.9
		l-0.6-1.8c0,0-1,2.6-0.9,3.9c0,0-0.6-1.7,0.8-4.4l-0.4-1.9c-0.5,1.1-0.9,2.3-1.2,3.6c0,0-0.3-1.7,1.1-4.1l-0.1-1.3
		c0,0-0.7,1.6-0.8,2.1c-0.1,0.5-0.3,0.5-0.3,0.5c0.1-1.1,0.5-2.2,1.1-3.1C710.7,279.4,710.6,276.7,710.4,276.7z"/>
	<polygon class="st1" points="1009.9,439.7 1014.8,446.1 1022.5,429.2 1021.8,427.4 	"/>
	<polygon class="st2" points="1009.9,439.7 1014.8,446.1 1022.5,429.2 1021.8,427.4 	"/>
	<path class="st3" d="M667.1,425.3c0,32-17.7,38.8-35.4,38.8c-17.7,0-27.7-27-27.7-59s14.4-57.9,32.2-57.9S667.1,393.3,667.1,425.3z
		"/>
	<path class="st2" d="M667.1,425.3c0,32-17.7,38.8-35.4,38.8c-17.7,0-27.7-27-27.7-59s14.4-57.9,32.2-57.9S667.1,393.3,667.1,425.3z
		"/>
	<path class="st3" d="M654.9,406.1c0,32-11.4,57.9-25.5,57.9c-14.1,0-26-25.9-26-57.9c0-4.4-0.5-8.7-0.1-12.9
		c2.6-25.8,14-45.1,26.1-45.1C643.5,348.2,654.9,374.2,654.9,406.1z"/>
	<path class="st1" d="M652.3,265.1c0,0-22.3,31-29.4,56.8l192.7,26.3l103.2-26.4c0,0-40.9-60.6-52-63
		C855.8,256.6,652.3,265.1,652.3,265.1z"/>
	<path class="st4" d="M652.3,265.1c0,0-22.3,31-29.4,56.8l192.7,26.3l103.2-26.4c0,0-40.9-60.6-52-63
		C855.8,256.6,652.3,265.1,652.3,265.1z"/>
	<polygon class="st1" points="793.7,343.9 824.7,451.3 824.7,424.1 833.3,393.6 857.1,380.6 887.4,397.6 898.2,401.8 899.1,377 
		863.2,355 846.4,345.1 808.1,341 797.5,338.6 	"/>
	<path class="st1" d="M807.5,355l28.1,4c-1.3-13.9,7.1-13.9,7.1-13.9l-28.1-6.1h-13.1"/>
	<path class="st3" d="M824.7,467.7h19.9l57.8-2.4c0,0,1.3,13.7,16.5,10.4c0,0,8.4,0.7,9.3-5c0.9-5.6-19.1-57.7-19.1-57.7l-27.3-25.2
		l-24.7-7.4l-17.7,6.5l-11.3,22.2l-7.1,30.4L824.7,467.7z"/>
	<path class="st2" d="M824.7,467.7h19.9l57.8-2.4c0,0,1.3,13.7,16.5,10.4c0,0,8.4,0.7,9.3-5c0.9-5.6-19.1-57.7-19.1-57.7l-27.3-25.2
		l-24.7-7.4l-17.7,6.5l-11.3,22.2l-7.1,30.4L824.7,467.7z"/>
	<path class="st1" d="M656.2,272.5c-2.9,2.9-11.9,13.2-19.4,35.2c-0.9,2.7,0.1,5.8,2.2,6.9c0.4,0.2,0.7,0.3,1.2,0.4l45.3,7.2
		c3.4,0.5,6.7-2.2,7.6-6.4l8-40.2c0.4-2.2-0.6-4.3-2.4-4.9c-0.3-0.1-0.6-0.1-0.8-0.1l-39.6,0.9C657.5,271.6,656.8,271.9,656.2,272.5
		z"/>
	<path class="st5" d="M656.2,272.5c-2.9,2.9-11.9,13.2-19.4,35.2c-0.9,2.7,0.1,5.8,2.2,6.9c0.4,0.2,0.7,0.3,1.2,0.4l45.3,7.2
		c3.4,0.5,6.7-2.2,7.6-6.4l8-40.2c0.4-2.2-0.6-4.3-2.4-4.9c-0.3-0.1-0.6-0.1-0.8-0.1l-39.6,0.9C657.5,271.6,656.8,271.9,656.2,272.5
		z"/>
	<path class="st1" d="M722.1,270.6l51-0.6c3.7-0.1,7,3,8.2,7.6l15.9,44.7c1.4,5.2-1.6,10.7-5.8,10.4l-74.5-6.1
		c-6.2-0.4-10.6-8.3-9.1-16.3l5.4-30.4C714.2,274.6,717.8,270.7,722.1,270.6z"/>
	<path class="st5" d="M722.1,270.6l51-0.6c3.7-0.1,7,3,8.2,7.6l15.9,44.7c1.4,5.2-1.6,10.7-5.8,10.4l-74.5-6.1
		c-6.2-0.4-10.6-8.3-9.1-16.3l5.4-30.4C714.2,274.6,717.8,270.7,722.1,270.6z"/>
	<path class="st1" d="M801.4,269.9c13.9-0.3,50.9-1.6,69.3-6.9c0,0,31.6,29.4,41,51.6c0,0-49.2,14.8-83.2,16.8
		c-5.1,0.3-9.9-3.2-12.2-9l-18-46.3c-0.9-2.2-0.1-4.7,1.6-5.8C800.4,270.1,800.8,269.9,801.4,269.9z"/>
	<path class="st5" d="M801.4,269.9c13.9-0.3,50.9-1.6,69.3-6.9c0,0,31.6,29.4,41,51.6c0,0-49.2,14.8-83.2,16.8
		c-5.1,0.3-9.9-3.2-12.2-9l-18-46.3c-0.9-2.2-0.1-4.7,1.6-5.8C800.4,270.1,800.8,269.9,801.4,269.9z"/>
	<path class="st6" d="M819,276.6c5.8-0.1,17.1-0.5,28.2-1.5c16.5-1.6,32.7,6.5,43.7,21.9l0.3,0.5c2.5,3.5,2.2,8.9-0.7,12
		c-0.9,1-1.9,1.6-3.1,1.9c-12.2,3.2-33,8.2-49,9.2c-3.7,0.2-7.2-2.3-8.8-6.4l-12.9-33.1c-0.6-1.6-0.1-3.4,1.2-4.1
		C818.4,276.7,818.7,276.6,819,276.6z"/>
	<path class="st1" d="M824.7,451.3v16.5l-147.5-27.9c-7.2-3.1-11.5-1.2-11.5-1.2c-5.3-3.2-9.2-15.8-9.3-16.2l0,0l2.8-10l-22.6-46.3
		l-30.1,1.5c4.7-46.8,18.4-49,18.4-49l176.7,20.3L824.7,451.3z"/>
	<path class="st7" d="M792.9,352.7c-1.2,1.6-3.3,3-7.2,2.9c-6-0.2-7.1-6.5-7.3-10.2c0-0.9,0-1.9,0-2.8l7.8-3l1.6,1.9l4.7,5.5
		C794,348.5,794.1,351,792.9,352.7z"/>
	<path class="st8" d="M792.9,352.2c-1.2,1.6-3.3,3-7.2,2.9c-6-0.2-7.1-6.5-7.3-10.2c0-0.9,0-1.9,0-2.8l7.8-3l1.6,1.9l4.7,5.5
		C794,347.9,794.1,350.5,792.9,352.2z"/>
	<path class="st7" d="M788,340.9c-1,3.2-4,4-4,4l-5.5-0.1c0-0.9,0-1.9,0-2.8l7.8-3L788,340.9z"/>
	<path class="st9" d="M768,316.7c0,0-12.5,2.1-9.2,16.1c2.5,10.6,8.2,11.3,10.7,11c1.5-0.2,3-0.2,4.6-0.2l9.9,0.2c0,0,5.6-1.6,4-8.6
		C786.4,328.3,779.2,315.6,768,316.7z"/>
	<ellipse class="st2" cx="700.2" cy="349.8" rx="5.8" ry="9.3"/>
	<path class="st7" d="M693.7,345.9l16.4,2.2c1.4,0.2,2.4,1.7,2.3,3.5l0,0c-0.1,1.7-1.4,3-2.8,2.8l-16.4-2.2
		c-1.4-0.2-2.4-1.7-2.3-3.5l0,0C691.1,347,692.3,345.7,693.7,345.9z"/>
	<path class="st9" d="M693.7,345.4l16.4,2.2c1.4,0.2,2.4,1.7,2.3,3.5l0,0c-0.1,1.7-1.4,3-2.8,2.8l-16.4-2.2
		c-1.4-0.2-2.4-1.7-2.3-3.5l0,0C691.1,346.4,692.3,345.2,693.7,345.4z"/>
	<path class="st7" d="M604.6,410.4c0,0-10.4-12.6,2.2-43.1c0,0,16.1-30.2,41.2,2.8c0,0,14.4,19.9,18.5,51.6l-9.8,0.2
		c0,0-9.4-56.3-36.9-53.4C619.8,368.6,599.8,373,604.6,410.4z"/>
	<path class="st7" d="M604.2,412c0,0-10.4-12.6,2.2-43.1c0,0,16.1-30.2,41.2,2.8c0,0,14.4,19.9,18.5,51.6l-9.8,0.2
		c0,0-9.4-56.3-36.9-53.4C619.4,370.1,599.4,374.5,604.2,412z"/>
	<path class="st1" d="M604.2,410.9c0,0-10.4-12.6,2.2-43.1c0,0,16.1-30.2,41.2,2.8c0,0,14.4,19.9,18.5,51.6l-9.8,0.2
		c0,0-9.4-56.3-36.9-53.4C619.4,369.1,599.4,373.5,604.2,410.9z"/>
	<path class="st2" d="M604.2,410.9c0,0-10.4-12.6,2.2-43.1c0,0,16.1-30.2,41.2,2.8c0,0,14.4,19.9,18.5,51.6l-9.8,0.2
		c0,0-9.4-56.3-36.9-53.4C619.4,369.1,599.4,373.5,604.2,410.9z"/>
	<path class="st10" d="M824.7,451.3v16.5l-147.5-27.9c-7.2-3.1-11.5-1.2-11.5-1.2c-5.3-3.2-9.2-15.8-9.3-16.2l0,0l9.8-0.2l28.4,4.9
		l103.1,18.3c0,0,18.3,2.6,19.3,3.6C817.9,450.2,824.7,451.3,824.7,451.3z"/>
	<path class="st7" d="M824.7,450.7v16.5l-147.5-27.9c-7.2-3.1-11.5-1.2-11.5-1.2c-5.3-3.2-9.2-15.8-9.3-16.2l0,0l9.8-0.2l28.4,4.9
		L797.6,445c0,0,18.3,2.6,19.3,3.6C817.9,449.6,824.7,450.7,824.7,450.7z"/>
	<path class="st1" d="M824.7,451.3v16.5l-147.5-27.9c-7.2-3.1-11.5-1.2-11.5-1.2c-5.3-3.2-9.2-15.8-9.3-16.2l0,0l9.8-0.2l28.4,4.9
		l103.1,18.3c0,0,18.3,2.6,19.3,3.6C817.9,450.2,824.7,451.3,824.7,451.3z"/>
	<path class="st2" d="M824.7,451.3v16.5l-147.5-27.9c-7.2-3.1-11.5-1.2-11.5-1.2c-5.3-3.2-9.2-15.8-9.3-16.2l0,0l9.8-0.2l28.4,4.9
		l103.1,18.3c0,0,18.3,2.6,19.3,3.6C817.9,450.2,824.7,451.3,824.7,451.3z"/>
	<path class="st10" d="M1023.8,390.5c0,0-49.2,31-109.9,27.9c0,0-13.7,0.8-14.6-0.7c-0.9-1.6,3.5,6.5,3.5,6.5s1.7-2.2,3.3-2.2
		c1.6,0,9.3,0.7,9.3,0.7s87.3-4.6,109.6-29.1L1023.8,390.5z"/>
	<path class="st2" d="M694.3,427.2c-9.2-36.4-8.7-61.8-6.6-76.7c2.2-16.2,6.6-23.8,6.7-23.8l0.3,0.3c0,0.1-4.5,7.7-6.6,23.7
		c-2,14.9-2.5,40.1,6.6,76.4L694.3,427.2z"/>
	<path class="st1" d="M1025.2,411.2c0.4,1.7,1.2,6.4-0.1,7.7c-0.5,0.5-1,1.7-1.3,3.1c-0.5,2.4-0.9,4.8-1.2,7.2l-14.2,19.6l-24,11.6
		l-57.4,4.9l-34.6-69.7L814.6,339l21.3-1.4c21.3-1.4,81.5-18,81.5-18l68.2,18.6c11,3,20.8,11,27.4,22.3c8.3,14.4,12.1,30,12.1,30
		c1,1.5,1.4,4,1.5,6.8c0.1,4.4-0.7,9.5-1.2,11.9c-0.1,0.9-0.3,1.4-0.3,1.4S1025.1,410.9,1025.2,411.2z"/>
	<path class="st7" d="M816.9,448.1c0,0-4.2-55.2,27.1-70.2c0,0,44-23,69.9,39.5l13.1,35.6c0,0,3.8,8.7,14,8.5
		c0,0,48.2-1.8,73.6-21.9l7.9-11.4c0,0-4,16-7.9,19.6c0,0-15.6,22.7-72.6,26.8c0,0-23.3,3.1-30.3-24.3c0,0-9.5-61.9-57.9-61.4
		c0,0-28.4,0.7-29.1,61.2L816.9,448.1z"/>
	<path class="st1" d="M816.9,449.1c0,0-4.2-55.2,27.1-70.2c0,0,44-22.9,69.9,39.5L927,454c0,0,3.8,8.7,14,8.5
		c0,0,48.2-1.8,73.6-21.9l7.9-11.4c0,0-4,16-7.9,19.6c0,0-15.6,22.7-72.6,26.8c0,0-23.3,3.1-30.3-24.3c0,0-9.5-61.9-57.9-61.4
		c0,0-28.4,0.7-29.1,61.2L816.9,449.1z"/>
	<path class="st2" d="M816.9,449.1c0,0-4.2-55.2,27.1-70.2c0,0,44-22.9,69.9,39.5L927,454c0,0,3.8,8.7,14,8.5
		c0,0,48.2-1.8,73.6-21.9l7.9-11.4c0,0-4,16-7.9,19.6c0,0-15.6,22.7-72.6,26.8c0,0-23.3,3.1-30.3-24.3c0,0-9.5-61.9-57.9-61.4
		c0,0-28.4,0.7-29.1,61.2L816.9,449.1z"/>
	<path class="st2" d="M809.6,447.4l-1.9-76.8c0.2-5.2,0.1-10.4-0.5-15.6c0-0.3-1.5-8.3-3.5-12.8c-1.3-2.3-2.4-3-2.4-3.1l-1.1-0.4
		l1.3-0.1c0.9,0.2,1.7,1.3,2.4,2.9c1.4,2.3,3,6.4,3.8,13.4c0.6,5.2,0.7,10.4,0.5,15.6l1.9,76.7L809.6,447.4z"/>
	<path class="st2" d="M847.9,390.4l-0.4,0.1c0-0.1-0.9-6.4-3.7-11.5c-6-10.6-7.9-17.8-8.2-22.6c-0.1-1.7,0-3.4,0.5-4.9
		c0.9-3.2,3.4-5.6,6.8-6.8l0,0l0.7,0.2c-3.3,1.1-6.3,3.8-7.2,6.8c-0.4,1.6-0.6,3.2-0.5,4.9c0.2,4.7,2.2,11.7,8.1,22.2
		C847.1,383.9,847.9,390.4,847.9,390.4z"/>
	<path class="st2" d="M981.5,365.5c-26.6-19.7-82.8-37.9-83.4-38l0.1-0.5c0.6,0.2,56.9,18.5,83.5,38.1L981.5,365.5z"/>
	<path class="st2" d="M1020.2,392.7c-10-21.9-37-39.8-58-51.1c-14.1-7.5-28.6-14-43.4-19.4l0.1-0.5c14.8,5.4,29.3,11.9,43.5,19.4
		c21,11.3,48,29.4,58.2,51.3L1020.2,392.7z"/>
	
		<ellipse transform="matrix(0.8593 -0.5114 0.5114 0.8593 -45.4411 567.2795)" class="st7" cx="1008.5" cy="366.2" rx="5.1" ry="23.6"/>
	
		<ellipse transform="matrix(0.8593 -0.5114 0.5114 0.8593 -44.9187 567.1399)" class="st8" cx="1008.5" cy="365.2" rx="5.1" ry="23.6"/>
	
		<ellipse transform="matrix(0.8572 -0.5149 0.5149 0.8572 -44.0241 571.734)" class="st7" cx="1009.1" cy="365.3" rx="3.3" ry="19.5"/>
	
		<ellipse transform="matrix(0.8572 -0.5149 0.5149 0.8572 -43.7514 571.6516)" class="st9" cx="1009.1" cy="364.7" rx="3.3" ry="19.5"/>
	<path class="st7" d="M958.4,404.8c0,0,1.4-12.6,9.4-15.5c0,0,27.3-9.8,33.3-9.9c0,0,6.1-2.3,10.2,3.4l4.2,6.9c0,0,2.9,5.7-3.5,6.7
		c0,0-33,15-47.4,16.5c-0.8,0.1-1.6,0.2-2.4,0.5C960,414,955.6,414.1,958.4,404.8z"/>
	<path class="st9" d="M958.8,404.3c0,0,1.4-12.6,9.4-15.5c0,0,27.3-9.8,33.3-9.9c0,0,6.1-2.3,10.2,3.4l4.2,6.9c0,0,2.9,5.7-3.5,6.7
		c0,0-33,15-47.4,16.5c-0.8,0.1-1.6,0.2-2.4,0.5C960.4,413.5,956.1,413.6,958.8,404.3z"/>
	<path class="st7" d="M961.7,403.3c0,0,1.3-10.8,8.7-13.2c0,0,25.4-8.4,30.9-8.5c0,0,5.7-2,9.5,2.9l3.9,6c0,0,2.7,4.9-3.3,5.8
		c0,0-30.7,12.8-44,14.1c-0.7,0.1-1.5,0.2-2.2,0.4C963.2,411.1,959.1,411.2,961.7,403.3z"/>
	<path class="st3" d="M962.1,402.7c0,0,1.3-10.8,8.7-13.2c0,0,25.4-8.4,30.9-8.5c0,0,5.7-2,9.5,2.9l3.9,6c0,0,2.7,4.9-3.3,5.8
		c0,0-30.7,12.8-44,14.1c-0.7,0.1-1.5,0.2-2.2,0.4C963.6,410.5,959.6,410.7,962.1,402.7z"/>
	<path class="st9" d="M964.2,396.1l0-0.5c0.4-0.1,37.5-5.8,45.5-13.4l0.2,0.4C1001.8,390.3,965.8,395.8,964.2,396.1z"/>
	<path class="st9" d="M962.3,402l-0.1-0.5c0.4-0.1,41.2-9.5,50-16.2l0.2,0.4C1003.6,392.5,962.7,401.9,962.3,402z"/>
	<path class="st9" d="M961.3,406.9l-0.1-0.5c0.5-0.1,47.5-11.1,53.3-17.5l0.3,0.4C1008.9,395.8,963.3,406.4,961.3,406.9z"/>
	<path class="st7" d="M1010.2,407.2c0,0-17.7,9.2-36.3,13.2c-1.6,0.4-3.3,0.8-4.9,1.4c-1.9,0.7-4.6,1.4-6.1,0.9
		c-2.4-0.8-3.7,2.8-1.1,5.7l0.1,0.2c1.9,2,4.4,3.1,6.9,2.8l4-0.4c0,0,32.3-8.7,41.3-15.6c0,0,4.1-3.5,4.5-7.4s0.7-7-2.6-4.7
		C1012.8,405.5,1010.2,407.2,1010.2,407.2z"/>
	<path class="st9" d="M1010.6,406.6c-0.7,0.4-18.1,9.2-36.3,13.2c-1.6,0.4-3.3,0.8-4.9,1.4c-1.9,0.7-4.6,1.4-6.1,0.9
		c-2.4-0.8-3.7,2.8-1.1,5.7l0.1,0.1c1.9,2.2,4.5,3.2,7.1,2.9l3.8-0.4h0c1.1-0.3,32.4-8.9,41.3-15.6h0c0.3-0.2,4.1-3.6,4.4-7.4
		c0.3-4,0.7-7-2.6-4.7C1013.4,404.9,1010.9,406.6,1010.6,406.6L1010.6,406.6z"/>
	<path class="st7" d="M1008.2,409.6c0,0-14.5,7.5-30.1,11.7c-1.5,0.4-3.1,0.9-4.6,1.4c-1.5,0.5-3.7,1.2-4.9,1
		c-2.1-0.4-3.1,2.2-0.7,4l0.1,0.1c1.7,1.3,3.8,1.8,5.9,1.4l3.6-0.6c0,0,27.2-8.4,34.6-13.8c0,0,3.4-2.7,3.5-5.4
		c0.1-2.7,0.3-4.8-2.4-3C1010.4,408.2,1008.2,409.6,1008.2,409.6z"/>
	<path class="st3" d="M1008.6,409c-0.3,0.2-14.7,7.5-30.1,11.7c-1.5,0.4-3.1,0.9-4.6,1.4c-1.5,0.5-3.7,1.2-4.9,1
		c-2.1-0.4-3.1,2.2-0.7,4l0,0c1.8,1.3,3.9,1.9,6,1.5l3.5-0.6l0,0c0.6-0.2,27.3-8.5,34.6-13.8l0,0c0.1-0.1,3.4-2.8,3.5-5.4
		c0.1-2.6,0.3-4.8-2.4-3C1010.8,407.7,1008.7,409,1008.6,409L1008.6,409z"/>
	
		<ellipse transform="matrix(2.826778e-02 -0.9996 0.9996 2.826778e-02 487.9373 1363.741)" class="st7" cx="945.4" cy="430.9" rx="6.8" ry="4.1"/>
	
		<ellipse transform="matrix(2.814555e-02 -0.9996 0.9996 2.814555e-02 487.963 1363.6125)" class="st9" cx="945.3" cy="430.9" rx="6.8" ry="4.1"/>
	<path class="st7" d="M969.2,436c0,0-21.2,4-26.9,4.4c-5.7,0.4-6.5,4.3-6.5,4.3s-1.4,9.8,6.4,6.9l27.7-3.9c0,0,3.8,0.1,3.8-6.2v-1.4
		c0-0.8,0.1-1.6,0.2-2.4C974.1,436.8,973.7,435.2,969.2,436z"/>
	<path class="st9" d="M969.6,435.6c0,0-21.2,4-26.9,4.4s-6.4,4.3-6.4,4.3s-1.4,9.8,6.4,6.9l27.7-3.9c0,0,3.8,0.1,3.8-6.2v-1.4
		c0-0.8,0.1-1.6,0.2-2.4C974.6,436.3,974.1,434.7,969.6,435.6z"/>
	<path class="st9" d="M1025,418.9c-0.5,0.5-1,1.7-1.3,3.1l0,0l-6.9,6.1c-0.2,0.2-0.6,0.1-0.8-0.2c0-0.1-0.1-0.2-0.1-0.4v-6.3
		c0-1.9,0.8-3.5,2.1-4.5l7.2-5.3C1025.5,413,1026.4,417.6,1025,418.9z"/>
	<path class="st3" d="M976.4,436.4l-0.3,6.4c-0.1,2.3,1.3,4.4,3.1,4.6c0.2,0,0.5,0,0.8,0c11.7-2.3,23-7.3,33.2-14.7l0.9-13.1
		c0.1-1-0.5-1.9-1.3-2c-0.2-0.1-0.5,0-0.7,0.1c-5.8,3.2-21.4,11.4-31.3,13C978.3,431,976.5,433.4,976.4,436.4z"/>
	<path class="st1" d="M979.5,433.1v10.4c0,0,25.9-7.5,31.6-12.6V421C1001,426.6,990.4,430.7,979.5,433.1z"/>
	<path class="st1" d="M1024.9,409.7c-1.3-0.1-2.4-2.9-2.4-6.3c0-3.4,1.1-6.3,2.4-6.3c0.4,0,0.8,0.2,1.1,0.7
		C1026.1,402.3,1025.3,407.3,1024.9,409.7z"/>
	<path class="st9" d="M1025.3,409.2c-1.3-0.1-2.4-2.9-2.4-6.3c0-3.4,1.1-6.3,2.4-6.3c0.4,0,0.8,0.3,1.1,0.7
		C1026.6,401.7,1025.7,406.8,1025.3,409.2z"/>
	<path class="st3" d="M906.3,453.3c0,56.7-19.4,57.9-44.6,57.9c-20.2,0-28.4-25.9-28.4-57.9s6.5-57.9,26.7-57.9
		C880.1,395.4,906.3,421.3,906.3,453.3z"/>
	<path class="st2" d="M906.3,453.3c0,56.7-19.4,57.9-44.6,57.9c-20.2,0-28.4-25.9-28.4-57.9s6.5-57.9,26.7-57.9
		C880.1,395.4,906.3,421.3,906.3,453.3z"/>
	<ellipse class="st3" cx="858.7" cy="453.3" rx="25.5" ry="57.9"/>
	<path class="st9" d="M640.6,418.9c0,17.4-4.1,31.3-12.5,31.3s-18.4-14.1-18.4-31.5s3.5-32.7,12-32.7S640.6,401.5,640.6,418.9z"/>
	<path class="st3" d="M640.6,418.2c0,1.3,0,2.6-0.1,3.9c-0.1,3.4-0.5,6.6-1.2,9.9c-1.4,6.4-3.9,10.8-7.5,11.7
		c-0.4,0.1-0.9,0.1-1.3,0.1c-1.9-0.1-3.8-0.8-5.4-2.2c-3.5-2.8-6.7-7.8-8.3-14.3c-0.6-2.3-1-4.8-1.1-7.2c0-0.7,0-1.4,0-2
		c0-4.7,0.3-9.5,1.2-14.1c0.4-2.8,1.3-5.5,2.5-8c1.5-2.9,3.5-4.6,6-4.6c1.9,0.1,3.7,0.8,5.3,2.2c2.3,2,4.3,4.5,5.8,7.4
		C639,406.1,640.5,412.1,640.6,418.2z"/>
	<path class="st9" d="M640.3,422.9c-0.2,3.3-0.8,6.6-1.6,9.8c-0.2-0.3-4.6-7.4-8.5-3.2c-2.7,3.1-0.9,10.5,0.4,14.4
		c-0.4,0.1-0.9,0.1-1.3,0c-1.9-0.2-3.8-1.1-5.3-2.5l0-0.5c0,0,2.5-8.1-3-13.4c0,0-2.7-1.5-4.8-0.8c-0.5-2.4-0.8-4.8-0.8-7.3
		c0.5-0.4,4-3.8,2.9-10.4c-0.3-1.9-0.7-3.8-1.1-5.6c0.6-2.8,1.5-5.4,2.8-7.8c0,0,0.8,7.4,5,8s6.4-9.5,6.5-9.8
		c2.2,2.1,4.1,4.8,5.5,7.8c0,0-6.8,3-5.2,12.2C633,420.4,637.7,422.3,640.3,422.9z"/>
	
		<ellipse transform="matrix(0.9953 -9.658468e-02 9.658468e-02 0.9953 -37.3275 62.4421)" class="st3" cx="626.3" cy="416.8" rx="3.2" ry="6.7"/>
	<path class="st9" d="M863.2,455.7c0,20.8-3.6,37.5-11,37.5s-16.3-16.9-16.3-37.7s3.1-39.2,10.6-39.2S863.2,434.8,863.2,455.7z"/>
	<path class="st3" d="M863.2,454.9c0,1.6,0,3.2-0.1,4.7c-0.1,4-0.4,7.9-1.1,11.9c-1.2,7.7-3.4,13-6.6,14c-0.4,0.1-0.8,0.2-1.2,0.2
		c-1.5,0-3.2-0.9-4.7-2.6c-3.1-3.3-5.9-9.5-7.4-17.1c-0.5-2.9-0.9-5.8-1-8.7c0-0.8,0-1.6,0-2.5c0-5.6,0.3-11.3,1-16.9
		c0.4-3.3,1.1-6.5,2.2-9.6c1.3-3.5,3.1-5.6,5.3-5.6c1.5,0,3.1,1,4.6,2.6c1.8,2,3.7,5.1,5.1,8.9C861.9,440.7,863.2,447.8,863.2,454.9
		z"/>
	<path class="st9" d="M863.1,459.6c-0.1,4-0.4,7.9-1.1,11.9c-0.1-0.3-4.4-8.5-7.6-3.2c-2.3,3.8-0.4,12.6,0.9,17.3
		c-0.4,0.1-0.8,0.2-1.2,0.2c-1.5,0-3.2-0.9-4.7-2.6v-0.6c0,0,1.9-9.8-3.1-15.9c0,0-2.4-1.6-4.3-0.7c-0.5-2.9-0.9-5.8-1-8.7
		c0.4-0.6,3.3-4.8,2.2-12.7c-0.4-3-0.9-5.2-1.2-6.6c0.4-3.3,1.1-6.5,2.2-9.6c0,0,1,8.7,4.6,9.3c3.7,0.5,5.3-11.9,5.3-12.2
		c1.8,2,3.7,5.1,5.1,8.9c0,0-5.9,4.1-4.2,15C856.5,457.1,860.7,459,863.1,459.6z"/>
	
		<ellipse transform="matrix(0.9981 -6.132519e-02 6.132519e-02 0.9981 -26.2484 52.9419)" class="st3" cx="849.4" cy="454.1" rx="2.8" ry="8"/>
	<path d="M814.6,339.1"/>
	<path class="st2" d="M919.7,365l-0.1,0.5c-0.1-0.1-14.6-7.8-68-19c-2.5-0.5-5.1-1.1-7.7-1.6c-0.2-0.1-0.5-0.1-0.7-0.1
		c-8.6-1.7-18-3.5-28.4-5.4l0-0.5c14.1,2.5,26.4,4.9,37.2,7.2C905.1,357.2,919.5,364.9,919.7,365z"/>
	<path class="st7" d="M637.3,308.7c7.5-21.9,16.6-32.3,19.4-35.2c0.6-0.5,1.3-0.9,2-0.9l39.6-0.9c1.1-0.1,2.1,0.6,2.7,1.7
		c-0.4-1.7-1.7-2.8-3.1-2.8l-39.6,0.9c-0.7,0-1.4,0.3-2,0.9c-2.9,2.9-11.9,13.2-19.4,35.2c-0.6,1.6-0.4,3.5,0.3,5
		C636.8,311.4,636.9,309.9,637.3,308.7z"/>
	<path class="st7" d="M708.6,311.1l5.4-30.4c1-5.5,4.6-9.4,8.9-9.5l51-0.6c1.9,0,3.8,0.8,5.3,2.3c-1.6-2.1-3.8-3.4-6.1-3.3l-51,0.6
		c-4.3,0.1-7.9,4-8.9,9.5l-5.4,30.4c-0.9,5,0.4,10.2,3.6,13.5C708.8,320.4,707.8,315.6,708.6,311.1z"/>
	<path class="st7" d="M818.9,323.9l-18.1-46.3c-0.8-2.2-0.1-4.8,1.6-5.8c0.4-0.3,1-0.4,1.5-0.4c13.8-0.3,49.9-1.6,68.6-6.6
		c-1.2-1.1-1.8-1.7-1.8-1.7c-18.4,5.3-55.3,6.5-69.3,6.9c-1.9,0.1-3.5,2-3.4,4.4c0,0.6,0.1,1.3,0.3,1.8l18.1,46.3
		c1.5,3.8,4.2,6.8,7.4,8.1C821.7,328.9,820,326.6,818.9,323.9z"/>
	<rect x="816.9" y="449.1" class="st1" width="7.8" height="3"/>
	<rect x="816.9" y="449.1" class="st2" width="7.8" height="3"/>
	<path class="st1" d="M665.7,419.7l-9.6,2c0,0.4,0.1,0.8,0.3,1.2c0.2,0.6,10.7-0.5,10.7-0.5l-1-0.2L665.7,419.7z"/>
	<path class="st2" d="M665.7,419.7l-9.6,2c0,0.4,0.1,0.8,0.3,1.2c0.2,0.6,10.7-0.5,10.7-0.5l-1-0.2L665.7,419.7z"/>
	<path class="st7" d="M629.6,448.8c-8.4,0-18.5-14.1-18.5-31.5c0-11.9,1.6-22.9,5.4-28.6c-4.8,4.9-7,17-7,30.5
		c0,17.4,10.1,31.5,18.5,31.5c2.9,0,5.2-1.6,7.1-4.4C633.6,447.9,631.7,448.8,629.6,448.8z"/>
	<path class="st7" d="M853.8,490.9c-7.6,0-16.6-17-16.6-37.8c0-14.3,1.5-27.4,4.8-34.3c-4.4,5.8-6.2,20.4-6.2,36.6
		c0,20.8,9,37.8,16.6,37.8c2.6,0,4.6-1.9,6.3-5.3C857.3,489.8,855.7,490.9,853.8,490.9z"/>
	
		<ellipse transform="matrix(0.8197 -0.5728 0.5728 0.8197 -55.4859 600.7582)" class="st7" cx="926.5" cy="388.5" rx="13.6" ry="27.6"/>
	
		<ellipse transform="matrix(0.8197 -0.5728 0.5728 0.8197 -55.1274 600.8851)" class="st8" cx="926.9" cy="388" rx="13.6" ry="27.6"/>
	
		<ellipse transform="matrix(0.8076 -0.5897 0.5897 0.8076 -49.9988 621.8703)" class="st7" cx="928.1" cy="387.6" rx="10" ry="23.3"/>
	<ellipse transform="matrix(0.8076 -0.5897 0.5897 0.8076 -49.6867 621.7615)" class="st9" cx="928.1" cy="387" rx="10" ry="23.3"/>
	<path class="st1" d="M1072.6,487.2c0,0-20.5-1.5-18.1,16.2c0,0-0.5,3.1,1.8,4.6c0,0,0-1.3,2.1-0.9c0.7,0.2,1.5,0.2,2.2,0.1
		c1-0.1,1.9-0.6,2.7-1.4l0,0c0,0,5.8-2.9,8-14.6c0,0,1.6-2.5,1.6-3.2l-3.4,1.8c0,0,1.2,3.1,0.2,5.6c0,0-0.1-5.5-0.8-5.4
		c-0.1,0-1.8,1.1-1.8,1.1s2,5.4,0.5,9.3c0,0,0.6-6.6-1.1-8.9l-2.4,1.7c0,0,2.4,5.6,0.8,10.1c0,0,0.4-6.9-1.3-9.6l-2.2,2.1
		c0,0,2.2,5.5,0.9,9.2c0,0-0.2-8.1-1.4-8.7c0,0-1.9,2.1-2.2,3c0,0,1.5,4,0.6,6.1c0,0-0.6-5.4-1.1-5.4c0,0-1.9,3.6-2.1,6
		c0,0,0.1-3.7,1.6-6.4c-1.1,0.2-2.1,0.9-3,1.9c0,0,0.3-2.5,3.4-2.8c0,0,1.6-2.7,2-2.9c0,0-3.1-0.3-5,0.7c0,0,1.6-2.4,5.6-1.3
		l2.2-2.2c0,0-4.1-0.7-5.8,0.1c0,0,2-2.1,6.4-0.6l2.4-1.7c0,0-3.5-0.9-5.6-0.6c0,0,2.2-1.4,6.2,0.1l1.7-1c0,0-2.6-0.6-3.3-0.7
		c-0.7-0.1-0.8-0.4-0.8-0.4c1.6-0.4,3.3-0.1,4.8,0.7C1069,489.1,1072.7,487.5,1072.6,487.2z"/>
	<ellipse class="st0" cx="1058.5" cy="509.5" rx="14.5" ry="3.1"/>
	<path class="st1" d="M1043.8,449.1c0,0-13.9-1-12.3,11c-0.2,1.3,0.3,2.5,1.3,3.1c0,0,0-0.9,1.5-0.6c0.5,0.1,1,0.1,1.5,0.1
		c0.7-0.1,1.4-0.4,1.8-1l0,0c0,0,3.9-2,5.4-9.9c0,0,1.1-1.7,1.1-2.2l-2.3,1.3c0,0,0.8,2.1,0.1,3.8c0,0-0.1-3.8-0.5-3.7
		c-0.1,0-1.2,0.7-1.2,0.7s1.4,3.7,0.3,6.3c0,0,0.4-4.5-0.8-6.1l-1.6,1.2c0,0,1.6,3.8,0.5,6.9c0,0,0.3-4.7-0.9-6.6l-1.5,1.4
		c0,0,1.5,3.7,0.6,6.3c0,0-0.1-5.5-0.9-5.9c0,0-1.3,1.4-1.5,2c0,0,1.1,2.7,0.4,4.1c0,0-0.4-3.7-0.7-3.7c0,0-1.3,2.4-1.5,4.1
		c0-1.6,0.4-3.1,1.1-4.3c-0.8,0.2-1.5,0.6-2,1.3c0,0,0.2-1.7,2.3-1.9c0,0,1.1-1.9,1.4-2c0,0-2.1-0.2-3.4,0.5c0,0,1.1-1.6,3.8-0.9
		l1.5-1.5c0,0-2.8-0.5-4,0.1c0,0,1.4-1.4,4.4-0.4l1.6-1.2c0,0-2.4-0.6-3.8-0.4c0,0,1.5-1,4.3,0.1l1.2-0.7c0,0-1.7-0.4-2.2-0.5
		c-0.5-0.1-0.5-0.2-0.5-0.2c1.1-0.2,2.2-0.1,3.2,0.5C1041.4,450.4,1043.8,449.3,1043.8,449.1z"/>
	<ellipse class="st0" cx="1034.2" cy="464.3" rx="9.9" ry="2"/>
	<ellipse class="st0" cx="577.5" cy="483" rx="14.5" ry="3.1"/>
	<path class="st11" d="M567.7,468.9c0,0,8.3-0.3,10.7-2.5c2.5-2.2,12.7-4.8,13.3-1.3c0.6,3.5,12.4,17.5,3.1,17.6
		c-9.3,0.1-21.7-1.8-24.2-3.7S567.7,468.9,567.7,468.9z"/>
	<path class="st2" d="M595.1,481.5c-9.3,0.1-21.7-1.8-24.2-3.7c-1.9-1.4-2.7-6.5-2.9-8.9h-0.3c0,0,0.5,8.3,3,10.1
		c2.5,1.9,14.8,3.8,24.2,3.7c2.7,0,3.6-1.2,3.6-3C598.2,480.9,597.1,481.5,595.1,481.5z"/>
	<g class="st12">
		
			<linearGradient id="SVGID_1_" gradientUnits="userSpaceOnUse" x1="888.1088" y1="328.762" x2="901.3325" y2="328.762" gradientTransform="matrix(1 0 0 1 -32.98 0.16)">
			<stop  offset="0" style="stop-color:#808080;stop-opacity:0.25"/>
			<stop  offset="0.54" style="stop-color:#808080;stop-opacity:0.12"/>
			<stop  offset="1" style="stop-color:#808080;stop-opacity:0.1"/>
		</linearGradient>
		<path class="st13" d="M858.8,341.9c-0.2,0.5-1.6,1.5-3.3,2.6c-0.1-1.6-0.3-2.8-0.3-3.1c-0.1-1.3,2.2-7.3,2.2-7.3s4.4-7.3,4.3-8.4
			s1.7-4.3,1.7-4.3l4-8c-0.4,1.3-0.3,2.7,0.4,3.8c1.2,2,0.2,5.9,0.2,5.9l0.2,4.9v0.5c-0.1,0.2-0.8,1-2.2,2.5c-1.3,1.4-1.1,1.9-0.9,2
			c-0.3,0.7,0,0.8,0,0.8c0.1,0,0.2,0,0.3-0.1l-0.3,0.4C862.7,336.9,859.1,341.1,858.8,341.9z"/>
	</g>
	<path class="st14" d="M828.5,423.5c0,0,5.5,1.8,5,3.8L828.5,423.5z"/>
	<path class="st15" d="M825.5,425c0,0.5,0,0.8,0,0.8l2.5,18.5c0.4,0.5,0.9,1,1.3,1.5c1.3,1.4,2.4,2.9,3.4,4.5
		c1.5,2.8,6.6,1.4,6.5,1.1c-0.1-0.3-2.2-13.4-2.2-13.4l-1.7-5.3c0,0-1.7,1.4-3.4-0.9c-1.1-1.4-3.5-4.2-5.1-6.1l-1.2-1.3
		C825.5,424.6,825.5,424.8,825.5,425z"/>
	<path class="st14" d="M829,445.8l0.3,0.4c0.3,0.4,0.7,0.8,1,1.2c0.4,0.5,0.8,1,1.1,1.4l1.2-2c-0.4-0.4-0.9-0.8-1.4-1.1
		C830.4,445.3,829.6,445.4,829,445.8L829,445.8z"/>
	<path class="st16" d="M829.6,450.2c0.3,0.2,0.7,0.4,1,0.5l1-1.6l1.3-2c-0.4-0.4-0.9-0.8-1.4-1.1c-0.7-0.4-1.5-0.4-2.1,0.1
		c-0.5,0.4-0.9,0.9-1.1,1.6C828.1,447.7,827.8,449,829.6,450.2z"/>
	<path class="st14" d="M829.4,450l0.2,0.2c0.3,0.2,0.7,0.4,1,0.5l1-1.6c0.1,0.1,0.2,0.3,0.2,0.4c1.5,2.8,6.6,1.4,6.5,1.1
		c-0.1-0.3-2.2-13.4-2.2-13.4l-1.7-5.3c-0.7,0.5-1.5,0.5-2.2,0.2c-0.4,0.5-0.4,1.1,0,1.9c1,1.8,1.5,3.8,1.6,6c0.6,2.2-1.4,5-2.5,6.1
		c-0.2,0.2-0.4,0.4-0.6,0.5c-0.2,0.2-0.4,0.4-0.6,0.8C829.9,448.2,829.6,449.1,829.4,450z"/>
	<ellipse class="st17" cx="833.1" cy="448.3" rx="0.6" ry="0.8"/>
	<ellipse class="st17" cx="834.1" cy="451.3" rx="0.6" ry="0.8"/>
	<ellipse class="st17" cx="837.1" cy="456" rx="0.6" ry="0.8"/>
	<ellipse class="st17" cx="835.6" cy="453.6" rx="0.6" ry="0.8"/>
	<ellipse class="st17" cx="838.4" cy="458.9" rx="0.6" ry="0.8"/>
	<path class="st7" d="M841,461.4c0,0,0.5,7.8,0,11.5c0.9,1.3,2.5,1.5,3.6,0.4c0.1-0.1,0.1-0.1,0.1-0.1c3.6-3.7,1.8-20.5,0.6-22.9
		c-1.2-2.3-1.4-14.4-1.8-18.2c-0.2-1.8-1-2.3-2-2.4c-1-0.1-2.3,0.5-3.4,0.7c0,3.8,0.2,12.6,1,15.5C840.1,449.5,841,461.4,841,461.4z
		"/>
	<path class="st7" d="M842.6,445.4c0.7,2.9,1.7,11.1,1.6,15.4c-0.1,3.2,0.2,9.3,0.4,12.4c0.1-0.1,0.1-0.1,0.1-0.1
		c3.6-3.7,1.8-20.5,0.6-22.9c-1.2-2.3-1.4-14.4-1.8-18.2c-0.2-1.8-1-2.3-2-2.4C841.7,433.6,842,443.1,842.6,445.4z"/>
	<path class="st16" d="M840.1,429.9c0.1,3.1,0.5,11.3,1.2,13.6c0.8,2.9,1.7,17,1.7,17.6h-0.3c0-0.2-0.9-14.6-1.7-17.5
		c-0.7-2.4-1.1-10.5-1.2-13.7H840.1z"/>
	<path class="st7" d="M773.6,496.2l-0.5-0.1L773.6,496.2z"/>
	<path class="st18" d="M812,507.1c0.6-0.5,1.3-0.8,2-0.8c1.4,0.2,2.7,0.1,4.1-0.2c-0.3,1.4-0.4,2.9-0.3,4.4l-1.2-0.1
		C816.6,510.4,812,509.2,812,507.1z"/>
	<path class="st7" d="M774,496.2l-0.2-0.1L774,496.2z"/>
	<path class="st7" d="M767,492.8L767,492.8z"/>
	<path class="st7" d="M767,492.8L767,492.8z"/>
	<path class="st7" d="M773.7,496.2L773.7,496.2L773.7,496.2z"/>
	<path class="st18" d="M840.2,468.8c0,0.7,0.1,1.4,0.1,2c0,0.8,0.2,1.5,0.7,2.1l0,0.1c0.1-1.4,0.2-2.8,0.2-4.3
		C841.1,468.8,840.7,468.8,840.2,468.8z"/>
</g>
<g>
	<path class="st19" d="M537.3,402.1h-31.4c-1.8,0-3.2-2.2-3.2-5s1.4-5,3.2-5h31.4c4,0,7.3-5.1,7.3-11.3v-16.1c0-2.8,1.4-5,3.2-5
		s3.2,2.2,3.2,5v16.1C551,392.6,544.8,402.1,537.3,402.1L537.3,402.1z"/>
	<g>
		<path class="st20" d="M373.4,199.2l-8.2-5.8l-8.5,5.8v248.3l8.4,11.3l8.4-11.3V199.2z"/>
		<path class="st21" d="M521.1,286.2h-15.9l-4.3,9.5l4.3,13.1h13.9c3.8,0,5.1,3.5,7.4,7.4l2.8,4.9l8.9-4.5l-1.2-15.8l-4.7-7.6
			C528,285.9,527,286.2,521.1,286.2z"/>
		<path class="st22" d="M553.4,315.5l-9.9-19c-1.2-2.3-3.8-2.6-4.8-0.2l-1.7,4.4l-7.7,20.3l-2.1,5.5c-2.1,5.7-0.7,8.1,0.9,14.3
			l5.5,19.8c1.1,3.8,1.6,4.2,4.3,4.2h9.2h1c8.6,0,8.3-6.5,8.3-16.6v-7.9C556.6,330.6,557.3,323,553.4,315.5L553.4,315.5z"/>
		<path class="st20" d="M493.1,235.3h-76.5c-6.7,0-12.1,8.4-12.1,18.7v168.2l51.2,16.9l49.5-16.9v-25.1v-88.4v-22.6V254
			C505.2,243.7,499.8,235.3,493.1,235.3L493.1,235.3z"/>
		<path class="st22" d="M505.2,422.2H404.5h-0.2c-4.5,0-8.2,5.7-8.2,12.6v12.6l58.3,12.1l60.8-12.1v-12.6c0-7-3.7-12.6-8.2-12.6
			H505.2z"/>
		<path class="st23" d="M365,199.2h8.4v248.3H365V199.2z"/>
		<path class="st23" d="M505.2,254c0-10.3-5.4-18.7-12.1-18.7h-10c6.7,0,12.1,8.4,12.1,18.7v12.7v134.2v21.4h10v-25.1v-88.4v-22.6
			L505.2,254L505.2,254z"/>
		<path class="st24" d="M553.4,315.5l-9.9-19c-1.2-2.3-3.8-2.6-4.8-0.2l-2.4,6.4l8.2,15.8c3.9,7.5,4.3,13.9,4.3,23.7v5.9
			c0,10,0.3,16.6-8.3,16.6h6.7h1c8.6,0,8.3-6.5,8.3-16.6v-7.9C556.6,330.6,557.3,323,553.4,315.5L553.4,315.5z"/>
		<path class="st24" d="M515.3,434.9c0-7-3.7-12.6-8.2-12.6h-1.9h-9c1.5,0,2.9,0.6,4.1,1.7c2.4,2.2,4.1,6.3,4.1,11v12.6h0.8h10.1
			L515.3,434.9L515.3,434.9z"/>
		<path class="st19" d="M521.1,286.2h-15.9v10.2h12c5.9,0,6.8-0.2,11.3,7l4.7,7.6l3.8-10.2l-4.7-7.6
			C528,285.9,527,286.2,521.1,286.2L521.1,286.2z"/>
		<path class="st22" d="M541.8,162.9H355.7c-6.4,0-11.7,8.1-11.7,18.1v10.2c0,4.3,2.3,7.9,5.1,7.9h7.5h16.7h175.1
			c2.8,0,5.1-3.5,5.1-7.9V181C553.5,171,548.3,162.9,541.8,162.9z"/>
		<path class="st24" d="M553.5,181c0-10-5.3-18.1-11.7-18.1h-27.2c6.4,0,11.7,8.1,11.7,18.1v10.2c0,4.3-2.3,7.9-5.1,7.9h27.2
			c2.8,0,5.1-3.5,5.1-7.9V181z"/>
		<path class="st21" d="M396.2,447.5h-22.9h-16.7h-3.7c-4.9,0-8.9,6.2-8.9,13.8c0,7.6,4,13.8,8.9,13.8h191.7c4.9,0,8.9-6.2,8.9-13.8
			c0-7.6-4-13.8-8.9-13.8h-29.3h-10.1H404.5L396.2,447.5L396.2,447.5z"/>
		<path class="st19" d="M553.5,461.3c0-7.6-4-13.8-8.9-13.8h-17.9c4.9,0,8.9,6.2,8.9,13.8c0,7.6-4,13.8-8.9,13.8h17.9
			C549.5,475.1,553.5,468.9,553.5,461.3z"/>
	</g>
	<path class="st19" d="M482.1,380.2h-16.5c-1.8,0-3.2-2.2-3.2-5c0-2.8,1.4-5,3.2-5h16.5c1.8,0,3.2,2.2,3.2,5
		C485.4,377.9,483.9,380.2,482.1,380.2z"/>
	<path class="st19" d="M447.1,380.2h-16.5c-1.8,0-3.2-2.2-3.2-5c0-2.8,1.4-5,3.2-5h16.5c1.8,0,3.2,2.2,3.2,5
		C450.3,377.9,448.9,380.2,447.1,380.2z"/>
	<path class="st19" d="M482.1,356.3h-16.5c-1.8,0-3.2-2.2-3.2-5s1.4-5,3.2-5h16.5c1.8,0,3.2,2.2,3.2,5
		C485.4,354.1,483.9,356.3,482.1,356.3z"/>
	<path class="st19" d="M447.1,356.3h-16.5c-1.8,0-3.2-2.2-3.2-5s1.4-5,3.2-5h16.5c1.8,0,3.2,2.2,3.2,5S448.9,356.3,447.1,356.3z"/>
	<path class="st25" d="M489.9,266.7v52.8c0,3.9-2,7-4.5,7h-58.1c-2.5,0-4.5-3.2-4.5-7v-52.8c0-3.9,2-7,4.5-7h58.1
		C487.8,259.7,489.9,262.8,489.9,266.7L489.9,266.7z"/>
	<path class="st19" d="M469.6,296.9l-9.7,29.6H453c0-0.8,0.1-1.5,0.4-2.3l10.5-31.9c0.8-2.5,2.8-3.4,4.4-2.2
		C469.8,291.4,470.4,294.4,469.6,296.9L469.6,296.9z"/>
	<path class="st26" d="M449.4,259.7h-22.2c-2.5,0-4.5,3.2-4.5,7v6.4h56.3c2.5,0,2.8,1.1,2.8,3.7v49.7h3.6c2.5,0,4.5-3.2,4.5-7v-52.8
		c0-3.9-2-7-4.5-7H464L449.4,259.7z"/>
</g>
</svg>
