<?xml version="1.0" encoding="utf-8"?>
<!-- Generator: Adobe Illustrator 22.0.1, SVG Export Plug-In . SVG Version: 6.00 Build 0)  -->
<svg version="1.1" id="_x31_c04cb57-5b83-4fe5-b665-05639f110a33"
	 xmlns="http://www.w3.org/2000/svg" xmlns:xlink="http://www.w3.org/1999/xlink" x="0px" y="0px" viewBox="0 0 1134 812.3"
	 style="enable-background:new 0 0 1134 812.3;" xml:space="preserve">
<style type="text/css">
	.st0{opacity:0.1;fill:#128AB2;enable-background:new    ;}
	.st1{fill:#F2F2F2;}
	.st2{fill:none;stroke:#3F3D56;stroke-miterlimit:10;}
	.st3{fill:#57B894;}
	.st4{fill:#656380;}
	.st5{opacity:0.2;enable-background:new    ;}
	.st6{fill:#6C63FF;}
	.st7{fill:#A0616A;}
	.st8{fill:#575A89;}
	.st9{fill:#3F3D56;}
	.st10{opacity:0.1;enable-background:new    ;}
</style>
<title>city driver</title>
<path class="st0" d="M1114.8,632.4c-28.1,62.9-85.1,105-144.2,132.6c-79.6,37.3-167.3,52.2-253.7,45.9c-15.1-1-30.2-2.9-45.3-5.3
	c-52.3-8.3-103.3-24.4-151.5-48c-13.9-6.8-27.5-14.2-40.9-22.3c-22.3-13.4-43.7-28.6-64-45.3c-5.1-4.2-10.2-8.6-15.1-13
	c-3.5-3.1-6.9-6.2-10.3-9.3c-7.3-6.4-14.8-12.5-23.2-17.1c-2.5-1.4-5.1-2.6-7.7-3.7c-26.5-10.9-57.1-6.8-84.7,1.7
	c-20.9,6.4-41.4,15.4-62.4,21.7c-9.3,2.9-18.8,5-28.4,6.5c-21.5,3-43.2,0.9-64-6.1l-1.8-0.6c-3-1-5.9-2.1-8.8-3.3l-1.8-0.7
	c-2.9-1.1-5.6-2.4-8.2-3.8l-1.8-0.9c-2.9-1.4-5.6-2.9-8.2-4.5c-1-0.6-1.9-1.1-2.9-1.7c-15.3-9.3-29.3-21.1-41.4-35
	c-0.3-0.3-0.6-0.8-1.1-1.1c-1.7-2-3.4-4-5-6.1c-0.6-0.8-1.2-1.5-1.8-2.3c-1.9-2.5-3.7-5-5.5-7.7c-0.3-0.3-0.5-0.8-0.7-1.1
	c-7.2-10.8-13.2-22.6-17.9-35c-0.1-0.3-0.3-0.8-0.4-1.1c-1.4-3.9-2.6-7.9-3.9-12c-0.4-1.7-1-3.4-1.4-5.2c-0.1-0.5-0.3-1-0.4-1.5
	C0.6,522.3,0,496.4,0,470.6c0-3,0-6,0-9.1c0.2-41.6,0.7-84.1,6.5-125.2c0-0.3,0.1-0.6,0.1-0.8c1.9-13.9,4.4-27.5,7.7-41.1
	c3.4-14.2,7.7-28.1,13-41.6c13-33.3,32-63.6,53.1-91.7C133.4,90.8,203,31.5,284.3,9.3c87.8-24,185.3-1,256,60.1
	c21.6,18.6,40.9,40.7,65.1,55c21.1,12.4,45.9,17.6,68.5,7.8c18.7-8,30.9-12.2,51.9-10.9c43.6,2.6,86.4,12.4,127.3,28.9
	c1.7,0.7,3.3,1.4,5,2.1c106.5,44.3,198,132.1,245.6,245c1.3,3,2.4,6,3.7,9.1C1135.9,478,1146.1,562.4,1114.8,632.4z"/>
<g>
	<path class="st1" d="M203.9,567.4c0,0,332.5-277.5,524,0"/>
	<path class="st1" d="M749.6,733.7c-85.1,0-154-10.7-154-24s68.9-24,154-24s154,10.7,154,24"/>
	<path class="st2" d="M774.6,724.7c-85.1,0-154-10.7-154-24s68.9-24,154-24s154,10.7,154,24"/>
	<path class="st3" d="M840,452.4c8.1,2.9,17-1.2,19.9-9.3c2.9-8.1-1.2-17-9.3-19.9c-2.7-1-5.7-1.2-8.5-0.6l0.4,8l-3.8-6.8
		c-3.7,1.7-6.6,4.9-8,8.7c-0.5,1.4-0.8,2.8-0.9,4.2C829.4,443.6,833.5,450,840,452.4z"/>
	<path class="st2" d="M883.3,513.9c2.8-9.6-5.5-18.3-12-25.8c-4.8-5.6-9-11.7-12.3-18.3c-1.5-2.6-2.5-5.4-2.9-8.3
		c-0.5-4.2,0.8-8.4,2.2-12.5c4.6-13.5,9.4-26.8,14.6-40"/>
	<path class="st2" d="M858.8,545.1c-1.3-6.8,4.4-12.8,10.2-16.7s12.4-7.8,14.3-14.4"/>
	<path class="st2" d="M840.7,450.3c8.1,2.9,17-1.2,19.9-9.3c2.9-8.1-1.2-17-9.3-19.9c-2.7-1-5.7-1.2-8.5-0.6l0.4,8l-3.8-6.8
		c-3.7,1.7-6.6,4.9-8,8.7c-0.5,1.4-0.8,2.8-0.9,4.2C830,441.5,834.2,447.9,840.7,450.3z"/>
	<path class="st3" d="M887,411.7c-0.1,8.6-7.2,15.4-15.8,15.3s-15.4-7.2-15.3-15.8c0-1.7,0.3-3.4,0.9-5.1h0c1.8-5,6-8.7,11.2-9.8
		l1.3,7.6l2.4-8C880.3,396,887.1,403.1,887,411.7"/>
	<path class="st2" d="M887.8,408.9c-0.1,8.6-7.2,15.4-15.8,15.3s-15.4-7.2-15.3-15.8c0-1.7,0.3-3.4,0.9-5.1h0c1.8-5,6-8.7,11.2-9.8
		l1.3,7.6l2.4-8C881.1,393.3,888,400.3,887.8,408.9"/>
	<path class="st3" d="M882.2,460.6l-1.8,6.1l-1.3-7.7c0,0,0,0,0,0c-8.1-2.9-17,1.2-19.9,9.3s1.2,17,9.3,19.9l0,0v0
		c8.1,2.9,17-1.2,19.9-9.3"/>
	<path class="st2" d="M883,457.8l-1.8,6.1l-1.3-7.7c0,0,0,0,0,0c-8.1-2.9-17,1.2-19.9,9.3s1.2,17,9.3,19.9c0,0,0,0,0,0l0,0
		c8.1,2.9,17-1.2,19.9-9.3"/>
	<path class="st3" d="M882.9,508.6c-1.5-8.4-9.5-14.1-18-12.6c-3.8,0.7-7.2,2.7-9.6,5.8l6.9,10.4l-9.5-5.5c-0.7,2.4-0.9,4.8-0.5,7.3
		c1.5,8.4,9.5,14.1,18,12.6C878.7,525.1,884.4,517.1,882.9,508.6"/>
	<path class="st2" d="M883.5,506.6c-1.5-8.4-9.5-14.1-18-12.6c-3.8,0.7-7.2,2.7-9.6,5.8l6.9,10.4l-9.5-5.5c-0.7,2.4-0.9,4.8-0.5,7.3
		c1.5,8.4,9.5,14.1,18,12.6C879.4,523.1,885,515,883.5,506.6"/>
	<path class="st4" d="M882.3,567.8c-15.5,0.1-35.9,2.5-40.1,0s-5-13.6-5-13.6s13.7-5.4,17.8-8.3s21.1-6.5,22.1-1.7
		S897.7,567.7,882.3,567.8"/>
	<path class="st5" d="M882.5,566.2c-15.5,0.1-35.9,2.5-40.1,0c-3.1-1.9-4.4-8.8-4.8-11.9c-0.3,0-0.5,0-0.5,0s0.9,11.1,5,13.6
		s24.6,0.1,40.1,0"/>
	<path class="st6" d="M206.3,409.9h36.3c6.5,0,11.9,5.3,11.9,11.9v134.3c0,6.5-5.3,11.9-11.9,11.9h-36.3c-6.5,0-11.9-5.3-11.9-11.9
		V421.8C194.4,415.2,199.7,409.9,206.3,409.9z"/>
	<path class="st6" d="M320.3,314.9h36.3c6.5,0,11.9,5.3,11.9,11.9v229.3c0,6.5-5.3,11.9-11.9,11.9h-36.3c-6.5,0-11.9-5.3-11.9-11.9
		V326.8C308.4,320.2,313.7,314.9,320.3,314.9z"/>
	<path class="st6" d="M434.3,248.9h36.3c6.5,0,11.9,5.3,11.9,11.9v295.3c0,6.5-5.3,11.9-11.9,11.9h-36.3c-6.5,0-11.9-5.3-11.9-11.9
		V260.8C422.4,254.2,427.7,248.9,434.3,248.9z"/>
	<path class="st6" d="M548.3,185.9h36.3c6.5,0,11.9,5.3,11.9,11.9v358.3c0,6.5-5.3,11.9-11.9,11.9h-36.3c-6.5,0-11.9-5.3-11.9-11.9
		V197.8C536.4,191.2,541.7,185.9,548.3,185.9z"/>
	<path class="st6" d="M662.3,75.9h36.3c6.5,0,11.9,5.3,11.9,11.9v468.3c0,6.5-5.3,11.9-11.9,11.9h-36.3c-6.5,0-11.9-5.3-11.9-11.9
		V87.8C650.4,81.2,655.7,75.9,662.3,75.9z"/>
	<path class="st2" d="M214.3,401.9h36.3c6.5,0,11.9,5.3,11.9,11.9v134.3c0,6.5-5.3,11.9-11.9,11.9h-36.3c-6.5,0-11.9-5.3-11.9-11.9
		V413.8C202.4,407.2,207.7,401.9,214.3,401.9z"/>
	<path class="st2" d="M328.3,306.9h36.3c6.5,0,11.9,5.3,11.9,11.9v229.3c0,6.5-5.3,11.9-11.9,11.9h-36.3c-6.5,0-11.9-5.3-11.9-11.9
		V318.8C316.4,312.2,321.7,306.9,328.3,306.9z"/>
	<path class="st2" d="M442.3,240.9h36.3c6.5,0,11.9,5.3,11.9,11.9v295.3c0,6.5-5.3,11.9-11.9,11.9h-36.3c-6.5,0-11.9-5.3-11.9-11.9
		V252.8C430.4,246.2,435.7,240.9,442.3,240.9z"/>
	<path class="st2" d="M556.3,177.9h36.3c6.5,0,11.9,5.3,11.9,11.9v358.3c0,6.5-5.3,11.9-11.9,11.9h-36.3c-6.5,0-11.9-5.3-11.9-11.9
		V189.8C544.4,183.2,549.7,177.9,556.3,177.9z"/>
	<path class="st2" d="M670.3,67.9h36.3c6.5,0,11.9,5.3,11.9,11.9v468.3c0,6.5-5.3,11.9-11.9,11.9h-36.3c-6.5,0-11.9-5.3-11.9-11.9
		V79.8C658.4,73.2,663.7,67.9,670.3,67.9z"/>
	<line class="st2" x1="896.4" y1="568.4" x2="35.4" y2="568.4"/>
	<path class="st7" d="M842.1,472.5c0,0,9.4,33.9-2.5,38.9c-11.9,5-8.2-37.6-8.2-37.6L842.1,472.5z"/>
	<path class="st8" d="M756.8,689.6c0,0-8.8-0.6-11.9,1.3c-1.9,1.1-4.2,1.3-6.3,0.6c0,0-13.8-1.3-8.8,5.6s10,9.4,10,12.5
		s20.7,3.1,21.3,0s1.3-19.4,0-20.1S756.8,689.6,756.8,689.6z"/>
	<path class="st8" d="M780,689.6c0,0,8.8-0.6,11.9,1.3c1.9,1.1,4.2,1.3,6.3,0.6c0,0,13.8-1.3,8.8,5.6s-10,9.4-10,12.5
		s-20.7,3.1-21.3,0s-1.3-19.4,0-20.1S780,689.6,780,689.6z"/>
	<path class="st9" d="M731.1,465.6c0,0-4.4,99.1-1.9,104.1s11.3,89.7,10,94.7s-7.5,25.7,0,28.9s23.8,0,23.8,0s4.4-25.1,2.5-38.3
		s-2.5-68.4-2.5-68.4l12.5-57.7l4.4,54.6c0,0,1.3,74.7-7.5,89.7s3.1,21.3,3.1,21.3s23.8,3.1,26.4,2.5s-1.9-25.1,0-35.8
		s6.3-70.3,10-84.7s25.1-94.7,9.4-111S731.1,465.6,731.1,465.6z"/>
	<circle class="st7" cx="776.9" cy="243.5" r="22"/>
	<path class="st7" d="M760.6,253.5c0,0,3.8,30.1,1.9,30.7s33.3,0,33.3,0s-6.9-18.2,0-32.6L760.6,253.5z"/>
	<path class="st1" d="M760.6,278c0,0,15.3-15.1,33.4,0l1.2,4.5l-9.4-0.1h-25.1V278z"/>
	<path class="st8" d="M835.2,470.6c-1.4,0.3-5,0.9-9.6,1.6c-15.4,2.3-42.7,5.9-43.7,3.4c-1.3-3.1-5.6-14.4-8.8-9.4s-1.3,9.4-14.4,10
		c-9,0.4-22-0.9-29.2-3c-3.4-1-5.5-2.1-5.3-3.3c0.6-3.8,7.5-75.3,7.5-82.2s2.5-40.2,2.5-40.2l-18-35.5l-1.4-2.8c0,0,1.9-6.9,7.5-8.2
		s32.6-16.9,32.6-16.9s5.6-8.8,16.3-8.2s13.2-3.8,27.6,8.2c0,0,17.6,7.5,23.8,11.3s13.2,3.8,13.8,10c0.1,1.3-0.6,3.7-1.7,6.8
		c-4.3,11.2-15.2,31.1-16.9,34.2c-0.2,0.3-0.2,0.4-0.2,0.4s-0.3,11.3,0,24.5v0c0.3,12.7,1.3,27.1,3.7,35.1
		C826.5,422.9,841.5,469.4,835.2,470.6z"/>
	<path class="st9" d="M805.4,234.5c-0.4-2-1.3-3.9-2.5-5.5c-0.5-4.6-2-9-4.5-12.9c-1-1.8-2.3-3.4-4-4.6c-1.9-1.1-4.1-1.6-6.3-1.6
		c-0.4,0-1.1,0.1-1.8,0.1c-0.4-0.1-0.8-0.2-1.3-0.4c-0.2-0.5-0.7-2.1-0.9-2l-1.8,1.5c-0.8-0.1-1.6-0.2-2.3-0.3
		c-0.3-0.8-0.6-1.6-0.9-2.4c-0.5,0.7-0.9,1.5-1.2,2.3c-0.8,0-1.6-0.1-2.3,0l-1.6-1.5c-0.2,0.9-0.9,1.5-1.7,1.7
		c-0.7,0.1-1.4,0.2-2.1,0.3c-0.1,0-0.1,0-0.2,0c-3.8-0.1-8-0.3-11.2,1.8c-1.5,1-2.7,2.4-3.5,4c-0.4,0.3-0.8,0.5-1.2,0.8
		c-1.3,0.9-2.4,2-3.3,3.3c-0.6,1.1-1.1,2.3-1.5,3.5c-1.2,3.7-1.8,7.6-1.7,11.5c0.1,3.9,1.6,7.7,4.2,10.7c1.6,1.8,3.7,3.1,5.4,4.8
		c3.4,3.6,4,8.7,6.9,12.5c3.1,4.1,8.7,6.7,13.6,7.5c6,0.9,12-0.6,16.9-4.2c1.2-0.8,2.1-1.8,2.9-3c1.7-2.9,1-6.7,1.6-10
		C800.5,246,806.4,240.8,805.4,234.5z"/>
	<path class="st7" d="M721.7,474.4c0,0,9.4,33.9-2.5,38.9c-11.9,5-8.2-37.6-8.2-37.6L721.7,474.4z"/>
	<path class="st10" d="M733,397.5c0,0-4.1,61.1-3.5,75.8c-3.4-1-5.5-2.1-5.3-3.3c0.6-3.8,7.5-75.3,7.5-82.2s2.5-40.2,2.5-40.2
		l-18-35.5c0.3-1.8,0.5-2.8,0.5-2.8l9.1,19.1l12.9,3.5L733,397.5z"/>
	<path class="st8" d="M719.2,305.6l-4.4,3.8c0,0-5.6,33.3-5,41.4s-13.2,131.8-2.5,131.8s22.6-1.9,20.7-6.3s3.1-78.8,3.1-78.8
		l5.7-65.5L719.2,305.6z"/>
	<path class="st10" d="M834.8,312.4c-4.3,11.2-15.2,31.1-16.9,34.2c0.1-8,0.1-13.7,0.1-13.7l13.2-27l2.8-2.2
		C834,303.7,834.3,307,834.8,312.4z"/>
	<path class="st10" d="M835.2,470.6c-1.4,0.3-5,0.9-9.6,1.6c-2.4-17.8-8.8-68.9-8.4-73.7c0.2-2.4,0.4-14.1,0.5-27
		c0.3,12.7,1.3,27.1,3.7,35.1C826.5,422.9,841.5,469.4,835.2,470.6z"/>
	<path class="st8" d="M827.1,301.2l9.4,2.5c0,0,6.3,69.6,6.9,81.6s8.2,85.3,6.9,88.5s-20.7,7.5-21.3,4.4s-9.7-73.9-9.3-79.6
		s-2.7-64.7-2.7-64.7L827.1,301.2z"/>
	<path class="st2" d="M688.9,8.4"/>
	<polyline class="st2" points="231.9,341.4 345.9,246.4 460.9,181.4 574.9,118.4 	"/>
	<circle class="st1" cx="228.9" cy="346.4" r="11"/>
	<circle class="st1" cx="342.9" cy="251.4" r="11"/>
	<circle class="st1" cx="457.9" cy="186.4" r="11"/>
	<circle class="st1" cx="571.9" cy="123.4" r="11"/>
	<circle class="st2" cx="231.9" cy="341.4" r="11"/>
	<circle class="st2" cx="345.9" cy="246.4" r="11"/>
	<circle class="st2" cx="460.9" cy="181.4" r="11"/>
	<circle class="st2" cx="574.9" cy="118.4" r="11"/>
	<path class="st1" d="M203.9,567.4c0,0,338.5-271.6,530,5.9"/>
	<path class="st1" d="M595.6,709.7c0-13.3,74.9-18.1,160-18.1s148,4.8,148,18.1"/>
	<path class="st2" d="M774.6,724.7c-85.1,0-148-4.8-148-18.1s68.9-24,154-24s148,4.8,148,18.1"/>
	<path class="st3" d="M846,458.3c8.1,2.9,17-1.2,19.9-9.3c2.9-8.1-1.2-17-9.3-19.9c-2.7-1-5.7-1.2-8.5-0.6l0.4,8l-3.8-6.8
		c-3.7,1.7-6.6,4.9-8,8.7c-0.5,1.4-0.8,2.8-0.9,4.2C835.4,449.5,839.5,455.9,846,458.3z"/>
	<path class="st2" d="M883.3,513.9c2.8-9.6,0.5-12.4-6-19.9c-4.8-5.6-9-11.7-12.3-18.3c-1.5-2.6-2.5-5.4-2.9-8.3
		c-0.5-4.2,0.8-8.4,2.2-12.5c4.6-13.5,9.4-26.8,14.6-40"/>
	<path class="st2" d="M864.8,551c-1.3-6.8,4.4-12.8,10.2-16.7s6.4-13.7,8.3-20.3"/>
	<path class="st2" d="M846.7,456.2c8.1,2.9,17-1.2,19.9-9.3c2.9-8.1-1.2-17-9.3-19.9c-2.7-1-5.7-1.2-8.5-0.6l0.4,8l-3.8-6.8
		c-3.7,1.7-6.6,4.9-8,8.7c-0.5,1.4-0.8,2.8-0.9,4.2C836,447.5,840.2,453.9,846.7,456.2z"/>
	<path class="st3" d="M887,411.7c-0.1,8.6-1.2,21.3-9.8,21.2s-15.4-7.2-15.3-15.8c0-1.7,0.3-3.4,0.9-5.1h0c1.8-5,6-8.7,11.2-9.8
		l1.3,7.6l2.4-8C886.3,402,887.1,403.1,887,411.7"/>
	<path class="st2" d="M887.8,408.9c-0.1,8.6-1.2,21.3-9.8,21.2s-15.4-7.2-15.3-15.8c0-1.7,0.3-3.4,0.9-5.1h0c1.8-5,6-8.7,11.2-9.8
		l1.3,7.6l2.4-8C887.1,399.2,888,400.3,887.8,408.9"/>
	<path class="st3" d="M879.1,459c-8.1-2.9-11,7.2-13.9,15.2s1.2,17,9.3,19.9l0,0v0c8.1,2.9,11-7.2,13.9-15.2"/>
	<path class="st2" d="M879.8,456.2c-8.1-2.9-11,7.1-13.9,15.2s1.2,17,9.3,19.9c0,0,0,0,0,0l0,0c8.1,2.9,11-7.2,13.9-15.2"/>
	<path class="st3" d="M882.9,508.6c-1.5-8.4-3.5-8.2-12-6.7c-3.8,0.7-7.2,2.7-9.6,5.8l6.9,10.4l-9.5-5.5c-0.7,2.4-0.9,4.8-0.5,7.3
		c1.5,8.4,9.5,14.1,18,12.6C884.7,531.1,884.4,517.1,882.9,508.6"/>
	<path class="st2" d="M883.5,506.6c-1.5-8.4-3.5-8.2-12-6.7c-3.8,0.7-7.2,2.7-9.6,5.8l6.9,10.4l-9.5-5.5c-0.7,2.4-0.9,4.8-0.5,7.3
		c1.5,8.4,9.5,14.1,18,12.6C885.4,529,885,515,883.5,506.6"/>
	<path class="st4" d="M882.3,567.8c-15.5,0.1-29.9,8.5-34.1,6s-5-13.6-5-13.6s13.7-5.4,17.8-8.3s15.1-12.4,16.1-7.7"/>
	<path class="st5" d="M882.5,566.2c-15.5,0.1-29.9,8.5-34.1,6c-3.1-1.9-4.4-8.8-4.8-11.9c-0.3,0-0.5,0-0.5,0s0.9,11.1,5,13.6
		s18.6-5.8,34.1-6"/>
	<path class="st6" d="M326.3,320.8h36.3c6.5,0,11.9,5.3,11.9,11.9V562c0,6.5-5.3,11.9-11.9,11.9h-36.3c-6.5,0-11.9-5.3-11.9-11.9
		V332.7C314.4,326.1,319.7,320.8,326.3,320.8z"/>
	<path class="st6" d="M440.3,254.8h36.3c6.5,0,11.9,5.3,11.9,11.9V562c0,6.5-5.3,11.9-11.9,11.9h-36.3c-6.5,0-11.9-5.3-11.9-11.9
		V266.7C428.4,260.1,433.7,254.8,440.3,254.8z"/>
	<path class="st6" d="M554.3,191.8h36.3c6.5,0,11.9,5.3,11.9,11.9V562c0,6.5-5.3,11.9-11.9,11.9h-36.3c-6.5,0-11.9-5.3-11.9-11.9
		V203.7C542.4,197.1,547.7,191.8,554.3,191.8z"/>
	<path class="st6" d="M668.3,81.8h36.3c6.5,0,11.9,5.3,11.9,11.9V562c0,6.5-5.3,11.9-11.9,11.9h-36.3c-6.5,0-11.9-5.3-11.9-11.9
		V93.7C656.4,87.1,661.7,81.8,668.3,81.8z"/>
	<path class="st2" d="M334.3,312.8h36.3c6.5,0,11.9,5.3,11.9,11.9V554c0,6.5-5.3,11.9-11.9,11.9h-36.3c-6.5,0-11.9-5.3-11.9-11.9
		V324.7C322.4,318.1,327.7,312.8,334.3,312.8z"/>
	<path class="st2" d="M448.3,246.8h36.3c6.5,0,11.9,5.3,11.9,11.9V554c0,6.5-5.3,11.9-11.9,11.9h-36.3c-6.5,0-11.9-5.3-11.9-11.9
		V258.7C436.4,252.1,441.7,246.8,448.3,246.8z"/>
	<path class="st2" d="M562.3,183.8h36.3c6.5,0,11.9,5.3,11.9,11.9V554c0,6.5-5.3,11.9-11.9,11.9h-36.3c-6.5,0-11.9-5.3-11.9-11.9
		V195.7C550.4,189.1,555.7,183.8,562.3,183.8z"/>
	<path class="st2" d="M676.3,73.8h36.3c6.5,0,11.9,5.3,11.9,11.9V554c0,6.5-5.3,11.9-11.9,11.9h-36.3c-6.5,0-11.9-5.3-11.9-11.9
		V85.7C664.4,79.1,669.7,73.8,676.3,73.8z"/>
	<line class="st2" x1="902.4" y1="574.3" x2="41.4" y2="574.3"/>
	<path class="st7" d="M848.1,478.4c0,0,9.4,33.9-2.5,38.9s-8.2-37.6-8.2-37.6L848.1,478.4z"/>
	<path class="st8" d="M761.2,709.6c0.6-3.1,7.3-13.5,6-14.2s-4.4,0-4.4,0s-8.8-0.6-11.9,1.3c-1.9,1.1-4.2,1.3-6.3,0.6
		c0,0-13.8-1.3-8.8,5.6s4,3.5,4,6.6"/>
	<path class="st8" d="M775.6,709.6c-0.6-3.1,4.7-13.5,6-14.2s4.4,0,4.4,0s8.8-0.6,11.9,1.3c1.9,1.1,4.2,1.3,6.3,0.6
		c0,0,13.8-1.3,8.8,5.6s-16,3.5-16,6.6"/>
	<path class="st9" d="M737.1,471.5c0,0-4.4,99.1-1.9,104.1s11.3,89.7,10,94.7s-7.5,25.7,0,28.9s23.8,0,23.8,0s4.4-25.1,2.5-38.3
		s-2.5-68.4-2.5-68.4l12.5-57.7l4.4,54.6c0,0,1.3,74.7-7.5,89.7s3.1,21.3,3.1,21.3s23.8,3.1,26.4,2.5s-1.9-25.1,0-35.8
		s6.3-70.3,10-84.7s25.1-94.7,9.4-111S737.1,471.5,737.1,471.5z"/>
	<circle class="st7" cx="782.9" cy="249.4" r="22"/>
	<path class="st7" d="M766.6,259.5c0,0,3.8,30.1,1.9,30.7s33.3,0,33.3,0s-6.9-18.2,0-32.6L766.6,259.5z"/>
	<path class="st1" d="M766.6,283.9c0,0,15.3-15.1,33.4,0l1.2,4.5l-9.4-0.1h-25.1V283.9z"/>
	<path class="st8" d="M841.2,476.5c-1.4,0.3-5,0.9-9.6,1.6c-15.4,2.3-42.7,5.9-43.7,3.4c-1.3-3.1-5.6-14.4-8.8-9.4s-1.3,9.4-14.4,10
		c-9,0.4-22-0.9-29.2-3c-3.4-1-5.5-2.1-5.3-3.3c0.6-3.8,7.5-75.3,7.5-82.2s2.5-40.2,2.5-40.2l-18-35.5l-1.4-2.8c0,0,1.9-6.9,7.5-8.2
		s32.6-16.9,32.6-16.9s5.6-8.8,16.3-8.2s13.2-3.8,27.6,8.2c0,0,17.6,7.5,23.8,11.3s13.2,3.8,13.8,10c0.1,1.3-0.6,3.7-1.7,6.8
		c-4.3,11.2-15.2,31.1-16.9,34.2c-0.2,0.3-0.2,0.4-0.2,0.4s-0.3,11.3,0,24.5v0c0.3,12.7,1.3,27.1,3.7,35.1
		C832.5,428.9,847.5,475.3,841.2,476.5z"/>
	<path class="st9" d="M811.4,240.4c-0.4-2-1.3-3.9-2.5-5.5c-0.5-4.6-2-9-4.5-12.9c-1-1.8-2.3-3.4-4-4.6c-1.9-1.1-4.1-1.6-6.3-1.6
		c-0.4,0-1.1,0.1-1.8,0.1c-0.4-0.1-0.8-0.2-1.3-0.4c-0.2-0.5-0.7-2.1-0.9-2l-1.8,1.5c-0.8-0.1-1.6-0.2-2.3-0.3
		c-0.3-0.8-0.6-1.6-0.9-2.4c-0.5,0.7-0.9,1.5-1.2,2.3c-0.8,0-1.6-0.1-2.3,0l-1.6-1.5c-0.2,0.9-0.9,1.5-1.7,1.7
		c-0.7,0.1-1.4,0.2-2.1,0.3c-0.1,0-0.1,0-0.2,0c-3.8-0.1-8-0.3-11.2,1.8c-1.5,1-2.7,2.4-3.5,4c-0.4,0.3-0.8,0.5-1.2,0.8
		c-1.3,0.9-2.4,2-3.3,3.3c-0.6,1.1-1.1,2.3-1.5,3.5c-1.2,3.7-1.8,7.6-1.7,11.5c0.1,3.9,1.6,7.7,4.2,10.7c1.6,1.8,3.7,3.1,5.4,4.8
		c3.4,3.6,4,8.7,6.9,12.5c3.1,4.1,8.7,6.7,13.6,7.5c6,0.9,12-0.6,16.9-4.2c1.2-0.8,2.1-1.8,2.9-3c1.7-2.9,1-6.7,1.6-10
		C806.5,252,812.4,246.7,811.4,240.4z"/>
	<path class="st7" d="M727.7,480.3c0,0,9.4,33.9-2.5,38.9s-8.2-37.6-8.2-37.6L727.7,480.3z"/>
	<path class="st10" d="M739,403.4c0,0-4.1,61.1-3.5,75.8c-3.4-1-5.5-2.1-5.3-3.3c0.6-3.8,7.5-75.3,7.5-82.2s2.5-40.2,2.5-40.2
		l-18-35.5c0.3-1.8,0.5-2.8,0.5-2.8l9.1,19.1l12.9,3.5L739,403.4z"/>
	<path class="st8" d="M725.2,311.5l-4.4,3.8c0,0-5.6,33.3-5,41.4s-13.2,131.8-2.5,131.8s22.6-1.9,20.7-6.3s3.1-78.8,3.1-78.8
		l5.7-65.5L725.2,311.5z"/>
	<path class="st10" d="M840.8,318.3c-4.3,11.2-15.2,31.1-16.9,34.2c0.1-8,0.1-13.7,0.1-13.7l13.2-27l2.8-2.2
		C840,309.7,840.3,313,840.8,318.3z"/>
	<path class="st10" d="M841.2,476.5c-1.4,0.3-5,0.9-9.6,1.6c-2.4-17.8-8.8-68.9-8.4-73.7c0.2-2.4,0.4-14.1,0.5-27
		c0.3,12.7,1.3,27.1,3.7,35.1C832.5,428.9,847.5,475.3,841.2,476.5z"/>
	<path class="st8" d="M833.1,307.1l9.4,2.5c0,0,6.3,69.6,6.9,81.6s8.2,85.3,6.9,88.5s-20.7,7.5-21.3,4.4s-9.7-73.9-9.3-79.6
		s-2.7-64.7-2.7-64.7L833.1,307.1z"/>
	<path class="st2" d="M688.9,8.4"/>
	<polyline class="st2" points="231.9,341.4 351.9,252.3 466.9,187.3 580.9,124.3 	"/>
	<circle class="st1" cx="348.9" cy="257.3" r="11"/>
	<circle class="st1" cx="463.9" cy="192.3" r="11"/>
	<circle class="st1" cx="577.9" cy="129.3" r="11"/>
	<circle class="st2" cx="351.9" cy="252.3" r="11"/>
	<circle class="st2" cx="466.9" cy="187.3" r="11"/>
	<circle class="st2" cx="580.9" cy="124.3" r="11"/>
</g>
<ellipse class="st2" cx="774.6" cy="702.4" rx="154" ry="24"/>
</svg>
