<?xml version="1.0" encoding="utf-8"?>
<!-- Generator: Adobe Illustrator 22.0.1, SVG Export Plug-In . SVG Version: 6.00 Build 0)  -->
<svg version="1.1" id="_x31_c04cb57-5b83-4fe5-b665-05639f110a33"
	 xmlns="http://www.w3.org/2000/svg" xmlns:xlink="http://www.w3.org/1999/xlink" x="0px" y="0px" viewBox="0 0 420.4 268.9"
	 style="enable-background:new 0 0 420.4 268.9;" xml:space="preserve">
<style type="text/css">
	.st0{fill-rule:evenodd;clip-rule:evenodd;fill:#F1F1F1;}
	.st1{fill-rule:evenodd;clip-rule:evenodd;fill:#E7BB20;}
	.st2{fill-rule:evenodd;clip-rule:evenodd;fill:#FFCA05;}
	.st3{fill-rule:evenodd;clip-rule:evenodd;fill:#414141;}
	.st4{fill-rule:evenodd;clip-rule:evenodd;fill:#6D6F70;}
	.st5{fill-rule:evenodd;clip-rule:evenodd;fill:#BABCBE;}
	.st6{fill-rule:evenodd;clip-rule:evenodd;fill:#E5E6E6;}
	.st7{fill-rule:evenodd;clip-rule:evenodd;fill:#CFD1D2;}
	.st8{fill-rule:evenodd;clip-rule:evenodd;fill:#F38144;}
	.st9{fill-rule:evenodd;clip-rule:evenodd;fill:#FFD643;}
	.st10{fill-rule:evenodd;clip-rule:evenodd;fill:#FFD537;}
	.st11{fill:#BEB7B7;}
	.st12{fill:#DCAB9D;}
	.st13{fill:#E7C8BA;}
	.st14{fill:url(#SVGID_1_);}
	.st15{fill:#2F120C;}
	.st16{fill:#662619;}
	.st17{fill:#3C5BA8;}
	.st18{fill:#5583C3;}
	.st19{fill:#232121;}
	.st20{fill:#D7D7D7;}
</style>
<ellipse class="st0" cx="210.2" cy="242.7" rx="211.2" ry="26.5"/>
<title>city driver</title>
<g>
	<g>
		<path class="st1" d="M102.4,115.7c-0.5-0.1-3.2,0.1-3.2,0.1s0.2-4.6-1.3-7c-1.4-2.4-5.7-2.8-9.7-2.7c-4,0.1-10.6,2.1-12.8,5.8
			c-1.9,3.3-1,8.3,3.3,9.6c3.3,1,9,1.6,11.7,1.9c3.8,0.5,9.5,1.1,9.5,0.9C100.1,124,102.4,115.7,102.4,115.7z"/>
		<path class="st2" d="M102.4,115.7c-0.5-0.1-3.2,0.1-3.2,0.1s0.2-4.6-1.3-7c-1.4-2.4-5.7-2.8-9.7-2.7c-2.1,0-4.9,0.6-7.4,1.7
			c-0.7,0.6-1.3,1.3-1.7,2c-1.9,3.3-1,8.3,3.3,9.6c3.3,1,9,1.6,11.7,1.9c2,0.3,4.5,0.6,6.5,0.7C101.4,119.5,102.4,115.7,102.4,115.7
			z"/>
	</g>
	<g>
		<path class="st1" d="M295,115.2c0.5-0.1,3.2,0.1,3.2,0.1s-0.2-4.6,1.3-7c1.4-2.4,5.7-2.8,9.7-2.7c4,0.1,10.6,2.1,12.8,5.8
			c1.9,3.3,1,8.3-3.3,9.6c-3.3,1-9,1.6-11.7,1.9c-3.8,0.5-9.5,1.1-9.5,0.9C297.3,123.5,295,115.2,295,115.2z"/>
		<path class="st2" d="M295,115.2c0.5-0.1,3.2,0.1,3.2,0.1s-0.2-4.6,1.3-7c1.4-2.4,5.7-2.8,9.7-2.7c2.1,0,4.9,0.6,7.4,1.7
			c0.7,0.6,1.3,1.3,1.7,2c1.9,3.3,1,8.3-3.3,9.6c-3.3,1-9,1.6-11.7,1.9c-2,0.3-4.5,0.6-6.5,0.7C296,119,295,115.2,295,115.2z"/>
	</g>
	<g>
		<path class="st3" d="M296.1,169.7h15c7.2,0,13.1,5.3,13.1,11.8v52c0,6.5-5.9,11.8-13.1,11.8h-15c-7.2,0-13.1-5.3-13.1-11.8v-52
			C283,175,288.9,169.7,296.1,169.7z"/>
		<path class="st3" d="M86.6,169.7h15c7.2,0,13.1,5.3,13.1,11.8v52c0,6.5-5.9,11.8-13.1,11.8h-15c-7.2,0-13.1-5.3-13.1-11.8v-52
			C73.5,175,79.4,169.7,86.6,169.7z"/>
	</g>
	<path class="st2" d="M198.9,95.9L198.9,95.9L198.9,95.9L198.9,95.9c-0.5,0.8,0-39.6,0-39.8C198.9,56.3,199.4,96.7,198.9,95.9
		L198.9,95.9L198.9,95.9z M198.9,56.1L198.9,56.1L198.9,56.1c-18.7,0.8-43.4-0.4-58.3,3c-11.5,2.6-18.8,9.1-23.2,17.5
		c-5.2,10-12.8,25.1-14.6,32.1c-2.6,9.8-5.5,19.7-5.5,19.7S85,133.5,82,136.6c-3,3.1-4.5,6.8-6.1,15.2c-1.5,8.5-1.2,30.3-1,41.4
		c0.2,11.1,2.6,16.4,6.3,20.2c12.9,13.4,72.1,16.7,117.7,15.4l0,0c45.5,1.3,104.8-2,117.7-15.4c3.7-3.9,6.1-9.1,6.3-20.2
		c0.2-11.1,0.6-33-1-41.4c-1.5-8.5-3.1-12.1-6.1-15.2c-3-3.1-15.3-8.2-15.3-8.2s-3-9.9-5.5-19.7c-1.8-7-9.4-22.1-14.6-32.1
		c-4.4-8.5-11.7-14.9-23.2-17.5C242.3,55.7,217.7,56.9,198.9,56.1z"/>
	<path class="st2" d="M82,136.6c0,0-1.4,38.8-0.4,40.1c0.9,1.3,14.6,3.6,46.4,10.1c31.8,6.5,71,7.6,71,7.6v-51.9L98.9,122.9
		c-1,3.3-1.6,5.5-1.6,5.5S85,133.5,82,136.6z"/>
	<path class="st2" d="M98.2,125.1c0.5-1,1.2-2,2.2-2.9c2.8-2.4,5.7-3.1,5.7-3.1c28.9,9.9,15.2,40.5,92.8,46.8
		c0,0-38.4,13.1-64.4-3.1c-26-16.2-37.3-28.5-43.8-31.5c3.4-1.7,6.5-2.9,6.5-2.9S97.6,127.2,98.2,125.1z"/>
	<ellipse class="st3" cx="102.3" cy="155.7" rx="17.7" ry="16.2"/>
	<path class="st3" d="M137.5,63c-15.4,5.7-36.1,51-31.4,56.1c1.4,1.5,184.2,1.5,185.6,0c4.8-5.2-16-50.4-31.4-56.1
		C245.1,57.3,152.6,57.4,137.5,63z"/>
	<path class="st4" d="M231.7,120.1c32.9-0.1,59.5-0.5,60-1.1c4.8-5.2-16-50.4-31.4-56.1c-11.1-4.1-62.8-5.2-96.1-3.4L231.7,120.1z"
		/>
	<path class="st3" d="M96.2,198l0.6,0c0.1,0,0.2,0,0.4,0c0.6,0,1.1,0.1,1.7,0.2l35.6,2.8l5.7,15.5l-42.1-3.6l0-0.1
		c-0.3,0-0.6,0.1-0.9,0.1c-4.4,0-8-3.3-8-7.4C89.2,201.7,92.3,198.5,96.2,198L96.2,198z"/>
	<path class="st3" d="M301.7,198l-0.6,0c-0.1,0-0.2,0-0.4,0c-0.6,0-1.1,0.1-1.7,0.2l-35.6,2.8l-5.7,15.5l42.1-3.6l0-0.1
		c0.3,0,0.6,0.1,0.9,0.1c4.4,0,7.9-3.3,7.9-7.4C308.7,201.7,305.6,198.5,301.7,198L301.7,198z"/>
	<path class="st3" d="M143.2,202.9c0.4,2.3,1.7,8.1,4.1,10.8c2.9,3.4,7.1,4.8,11,5.3c14.1,1.9,67.1,1.9,81.3,0c3.9-0.5,8.1-2,11-5.3
		c2.3-2.7,3.6-8.6,4.1-10.8c0.3-1.5-0.7-1.5-2.8-1.6c-17.6-0.8-88.2-0.8-105.8,0C143.9,201.4,142.9,201.3,143.2,202.9z"/>
	<path class="st5" d="M102.3,170.7c9.5,0,17.2-6.9,17.2-15.5c0-8.5-7.7-15.5-17.2-15.5c-9.5,0-17.2,6.9-17.2,15.5
		C85.1,163.7,92.9,170.7,102.3,170.7z"/>
	<path class="st6" d="M102.3,169.6c8.8,0,16-6.5,16-14.4c0-7.9-7.2-14.4-16-14.4c-8.8,0-16,6.5-16,14.4
		C86.3,163.1,93.5,169.6,102.3,169.6z"/>
	<path class="st7" d="M102.3,155.9c3.9,0,7-2.8,7-6.3c0-3.5-3.1-6.3-7-6.3c-3.9,0-7,2.8-7,6.3C95.3,153.1,98.5,155.9,102.3,155.9z"
		/>
	<path class="st8" d="M83.3,179.6l21.1,3.7c1.3,0.2,2.2,1.3,2.1,2.5l-0.2,1.9c-0.1,1.2-1.3,1.9-2.6,1.7l-21.1-3.7
		c-1.3-0.2-2.2-1.3-2.1-2.5l0.2-1.9C80.9,180.1,82,179.4,83.3,179.6z"/>
	<path class="st8" d="M314.6,179.6l-21.1,3.7c-1.3,0.2-2.2,1.3-2.1,2.5l0.2,1.9c0.1,1.2,1.3,1.9,2.6,1.7l21.1-3.7
		c1.3-0.2,2.2-1.3,2.1-2.5l-0.2-1.9C317,180.1,315.8,179.4,314.6,179.6z"/>
	<path class="st6" d="M98,210.2c3,0,5.4-2.2,5.4-4.8c0-2.7-2.4-4.8-5.4-4.8c-3,0-5.4,2.2-5.4,4.8C92.7,208.1,95.1,210.2,98,210.2z"
		/>
	<path class="st6" d="M299.8,210.2c3,0,5.4-2.2,5.4-4.8c0-2.7-2.4-4.8-5.4-4.8c-3,0-5.4,2.2-5.4,4.8
		C294.5,208.1,296.9,210.2,299.8,210.2z"/>
	<path class="st9" d="M98.2,125.1C98.2,125.1,98.2,125.1,98.2,125.1L98.2,125.1L98.2,125.1z M291.5,119.2c0.1,0,0.2,0,0.2-0.1
		c0,0,2.9,0.7,5.7,3.1c1,0.9,1.7,1.9,2.2,2.9c0,0,0,0,0,0c0.3,1.2,0.6,2.1,0.8,2.6c-23.7-4-24.6,19.1-43.1,29.8
		c-9.3,5.3-18.2,6.9-32.4,7.7c-0.4,0.5-1.1,0.8-1.8,0.8h-23.7l-0.6,0c-0.1,0-0.1,0-0.2,0h0.3c-0.1,0-0.1,0-0.2,0l-0.6,0h-23.7
		c-0.7,0-1.4-0.3-1.8-0.8c-14.2-0.7-23-2.3-32.4-7.7c-18.5-10.6-19.3-33.7-43.1-29.8c0.2-0.6,0.4-1.5,0.8-2.6c0,0,0,0,0,0
		c0.5-1,1.2-2,2.2-2.9c2.8-2.4,5.7-3.1,5.7-3.1c0,0,0.1,0,0.2,0.1c31.3,10.9,19.4,44.8,92.6,44.6C272.7,163.5,260,130.1,291.5,119.2
		L291.5,119.2z M299.7,125.1L299.7,125.1C299.7,125.1,299.7,125.1,299.7,125.1z"/>
	<g>
		<path class="st3" d="M295.4,171.4c9.8,0,17.7-7.3,17.7-16.2c0-8.9-8-16.2-17.7-16.2c-9.8,0-17.7,7.3-17.7,16.2
			C277.7,164.1,285.6,171.4,295.4,171.4z"/>
		<path class="st5" d="M295.5,170.1c9.5,0,17.2-6.9,17.2-15.5c0-8.5-7.7-15.5-17.2-15.5c-9.5,0-17.2,6.9-17.2,15.5
			C278.2,163.2,286,170.1,295.5,170.1z"/>
		<path class="st6" d="M295.5,169.1c8.8,0,16-6.5,16-14.4c0-7.9-7.2-14.4-16-14.4s-16,6.5-16,14.4
			C279.4,162.6,286.6,169.1,295.5,169.1z"/>
		<ellipse class="st7" cx="295.5" cy="149.1" rx="7" ry="6.3"/>
	</g>
	<path class="st3" d="M97.3,128.4c23.7-4.2,24.5,19.7,43,30.3c14,8,27.3,7.2,58.7,8l0,0c31.4-0.8,44.7,0,58.7-8
		c18.5-10.6,19.3-34.5,43-30.3c0,0-0.1-0.2-0.2-0.7c-23.7-4-24.6,19.1-43.1,29.8c-14,8-27,7.6-58.4,8.4l0,0
		c-31.4-0.8-44.4-0.4-58.4-8.4c-18.5-10.6-19.3-33.7-43.1-29.8C97.3,128.2,97.3,128.4,97.3,128.4z"/>
	<path class="st10" d="M198.9,166.7L198.9,166.7L198.9,166.7z M196.5,166.7c-29.7-0.7-42.6-0.1-56.2-8c-18.5-10.6-19.3-34.5-43-30.3
		c0,0-3.1,1.3-6.5,2.9c-3.4,1.7-7.2,3.7-8.7,5.3c0,0-0.8,22.9-0.8,34.1c0,3.4,0.1,5.7,0.3,6c0.8,1.1,10.8,2.9,33.2,7.4
		c4,0.8,8.4,1.7,13.2,2.7c31.8,6.5,71,7.6,71,7.6v-27.7C198.1,166.7,197.3,166.7,196.5,166.7L196.5,166.7z M102.1,139.5
		c0.1,0,0.2,0,0.2,0c8.8,0,16.1,5.9,17.5,13.5c0.2,0.9,0.2,1.8,0.2,2.7c0,7.2-5.1,13.3-12.2,15.4c-1.8,0.5-3.6,0.8-5.6,0.8
		c-3.3,0-6.4-0.8-9-2.2c-5.2-2.8-8.7-8-8.7-14C84.5,146.8,92.4,139.6,102.1,139.5z"/>
	<path class="st10" d="M198.9,166.7L198.9,166.7L198.9,166.7z M201.4,166.7c29.7-0.7,42.6-0.1,56.2-8c18.5-10.6,19.3-34.5,43-30.3
		c0,0,3.1,1.3,6.5,2.9c3.4,1.7,7.2,3.7,8.7,5.3c0,0,0.8,22.9,0.8,34.1c0,3.4-0.1,5.7-0.3,6c-0.8,1.1-10.8,2.9-33.2,7.4
		c-4,0.8-8.4,1.7-13.2,2.7c-31.8,6.5-71,7.6-71,7.6l0-27.7C199.8,166.7,200.6,166.7,201.4,166.7L201.4,166.7z M295.8,139.5
		c-0.1,0-0.2,0-0.2,0c-8.8,0-16.1,5.9-17.5,13.5c-0.2,0.9-0.2,1.8-0.2,2.7c0,7.2,5.1,13.3,12.2,15.4c1.8,0.5,3.6,0.8,5.6,0.8
		c3.3,0,6.4-0.8,9-2.2c5.2-2.8,8.7-8,8.7-14C313.3,146.8,305.5,139.6,295.8,139.5z"/>
</g>
<g>
	<path class="st11" d="M340,47.8c0.6-0.9,15.1-3.6,17.3-1.8c2.2,1.8,1.7,5,1,6c-0.7,1.1-19,1.5-19,1.5L340,47.8z"/>
	<g>
		<g>
			<path class="st12" d="M341.8,37.1l-1.4,14.7c0,0,3.1,17.9,7.9,19.5c4.8,1.6,9.5-10,9.4-13.2c-0.1-3.1-1.2-20.2-1.2-20.2
				L341.8,37.1z"/>
			<g>
				<path class="st13" d="M357.8,59.5c-0.1-3.1-1.2-20.2-1.2-20.2l-6.4-0.4L347.5,73C352.3,74.5,357.9,62.6,357.8,59.5z"/>
			</g>
		</g>
		<g>
			
				<linearGradient id="SVGID_1_" gradientUnits="userSpaceOnUse" x1="344.5977" y1="50.3338" x2="361.5313" y2="50.3338" gradientTransform="matrix(0.9995 -3.150000e-02 3.150000e-02 0.9995 -6.0104 9.4958)">
				<stop  offset="0" style="stop-color:#FFFFFF"/>
				<stop  offset="0.6429" style="stop-color:#C5BFB8"/>
			</linearGradient>
			<path class="st14" d="M340.2,34.5c-1.1-2.6,12.8,3.5,16.5,5.9L344,63.9c-2.3-0.7-3.2-12.9-4-13.8
				C341.2,48.3,342.1,39.2,340.2,34.5z"/>
		</g>
		<g>
			<path class="st13" d="M357.9,26.7c-1-6.3-3.1-11.5-12.8-10.2c-12.1,1.6-10.1,8.4-9.1,16.1c1,7.7,7.3,15.5,13.5,14.8
				c4.7-0.5,8-5.8,8.9-11.7c1.2-0.8,1.9-2.5,1.8-4.5C359.8,28.7,359.6,26.6,357.9,26.7z"/>
			<g>
				<path class="st12" d="M335.4,29.4c-0.2,0-0.4,0-0.5,0c-1.9,0.3-1.4,2.4-0.9,5c0.5,2.2,2,3.9,3.6,4c2.5,5.3,6.4,9.4,10.9,8.9
					c0.2,0,0.4-0.1,0.6-0.1l-7-29.2C331.8,19.3,334.6,23,335.4,29.4z"/>
			</g>
			<path class="st15" d="M344,13.6c-1.7-0.6-8,2.5-9.7,4.6c-1.6,1.8-1.8,4-1.5,7.3c0.3,3.4,1.2,4.1,1.2,4.1l1.5,0.2l1.2,0.5
				l-0.6-2.4c0,0-0.8-2.8,1.8-5.6c2.6-2.8,7.2-2.1,7.2-2.1L344,13.6z"/>
			<path class="st16" d="M343.4,20.2c1.3,1.1,0.5,1.2,3.7,0.6c3.2-0.6,6.5,0.9,7.5,2.1c1,1.2,1.6,4.3,1.6,4.3l2-0.5l1.3,0.4
				c0,0,0.5-5.7-2.2-9.3c-2-2.7-3.2-3.6-7.2-4.2c-1.8-0.2-5.5-2.1-6.6,0.5C342.8,15.4,343.4,20.2,343.4,20.2z"/>
		</g>
		<g>
			<path class="st17" d="M351.7,10c-4.1-0.7-14.5-0.4-18.1,4.6c-3.6,5-0.3,12.4-0.3,12.4c2.9-2.3,18.4-6.6,26.4-2.6
				C359.1,16.2,355.7,10.7,351.7,10z M339.2,20.2c0,0-0.5-3.1,3.3-4.3c3.8-1.1,6.7,2.4,6.7,2.4L339.2,20.2z"/>
			<g>
				<path class="st18" d="M351.7,10c-1.7-0.3-4.5-0.4-7.5-0.1c-0.6,1.8-1,3.8-1.1,5.9c3.5-0.7,6.1,2.6,6.1,2.6l-6,1.1
					c0.1,0.7,0.2,1.3,0.4,2c0.2,0.7,0.3,1.3,0.6,2c5.3-0.9,11.4-1.1,15.5,1C359.1,16.2,355.8,10.7,351.7,10z"/>
			</g>
		</g>
	</g>
	<path class="st11" d="M322.7,54.8c-4.6,1.5-10.3,11.5-19.3,29.1c-1.5,2.9-14.6,27.5-5.7,31.1c2.1-3.3,10.6-20.2,15.6-18.2
		c2.5-5.3,12.5-21.8,14.1-22.1c1.6-0.4,10.7,13.9,10.3,10.4C337.2,81.6,322.7,54.8,322.7,54.8z"/>
	<g>
		<g>
			<path class="st19" d="M363.4,131.6c-1.2,16-5.8,29.2-21.1,36.2c-6.6,3-25.2,3.2-32.7,1.4c-21.3-5-35.1-19.9-33.3-43.7
				c1.1-14.9,11.5-27.7,23.4-34.7c7.1-4.2,19.1-5.8,34.8-3.9C357.9,89.6,365.1,107.8,363.4,131.6z"/>
			<path d="M366.5,134.1c-1.5,20.9-15.6,36-38.5,34.5c-23.8-1.5-34.7-18.3-33.2-39.1c1.5-20.9,18.8-36.8,38.6-35.5
				C353.2,95.3,368,113.3,366.5,134.1z"/>
		</g>
		<path class="st19" d="M353.2,133.4c-1.9,13.5-13.6,23.1-26.1,21.6c-12.5-1.6-21-13.7-19.1-27.2c1.9-13.5,13.6-23.1,26.1-21.6
			C346.6,107.8,355.2,120,353.2,133.4z"/>
		<path d="M348,132.7c-1.3,8.9-9,15.3-17.2,14.3c-8.3-1-13.9-9.1-12.6-18c1.3-8.9,9-15.3,17.2-14.3
			C343.6,115.7,349.3,123.7,348,132.7z"/>
		<path d="M315.9,125.3c-0.2,3-3.5,5.3-7.4,5c-3.8-0.2-6.8-2.9-6.6-5.9c0.2-3,3.5-5.3,7.4-5C313.2,119.7,316.1,122.3,315.9,125.3z"
			/>
		<path d="M324.5,114.1c-1.7,2.6-5.7,3.2-9,1.3c-3.3-1.9-4.6-5.5-3-8c1.7-2.6,5.7-3.2,9-1.3C324.9,107.9,326.2,111.5,324.5,114.1z"
			/>
		<path d="M316.3,139.3c1,2.9-1.2,6.1-4.9,7.2c-3.7,1.1-7.4-0.4-8.4-3.3c-1-2.9,1.2-6.1,4.9-7.2
			C311.6,134.9,315.4,136.4,316.3,139.3z"/>
		<path d="M325.4,148.5c2.3,2.1,2,5.9-0.7,8.5c-2.7,2.6-6.8,2.9-9.1,0.8c-2.3-2.1-2-5.9,0.7-8.5
			C319.1,146.8,323.1,146.4,325.4,148.5z"/>
		<path d="M336.7,148.8c3.2-0.1,5.9,2.8,6,6.4c0.1,3.6-2.4,6.6-5.7,6.7c-3.2,0.1-5.9-2.8-6-6.4C330.9,151.9,333.5,148.9,336.7,148.8
			z"/>
		<path d="M345.3,143.8c2.6-1.8,6.6-0.8,8.8,2.1c2.2,2.9,1.9,6.7-0.7,8.5c-2.6,1.8-6.6,0.8-8.8-2.1
			C342.4,149.4,342.7,145.6,345.3,143.8z"/>
		<path d="M349.2,135.1c0.8-2.9,4.4-4.6,8.2-3.7c3.7,0.9,6.1,3.9,5.4,6.9c-0.8,2.9-4.4,4.6-8.2,3.7
			C350.9,141.1,348.5,138,349.2,135.1z"/>
		<path d="M349.7,124.1c-0.9-2.9,1.4-6,5.1-7c3.7-1,7.4,0.6,8.3,3.5c0.9,2.9-1.4,6-5.1,7C354.3,128.6,350.6,127,349.7,124.1z"/>
		<path d="M344.2,116.2c-2.5-1.9-2.5-5.7-0.1-8.5c2.4-2.8,6.4-3.5,8.9-1.6c2.5,1.9,2.5,5.7,0.1,8.5
			C350.7,117.4,346.7,118.1,344.2,116.2z"/>
		<path d="M335.1,112c-3.2,0-5.8-2.9-5.8-6.5c0-3.6,2.6-6.5,5.9-6.5c3.2,0,5.8,2.9,5.8,6.5C341,109.1,338.4,112,335.1,112z"/>
	</g>
	<path class="st19" d="M379.3,254.5l6.4-0.1c0,0,7.5-1.7,2.5-8.1c-3.7-4.8-3.1-6.6-5.1-10.4c-1.2-2.3-10.2-0.9-10.2-0.9
		s1.2,7.3,0.4,9.7C370.2,255.3,379.3,254.5,379.3,254.5z"/>
	<path class="st18" d="M369.3,106.7c3.1,5.9,5.1,17.4,7.5,35.9c1.1,8.2,3.1,28.6,4.9,35.2c6.3,22.8,4.5,62.9,4.5,62.9l-13.2,0.6
		c0,0-12.1-57.3-13.2-61.4c-1.1-4.1-8.8-33.5-8.8-33.5s-3.6,34.7-1.4,38.8c2.2,4.1,3.8,51.7,3.8,51.7l-14.1-0.1c0,0-4.8-47.7-5.9-58
		c-1.1-10.3-1.9-68.8-1.9-68.8L369.3,106.7z"/>
	<path d="M343.7,234.8c-1.1,4.1-5.6,7.5-8.8,8.5c-3.3,1-7.3,3-6.2,7.1c1.1,4,9.6,2.2,9.6,2.2s10.6-3.2,13.9-3.2
		c3.2,0,3.2-8.4,2.2-12.5C353.3,232.8,343.7,234.8,343.7,234.8z"/>
	<g>
		<path class="st17" d="M329.2,182.6c1.8,25.8,10.4,56.6,10.4,56.6l16.8-0.5c0,0-0.3-42.1-2.3-52.1c-1.9-9.3-2-29.4-2-29.4
			s5,23.4,6.1,27.5c1.1,4.1,13.7,56.8,13.7,56.8l11-1c-0.8-7.8-6-45.3-9.8-61.4c-2.2-9.4-8.1-52.5-12.5-67.3l-33.6,0.3
			C326.8,112.1,328.5,172.3,329.2,182.6z"/>
	</g>
	<path class="st11" d="M343.7,58.8c-2.8-4-4.5-9.3-4.5-9.3s-1.3,0.3-11.3,3c-5.1,1.4-7.9,3.7-8.3,7.1c-0.4,3.4,9.4,14.4,10.2,18.2
		c0.8,3.8-2.8,30.2,0.8,34.8c2.5,3,5.4-1.7,19.3-1.5c0-14.1-0.4-40.8-1.2-48.4C348.5,62.1,344.8,60.5,343.7,58.8z"/>
	<path class="st20" d="M358.5,48.6c0,0,4.5-0.2,13.9,2.8c3.8,1.2,3.2,2.1,3.6,5.5c0.4,3.4-3.4,24.1-4.2,27.9
		c-0.8,3.8-7.4,16.2-6.8,23.1c0.3,3.8-11,2.5-18.7,2.5c0-14.1-1.2-46.2,1.9-48.2C356.8,56.7,358.5,48.6,358.5,48.6z"/>
	<path class="st11" d="M357.4,46l4.3,3.1l-3.6,10.8c0,0-5.2-3.5-5-3.8C357.9,50.5,357.4,46,357.4,46z"/>
	<path class="st20" d="M340.1,47.5l-3.8,2.8l2.2,8.9c0,0,4.1-3.8,3.9-4.4C341,50.7,340.1,47.5,340.1,47.5z"/>
	<path class="st17" d="M330.5,51.6c-0.9,3.8,1,16.4,2.3,17.2c3.4,2.1,24.7,0.8,24.7,0.8l3.3,43.7c0,0-31.2,3.5-32.1,2.5
		c-2.2-2.3-3.5-8-3.5-11.3c0-3.4,0.6-24,0.6-24s1.5-20.7-0.3-27.3C328.9,51.3,330.5,51.6,330.5,51.6z"/>
	<path class="st18" d="M365.9,49.6c0,0-3.9,17.8-4.8,19.1c-0.9,1.3-5.6,1.1-5.6,1.1s-1.6,31,4.9,44.3c1.3,2.6,9.2-1.2,9.2-1.2
		s4.3-8.8,3.4-37c-0.1-1.7-6.7-5.5-6.7-7.1c0-1.7,4.3-18,4.3-18L365.9,49.6z"/>
	<g>
		<path class="st13" d="M360.2,90.1c-15.6,1.8-27.1,0.9-27.1,0.9s-2.3-0.7-5.1-2c-5.3-2.5-5.9-0.9-5.9-0.9l3.5,2.4l-9.7,0.3
			c0,0-3,0.8-3.5,1.3c-1.6,1.6-2.4,4.1,3,6.1c7.3,2.7,11.2,0.3,17.8,0.8c7.6,0.6,19,2.1,22.6,2.1C359.6,101,360.2,90.1,360.2,90.1z"
			/>
		<path class="st11" d="M374.1,51.8c5.8,2.1,7.9,16.7,7.6,25.7c-0.3,8.9-1.7,17.6-4.3,22.2c-2.4,4.2-23.6,4.2-23.6,4.2l-0.6-13
			c0,0,12.6-2,13.2-2.8c3-4.2,4.3-12.9,4-14.5C370.1,72.1,374.1,51.8,374.1,51.8z"/>
	</g>
</g>
</svg>
