<?xml version="1.0" encoding="utf-8"?>
<!-- Generator: Adobe Illustrator 22.0.1, SVG Export Plug-In . SVG Version: 6.00 Build 0)  -->
<svg version="1.1" id="_x31_c04cb57-5b83-4fe5-b665-05639f110a33"
	 xmlns="http://www.w3.org/2000/svg" xmlns:xlink="http://www.w3.org/1999/xlink" x="0px" y="0px" viewBox="0 0 1134 812.3"
	 style="enable-background:new 0 0 1134 812.3;" xml:space="preserve">
<style type="text/css">
	.st0{opacity:0.1;fill:#7D8BB2;enable-background:new    ;}
	.st1{opacity:0.2;fill:#655E70;}
	.st2{fill:#513F3F;}
	.st3{fill:#F29636;}
	.st4{fill:#877991;}
	.st5{fill:#2E666F;}
	.st6{fill:#175058;}
	.st7{opacity:0.4;fill:#655E70;}
	.st8{fill:#F2B46B;}
	.st9{fill:#75D3CC;}
	.st10{fill:#F24F42;}
	.st11{fill:#0C2D2D;}
	.st12{fill:#BD4959;}
	.st13{fill:#BA354C;}
	.st14{fill:#8CD9F2;}
	.st15{fill:#CB250C;}
	.st16{fill:#0CB0C1;}
	.st17{fill:#E7410C;}
	.st18{fill:#F2C161;}
	.st19{fill:#A82945;}
	.st20{fill:#0C969D;}
	.st21{fill:#0C7471;}
	.st22{fill:#871D33;}
	.st23{fill:#4B4353;}
	.st24{fill:#655B6D;}
	.st25{fill:#988770;}
	.st26{fill:#81705C;}
	.st27{fill:#2A82BE;}
	.st28{fill:#4B99D8;}
	.st29{fill:#C8F2E8;}
	.st30{fill:#EA9A52;}
	.st31{fill:#398DC6;}
	.st32{fill:#A8E5D9;}
	.st33{fill:#89DAD6;}
	.st34{fill:#6F3D0C;}
	.st35{fill:#F1A65C;}
	.st36{fill:#49220C;}
	.st37{fill:#A7631A;}
	.st38{fill:#7DCECA;}
	.st39{fill:#3F8DCC;}
	.st40{fill:#BCE8DC;}
	.st41{fill:none;}
</style>
<title>city driver</title>
<path class="st0" d="M1151.6,286.6c-2.4,67.3-39.2,131.5-83.3,184.3c-59.4,71.3-134.5,127.7-216.4,165.5
	c-14.3,6.7-28.9,12.6-43.7,18.1c-51.2,19.1-104.2,30.9-157.4,34.9c-15.3,1.2-30.6,1.7-46,1.5c-25.5-0.2-50.9-2.4-75.8-6.5
	c-6.3-1-12.6-2.2-18.8-3.5c-4.4-0.9-8.7-1.8-13-2.7c-9.1-1.8-18.3-3.2-27.7-2.9c-2.8,0.1-5.7,0.3-8.5,0.7
	c-28.5,4-55.1,22.7-77.3,43.7c-16.9,15.9-32.4,33.7-49.3,49.5c-7.5,7.1-15.4,13.6-23.7,19.7c-18.7,13.3-39.4,22.3-61.2,26.8
	l-1.9,0.4c-3.1,0.6-6.2,1.2-9.3,1.6l-1.9,0.3c-3.1,0.5-6.1,0.8-9,0.9l-2,0.1c-3.2,0.3-6.2,0.3-9.2,0.3c-1.1,0-2.2,0-3.3,0
	c-17.6-0.2-34.8-3.3-51.2-9c-0.4-0.1-0.9-0.4-1.4-0.4c-2.3-0.8-4.6-1.7-6.9-2.7c-0.9-0.4-1.7-0.7-2.5-1.1c-2.7-1.2-5.3-2.4-7.9-3.8
	c-0.4-0.1-0.8-0.4-1.1-0.6c-10.7-5.6-20.6-12.6-29.5-20.7c-0.2-0.2-0.6-0.5-0.8-0.7c-2.7-2.6-5.3-5.4-8.1-8.2
	c-1-1.2-2.2-2.4-3.2-3.7c-0.3-0.4-0.6-0.7-0.9-1.1c-14.6-18.1-24.8-39.8-34.4-61.6c-1.1-2.5-2.2-5.1-3.4-7.7
	c-15.3-35.4-30.7-71.6-40.7-109.4c-0.1-0.3-0.1-0.6-0.2-0.7c-3.4-12.7-6.2-25.5-8.3-38.7c-2.2-13.7-3.4-27.7-3.6-41.7
	c-0.5-34.7,5.7-69.9,14.7-104.2c22.6-86,64.5-171,131-230.4c71.9-64.2,170.2-93.3,258.1-76.8c26.8,5,52.8,14.1,80.5,14.1
	c24.1,0,48.8-8,66-27.6c14.2-16.1,23.9-25.8,43.7-35.1c41.1-19.6,84.2-32.6,128-39c1.8-0.3,3.6-0.5,5.4-0.7
	c114.6-15.6,231.6,13.2,317.5,85.1c2.3,1.9,4.4,3.9,6.8,5.9C1113.4,145.2,1154.3,211.6,1151.6,286.6z"/>
<path class="st1" d="M1015.7,526"/>
<polyline class="st1" points="972.5,446.8 845.1,447.9 845.1,451.6 "/>
<g>
	<g>
		
			<rect x="818.2" y="306.9" transform="matrix(0.3761 -0.9266 0.9266 0.3761 231.8237 959.5101)" class="st2" width="20.4" height="1.4"/>
		<path class="st3" d="M834.3,299.5l-4.6-1.9l6.7-16.5c0,0,1.5-1.3,3-0.7c1.5,0.6,1.7,2.5,1.7,2.5L834.3,299.5z"/>
		
			<rect x="830.9" y="295" transform="matrix(0.3762 -0.9266 0.9266 0.3762 242.2296 957.1885)" class="st3" width="2.1" height="7.3"/>
	</g>
	<g>
		<g>
			<path class="st4" d="M819.9,325.8l-0.2,6.2c0.5,0.4,0.9,0.8,1.5,1.1l0.2-7.3L819.9,325.8z"/>
			<path class="st4" d="M822.8,275.6l0.2-7.3c-0.6,0.3-1.1,0.7-1.5,1.1l-0.2,6.2L822.8,275.6z"/>
			<path class="st4" d="M833.6,275.9c-0.1,3.8-2.8,7-6.4,7.8l-0.9,34.3c3.5,1.1,6,4.3,5.9,8.2c-0.1,2.7-1.5,5-3.5,6.5l0,1
				c2.9-1.2,4.9-4.1,5-7.4c0.1-3.8-2.4-7.1-5.9-8.2l0.9-34.3c3.6-0.9,6.2-4,6.4-7.8c0.1-3.3-1.8-6.3-4.6-7.7l0,1
				C832.4,270.8,833.7,273.2,833.6,275.9z"/>
		</g>
	</g>
	<g>
		<path class="st5" d="M966.7,511.4c0,7-5.7,12.7-12.7,12.7h-65.4c-7,0-12.7-5.7-12.7-12.7v-45.8c0-7,5.7-12.7,12.7-12.7H954
			c7,0,12.7,5.7,12.7,12.7V511.4z"/>
		<path class="st6" d="M956.9,506.5c0,5.5-4.5,10-10,10h-51.4c-5.5,0-10-4.5-10-10v-36c0-5.5,4.5-10,10-10h51.4c5.5,0,10,4.5,10,10
			V506.5z"/>
		<rect x="898.2" y="435.5" class="st5" width="46" height="9.1"/>
		<rect x="904.8" y="440.1" class="st5" width="4" height="15.7"/>
		<rect x="933.7" y="440.1" class="st5" width="4" height="15.7"/>
		<path class="st5" d="M941.9,481l-2.8-6.1l5.9-2.7c-2.1-1.6-5-2-7.6-0.8c-3.1,1.4-4.8,4.8-4.2,8l-28,12.9c-2.1-2.5-5.7-3.4-8.8-2
			c-2,0.9-3.4,2.7-4,4.7l0,0c-0.2,0.5-0.3,1.1-0.3,1.6l5.9-2.7l2.8,6.1l-5.3,2.5h0l-0.8,0.4c2.1,1.8,5.2,2.4,8,1.1
			c0.7-0.3,1.3-0.8,1.9-1.3c0.1-0.1,0.2-0.2,0.3-0.2c0.5-0.5,0.9-1.1,1.3-1.7c0-0.1,0.1-0.1,0.1-0.2c0.7-1.4,1-3,0.7-4.6l28-12.9
			l0,0c1,1.2,2.4,2.1,3.9,2.4c0.1,0,0.1,0,0.2,0.1c0.7,0.2,1.4,0.2,2.2,0.1c0.1,0,0.2,0,0.4,0c0.7-0.1,1.5-0.3,2.2-0.6
			c2.7-1.3,4.3-3.9,4.3-6.8L941.9,481z"/>
		<rect x="898.2" y="441.5" class="st6" width="46" height="3"/>
	</g>
	<path class="st7" d="M1005.1,524.1c0-2.6-206.2-4.7-460.5-4.7S84,521.5,84,524.1c0,2.6,206.2,4.7,460.5,4.7
		S1005.1,526.7,1005.1,524.1z"/>
	<path class="st8" d="M738.3,248.5c0,0-5.8,48.8-15.5,61.3c-8.6,11.1-47.1,20.8-47.1,20.8l3.2,3.4c0,0,47.3-3.8,57.4-14.9
		c10.5-11.6,16.1-60.4,16.1-60.4L738.3,248.5z"/>
	<polygon class="st9" points="675.7,329.3 685,326.8 689.8,333.4 680.5,335 	"/>
	<path class="st9" d="M676.3,329.5c0,0-19.1-5.6-21.4-2.2c-0.9,1.4-1.3,4.5,1.1,7.3c3.4-0.3,7.6,1.9,6.8,3.4
		c2.5,2.2,3.8,3.9,5.3,3.6c4-0.7,13.9-7.7,13.9-7.7L676.3,329.5z"/>
	<path class="st9" d="M655,327.3c0,0-2.5,3.6-4,7.7c-0.7,5.6-1.2,8.9,0,9.1c2.6,0.2,6.2-11.2,6.2-11.2L655,327.3z"/>
	<g>
		
			<rect x="640.8" y="357" transform="matrix(0.2858 -0.9583 0.9583 0.2858 122.1209 879.35)" class="st2" width="20.4" height="1.4"/>
		<path class="st10" d="M656.1,349.1l-4.8-1.4l5.1-17.1c0,0,1.4-1.4,2.9-0.9c1.5,0.4,1.9,2.4,1.9,2.4L656.1,349.1z"/>
		
			<rect x="652.6" y="344.9" transform="matrix(0.2858 -0.9583 0.9583 0.2858 132.7865 875.2848)" class="st10" width="2.1" height="7.3"/>
	</g>
	<path class="st9" d="M660.2,340c0,0-5.7,1.8-5.6,4.4c0.1,1.7,7.9-0.7,8.2-0.8C663.1,343.6,660.2,340,660.2,340z"/>
	<path class="st9" d="M660.2,340c-1.1,0.8-1.9,2.8-1.9,2.9c1.8,3.3,11.5-1.7,10.9-1.6c0.7-0.2-3.8-2.9-6.5-3.3
		C662.4,338.7,660.7,339.6,660.2,340z"/>
	<g>
		
			<rect x="611.7" y="280.6" transform="matrix(0.8417 -0.54 0.54 0.8417 -76.6298 381.7542)" class="st11" width="1.9" height="82"/>
		<path class="st12" d="M116,473.4h641c0,0,4.5-75.8,4.5-85c0-5.7-7-15.1-24.8-18.5c0,0-178.4-26.1-191.6-36.2
			c-13.2-10.1-94.3-134.7-94.3-134.7c9.2-2.1,17.8-0.6,12.9-7.2c-7.5-10.1-144.8,7.9-165.3,11.4c-19.4,3.3-127,23.5-117.4,35.6
			c2.2,2.9,7.2,2.3,7.2,2.3s-28.6,71.3-36.2,79.1c-7.6,7.9-32.3,16.6-35.9,25.3C112.4,354.1,97.8,435.1,116,473.4z"/>
		<g>
			<path class="st13" d="M116,473.4h641c0,0,2.4-41.2,3.7-66.5H107.3C106.3,430.7,107.9,456.3,116,473.4z"/>
		</g>
		<path class="st14" d="M166.1,313.7c-0.7,1.6-0.5,3.4,0.4,4.9c0.9,1.5,2.5,2.4,4.3,2.5l348.5,15.4c2.2,0.1,4.3-1.1,5.4-3
			c1.1-1.9,1-4.3-0.2-6.2l-80.6-125c-1.1-1.8-3.1-2.8-5.2-2.7c-23.3,0.7-161.7,6.5-241.9,40.3C190.4,255.5,173.1,297.1,166.1,313.7z
			"/>
		<g>
			<path class="st15" d="M118.8,341.7L118.8,341.7c-6.7,4.3-9.6,39.7-9.8,43.8C135.2,387.6,126.2,345.5,118.8,341.7z"/>
		</g>
		<g>
			<g>
				<path class="st16" d="M485.6,303.6c0,0,7-18.5,0-20.5c-7-2-26.4,42.4-20.9,43.5c5.5,1.1,15.3-13.2,15.3-13.2
					c-5.9,9.3-8.1,18.9-8.1,18.9s2.5,0.6,6.5,2.4l39.2,1.7c2.2,0.1,4.3-1.1,5.4-3c1.1-1.9,1-4.3-0.2-6.2L504.6,299l0,0
					C492.2,296.3,485.6,303.6,485.6,303.6z"/>
			</g>
			<g>
				<path class="st16" d="M378.7,292.6c24.1-31.2-25.8-36.1-25.8-36.1l5.9,71.8l60.1,2.8C408.5,301.4,378.7,292.6,378.7,292.6z"/>
				<path class="st16" d="M212.7,321.6l-0.2,0c0,0,0,0,0,0L212.7,321.6z"/>
				<path class="st16" d="M233.2,322.7l53.8,2"/>
				<path class="st16" d="M245.3,256.5"/>
				<path class="st16" d="M175.4,287.3c-4.4,10.5-8.4,20.2-11,26.4c-0.7,1.6-0.5,3.4,0.4,4.9c0.2,0.3,0.4,0.6,0.7,0.9l47,2.2"/>
			</g>
		</g>
		<g>
			<path class="st17" d="M112.2,359.6c-2.1,11.1-3.1,23.6-3.2,25.9c6.6,0.5,11-1.8,13.7-5.6c0.1-0.8,0.1-1.6,0.1-2.4
				C122.8,368.1,118.1,360.4,112.2,359.6z"/>
		</g>
		<g>
			<path class="st18" d="M728.4,419.1c4.9,2.3,14.1,4,31.6,1c0.8-15,1.5-28.3,1.5-31.8c0-1-0.2-2.1-0.7-3.3
				C737.5,393.1,711,411,728.4,419.1z"/>
		</g>
		<path class="st12" d="M364.1,197.5c-13.2,10.6,13.2,118.7,25,139L365,335c2.3-25.8-5.7-109.5-35.6-133.6L364.1,197.5z"/>
		<g>
			<path class="st19" d="M559.1,457.8h-4.4c0-68.2-19-120-19.2-120.5l4.1-1.5C539.8,336.2,559.1,388.8,559.1,457.8z"/>
		</g>
		<g>
			<path class="st19" d="M550.2,336l-395.9-19c-0.9,1.5-1.7,2.6-2.3,3.3l413.8,20.1C559.2,338.7,553.9,337.3,550.2,336z"/>
		</g>
		<g>
			<ellipse class="st20" cx="254.2" cy="354.8" rx="17.6" ry="4.8"/>
			<g>
				<ellipse class="st21" cx="254.2" cy="357.2" rx="15.2" ry="2.4"/>
			</g>
		</g>
		<g>
			<ellipse class="st19" cx="418.9" cy="354.8" rx="17.6" ry="4.8"/>
			<g>
				<ellipse class="st22" cx="418.9" cy="357.2" rx="15.2" ry="2.4"/>
			</g>
		</g>
		<g>
			<path class="st23" d="M536.4,339.2c-3.2,1.8-6.6,1.9-7.7,0.1c-1.1-1.8,0.6-4.8,3.8-6.6c3.2-1.8,6.6-1.9,7.7-0.1
				C541.2,334.4,539.5,337.3,536.4,339.2z"/>
			<path class="st23" d="M536.1,331.4l-14-11.8l-1.8,3.8c0,0,9.8,6.6,12.6,15.3L536.1,331.4z"/>
			<path class="st23" d="M482.3,323.2c-0.9,11,50.5,14.9,42-8.7C518.8,299.3,482.9,315.8,482.3,323.2z"/>
		</g>
		<g>
			<path class="st19" d="M386.9,454c-9.4-147.2-40.3-246.3-40.6-247.3l4.2-1.3c0.3,1,31.4,100.7,40.8,248.4L386.9,454z"/>
		</g>
		<g>
			<path class="st22" d="M110,453.9c1.4,7.2,3.4,13.8,6.1,19.5h641c0,0,0.5-8.2,1.1-19.5H656.2c-16.6-51.8-80.9-45.3-94,0H270.1
				c-10-39.1-71-56.8-93.3,0H110z"/>
		</g>
		<g>
			
				<ellipse transform="matrix(0.9985 -5.398174e-02 5.398174e-02 0.9985 -25.2844 12.7886)" class="st24" cx="224.1" cy="474.4" rx="42.6" ry="49.1"/>
			<g>
				<path class="st23" d="M223.2,425.3c-21,0.2-38,17.7-41.2,40.7h84C262.2,442.8,244.3,425.2,223.2,425.3z"/>
			</g>
			
				<ellipse transform="matrix(0.9976 -6.888651e-02 6.888651e-02 0.9976 -32.1502 16.5639)" class="st23" cx="224.1" cy="474.4" rx="25" ry="29.8"/>
			
				<ellipse transform="matrix(0.9976 -6.890493e-02 6.890493e-02 0.9976 -32.1587 16.5686)" class="st25" cx="224.1" cy="474.4" rx="23.8" ry="28.4"/>
			<path class="st23" d="M227.1,516.3c-23.5,0.2-43-21.7-43.5-48.8c-0.1-4.4,0.3-8.7,1.2-12.7c-2.2,6.1-3.4,12.9-3.3,20
				c0.5,27.1,20,49,43.5,48.8c19.7-0.1,36-15.7,40.5-36.7C259.2,504.1,244.5,516.2,227.1,516.3z"/>
			<path class="st26" d="M226.5,498.3c-13.1,0.1-24.1-12.6-24.5-28.2c-0.1-3.5,0.4-6.8,1.3-9.9c-2,4.2-3.1,9.1-2.9,14.4
				c0.4,15.7,11.3,28.3,24.5,28.2c10.2-0.1,18.7-7.8,21.8-18.6C242.7,492.5,235.2,498.2,226.5,498.3z"/>
		</g>
		<g>
			
				<ellipse transform="matrix(0.9985 -5.396909e-02 5.396909e-02 0.9985 -24.7185 33.5246)" class="st24" cx="608.4" cy="474.4" rx="42.6" ry="49.1"/>
			<g>
				<path class="st23" d="M607.4,425.3c-21,0.2-38,17.7-41.2,40.7h84C646.5,442.8,628.6,425.2,607.4,425.3z"/>
			</g>
			
				<ellipse transform="matrix(0.9976 -6.890491e-02 6.890491e-02 0.9976 -31.2454 43.0473)" class="st23" cx="608.4" cy="474.4" rx="25" ry="29.8"/>
			
				<ellipse transform="matrix(0.9976 -6.890734e-02 6.890734e-02 0.9976 -31.2464 43.0488)" class="st25" cx="608.4" cy="474.4" rx="23.8" ry="28.4"/>
			<path class="st23" d="M611.4,516.3c-23.5,0.2-43-21.7-43.5-48.8c-0.1-4.4,0.3-8.7,1.2-12.7c-2.2,6.1-3.4,12.9-3.3,20
				c0.5,27.1,20,49,43.5,48.8c19.7-0.1,36-15.7,40.5-36.7C643.5,504.1,628.8,516.2,611.4,516.3z"/>
			<path class="st26" d="M610.7,498.3c-13.1,0.1-24.1-12.6-24.5-28.2c-0.1-3.5,0.4-6.8,1.3-9.9c-2,4.2-3.1,9.1-2.9,14.4
				c0.4,15.7,11.3,28.3,24.5,28.2c10.2-0.1,18.7-7.8,21.8-18.6C627,492.5,619.5,498.2,610.7,498.3z"/>
		</g>
		<g>
			<path class="st4" d="M102.8,474.4c18.2,0,48.3,0,48.3,0l-1-4.8h-49.1C101.6,471.2,102.2,472.8,102.8,474.4z"/>
		</g>
		<g>
			<g>
				<path class="st4" d="M669.4,473.4c0,0,77.4,0,95.6,0c0.5-1.3,0.9-2.6,1.3-3.8H670L669.4,473.4z"/>
			</g>
		</g>
		<g>
			<path class="st19" d="M464.8,195.9c0.3-0.3,0.4-0.7,0.4-1.3c-149,2.8-254.2,35.3-283.6,44.7c1.7,1.6,4.3,1.8,5.7,1.8l1-0.1
				c0,0,49.7-16.8,129.2-29.5c79.6-12.6,133.4-12.6,133.4-12.6L464.8,195.9z"/>
		</g>
		<path class="st12" d="M565.7,340.3c0,0,49.8-111.5,114.3-171.6c0,0-30.4,6.4-55.3,34.8C599.9,231.7,556.9,338,556.9,338
			L565.7,340.3z"/>
		<path class="st22" d="M673.5,170.5c-60,57.2-106.9,157.8-111.8,168.7l4,1c0,0,49.8-111.5,114.3-171.6
			C680,168.6,677.6,169.2,673.5,170.5z"/>
	</g>
	<g>
		<path class="st20" d="M736,371.7c0.3,0,0.7-0.2,1.1-0.3c-1.7,1.1-3.2,2.3-4,3.6l0,0c0,0-7.5,11-5.8,12.7c1.6,1.6,6.4-7.7,7-8.9
			c0.2,0.1,0.4,0.2,0.6,0.3c-1.3,2.4-5.3,10.3-3.7,11.6c1.6,1.4,5.8-8.2,6.9-10.8c0.2,0,0.3,0.1,0.5,0.1c-1.4,3.3-3.8,9.5-2.4,10.6
			c1.6,1.2,4.8-7.2,6-10.5c0.1,0,0.3,0,0.4,0c-1.1,3.2-2.7,8.2-1.4,9c1.5,1,4.1-6.8,5-9.9c0.1-0.1,0.2-0.1,0.3-0.2
			c2.4-1.4,3.6-2.6,4.5-4.1c-3.7-2.2-8.4-4-14.4-5.2c0,0-0.8-0.1-2.3-0.3c-1.5,0.3-2.8,0.5-3.4,0.6C731,370.1,728.5,372.9,736,371.7
			z"/>
	</g>
	<path class="st27" d="M838.3,321.4c0,0,4.2,77.9,8.1,105.3c3.2,22.2,18.6,92.6,18.6,92.6h-11.2c0,0-22.3-69.5-27.6-91.6
		c-4.8-20-13.5-76.4-13.5-76.4L838.3,321.4z"/>
	<path class="st28" d="M739.6,235.7c0,0-10.6,13.5-0.3,38.2l4-0.8c0,0-6.2-32.5,3.5-42.1L739.6,235.7z"/>
	<path class="st29" d="M743.4,277.6c0,0-13.1-24.7-2.9-40.7c0,0,5.1-8.1,15.7-11.6l2.7,57.3L743.4,277.6z"/>
	<path class="st30" d="M753.7,230.1l-13.7,12c0,0-1.3-6-11.8-16.1c-2.4-2.3,4.3-14.6,4.3-14.6L753.7,230.1z"/>
	<path class="st30" d="M740.5,236.9c0,0-3.8,10.5,0.3,10.6c4.1,0.1,11.6-19.1,11.6-19.1L740.5,236.9z"/>
	<path class="st28" d="M752.4,228.4c0,0-11.9,8.6-1.4,40.3l-12.7,5.6c0,0,34.8,34.2,61.2,73.4c0,0,41.6-14.2,38.8-26.3
		c-2.8-12.2-26.3-35.9-46.5-67.7C791.8,253.7,768.2,212.7,752.4,228.4z"/>
	<path class="st28" d="M799.5,347.8c0,0-2.8,60.7-1.5,80.1c1.4,21.8,13.1,91.5,13.1,91.5h10.7c0,0-1.1-69.9,0.3-91.4
		c1.1-16.3,9-44.1,13.1-70.1c6.8-25.6,3.1-36.3,3.1-36.3S817.3,308.7,799.5,347.8z"/>
	<g>
		<path class="st31" d="M760.7,272.5l-17.4,7.9c10.5,12.9,35.8,37.1,56.2,67.3V330C799.5,330,770.7,292.6,760.7,272.5z"/>
	</g>
	<path class="st8" d="M780,254c0,0,8.8,44.7,6.3,57.6c-3.3,17.6-34,58-34,58l-4.6-2.7c0,0,20.3-38.9,21.8-54.9
		c1.2-13.1-8.6-57.6-8.6-57.6L780,254z"/>
	<path class="st29" d="M760.5,269l25.8-8.7c0,0-10.7-37.9-26.5-31.7C743.9,234.9,760.5,269,760.5,269z"/>
	<g>
		<g>
			<path class="st32" d="M750,359.9c-2.2,3.7-3.6,6-3.6,6l6.5,4.1c0,0,1.7-2,4.4-5.3L750,359.9z"/>
		</g>
		<path class="st32" d="M746.4,365.9c0,0-11.9,4.1-13.6,8.5c-1.8,4.4,9.7,5.9,13.8,3.5c4.1-2.3,4.7-4,6.2-7.9
			C754.4,366.2,746.4,365.9,746.4,365.9z"/>
		<path class="st32" d="M733.1,373.8c0,0-7.5,11-5.8,12.7c1.7,1.7,7-9,7-9L733.1,373.8z"/>
		<path class="st32" d="M735.3,377.2c0,0-5.9,10.8-4,12.4c1.9,1.6,7.2-11.4,7.2-11.4L735.3,377.2z"/>
		<path class="st32" d="M739.6,376.8c0,0-5.3,11.2-3.3,12.6c2,1.4,6.5-11.8,6.5-11.8L739.6,376.8z"/>
		<path class="st32" d="M743.7,376.3c0,0-4.3,10.4-2.4,11.7c1.9,1.2,5.4-11.1,5.4-11.1L743.7,376.3z"/>
		<path class="st32" d="M747.1,365.7c0,0-13.3,2.9-16,3.3c0,0-2.6,2.7,4.9,1.6C738.9,370.1,747.1,365.7,747.1,365.7z"/>
	</g>
	<path class="st33" d="M767.9,229.3c9.3,8.4,15.1,28.7,15.1,28.7l-23.9,8c0.8,1.9,1.4,3,1.4,3l25.8-8.7
		C786.2,260.4,779.1,235.2,767.9,229.3z"/>
	<g>
		<path class="st8" d="M693.6,218.3c0,0,11.6,12,22.3,18.8c0.4,1.7,1.7,1.6,2.1,1.3c0.3,0.2,0.6,0.4,0.9,0.5
			c0.3,1.1,1.2,1.1,1.8,0.9c4.2,2,7.9,2.7,10.1,0.7c5.5-4.8,7.3-12.5,6.2-18.7c-0.6-3.3-2.8-8.2-2.8-8.2s1.2-15.4-6.4-19.8
			C720.3,189.2,693.6,218.3,693.6,218.3z"/>
		<path class="st34" d="M737.9,216.4c0.9,0.8,2.7-2.1,2.7-2.1s-3.5-0.5-4-2.1c-0.5-1.5-0.6-5.2-3.7-12.7
			c-5.8-4.6-33.9-13.5-34.2,4.7c-0.3,18.2-8.8,19.3-8.8,19.3s8,7.7,17.2-15.7c0,0,8.1,3.2,11.4,1.5l-2.8-3.4c0,0,5.6-2,9.2,1.8
			l9,5.4C733.8,213.1,737,215.6,737.9,216.4z"/>
		<path class="st35" d="M733.3,205c2.7,2.9,2.2,7.7,0.3,9.4c-1.9,1.8-4.4-0.2-7.1-3.1c-2.7-2.9-3.3-6.6-1.4-8.4
			C727,201.3,730.7,202.2,733.3,205z"/>
		<path class="st30" d="M731.9,206.4c1.6,1.7,1.3,4.5,0.2,5.5s-2.6-0.1-4.1-1.8c-1.6-1.7-1.9-3.8-0.8-4.9
			C728.2,204.2,730.3,204.7,731.9,206.4z"/>
		<path class="st36" d="M711.5,223c1.1,1.2,1.4,2.7,0.7,3.3c-0.7,0.6-2.1,0-3.1-1.2c-1.1-1.2-1.4-2.7-0.7-3.3
			C709,221.2,710.4,221.8,711.5,223z"/>
		<path class="st34" d="M704,224.3c0,0,2-4.8,8.6-7.2l-0.4-1c0,0-5.7,0.7-10.6,6.2L704,224.3z"/>
		<path class="st8" d="M715.1,229.5c1.3,1.2,0.7,4-1.4,6.2c-2.1,2.2-5.8,2-7.1,0.8c-1.3-1.2,3.5-3.3-0.8-6.9
			C708,227.4,713.8,228.2,715.1,229.5z"/>
		<path class="st35" d="M734.2,213.5l-4-0.3l-5.4-5.4c-3.5-3.9-9.2-1.8-9.2-1.8l2.8,3.4c-3.3,1.7-11.4-1.5-11.4-1.5
			c-1.9,4.8-3.5,8.2-5.5,10.9c0,0,5.3-5.6,6.6-9.1c0,0,9.3,2,12.7-0.6l-2.5-2.5c10.7,5,16.2,14.3,16.9,17.7c1.3,6.1-0.3,11-5.9,15.9
			c-1.2,1-3.5,1.2-5.2,1c2.7,0.7,4.9,0.7,6.5-0.7c6-5.2,8.6-14.4,6.1-20.9C736.1,217.6,734.2,213.5,734.2,213.5z"/>
		<g>
			<path class="st30" d="M722.9,230.8l1.7-0.1c0.3,0,0.5-0.3,0.5-0.6c0-0.3-0.3-0.5-0.6-0.5c0,0-4.8,0.2-4.8,0.2
				c0,0.5,2.2,0.6,2.1,0.7c-0.6,3.7-2.6,6.7-3.9,7.8c0.3,0.2,0.6,0.4,0.9,0.5C720.3,237.6,722.3,234.4,722.9,230.8z"/>
		</g>
		<g>
			<path class="st30" d="M723.3,237c-0.3-0.1-0.6,0-0.7,0.3c-0.5,1.1-1.8,2.2-1.9,2.3c-0.1,0-0.1,0.1-0.1,0.2
				c0.3,0.2,1.8,0.8,2.1,0.9C723,240.5,724,237.3,723.3,237z"/>
		</g>
		<path class="st35" d="M712.5,234.9c-1.6,1.7-4.2,2-5.9,1.4c0,0,0,0.1,0,0.1c1.3,1.2,5,1.4,7.1-0.8
			C713.7,235.7,715,233.9,712.5,234.9z"/>
	</g>
	<path class="st31" d="M798,427.8c1.4,21.8,13.1,91.5,13.1,91.5h10.7c0,0-1.1-69.9,0.3-91.4c1.1-16.3,9-44.1,13.1-70.1
		c6.8-25.6,3.1-36.3,3.1-36.3S816.6,464.1,798,427.8z"/>
	<polygon class="st37" points="840,315.6 794.5,344.8 787.6,335.2 833.1,306.1 	"/>
	<path class="st28" d="M733,199.6c0,0-20.8,4.8-39.4,20.6c0,0-7.6-25.3-6.4-29.5c1.2-4.2,25.7-13.9,34.4-11
		C729.2,186.4,733,199.6,733,199.6z"/>
	<path class="st27" d="M733,199.6c0,0-47.4,8.2-52.9,22c0,0,0.4,4.9,14.5-1.3C694.5,220.2,704.6,208.5,733,199.6z"/>
</g>
<path class="st7" d="M481,610.6"/>
<path class="st7" d="M627.6,613.7"/>
<g>
	<path class="st38" d="M531.3,383.6h14.2"/>
	<path class="st39" d="M539.7,378.8"/>
	<g>
		<path class="st40" d="M576,376.3"/>
		<path class="st40" d="M546.2,373.5"/>
	</g>
</g>
<polyline class="st41" points="146,648 146,98 1046,98 1046,648 "/>
</svg>
