<?xml version="1.0" encoding="utf-8"?>
<!-- Generator: Adobe Illustrator 22.0.1, SVG Export Plug-In . SVG Version: 6.00 Build 0)  -->
<svg version="1.1" id="bf3e64cd-ac18-4ebe-a790-21b22ebf7f01"
	 xmlns="http://www.w3.org/2000/svg" xmlns:xlink="http://www.w3.org/1999/xlink" x="0px" y="0px" viewBox="0 0 740.6 586.4"
	 style="enable-background:new 0 0 740.6 586.4;" xml:space="preserve">
<style type="text/css">
	.st0{fill:#3F3D56;}
	.st1{fill:#FFFFFF;}
	.st2{fill:#6C63FF;}
	.st3{fill:#FF6582;}
	.st4{fill:#9E616A;}
	.st5{fill:#2F2E41;}
	.st6{fill:#F0F0F0;}
	.st7{opacity:0.1;enable-background:new    ;}
</style>
<title>social_user</title>
<rect x="-0.1" y="0" class="st0" width="445.4" height="586.9"/>
<rect x="65.5" y="147.5" class="st1" width="312.8" height="20.9"/>
<rect x="137" y="73" class="st2" width="201.1" height="10.4"/>
<rect x="65.5" y="193.6" class="st1" width="312.8" height="20.9"/>
<rect x="65.5" y="239.8" class="st1" width="312.8" height="20.9"/>
<circle class="st2" cx="81.8" cy="77.5" r="19.4"/>
<rect x="62.5" y="317.3" class="st2" width="315.8" height="192.2"/>
<path class="st3" d="M80.3,528.1c-4.1-4.1-10.7-4.1-14.7,0c-4.1,4.1-4.1,10.7,0,14.7l14.7,14.8l14.8-14.7c4.1-4.1,4.1-10.7,0-14.7
	C91,524.1,84.4,524.1,80.3,528.1z"/>
<polygon class="st4" points="592.4,545.7 590.8,565.9 559.8,555.8 572.5,540.6 "/>
<polygon class="st4" points="705.4,539.1 703.8,558.8 686.5,561.4 676.3,551.7 688.1,533 "/>
<path class="st5" d="M718.1,286.7c0,0,13.7,16.2-3.6,41c-17.3,24.8-38.2,49.2-38.2,49.2l-38.7,73c0,0-19.9,71.5-24.4,73.5
	s-7.1-6.1-4.6,2.5s1,8.1-1,8.7c-2,0.6-7.6-0.5-5.6,3.1s3.6,3.6-0.5,3.6s-5.6-2.5-5.6,1c0,3.5-3.6,11.6-3.6,11.6s-24.9-7.1-26-10.2
	s6.6-4.6,5.1-7.6c-1.5-3-2-3.1-2-7.6s3.1-5.6,3.1-5.6s2.5-1,1.5-3.1c-1-2.1-5.1-1,0-3.6c5.1-2.6,26-80,26-80s0-38.5,6.6-51.2
	s1.5-102.8,17.3-103.9C639.7,280.1,718.1,286.7,718.1,286.7z"/>
<path class="st5" d="M713,315.6l-3.1,78.5c0,0,15.3,76.1,10.2,99.3c-5.1,23.3-1.5,20.3-4.6,24.3c-3.1,4-5.6,2-3.1,5.6s4.1,4.6,0,8.7
	s-6.1,13.6-6.1,13.6l-26-2.5c0,0,6.6-11.6,4.1-14.2c-2.5-2.6-9.2,1.5-4.1-4.1c5.1-5.6,8.1-3.1,5.1-5.6s-7.6-1.5-3.6-5.6
	s8.7-4.1,4.6-5.6s-8.7,0-6.6-3.1s4.6-6.6,4.6-6.6l-6.1-46.1c0,0-7.1-15.2-5.1-21.8c2-6.6-8.7-60.8-8.7-60.8L713,315.6z"/>
<path class="st5" d="M701.8,549.1c0,0,5.1-5.1,6.6-2c1.5,3.1,12.7,30.4,6.1,32.5s-16.3,4.1-21.4,2.5s-15.8-8.7-28.5-8.7
	s-23.4-5.6-23.4-7.6s-2-14.2,7.6-14.2s27.5-11.1,27.5-11.1s4.1-8.1,6.1-7.6c2,0.5,0.5,16.7,0.5,16.7S694.7,560.9,701.8,549.1z"/>
<path class="st5" d="M588.8,555.8c0,0,4.6-11.1,9.2-8.7s1.5,33.9,1.5,33.9s-4.1,6.6-15.8,5.1c-11.7-1.5-42.8-5.1-49.9-3.6
	c-7.1,1.5-26.5-7.1-21.4-18.7c0,0,2.5-6.6,14.8-6.1c12.3,0.5,34.6-14.2,34.6-14.2s3.6-10.2,4.6-9.2s2,18.7,2,18.7
	S581.7,561.9,588.8,555.8z"/>
<ellipse class="st4" cx="655.5" cy="59.2" rx="29.5" ry="29.4"/>
<path class="st4" d="M678.4,61.2c0,0,15.8,31.5,21.4,34.4s-38.2,21.8-38.2,21.8s-7.1-31-15.8-37.5S678.4,61.2,678.4,61.2z"/>
<path class="st4" d="M633.1,318.1l-2,19.2c0,0-21.9-7.6-14.8-21.8L633.1,318.1z"/>
<path class="st6" d="M624.4,289.2c15.3,16.2,96.2,2.5,96.2,2.5l-1-11.6l10.2-10.7l-3.1-49.7c0,0,9.2-23.3,10.7-58.7
	c0.1-2.2,0-4.4-0.4-6.5c-5.2-31.8-57.2-52.3-58.7-51.8c-0.7,0.2-8.4,4.2-16.4,8.4c-9.2,4.8-18.8,9.9-18.8,9.9
	c-12.2,4.6-10.2,77.5-14.3,84.1c-4.1,6.6,0,29.4,0,29.4l-4.6,21.8C624.4,256.3,609.2,273,624.4,289.2z"/>
<path class="st7" d="M673.8,128.4c0,0,14.3,42.6,11.2,71.5s-36.1,111.5-36.1,111.5l-11.2,6.1v14.1l-7.9-21.2l21.7-45.1
	C651.4,265.2,624.4,109.6,673.8,128.4z"/>
<path class="st7" d="M660.4,115.6c14.8-8.1,37.2,13.1,60.6,35.9c8.4,8.2,13.3,7.4,16.1,3c-5.2-31.8-57.2-52.3-58.7-51.8
	c-0.7,0.2-8.4,4.2-16.4,8.4L660.4,115.6z"/>
<path class="st6" d="M660.4,111.6l6.1-16.7c0,0,41.7-19.8,69.2,0l4.6,28.4c0,0,4.1,47.1-19.3,24.3S675.2,103.6,660.4,111.6z"/>
<path class="st6" d="M672.3,121.5c0,0,14.3,42.6,11.2,71.5s-36.1,111.5-36.1,111.5l-11.2,6.1v14.2l-23.4-6.6l5.1-16.7
	c0,0-8.1-10.2-2.5-13.1c5.6-3,4.6-19.8,4.6-19.8S622.9,102.8,672.3,121.5z"/>
<path class="st5" d="M681.8,71.5c-0.5-2.3-0.4-4.7-1.5-6.8c-1.6-3.1-5.4-4.4-8.9-4.7c-4.4-0.4-8.9,0.4-13.4,0.1s-9.2-2-11.4-5.9
	c-0.9-1.5-1.3-3.4-2.5-4.7c-2.4-2.8-6.9-2.4-10.4-1.2c-3.5,1.2-7.2,2.9-10.8,2c-3-8.4,0.7-18.1,7.1-24.3s15.1-9.6,23.7-12
	c11.3-3.3,24.1-5.3,34.6,0.3c15.1,8.1,20.5,29.3,19.1,45.1c-0.5,6-1.4,12.7-6.2,16.8C694,82.1,683.9,81.6,681.8,71.5z"/>
</svg>
