<?xml version="1.0" encoding="utf-8"?>
<!-- Generator: Adobe Illustrator 22.0.1, SVG Export Plug-In . SVG Version: 6.00 Build 0)  -->
<svg version="1.1" id="bf3e64cd-ac18-4ebe-a790-21b22ebf7f01"
	 xmlns="http://www.w3.org/2000/svg" xmlns:xlink="http://www.w3.org/1999/xlink" x="0px" y="0px" viewBox="0 0 1116 589"
	 style="enable-background:new 0 0 1116 589;" xml:space="preserve">
<style type="text/css">
	.st0{fill:#3F3D56;}
	.st1{fill:#FFFFFF;}
	.st2{fill:#6C63FF;}
	.st3{fill:#FF6582;}
	.st4{fill:#9E616A;}
	.st5{fill:#2F2E41;}
	.st6{fill:#F0F0F0;}
	.st7{opacity:0.1;enable-background:new    ;}
</style>
<title>social_user</title>
<rect x="46.1" class="st0" width="445.4" height="586.9"/>
<rect x="111.7" y="147.5" class="st1" width="312.8" height="20.9"/>
<rect x="183.2" y="73" class="st2" width="201.1" height="10.4"/>
<rect x="111.7" y="193.6" class="st1" width="312.8" height="20.9"/>
<rect x="111.7" y="239.8" class="st1" width="312.8" height="20.9"/>
<circle class="st2" cx="128" cy="77.5" r="19.4"/>
<rect x="108.7" y="317.3" class="st2" width="315.8" height="192.2"/>
<path class="st3" d="M126.5,528.1c-4.1-4.1-10.7-4.1-14.7,0c-4.1,4.1-4.1,10.7,0,14.7l14.7,14.8l14.8-14.7c4.1-4.1,4.1-10.7,0-14.7
	C137.2,524.1,130.6,524.1,126.5,528.1z"/>
<polygon class="st4" points="638.6,548.1 637,568.4 606,558.3 618.7,543 "/>
<polygon class="st4" points="751.6,541.5 750,561.3 732.7,563.9 722.5,554.2 734.3,535.4 "/>
<path class="st5" d="M764.3,288c0,0,13.7,16.3-3.6,41.2s-38.2,49.4-38.2,49.4l-38.7,73.3c0,0-19.9,71.8-24.4,73.8s-7.1-6.1-4.6,2.5
	s1,8.1-1,8.7s-7.6-0.5-5.6,3.1s3.6,3.6-0.5,3.6s-5.6-2.5-5.6,1s-3.6,11.7-3.6,11.7s-24.9-7.1-26-10.2s6.6-4.6,5.1-7.6s-2-3.1-2-7.6
	s3.1-5.6,3.1-5.6s2.5-1,1.5-3.1s-5.1-1,0-3.6s26-80.4,26-80.4s0-38.7,6.6-51.4s1.5-103.3,17.3-104.4
	C685.9,281.3,764.3,288,764.3,288z"/>
<path class="st5" d="M759.2,317l-3.1,78.9c0,0,15.3,76.4,10.2,99.8s-1.5,20.4-4.6,24.4s-5.6,2-3.1,5.6s4.1,4.6,0,8.7
	s-6.1,13.7-6.1,13.7l-26-2.5c0,0,6.6-11.7,4.1-14.3s-9.2,1.5-4.1-4.1s8.1-3.1,5.1-5.6s-7.6-1.5-3.6-5.6s8.7-4.1,4.6-5.6
	s-8.7,0-6.6-3.1s4.6-6.6,4.6-6.6l-6.1-46.3c0,0-7.1-15.3-5.1-21.9s-8.7-61.1-8.7-61.1L759.2,317z"/>
<path class="st5" d="M748,551.6c0,0,5.1-5.1,6.6-2s12.7,30.5,6.1,32.6s-16.3,4.1-21.4,2.5s-15.8-8.7-28.5-8.7s-23.4-5.6-23.4-7.6
	s-2-14.3,7.6-14.3s27.5-11.2,27.5-11.2s4.1-8.1,6.1-7.6s0.5,16.8,0.5,16.8S740.9,563.4,748,551.6z"/>
<path class="st5" d="M635,558.3c0,0,4.6-11.2,9.2-8.7s1.5,34.1,1.5,34.1s-4.1,6.6-15.8,5.1s-42.8-5.1-49.9-3.6s-26.5-7.1-21.4-18.8
	c0,0,2.5-6.6,14.8-6.1S608,546,608,546s3.6-10.2,4.6-9.2s2,18.8,2,18.8S627.9,564.4,635,558.3z"/>
<circle class="st4" cx="701.7" cy="59.4" r="29.5"/>
<path class="st4" d="M724.6,61.4c0,0,15.8,31.6,21.4,34.6s-38.2,21.9-38.2,21.9s-7.1-31.1-15.8-37.7S724.6,61.4,724.6,61.4z"/>
<path class="st4" d="M679.3,319.5l-2,19.3c0,0-21.9-7.6-14.8-21.9L679.3,319.5z"/>
<path class="st6" d="M670.6,290.5c15.3,16.3,96.2,2.5,96.2,2.5l-1-11.7l10.2-10.7l-3.1-49.9c0,0,9.2-23.4,10.7-59
	c0.1-2.2,0-4.4-0.4-6.5c-5.2-31.9-57.2-52.5-58.7-52c-0.7,0.2-8.4,4.2-16.4,8.4c-9.2,4.8-18.8,9.9-18.8,9.9
	c-12.2,4.6-10.2,77.9-14.3,84.5s0,29.5,0,29.5l-4.6,21.9C670.6,257.4,655.4,274.2,670.6,290.5z"/>
<path class="st7" d="M720,128.9c0,0,14.3,42.8,11.2,71.8s-36.1,112-36.1,112l-11.2,6.1V333l-7.9-21.3l21.7-45.3
	C697.6,266.4,670.6,110.1,720,128.9z"/>
<path class="st7" d="M706.6,116.1c14.8-8.1,37.2,13.2,60.6,36.1c8.4,8.2,13.3,7.4,16.1,3c-5.2-31.9-57.2-52.5-58.7-52
	c-0.7,0.2-8.4,4.2-16.4,8.4L706.6,116.1z"/>
<path class="st6" d="M706.6,112.1l6.1-16.8c0,0,41.7-19.9,69.2,0l4.6,28.5c0,0,4.1,47.3-19.3,24.4S721.4,104,706.6,112.1z"/>
<path class="st6" d="M718.5,122c0,0,14.3,42.8,11.2,71.8s-36.1,112-36.1,112l-11.2,6.1v14.3l-23.4-6.6l5.1-16.8
	c0,0-8.1-10.2-2.5-13.2s4.6-19.9,4.6-19.9S669.1,103.2,718.5,122z"/>
<path class="st5" d="M728,71.8c-0.5-2.3-0.4-4.7-1.5-6.8c-1.6-3.1-5.4-4.4-8.9-4.7c-4.4-0.4-8.9,0.4-13.4,0.1s-9.2-2-11.4-5.9
	c-0.9-1.5-1.3-3.4-2.5-4.7c-2.4-2.8-6.9-2.4-10.4-1.2s-7.2,2.9-10.8,2c-3-8.4,0.7-18.2,7.1-24.4s15.1-9.6,23.7-12.1
	c11.3-3.3,24.1-5.3,34.6,0.3c15.1,8.1,20.5,29.4,19.1,45.3c-0.5,6-1.4,12.8-6.2,16.9C740.2,82.4,730.1,81.9,728,71.8z"/>
</svg>
