<?xml version="1.0" encoding="utf-8"?>
<!-- Generator: Adobe Illustrator 22.0.1, SVG Export Plug-In . SVG Version: 6.00 Build 0)  -->
<svg version="1.1" id="_x31_c04cb57-5b83-4fe5-b665-05639f110a33"
	 xmlns="http://www.w3.org/2000/svg" xmlns:xlink="http://www.w3.org/1999/xlink" x="0px" y="0px" viewBox="0 0 1134 812.3"
	 style="enable-background:new 0 0 1134 812.3;" xml:space="preserve">
<style type="text/css">
	.st0{opacity:0.1;fill:#6C63FF;enable-background:new    ;}
	.st1{opacity:0.3;fill:#FFFFFF;enable-background:new    ;}
	.st2{fill:#CECECE;}
	.st3{fill:#80D261;}
	.st4{fill-rule:evenodd;clip-rule:evenodd;fill:#F1F2F2;}
	.st5{fill-rule:evenodd;clip-rule:evenodd;fill:#404041;}
	.st6{fill-rule:evenodd;clip-rule:evenodd;fill:#9391BF;}
	.st7{clip-path:url(#SVGID_8_);}
	.st8{fill-rule:evenodd;clip-rule:evenodd;fill:#212122;}
	.st9{clip-path:url(#SVGID_10_);}
	.st10{fill-rule:evenodd;clip-rule:evenodd;fill:#58595B;}
	.st11{clip-path:url(#SVGID_12_);}
	.st12{fill-rule:evenodd;clip-rule:evenodd;fill:#E6E7E8;}
	.st13{fill-rule:evenodd;clip-rule:evenodd;fill:#D0D2D3;}
	.st14{fill-rule:evenodd;clip-rule:evenodd;fill:#7F7EA1;}
	.st15{fill-rule:evenodd;clip-rule:evenodd;fill:#9F9EC7;}
	.st16{fill-rule:evenodd;clip-rule:evenodd;fill:#8886AD;}
	.st17{fill-rule:evenodd;clip-rule:evenodd;fill:#6D6E70;}
</style>
<title>city driver</title>
<ellipse class="st0" cx="930.5" cy="697" rx="29.9" ry="5.1"/>
<path class="st1" d="M514.3,784.5c1.3-0.8,2.7-1.3,4.2-1.4c2.8,0.3,5.6,0.2,8.4-0.3c-0.7,2.4-0.9,4.9-0.6,7.4l-2.5-0.1
	C523.7,790.1,514.2,788,514.3,784.5z"/>
<path class="st0" d="M1133.7,378.2c-61.9-130.7-50.3-222.6-188.9-273.9c-2.2-0.8-4.3-1.6-6.5-2.4C885.1,82.8,880,71.4,823.2,68.4
	c-27.3-1.5-33.5-27-57.9-17.8c-26.8-11.1-23.3-21.5-51.7-26.9C682.1,7.3,559.4,29.9,531.3,8.4c-93.3-21.7-20,5.7-133.5,5
	C292,39.1,199.3,36.2,130.4,117.6c-27.5,32.5-77.9,71.8-94.8,110.3c-6.9,15.6-12.5,31.7-16.9,48.2c-4.3,15.7-7.5,31.5-10,47.6
	c0,0.2-0.1,0.6-0.1,0.9c-7.5,47.6-8.2,96.8-8.5,145v10.5C0,510,0.8,540,8.3,568.7c0,0.1,0.7-1.5,1.9-4.4c-1.8-23.8-6.4-73.8-5-70.4
	c0.1,0.2,4.2,36.6,7.3,64.9c15.3-36.4,67-161.6,67.1-161.1c0.5,1.8-52.9,135.3-66,170.3c1.5,13.5,2.6,23.4,2.7,23.5
	c6.1,14.4,13.9,28,23.3,40.5c0.3,0.3,0.5,0.9,0.9,1.3c2.3,3.1,4.7,6,7.2,8.9c0.8,0.9,1.6,1.7,2.3,2.7c2.1,2.4,39.1-142.5,41.4-140.2
	C92,505.2,57.5,653,57.9,653.3c15.7,16.1,34,29.8,53.9,40.5c1.3,0.7,2.5,1.3,3.8,2c0.4,0.2-0.5,0.4-2.6,0.5c2.1,0.6,4.2,1.3,6.2,2.2
	c1.6-0.3,3.3-0.5,5-0.5c0.3,0,0.5,0,0.8,0c20.1-6.3,39.9-13.5,60.1-18.9c35.9-9.8,75.7-14.6,110.2-2c3.4,1.3,6.8,2.7,10,4.3
	c10.9,5.3,20.7,12.4,30.2,19.8c4.4,3.6,8.8,7.2,13.4,10.8c6.4,5.1,13,10.2,19.6,15.1c26.4,19.3,54.3,36.9,83.3,52.5
	c17.4,9.4,35.1,17.9,53.2,25.8c62.7,27.3,103.9-33.7,171.9-24.1c19.6,2.8,50,19.5,69.6,20.6c170.9-26.2,47.5,0.7,145-31
	c64.2-42.9,38.1-11.8,117.2-48c40.7-81,78.1-102.4,121-210.8C1128.1,508.3,1135.4,381.7,1133.7,378.2z"/>
<path class="st0" d="M93.5,554.6c0.3,4.7,0.5,8.2,0.5,9.7c0.3-1.1,1-3.3,2.1-6.5c-0.3-2.5-0.5-5.2-0.8-8
	C94.5,551.7,93.9,553.3,93.5,554.6z"/>
<g>
	<g>
		<path class="st2" d="M130,142.5"/>
		<path class="st3" d="M96.6,142.5"/>
		<path class="st3" d="M89.6,116.5"/>
	</g>
</g>
<path class="st4" d="M225.9,589.8c0-14.6,151-26.4,337.3-26.4c186.3,0,337.3,11.8,337.3,26.4"/>
<path class="st4" d="M900.6,589.8c0,14.6-151,26.4-337.3,26.4c-186.3,0-337.3-11.8-337.3-26.4"/>
<g>
	<g>
		<g>
			<defs>
				<path id="SVGID_1_" d="M431.5,191c-10.6,2.9-24.8,14.3-29.7,19.8c-4.8,5.5-91,142.3-99.6,163.3c-8.6,21-6.6,80.5-2,106.7
					c4.6,26.2,20.8,56.6,27.7,63.3c6.8,6.7,8.6,8.2,12,8.2c3.4,0,202.8,5.8,218.2,4.7c2-0.2,3.8-0.3,5.4-0.4
					c1.6,0.1,3.4,0.2,5.4,0.4c15.4,1.2,214.8-4.7,218.2-4.7c3.4,0,5.1-1.5,12-8.2c6.8-6.7,23.1-37,27.7-63.3
					c4.6-26.2,6.6-85.7-2-106.7s-94.7-157.7-99.6-163.3c-4.8-5.5-19.1-16.9-29.7-19.8C662,181.7,464.3,181.9,431.5,191z"/>
			</defs>
			<clipPath id="SVGID_2_">
				<use xlink:href="#SVGID_1_"  style="overflow:visible;"/>
			</clipPath>
		</g>
		<g>
			<defs>
				<path id="SVGID_3_" d="M451.5,404.4h223.9c14,0,25.5,11.5,25.5,25.5v25.5H426v-25.5C426,415.9,437.5,404.4,451.5,404.4z"/>
			</defs>
			<clipPath id="SVGID_4_">
				<use xlink:href="#SVGID_3_"  style="overflow:visible;"/>
			</clipPath>
		</g>
		<g>
			<defs>
				<path id="SVGID_5_" d="M697.1,503.2v3.4c0,19.5-15.9,35.4-35.4,35.4H473c-19.5,0-35.4-15.9-35.4-35.4v-3.4H697.1z"/>
			</defs>
			<clipPath id="SVGID_6_">
				<use xlink:href="#SVGID_5_"  style="overflow:visible;"/>
			</clipPath>
		</g>
	</g>
	<g>
		<g>
			<path class="st5" d="M330.3,466.1h32.6c15.6,0,28.4,12.8,28.4,28.4v66.7c0,15.6-12.8,28.4-28.4,28.4h-32.6
				c-15.6,0-28.4-12.8-28.4-28.4v-66.7C301.8,478.9,314.6,466.1,330.3,466.1z"/>
			<path class="st5" d="M764.1,466.1h32.6c15.6,0,28.4,12.8,28.4,28.4v66.7c0,15.6-12.8,28.4-28.4,28.4h-32.6
				c-15.6,0-28.4-12.8-28.4-28.4v-66.7C735.7,478.9,748.5,466.1,764.1,466.1z"/>
		</g>
		<g>
			<g>
				<path class="st6" d="M779.4,302.8c7.6-0.9,48.1,4.6,43.3-14.4c-1.9-7.6-9.5-13.7-15.9-16.6c-7.8-3.5-33.5-4.4-36.4,9.6
					c-1.3,6.3,1,15.9,2.3,17.6C774,300.8,779.4,302.8,779.4,302.8z"/>
				<path class="st5" d="M781.3,310.9c1-3.1,1.9-15.5,5.7-16.9c3.8-1.5,15.9,0.6,16,1.6c0.1,1-6.6,27.3-8.2,27.1
					C793.2,322.5,781.3,310.9,781.3,310.9z"/>
			</g>
			<g>
				<path class="st6" d="M347.6,304.2c-7.6-0.8-48.1,4.6-43.3-14.4c1.9-7.6,9.5-13.7,15.9-16.6c7.8-3.5,33.5-4.4,36.4,9.6
					c1.3,6.3-1,15.9-2.3,17.6C353,302.2,347.6,304.2,347.6,304.2z"/>
				<path class="st5" d="M345.7,309.5c-1-3.1-1.9-15.5-5.7-16.9c-3.8-1.5-15.9,0.6-16,1.6c-0.1,1,6.6,27.3,8.2,27.1
					C333.8,321.2,345.7,309.5,345.7,309.5z"/>
			</g>
		</g>
		<g>
			<defs>
				<path id="SVGID_7_" d="M431.5,191c-10.6,2.9-24.8,14.3-29.7,19.8c-4.8,5.5-91,142.3-99.6,163.3c-8.6,21-6.6,80.5-2,106.7
					c4.6,26.2,20.8,56.6,27.7,63.3c6.8,6.7,8.6,8.2,12,8.2c3.4,0,202.8,5.8,218.2,4.7c2-0.2,3.8-0.3,5.4-0.4
					c1.6,0.1,3.4,0.2,5.4,0.4c15.4,1.2,214.8-4.7,218.2-4.7c3.4,0,5.1-1.5,12-8.2c6.8-6.7,23.1-37,27.7-63.3
					c4.6-26.2,6.6-85.7-2-106.7s-94.7-157.7-99.6-163.3c-4.8-5.5-19.1-16.9-29.7-19.8C662,181.7,464.3,181.9,431.5,191z"/>
			</defs>
			<use xlink:href="#SVGID_7_"  style="overflow:visible;fill-rule:evenodd;clip-rule:evenodd;fill:#9391BF;"/>
			<clipPath id="SVGID_8_">
				<use xlink:href="#SVGID_7_"  style="overflow:visible;"/>
			</clipPath>
			<g class="st7">
				<path class="st8" d="M328.1,377.2c-2.4,0.8-7.8,4-13.6,7.7c-7.5,4.8-15.6,10.5-18.5,12.9l-0.9-1.1c3-2.5,11.1-8.2,18.7-13
					c5.8-3.7,11.4-7,13.9-7.8L328.1,377.2z"/>
				<path class="st8" d="M796.7,375.9c1.7,0.6,5.1,2.4,8.9,4.8c5,3.1,11,7.2,15.5,10.3c6,4.2,10.9,7.7,10.9,7.7l-0.8,1.2
					c0,0-1.3-1-10.9-7.7c-4.5-3.1-10.4-7.1-15.4-10.2c-3.7-2.3-6.9-4.1-8.6-4.7L796.7,375.9z"/>
			</g>
		</g>
		<path class="st8" d="M427.3,204.4c-6.6,3.7-62.2,84.1-62.1,86c0.1,1.9,7.4,2.1,7.4,2.1l190.9-2.2l190.9,2.2c0,0,7.4-0.2,7.4-2.1
			c0.1-1.9-56.7-80.7-62.1-86C685.7,190.7,452.4,190.2,427.3,204.4z"/>
		<g>
			<defs>
				<path id="SVGID_9_" d="M451.5,404.4h223.9c14,0,25.5,11.5,25.5,25.5v25.5H426v-25.5C426,415.9,437.5,404.4,451.5,404.4z"/>
			</defs>
			<use xlink:href="#SVGID_9_"  style="overflow:visible;fill-rule:evenodd;clip-rule:evenodd;fill:#404041;"/>
			<clipPath id="SVGID_10_">
				<use xlink:href="#SVGID_9_"  style="overflow:visible;"/>
			</clipPath>
			<g class="st9">
				<rect x="412.9" y="407.6" class="st10" width="314.9" height="5"/>
				<rect x="412.9" y="420.8" class="st10" width="314.9" height="5"/>
				<rect x="412.9" y="434" class="st10" width="314.9" height="5"/>
				<rect x="412.9" y="447.2" class="st10" width="314.9" height="5"/>
			</g>
		</g>
		<g>
			<defs>
				<path id="SVGID_11_" d="M697.1,503.2v3.4c0,19.5-15.9,35.4-35.4,35.4H473c-19.5,0-35.4-15.9-35.4-35.4v-3.4H697.1z"/>
			</defs>
			<use xlink:href="#SVGID_11_"  style="overflow:visible;fill-rule:evenodd;clip-rule:evenodd;fill:#404041;"/>
			<clipPath id="SVGID_12_">
				<use xlink:href="#SVGID_11_"  style="overflow:visible;"/>
			</clipPath>
			<g class="st11">
				<rect x="424" y="506.6" class="st10" width="286.6" height="3.6"/>
				<rect x="424" y="516.1" class="st10" width="286.6" height="3.6"/>
				<rect x="424" y="525.6" class="st10" width="286.6" height="3.6"/>
				<rect x="424" y="535.1" class="st10" width="286.6" height="3.6"/>
			</g>
		</g>
		<path class="st8" d="M375.8,283c-1.1,0.6-3.1,1.9-5.9,5.4c-2.8,3.6-6.5,9.6-10.7,19.3c-7.8,17.7-8.7,30.8-8.8,33
			c3.8,3.2,47.7,41.2,48.9,41.2c9,0,38.6,0.3,76.3,0.7c26.7,0.3,57.4,0.6,88,0.9c30.6-0.3,61.3-0.6,88-0.9
			c37.7-0.4,67.3-0.7,76.3-0.7c1.1,0,45.1-37.9,48.9-41.2c-0.1-2.2-1-15.3-8.8-33c-4.3-9.7-7.9-15.6-10.7-19.3
			c-2.8-3.6-4.8-4.9-5.8-5.4l0.7-1.3c1.2,0.6,3.4,2.1,6.3,5.9c2.9,3.7,6.6,9.8,10.9,19.6c8.7,19.7,8.9,33.9,8.9,33.9l0,0.3l-0.3,0.2
			c-0.1,0.1-48.4,41.8-50.1,41.8c-9.6,0-38.9,0.3-76.3,0.7c-26.7,0.3-57.4,0.6-88,0.9l0-0.7l0,0.7c-30.6-0.3-61.3-0.6-88-0.9
			c-37.4-0.4-66.6-0.7-76.3-0.7c-1.7,0-49.9-41.7-50.1-41.8l-0.3-0.2l0-0.3c0,0,0.3-14.2,8.9-33.9c4.3-9.8,8-15.9,10.9-19.6
			c3-3.8,5.1-5.2,6.3-5.9L375.8,283z"/>
		<g>
			<g>
				<path class="st12" d="M340.8,344c-14,12.2-20.1,27.1-20.7,34.7c-0.6,7.6,10.2,12.8,12.5,13.7c2.3,0.9,39.2,16.9,56.1,18.4
					c16.9,1.5,20.3-1.2,23.5-7.1c3.2-6,1-18.1-2-24.2c-3.1-6.1-27.1-37.8-29.2-40C372.6,330.8,348.6,337.2,340.8,344z"/>
				<path class="st13" d="M369.7,393c11.7,0,21.3-9.4,21.3-21c0-11.6-9.6-21-21.3-21c-11.7,0-21.3,9.4-21.3,21
					C348.4,383.6,358,393,369.7,393z"/>
			</g>
			<g>
				<path class="st12" d="M786.2,344.9c14,12.2,20.1,27.1,20.7,34.7c0.6,7.6-10.2,12.8-12.5,13.7c-2.3,0.9-39.2,16.9-56.1,18.4
					c-16.9,1.5-20.3-1.2-23.5-7.1c-3.2-6-1-18.1,2-24.2c3.1-6.1,27.1-37.8,29.2-40C754.4,331.7,778.4,338.1,786.2,344.9z"/>
				<ellipse class="st13" cx="757.3" cy="372.9" rx="21.3" ry="21"/>
			</g>
		</g>
		<g>
			<g>
				<path class="st14" d="M424.8,495.2c-1.5-0.3-103.5-4.8-103.5-4.8s1.7,17.8,14.3,32.9c12.5,15.2,35,17.3,50.6,18.7
					c15.6,1.3,70.7,2.5,69.7,2.2c-1-0.3-73.6-12.2-73.6-12.2l-9.1-37.5L424.8,495.2z"/>
				<path class="st12" d="M373.2,494.6c0,0,10.3,38.5,9.2,37.8c-0.5-0.3-52.2,1.6-51.7-38.2C330.7,493.2,373.2,494.6,373.2,494.6z"
					/>
				<path class="st13" d="M357.4,519.6c5.9,0,10.7-4.6,10.7-10.3s-4.8-10.3-10.7-10.3c-5.9,0-10.7,4.6-10.7,10.3
					S351.5,519.6,357.4,519.6z"/>
			</g>
			<g>
				<path class="st14" d="M702.2,495.2c1.5-0.3,103.5-4.8,103.5-4.8s-1.8,17.8-14.3,32.9c-12.5,15.2-35,17.3-50.6,18.7
					c-15.6,1.3-70.7,2.5-69.7,2.2c1-0.3,73.6-12.2,73.6-12.2l9.1-37.5L702.2,495.2z"/>
				<path class="st12" d="M753.8,494.6c0,0-10.3,38.5-9.2,37.8c0.5-0.3,52.2,1.6,51.7-38.2C796.3,493.2,753.8,494.6,753.8,494.6z"/>
				<path class="st13" d="M769.6,519.6c5.9,0,10.7-4.6,10.7-10.3s-4.8-10.3-10.7-10.3c-5.9,0-10.7,4.6-10.7,10.3
					S763.7,519.6,769.6,519.6z"/>
			</g>
		</g>
		<path class="st15" d="M415.8,453.3c-28.6-6.1-91.4-15.2-119.4-34.9c-0.1,6.6-0.1,13.4,0.1,20.1c6.5,3.2,44.4,10.5,66.8,12.5
			C385.8,453,415.8,453.3,415.8,453.3z"/>
		<path class="st15" d="M830.6,418.1c-27.9,19.9-91,29.1-119.8,35.2c0,0,30-0.3,52.5-2.3c22.5-2,60.4-9.3,66.8-12.5
			c0.1-0.1,0.2-0.1,0.4-0.2C830.7,431.6,830.8,424.8,830.6,418.1z"/>
		<g>
			<path class="st16" d="M411.1,305.2c0,0,8.7,16.8,21.7,36c13,19.2,20.4,26,20.4,26c-24.1-20.1-32-32.8-44.5-60.8L411.1,305.2z"/>
			<path class="st16" d="M715.9,305.2c0,0-8.7,16.8-21.7,36c-13,19.2-20.4,26-20.4,26c24.1-20.1,32-32.8,44.5-60.8L715.9,305.2z"/>
		</g>
		<path class="st17" d="M506.1,195.1l95.7,95.7l152.5,1.7c0,0,7.4-0.2,7.4-2.1c0.1-1.9-56.7-80.7-62.1-86
			C690.4,195.3,583.7,192,506.1,195.1z"/>
	</g>
	<g>
		<g>
			<defs>
				<path id="SVGID_13_" d="M431.5,191c-10.6,2.9-24.8,14.3-29.7,19.8c-4.8,5.5-91,142.3-99.6,163.3c-8.6,21-6.6,80.5-2,106.7
					c4.6,26.2,20.8,56.6,27.7,63.3c6.8,6.7,8.6,8.2,12,8.2c3.4,0,202.8,5.8,218.2,4.7c2-0.2,3.8-0.3,5.4-0.4
					c1.6,0.1,3.4,0.2,5.4,0.4c15.4,1.2,214.8-4.7,218.2-4.7c3.4,0,5.1-1.5,12-8.2c6.8-6.7,23.1-37,27.7-63.3
					c4.6-26.2,6.6-85.7-2-106.7s-94.7-157.7-99.6-163.3c-4.8-5.5-19.1-16.9-29.7-19.8C662,181.7,464.3,181.9,431.5,191z"/>
			</defs>
			<clipPath id="SVGID_14_">
				<use xlink:href="#SVGID_13_"  style="overflow:visible;"/>
			</clipPath>
		</g>
		<g>
			<defs>
				<path id="SVGID_15_" d="M451.5,404.4h223.9c14,0,25.5,11.5,25.5,25.5v25.5H426v-25.5C426,415.9,437.5,404.4,451.5,404.4z"/>
			</defs>
			<clipPath id="SVGID_16_">
				<use xlink:href="#SVGID_15_"  style="overflow:visible;"/>
			</clipPath>
		</g>
		<g>
			<defs>
				<path id="SVGID_17_" d="M697.1,503.2v3.4c0,19.5-15.9,35.4-35.4,35.4H473c-19.5,0-35.4-15.9-35.4-35.4v-3.4H697.1z"/>
			</defs>
			<clipPath id="SVGID_18_">
				<use xlink:href="#SVGID_17_"  style="overflow:visible;"/>
			</clipPath>
		</g>
	</g>
</g>
</svg>
