<?xml version="1.0" encoding="utf-8"?>
<!-- Generator: Adobe Illustrator 22.0.1, SVG Export Plug-In . SVG Version: 6.00 Build 0)  -->
<svg version="1.1" id="_x31_c04cb57-5b83-4fe5-b665-05639f110a33"
	 xmlns="http://www.w3.org/2000/svg" xmlns:xlink="http://www.w3.org/1999/xlink" x="0px" y="0px" viewBox="0 0 1134 812.3"
	 style="enable-background:new 0 0 1134 812.3;" xml:space="preserve">
<style type="text/css">
	.st0{opacity:0.6;fill:#D9EDF6;}
	.st1{opacity:0.6;fill:#B3E2F5;}
	.st2{opacity:0.6;fill:#2EC3EF;}
	.st3{opacity:0.6;fill:#8ED6F3;}
	.st4{opacity:0.6;fill:#D8D0E4;}
	.st5{opacity:0.6;fill:#979DCB;}
	.st6{fill:#FFFFFF;}
	.st7{opacity:0.7;fill:#4965A2;}
	.st8{opacity:0.7;fill:#916EA2;}
	.st9{opacity:0.7;fill:#966FA2;}
	.st10{fill:#966FA2;}
	.st11{fill:#4965A2;}
	.st12{fill:#C1C3C5;}
	.st13{fill:none;stroke:#4965A2;stroke-width:2.0148;stroke-miterlimit:10;}
	.st14{fill:#E27CA3;}
	.st15{fill:#6A89C5;}
	.st16{fill:#B8E4FA;}
	.st17{fill:#8AD6F7;}
	.st18{fill:#E66C63;}
	.st19{fill:#E9B0B7;}
	.st20{fill:#E6E7E8;}
	.st21{fill:#E69589;}
	.st22{fill:#3F578D;}
	.st23{fill:#6FC3ED;}
	.st24{fill:#374D7F;}
	.st25{fill:#5370B4;}
	.st26{fill:#ED8480;}
	.st27{fill:#3A507B;}
	.st28{fill:#EF918A;}
	.st29{fill:#4D6AA9;}
	.st30{fill:none;stroke:#4E5071;stroke-width:4.0296;stroke-linecap:round;stroke-linejoin:round;stroke-miterlimit:10;}
	.st31{fill:#5E83C2;}
	.st32{fill:#F8A55D;}
	.st33{fill:#FDC363;}
	.st34{fill:#FFD685;}
	.st35{fill:#FFD967;}
	.st36{fill:#F9A855;}
	.st37{opacity:0.4;fill:#FFF3CD;}
</style>
<title>city driver</title>
<g>
	<rect class="st0" width="1134" height="801.8"/>
	<path class="st1" d="M857.1,71.8C688.7,35,526.3,38.3,356.2,60.5C264.6,72.5,154.8,89,107.8,179.4c-32.9,63.4,5.9,80.7,26.9,131.8
		c20.4,49.8-21.8,81.3-45,119.6C65,471.6,49.1,534.6,67.2,580.3c70.9,179.3,377.3,185.5,534.1,174c136.8-10,404.9-2.1,463.3-162
		c31-84.9-20.5-171.9-20.4-257.5c0.1-55.6,14.2-110.6-17.8-161.3C988.1,112.7,924.8,86.6,857.1,71.8z"/>
	<path class="st2" d="M70.7,588.6c77,171.1,376.2,177,530.6,165.6c136.8-10,404.9-2.1,463.3-162c0.4-1.2,0.8-2.4,1.2-3.6H70.7z"/>
</g>
<path class="st3" d="M354.5,286.8v-26.3h-21.1c-0.4-2.3-0.8-4.6-1.4-6.9l19.7-7.7l-9.7-24.4l-19.9,7.8c-1.7-2.8-3.5-5.6-5.5-8.2
	l15.2-15.1l-18.6-18.6l-15.3,15.3c-2.2-1.6-4.5-3.1-6.9-4.5l8.3-20L275,168.1l-8.4,20.1c-2.7-0.7-5.4-1.2-8.2-1.6v-21.8h-26.3v21.8
	c-2.3,0.3-4.5,0.8-6.7,1.3l-8-20.2l-24.5,9.6l8,20.1c-2.8,1.6-5.6,3.4-8.2,5.3l-15.3-15.3L158.8,206l15.2,15.1
	c-1.7,2.2-3.2,4.5-4.7,6.9l-19.8-8.2L139.4,244l19.5,8.1c-0.7,2.8-1.3,5.6-1.8,8.4h-21.1v26.3h20.8c0.3,2.4,0.8,4.7,1.3,7l-19.3,7.6
	l9.7,24.4l19.1-7.5c1.7,3,3.6,5.9,5.6,8.6l-14.4,14.4l18.6,18.6l14.3-14.2c2.3,1.8,4.8,3.4,7.3,4.9l-7.7,18.5l24.3,10.1l7.7-18.4
	c2.9,0.7,5.9,1.3,8.9,1.8v20h26.3v-20c2.5-0.4,4.9-0.8,7.3-1.4l7.4,18.6l24.5-9.6l-7.4-18.7c3-1.8,5.9-3.7,8.7-5.7l14.3,14.2
	l18.6-18.6L317.4,327c1.7-2.3,3.3-4.8,4.8-7.3l18.9,7.8l10.1-24.2l-19.1-7.9c0.7-2.8,1.2-5.7,1.6-8.6H354.5z M245.3,325.1
	c-28.5,0-51.6-23-51.6-51.4c0-28.4,23.1-51.4,51.6-51.4s51.6,23,51.6,51.4C296.9,302,273.8,325.1,245.3,325.1z"/>
<path class="st4" d="M565.5,166.6v-19h-15.2c-0.3-1.7-0.6-3.3-1-5l14.2-5.6l-7-17.7l-14.4,5.7c-1.2-2-2.5-4-4-5.9l11-10.9
	l-13.5-13.4l-11.1,11c-1.6-1.2-3.3-2.3-5-3.3l6-14.4L508,80.8l-6,14.5c-1.9-0.5-3.9-0.9-5.9-1.2V78.4h-19v15.7
	c-1.6,0.2-3.2,0.6-4.8,0.9l-5.8-14.6l-17.7,7l5.8,14.6c-2.1,1.2-4,2.5-5.9,3.8l-11.1-11L424,108.1l11,10.9c-1.2,1.6-2.3,3.3-3.4,5
	l-14.3-5.9l-7.3,17.5l14.1,5.8c-0.5,2-0.9,4-1.3,6.1h-15.2v19h15c0.2,1.7,0.5,3.4,0.9,5.1l-13.9,5.5l7,17.7l13.8-5.4
	c1.2,2.2,2.6,4.2,4,6.2L424,206l13.5,13.4l10.3-10.3c1.7,1.3,3.5,2.5,5.3,3.6l-5.6,13.4l17.6,7.3l5.6-13.3c2.1,0.5,4.2,1,6.4,1.3
	v14.4h19v-14.4c1.8-0.3,3.6-0.6,5.3-1l5.3,13.4l17.7-7l-5.3-13.5c2.2-1.3,4.3-2.6,6.3-4.1l10.3,10.3l13.5-13.4l-10.4-10.4
	c1.2-1.7,2.4-3.4,3.5-5.3l13.7,5.7l7.3-17.5l-13.8-5.7c0.5-2,0.9-4.1,1.2-6.2H565.5z M486.5,194.2c-20.6,0-37.3-16.6-37.3-37.2
	c0-20.5,16.7-37.2,37.3-37.2s37.3,16.6,37.3,37.2C523.8,177.6,507.1,194.2,486.5,194.2z"/>
<path class="st3" d="M807.9,270.9v-23.3h-9.2c-0.4-2.9-1-5.7-1.7-8.5l8.5-3.5l-8.9-21.6l-8.6,3.5c-1.6-2.6-3.3-5.2-5.1-7.6l6.5-6.5
	L773,186.9l-6.6,6.5c-2.3-1.7-4.7-3.3-7.2-4.8l3.6-8.5l-21.6-9l-3.6,8.5c-2.9-0.8-6-1.3-9-1.8v-9.3h-23.4v9.3
	c-2.9,0.4-5.7,1-8.5,1.7l-3.5-8.5l-21.6,8.8l3.5,8.6c-2.6,1.6-5.2,3.2-7.7,5.1l-6.5-6.5l-16.5,16.5l6.5,6.5
	c-1.7,2.3-3.4,4.7-4.8,7.2l-8.5-3.6l-9,21.5l8.5,3.5c-0.8,2.9-1.4,5.9-1.8,9h-9.2v23.3h9.2c0.4,2.9,1,5.7,1.7,8.5l-8.5,3.5l8.9,21.5
	l8.5-3.5c1.6,2.7,3.3,5.2,5.1,7.7l-6.5,6.4l16.5,16.5l6.5-6.4c2.3,1.7,4.7,3.4,7.2,4.8l-3.5,8.4l21.6,9l3.5-8.4c3,0.8,6,1.4,9.1,1.8
	v9.1h23.4v-9.1c2.9-0.4,5.8-1,8.6-1.7l3.5,8.4l21.6-8.8l-3.5-8.4c2.7-1.6,5.2-3.3,7.7-5.1l6.5,6.4l16.5-16.5l-6.5-6.4
	c1.7-2.3,3.4-4.7,4.8-7.2l8.4,3.5l9-21.5l-8.4-3.5c0.8-2.9,1.3-6,1.8-9H807.9z M717,309.9c-28,0-50.7-22.6-50.7-50.6
	c0-27.9,22.7-50.6,50.7-50.6c28,0,50.7,22.6,50.7,50.6C767.8,287.2,745,309.9,717,309.9z"/>
<path class="st5" d="M978.5,298.4v-20h-7.9c-0.4-2.5-0.8-4.9-1.4-7.3l7.3-3l-7.6-18.5l-7.4,3c-1.3-2.3-2.8-4.5-4.4-6.6l5.6-5.6
	l-14.2-14.2l-5.6,5.6c-2-1.5-4.1-2.9-6.2-4.1l3.1-7.3l-18.5-7.7l-3.1,7.3c-2.5-0.7-5.1-1.2-7.7-1.5v-8h-20.1v8
	c-2.5,0.4-4.9,0.8-7.3,1.4l-3-7.4l-18.6,7.6l3,7.4c-2.3,1.3-4.5,2.8-6.6,4.4l-5.6-5.6L838,240.4l5.6,5.6c-1.5,2-2.9,4-4.2,6.2
	l-7.3-3.1l-7.8,18.5l7.3,3c-0.7,2.5-1.2,5.1-1.5,7.7h-7.9v20h7.9c0.3,2.5,0.8,4.9,1.4,7.3l-7.3,3l7.6,18.5l7.3-3
	c1.3,2.3,2.8,4.5,4.4,6.6l-5.6,5.5l14.2,14.2l5.6-5.5c2,1.5,4.1,2.9,6.2,4.2l-3,7.2l18.5,7.7l3-7.2c2.5,0.7,5.2,1.2,7.8,1.5v7.8
	h20.1v-7.8c2.5-0.4,5-0.8,7.4-1.4l3,7.2l18.6-7.6l-3-7.2c2.3-1.3,4.5-2.8,6.6-4.4l5.5,5.5l14.2-14.2l-5.6-5.5c1.5-2,2.9-4.1,4.2-6.2
	l7.3,3l7.7-18.5l-7.3-3c0.7-2.5,1.2-5.1,1.5-7.8H978.5z M900.4,331.9c-24.1,0-43.6-19.5-43.6-43.5c0-24,19.5-43.5,43.6-43.5
	c24.1,0,43.6,19.5,43.6,43.5C944,312.4,924.4,331.9,900.4,331.9z"/>
<g>
	<g>
		<rect x="636.2" y="305" class="st6" width="263.2" height="346.2"/>
		<g>
			<g>
				<rect x="786" y="403.7" class="st7" width="20.6" height="92.8"/>
				<rect x="756.1" y="420.4" class="st8" width="20.6" height="76.1"/>
				<rect x="728.1" y="438.2" class="st7" width="20.6" height="58.3"/>
				<rect x="671.1" y="472.7" class="st7" width="20.6" height="23.8"/>
				<rect x="698.6" y="454.9" class="st9" width="20.6" height="41.6"/>
				<rect x="815.9" y="419.7" class="st8" width="20.6" height="76.7"/>
				<rect x="843.9" y="437.6" class="st7" width="20.6" height="58.9"/>
			</g>
		</g>
		<rect x="656" y="329.9" class="st10" width="221.9" height="16.5"/>
		<rect x="656" y="353.5" class="st11" width="153.5" height="10.6"/>
		<rect x="737.9" y="514.2" class="st11" width="140" height="10.6"/>
		<rect x="738.4" y="533.6" class="st12" width="139.5" height="10.6"/>
		<rect x="737.9" y="552.3" class="st12" width="140" height="10.6"/>
		<rect x="656" y="571.7" class="st12" width="221.9" height="10.6"/>
		<rect x="656" y="590.6" class="st12" width="221.9" height="10.6"/>
		<rect x="656" y="610.6" class="st12" width="221.9" height="10.6"/>
		<rect x="656" y="375.9" class="st12" width="221.9" height="9.5"/>
		<rect x="656" y="513" class="st8" width="62.2" height="52"/>
		<polyline class="st13" points="681,444.8 718.2,414.6 761.9,405.2 		"/>
		<rect x="673.9" y="437.8" class="st14" width="14.2" height="14.2"/>
		<rect x="754.6" y="398.9" class="st14" width="14.2" height="14.2"/>
		<rect x="711.1" y="407.6" class="st14" width="14.2" height="14.2"/>
	</g>
	<g>
		<polygon class="st11" points="529.5,644.1 384.1,644.1 417.5,550 496.1,550 		"/>
		<path class="st15" d="M683.8,264.8H230.4c-6.1,0-11.1,5-11.1,11.1v276.7c0,6.1,5,11.1,11.1,11.1h453.4c6.1,0,11.1-5,11.1-11.1
			V275.9C694.9,269.8,689.9,264.8,683.8,264.8z"/>
		<rect x="243.3" y="285.1" class="st16" width="427.5" height="217.6"/>
		<polygon class="st17" points="670.8,502.7 243.3,502.7 670.8,285.1 		"/>
		<path class="st11" d="M476.5,530.1c0,4.9-4,8.9-8.9,8.9h-21c-4.9,0-8.9-4-8.9-8.9l0,0c0-4.9,4-8.9,8.9-8.9h21
			C472.5,521.2,476.5,525.2,476.5,530.1L476.5,530.1z"/>
		<path class="st15" d="M573,648.1v-1.8c0-8-5-14.5-11.1-14.5H355.1c-6.1,0-11.1,6.5-11.1,14.5v1.8H573z"/>
	</g>
	<g>
		<rect x="323.7" y="157.7" class="st6" width="263.2" height="346.2"/>
		<rect x="345.1" y="182.5" class="st10" width="221.9" height="16.5"/>
		<rect x="345.1" y="206.2" class="st11" width="153.5" height="10.6"/>
		<rect x="427" y="366.9" class="st11" width="140" height="10.6"/>
		<rect x="427.5" y="386.3" class="st12" width="139.5" height="10.6"/>
		<rect x="344.9" y="343" class="st12" width="125.3" height="10.6"/>
		<rect x="344.9" y="326.8" class="st12" width="117.4" height="10.6"/>
		<rect x="345.4" y="310" class="st12" width="96.8" height="10.6"/>
		<rect x="427" y="405" class="st12" width="140" height="10.6"/>
		<rect x="345.1" y="425.2" class="st12" width="136.9" height="10.6"/>
		<rect x="345.1" y="444.1" class="st12" width="136.9" height="10.6"/>
		<rect x="345.1" y="464.1" class="st12" width="136.9" height="10.6"/>
		<rect x="345.1" y="228.6" class="st12" width="221.9" height="9.5"/>
		<rect x="345.1" y="365.7" class="st8" width="62.2" height="52"/>
		<polyline class="st13" points="370.2,297.5 407.3,267.3 451.1,257.9 		"/>
		<rect x="363" y="290.4" class="st14" width="14.2" height="14.2"/>
		<rect x="443.7" y="251.6" class="st14" width="14.2" height="14.2"/>
		<rect x="400.2" y="260.2" class="st14" width="14.2" height="14.2"/>
		<g>
			<path class="st7" d="M513.2,256.2c-0.3,0-0.6,0-0.9,0c-23.2,0-42.1,18.5-42.6,41.5h43.5V256.2z"/>
			<path class="st8" d="M476.1,305.8c0,0.3,0,0.6,0,0.9c0,23.4,19.1,42.4,42.6,42.4c23.5,0,42.6-19,42.6-42.4c0-0.3,0-0.6,0-0.9
				H476.1z"/>
			<path class="st11" d="M561.2,305.8h-42.6v43.3c0,0,0,0,0,0c23.5,0,42.6-19,42.6-42.4C561.3,306.4,561.2,306.1,561.2,305.8z"/>
			<path class="st18" d="M561.2,305.8c-0.5-22.4-20-40.6-42.3-41.5v41.5H561.2z"/>
		</g>
		<g>
			<g>
				<rect x="552.1" y="425.2" class="st8" width="14.9" height="49.9"/>
				<rect x="531.8" y="436.9" class="st7" width="14.9" height="38.2"/>
				<rect x="490.5" y="459.5" class="st7" width="14.9" height="15.6"/>
				<rect x="510.5" y="447.8" class="st9" width="14.9" height="27.3"/>
			</g>
		</g>
	</g>
	<g>
		<g>
			<g>
				<path class="st6" d="M164.7,414.3c3.4,5.7,4.9,11.9,4.9,18.8c0,8.8,7.2,2.3,6.2,19.6c-0.7,11.5,5.2,44.1,3.8,55.5l-45.4-1.8
					c1.1-6.7,7.3-69.9,7.7-73c1-8.6,4.7-18.3,11.1-25.1c0.1-0.1,4.1,3.1,4.6,3.4c1.8,1.1,3.8,1.9,5.9,2.3
					C163.8,414.2,164.3,414.2,164.7,414.3z"/>
				<g>
					<g>
						<g>
							<g>
								<path class="st19" d="M213.8,429.6c-1.7-0.4-11.3,3.4-12.1,0.8c-0.7-2.2,1.2-5.8,1.2-5.8c5.4-9,17.5-24.7,22.7-30.3
									c5.1-5.5,5.4,2.9,5.4,2.9C227.8,405.3,222.3,418.9,213.8,429.6z"/>
							</g>
						</g>
					</g>
					<g>
						<g>
							<path class="st20" d="M206.9,417.8c-6.5-0.5-15,0-17.6-0.4c-14.8-2.4-29-4.1-30.2,2.7c-1.4,7.7,14.3,12.7,27.2,14.2
								c11.2,1.3,18.9-0.2,30.7-1.1C216.3,428.4,211.5,420.7,206.9,417.8z"/>
						</g>
					</g>
					<path class="st19" d="M235.1,380.1c-0.8,0.2-1.8,0.4-2,0.7c-2.6,2.5-4.4,4.6-5.7,8c-0.4,1.1-6.1,14.7-6.4,14.7l6.3-0.2
						c3.8-5.3,8.5-10.1,10.8-16.3C239,384.5,238.7,379.5,235.1,380.1z"/>
				</g>
				<g>
					<path class="st18" d="M132.6,381.8c-0.7,2.1-1.3,4.2-2,6.3c-2.3,7.8-6.5,13.5-12.5,19.3c-2.6,2.5-4.8,3.3-5.3,7.1
						c-1.3,9.3,7.1,17.9,13.1,23.7c5.9,5.8,4.5,5.8,3.7,12.9c-0.8,6.9,3.2,10.1,10.7,11.3c20.2,3.2,24.9-28.5,24.9-42.1
						c0-14.9,8.7-28.9,10.2-43.7c0.9-9-1.4-18.4-10.8-21.7c-12.8-4.5-22.2,5.7-27.5,16.1C135.2,374.4,133.8,378.1,132.6,381.8z"/>
					<g>
						<g>
							<path class="st19" d="M149.8,384.6c0.5,2.4,4,5.6,4.9,3.6c0.5-1.3,1-4,0.5-6.4c-0.5-2.4-0.1-2.7-2.3-2.3
								C150.7,379.9,149.3,382.2,149.8,384.6z"/>
						</g>
					</g>
					<path class="st19" d="M154.3,392.6c0.4-4.8,14.6,4.2,14.6,4.2l-1.5,18.5c0,0-0.1-0.7-7.2-0.6c-4.3,0.1-7.9-0.1-7.7-4.1
						C152.7,408.1,154.2,394.3,154.3,392.6z"/>
					<path class="st21" d="M154.1,397.3c2,6.5,7.8,11.2,13.9,10.7l1-11.2c0,0-14.3-9-14.6-4.2c0,0.5-0.2,2.2-0.4,4.3
						C154,397,154,397.1,154.1,397.3z"/>
					<path class="st19" d="M169.9,400.7c-4.7,2.2-12.3-0.5-14.9-4.8c-1.6-2.6-2.2-5.2-2-8.2c0.2-3.3,1.2-6.2,1.4-9.5
						c0.1-1.4,0.3-2.9,0.7-4.2c0.7-2.2,2-4.2,3.8-5.7c1.8-1.5,4.1-1.9,6.2-2.6c1.8-0.6,3.9-1.4,5.8-1.3c1.3,0.1,2,1.1,2.9,2
						c4.9,5,5.9,13.8,4.5,20.4C177.4,391.8,174.8,398.4,169.9,400.7z"/>
					<path class="st19" d="M174.2,516.6c-0.4,9.2-3.2,15.3-5.2,20.6c-10.5,27.4-18.1,53.4-22.5,60.8c-4.9,8.2-19.2-6.5-19.2-6.5
						s19.8-81.6,24.3-86.9C156.1,499.4,174.6,509.2,174.2,516.6z"/>
					<path class="st22" d="M174.2,516.6c-0.4,9.2-3.2,15.3-5.2,20.6c-10.5,27.4-18.1,53.4-22.5,60.8c-4.9,8.2-20.4-3.2-20.4-3.2
						s17.6-84.5,22.1-89.7C152.7,499.9,174.6,509.2,174.2,516.6z"/>
					<path class="st19" d="M143.9,609.1c0,0-3.6,11.7-32,46.6c-3.8,4.7-5.3-2.1-5.3-2.1s22.1-52.1,25.9-57.1
						C136.2,591.5,143.9,609.1,143.9,609.1z"/>
					<path class="st22" d="M133.9,637.9c10-18.1,13.5-41.4,13.5-41.4s-17.1-7.5-20.9-2.4c-1.9,2.5-8.8,17.6-15.2,32.1
						C116.3,628.7,133.8,637.9,133.9,637.9z"/>
					<path class="st19" d="M173.5,512.4c5.2,7.7,6.6,14.2,8.2,19.6c8,28.2,12.1,49.8,13,58.5c1,9.4-13.8,9.9-13.8,9.9
						s-33.2-77.2-32.7-84.1C148.7,509.3,169.3,506.2,173.5,512.4z"/>
					<path class="st19" d="M194.4,608.9c0,0,2,12.5-8.9,56.1c-1.5,5.8-6.1,0-6.1,0s-1.9-48.7-0.6-54.8
						C180.1,604.1,194.4,608.9,194.4,608.9z"/>
					<path class="st11" d="M198.3,648.2c3.6-26.8-1.8-54.4-1.8-54.4s-16.4,0.5-17.7,6.6c-0.7,3.5-6.4,34-6.6,47.8H198.3z"/>
					<path class="st11" d="M194.2,576.8c-2.2-12-5-23.9-8.5-35.6c-3.9-13.3-7.3-25-12.8-37.7c-1.4-3.3,0.5-17.1-1.7-18.6
						c-5-3.3-17.8,0.7-24.6,2.1c-1.6,0.3-2.7,1.1-4.1,2c-2.3,1.4-5.3,9.2-6.1,11.8c-2.1,7-0.5,15.8,3.2,21.7c3,4.8,5.8,9.7,8.6,14.6
						c2.4,4.2,5.3,8,7.7,12.2c5.4,9.5,9,19.8,12.9,30c1.3,3.4,9.8,19.8,9.9,22.2c0.2,12.6,11.5-5.3,15.4-6.5c2.2-0.7,2.1-1.1,2-3.5
						c-0.1-1.8-0.4-3.7-0.6-5.5C195.2,582.9,194.7,579.9,194.2,576.8z"/>
					<path class="st19" d="M172.3,491.4c1.1-21.9,5.4-54.1,2.6-57.2c-4.9-5.5-5.1-17.5-8.6-21.8c-5.3-6.6-9.8-9.7-16.4-0.1
						c-2.2,3.2-5,22.5-5.5,25c-1.2,5.3-1.6,32-2.9,53.5L172.3,491.4z"/>
					<path class="st23" d="M172.3,491.4c1.1-16,2.2-29.3,3.6-38.8c0.4-2.9,1.3-5.6,1.8-8.5c0.4-2.6-0.8-6.2-1.9-8.6
						c-1.1-2.4-2.2-4.8-3.2-7.2c-1-2.4-1.8-4.9-2.6-7.3c-0.2-0.8-1.5-6.4-2.3-6.4c-0.1,0-3-0.3-4.2-0.5c-2.1-0.4-4-1.3-5.9-2.3
						c-0.5-0.3-4.5-3.5-4.6-3.4c-6.4,6.7-10.1,16.4-11.1,25.1c-0.4,3.1,0.2,50.7-0.9,57.4L172.3,491.4z"/>
					<path class="st6" d="M164.7,414.3c3.4,5.7,4.9,11.9,4.9,18.8c0,7.9-0.3,15.9-0.7,23.8c-0.7,11.5-2.5,38.6-4,50l-30.7-0.5
						c1.1-6.7,7.3-69.9,7.7-73c1-8.6,4.7-18.3,11.1-25.1c0.1-0.1,4.1,3.1,4.6,3.4c1.8,1.1,3.8,1.9,5.9,2.3
						C163.8,414.2,164.3,414.2,164.7,414.3z"/>
					<path class="st6" d="M164.7,414.3c3.4,5.7,4.9,11.9,4.9,18.8c0,7.9-0.3,15.9-0.7,23.8c-0.7,11.5-2.5,38.6-4,50l-30.7-0.5
						c1.1-6.7,7.3-69.9,7.7-73c1-8.6,4.7-18.3,11.1-25.1c0.1-0.1,4.1,3.1,4.6,3.4c1.8,1.1,3.8,1.9,5.9,2.3
						C163.8,414.2,164.3,414.2,164.7,414.3z"/>
					<path class="st18" d="M164.5,355.9c2.2,0.5,4.4,1.5,6.6,2c3.3,1,8.4,4.1,10.1,7.1c6.6,11.3-14.4,11.3-19,14.7
						c-1.4,1.1-2.2,2.5-3.5,3.6c-2.9,2.4-3.8-0.1-4.2-2.6c0.1,0.6,0,0.2-0.4-1.4c-0.8-3.4-0.8-6.1-2.8-9c-1.7-2.6-2.4-7.3-0.6-10
						c2.1-3.2,7.3-4.5,10.9-4.7C162.7,355.6,163.6,355.7,164.5,355.9z"/>
					<path class="st24" d="M200.5,668.7c-1.7-0.3-2.3,0-4-0.3c-1.7-0.3-3.4-0.9-4.9-1.6c-1.5-0.8-3.8-2.3-5.1-3.4
						c-0.2-0.1-0.3-0.2-0.5-0.3c-2.3,1.1-3.7,1-6.2-0.1c-0.2-0.1-0.4-0.2-0.5-0.4c-0.1,0.1-0.1,0.1-0.2,0.2
						c-0.4,0.5-0.5,1.2-0.6,1.8c-0.2,1.2-0.7,6-0.5,7.1c0.3,1.6,9.1,3.5,12,3.7c3.9,0.2,6.8,0.4,10.7-0.2
						C204.4,674.7,203.4,669.2,200.5,668.7z"/>
					<path class="st24" d="M125.4,662.9c-1.5-0.8-2.1-0.8-3.6-1.7c-1.5-0.9-2.9-2-4.1-3.3c-1.2-1.2-2.7-3.5-3.6-4.9
						c-0.1-0.2-0.2-0.3-0.4-0.5c-2.6,0.2-3.8-0.3-5.8-2.2c-0.2-0.2-0.3-0.4-0.3-0.6c-0.1,0-0.2,0.1-0.3,0.1c-0.6,0.3-0.9,1-1.2,1.5
						c-0.6,1-2.8,5.3-2.9,6.5c-0.2,1.6,7.3,6.5,10,7.6c3.6,1.6,6.3,2.8,10.1,3.5C127.1,669.8,128,664.3,125.4,662.9z"/>
				</g>
			</g>
		</g>
		<path class="st25" d="M394.1,345.9l14.2,9L370.5,409l-38.9-24c-2-1.2-4.6-0.7-6,1.2l-32.8,45.8l-61.2-42.8c-1-0.7-2.2-1-3.4-0.7
			c-1.2,0.2-2.2,0.9-2.9,1.9c-8.7,13.3-17.3,26.5-26,39.8c-4.6,7.1-9.8,14.1-13.9,21.5c-0.8,3-0.5,4.2,0.3,5.6
			c1.4,2.5,4.9,2.5,6.8-0.4l37.7-57.8l61.1,42.7c2,1.4,4.8,0.9,6.2-1.1l33-46.1l38.9,24c2,1.2,4.7,0.7,6-1.2l40.5-57.8l15.1,9.6
			l1.7-46.2L394.1,345.9z"/>
		<g>
			<g>
				<g>
					<g>
						<path class="st19" d="M209.9,447.6c-1.3-1.1-6.5,5.3-14.8-3.4c-1.6-1.7,7.4-6,7.4-6c8.9-5.5,26.8-14.2,33.9-16.8
							c7-2.6,3.6,5,3.6,5C233.4,432.2,222.2,441.9,209.9,447.6z"/>
					</g>
				</g>
			</g>
			<g>
				<g>
					<path class="st20" d="M204.4,435c-6.1-2.5-52.2-20.3-55.5-14.3c-3.7,6.8,1.6,13.8,21.4,21.9c10.4,4.3,21.4,5.4,32.9,8.2
						C204,446.1,207.8,439.2,204.4,435z"/>
				</g>
			</g>
			<path class="st19" d="M251.3,413.1c-0.8-0.2-1.8-0.4-2.1-0.3c-3.4,1.1-6,2.1-8.7,4.6c-0.9,0.8-12.1,10.4-12.4,10.2l5.7,2.6
				c5.8-3,12.2-5.2,17.1-9.7C252.8,418.7,254.8,414.1,251.3,413.1z"/>
		</g>
	</g>
	<g>
		<g>
			<g>
				<g>
					<g>
						<path class="st19" d="M906,444.4c7.9-20.2,12.5-20.7,18.9-29.6c9.4-13,28.8-23.5,30.9-13.3c1,5-36.1,42.8-41.9,50.3
							C911,450.5,909.1,446.4,906,444.4z"/>
					</g>
				</g>
			</g>
			<g>
				<g>
					<path class="st26" d="M914.4,454.6c5.1-6.2,26.1-30.9,28.2-33.1c12.7-12.8,18.6-18.2,13.7-25.9c-5.6-8.7-21.2,4.6-31.8,16.2
						c-7,7.7-10.3,11.8-19.9,27.7C903,444.9,908.6,456.5,914.4,454.6z"/>
				</g>
			</g>
			<path class="st11" d="M967.5,339.6c3.3-0.5,6.5,0.3,9.4,1.8c1.4,0.7,2.3,1.1,3.8,1.5c5,1.3,6.1,8.7,5.7,13
				c-0.2,2.3-1.2,4.7-1.8,6.9c-1.7,5.9-6.6,11.9-13.3,11.6c-4.3-0.2-8.7-2.5-11.3-5.9C953.3,360.1,955.1,341.7,967.5,339.6z"/>
			<g>
				<g>
					<g>
						<path class="st19" d="M911.7,450.6c1.8-1.2,6.5-5.7,5.6-8.7c-0.8-2.6-2.1-2.9-2.1-2.9c-13.5-6.1-26.2-10.6-36.8-13.4
							c-10.4-2.8-4.6,5.7-4.6,5.7C884.1,437.6,893.3,444.4,911.7,450.6z"/>
					</g>
				</g>
			</g>
			<path class="st19" d="M874.2,422c2.2,2.4,4.2,4.9,3.8,5.8l-0.1,0.2c-0.2-0.1-0.5-0.2-0.7-0.3c0,0,0.6,0.5-0.3-0.1
				c-0.1,0-0.1-0.1-0.2-0.1c0.5,0.8,0.8,1.6,0.2,2.5c-1.7,2.8-5.9,0.5-8.1-0.5c-1.8-0.8-3.4-1.9-4.9-3c-1.8-1.3-3.3-5.6-1.4-7.4
				c2-1.8,3.5,1.9,5.2,0.4c0.9-0.8-0.6-4.4,2-2.2C870.2,417.9,872.3,419.9,874.2,422z"/>
			<g>
				<g>
					<path class="st26" d="M880.7,426c10.2,2.8,23.1,6.2,35.8,11.9c1.8,3.6,0,1.4,0.8,4c0.9,3.1-2.1,11.8-3.8,13
						c-16.7-5.6-27.3-15.3-36.5-21.1L880.7,426z"/>
				</g>
			</g>
			<g>
				<g>
					<path class="st6" d="M880.6,436.2c-1.3-0.9-2.5-1.7-3.7-2.5l3.8-7.8c1.4,0.4,2.9,0.8,4.4,1.3L880.6,436.2z"/>
				</g>
			</g>
			<path class="st19" d="M957.6,593.2c0,0,5.9,15.1-6.3,63.7c-1,3.9-4,3.6-5.6,2.4c-1.1-0.8-1.1-2.4-1.1-2.4s-5.8-55.4-4.3-62.2
				C941.7,587.8,957.6,593.2,957.6,593.2z"/>
			<path class="st27" d="M941.8,481.4h28.3c0,0.1,0,0.2,0,0.4c0,5.4-0.1,10.8-0.1,16.2c-0.2,13.7,0.1,10.1-0.7,23.8
				c-0.7,11.6-9.2,64.3-10.4,67.1c-1.2,2.9-0.7,8-3.1,10.2c-3.9,3.4-11.6,5.3-14.9,1c-2.2-2.9-1.2-17.7-1.6-21.4
				c-0.3-3.1-0.3-6.3-0.5-9.3c-0.6-11.8,0.2-23.6,0.3-35.4C939.2,517.5,939.2,501.6,941.8,481.4z"/>
			<path class="st24" d="M928,661.9c1.9-0.3,2.5,0,4.5-0.3c1.9-0.3,3.8-1,5.5-1.8c1.7-0.8,4.2-2.6,5.7-3.7c0.2-0.1,0.4-0.3,0.6-0.4
				c2.6,1.2,4.1,1.1,6.9-0.1c0.3-0.1,0.4-0.3,0.5-0.5c0.1,0.1,0.2,0.1,0.2,0.2c0.4,0.6,0.5,1.4,0.6,2.1c0.2,1.3,0.8,6.6,0.5,7.9
				c-0.4,1.8-10.2,3.9-13.4,4.1c-4.3,0.3-7.6,0.4-11.9-0.2C923.6,668.5,924.8,662.4,928,661.9z"/>
			<g>
				<g>
					<path class="st19" d="M980,366.6c-1.1,2.5-5.8,5.1-6.2,2.6c-0.3-1.5-0.1-4.6,1.1-7.1c1.1-2.5,0.8-2.9,3.1-1.9
						C980.2,361.3,981.1,364.2,980,366.6z"/>
				</g>
			</g>
			<path class="st19" d="M973.8,371.4c-0.4-5.4-16.3,4.6-16.3,4.6l1.7,20.6c0,0,0.2-0.8,8-0.6c4.8,0.1,7.7,1.6,7.5-2.8
				C974.6,390.4,974,373.3,973.8,371.4z"/>
			<path class="st21" d="M974.1,376.6c-2.2,7.2-8.7,12.5-15.5,11.9l-1.1-12.5c0,0,15.9-10,16.3-4.6c0,0.6-0.1-1.1,0.2,1.2
				C973.9,372.8,974.1,376.4,974.1,376.6z"/>
			<path class="st19" d="M954,379c4.5,3.6,13.4,2.6,17.4-1.4c2.4-2.4,3.7-5.1,4.3-8.3c0.6-3.6,0.3-7,0.9-10.7
				c0.2-1.6,0.5-3.2,0.4-4.8c-0.1-2.5-1.1-5.1-2.6-7.2c-1.5-2-3.9-3.1-6.1-4.4c-1.8-1.1-3.9-2.5-6-2.9c-1.5-0.3-2.5,0.6-3.7,1.4
				c-6.6,4.1-10,13.5-10.2,21C948.2,367.4,949.3,375.3,954,379z"/>
			<path class="st11" d="M973.5,360.3c-2.3,1.8-4.3,4.1-6.8,5.6c-3.3,2-6.1,2.2-9.3,0c-3.2-2.1-6-2.5-9.2-2c0.2,5.3,1.6,11.8,5.7,15
				c4.5,3.6,13.4,2.6,17.4-1.4c2.4-2.4,3.7-5.1,4.3-8.3c0.6-3.6,0.3-7,0.9-10.7C975.4,359,974.5,359.6,973.5,360.3z"/>
			<path class="st19" d="M978,591.6c0,0-5.9,15.1,6.3,63.7c1,3.9,4,3.6,5.6,2.4c1.1-0.8,1.1-2.4,1.1-2.4s2.9-56.4,1.5-63.2
				C991.1,585.2,978,591.6,978,591.6z"/>
			<path class="st27" d="M992.8,481.4c0.6,1.4,1.1,2.6,1.2,3.6c2.4,18.4,2.4,30.7,2.5,47.3c0,11.8-1.2,48.2-2,61.9
				c-0.3,5.4-12.3,9.2-16.2,5.8c-2.5-2.2-4.2-4-5.4-6.9c-1.2-2.8-5.7-65.5-6.3-77.1c-0.8-13.6-0.8-6.1-0.9-19.7
				c-0.1-5-0.1-10-0.1-14.9H992.8z"/>
			<path class="st19" d="M951.6,475.4c-1.2-24.4-6-60.3-2.9-63.7c5.4-6.1-2.3-1.5,1.7-6.4c5.9-7.3,24.2-15,31.5-4.4
				c2.5,3.6,0.3,11.4,0.9,14.1c1.3,6,1.8,35.7,3.3,59.6L951.6,475.4z"/>
			<path class="st28" d="M947.3,393.9c1.4-0.5,10.2-2.3,11.8-2.6c1.9,1.7,4.1-0.8,6.9-0.9c2.9-0.1,6.3,2,8.2,0.5
				c0.1-0.1,0.2-0.2,0.3-0.3c1.4,0.1-2.3,0.2-0.9,0.3c3.8,0.4,15.5,6,18,7.5c10.1,6.2,6.5,14.9,6.2,18.5c-0.6,9.4-1.5,83.9,0.2,94.1
				c0,0-61.3,0-61.3,0c-1-0.9,1.5-83.3,2.2-95.3C940,399.7,939.5,396.6,947.3,393.9z"/>
			<path class="st24" d="M968.1,662.5c1.9-0.3,2.5,0,4.5-0.3c1.9-0.3,3.8-1,5.5-1.8c1.7-0.8,4.2-2.6,5.7-3.7
				c0.2-0.1,0.4-0.3,0.6-0.4c2.6,1.2,4.1,1.1,6.9-0.1c0.3-0.1,0.4-0.3,0.5-0.5c0.1,0.1,0.2,0.1,0.2,0.2c0.4,0.6,0.5,1.4,0.6,2
				c0.2,1.3,0.8,6.6,0.5,7.9c-0.4,1.8-10.2,3.9-13.4,4.1c-4.3,0.3-7.6,0.4-11.9-0.2C963.7,669.1,964.8,663,968.1,662.5z"/>
			<path class="st27" d="M943.1,656.9c-1.6-16.2-4-57.2-2.9-62.2c1.5-6.8,17.3-1.5,17.3-1.5s7.1,15.1-5.5,63.3L943.1,656.9z"/>
			<path class="st27" d="M982.9,657c-10.1-43.5-10.6-68.6-10.6-68.6s22.5-8.3,21.9,4.4c-0.2,5.3-0.8,47.6-1.8,64.5L982.9,657z"/>
			<path class="st6" d="M973.9,384.9l-10.3,4.8l4.4,10.7l15.1-6.5C983.1,393.9,978,385.3,973.9,384.9z"/>
			<path class="st6" d="M963.6,389.7l-6.1,9.5l-4.7-6.2c0,0,1.7-5.5,5.5-6.1L963.6,389.7z"/>
			<path class="st11" d="M947.9,335.8c0.2-2.6,1.8-2.7,4.1-2.3c2.2,0.3,4.4,1,6.7,1.1c2.5,0.1,4.7-0.4,7.2-0.8
				c4.2-0.7,8.6,0.4,12.4,2.4c5.8,3,9.3,12.9,8.2,19.5c-0.3,2.2-1.2,1.6-2.8,3.1c-0.8,0.7-1.7,1.5-2.7,1.8c-0.8,0.3-2-0.1-2.9-0.2
				c-0.4-0.5-1.4,0.4-1.7,0.8c-0.5,0.7-0.8,2-1.9,1.7c-1-0.3-1.4-1.6-1.5-2.5c-0.2-1.9,0-3.9,0-5.8c-0.1-4-3.8-4-6.9-4.5
				c-5.4-1-10.3-1.7-14.8-5.3C948.6,342.8,947.6,338.9,947.9,335.8z"/>
		</g>
		<g>
			<g>
				<g>
					<path class="st19" d="M954,459.3c4.9-21.1,9.4-22.3,14.5-32c7.5-14.2,25.2-27.3,28.7-17.5c1.7,4.8-29.6,47.4-34.4,55.7
						C959.8,464.6,957.4,460.9,954,459.3z"/>
				</g>
			</g>
		</g>
		<g>
			<g>
				<path class="st26" d="M963.8,468.3c4.2-6.8,22.8-32,24.5-34.7c11.4-18.2,14.7-22.7,8.7-29.6c-6.8-7.8-20.3,7.5-29.2,20.5
					c-5.8,8.6-8.5,13.2-15.8,30.3C951.1,460.3,958.3,470.9,963.8,468.3z"/>
			</g>
		</g>
		<g>
			<path class="st18" d="M860.2,447.6c-18.6,0-33.7-15-33.7-33.5c0-18.5,15.1-33.5,33.7-33.5c18.6,0,33.7,15,33.7,33.5
				C893.9,432.6,878.8,447.6,860.2,447.6z M926.2,422.4v-16.9h-6.7c-0.3-2.1-0.7-4.2-1.2-6.2l6.2-2.5l-6.4-15.6l-6.2,2.5
				c-1.1-1.9-2.4-3.8-3.7-5.5l4.8-4.7l-12-12l-4.8,4.7c-1.7-1.3-3.4-2.4-5.2-3.5l2.6-6.2l-15.7-6.5l-2.6,6.2c-2.1-0.5-4.3-1-6.5-1.3
				v-6.7h-17v6.7c-2.1,0.3-4.2,0.7-6.2,1.2l-2.6-6.2l-15.7,6.4l2.6,6.2c-1.9,1.1-3.8,2.3-5.6,3.7l-4.8-4.7l-12,12l4.7,4.7
				c-1.3,1.7-2.4,3.4-3.5,5.2l-6.2-2.6l-6.5,15.6l6.2,2.6c-0.6,2.1-1,4.3-1.3,6.5h-6.7v16.9h6.7c0.3,2.1,0.7,4.2,1.2,6.2l-6.2,2.5
				l6.4,15.6l6.2-2.5c1.1,1.9,2.4,3.8,3.7,5.6l-4.7,4.7l12,12l4.7-4.7c1.7,1.3,3.4,2.4,5.3,3.5l-2.6,6.1l15.7,6.5l2.5-6.1
				c2.2,0.6,4.4,1,6.6,1.3v6.6h17v-6.6c2.1-0.3,4.2-0.7,6.2-1.2l2.5,6.1l15.7-6.4l-2.5-6.1c1.9-1.1,3.8-2.4,5.6-3.7l4.7,4.7l12-12
				l-4.7-4.7c1.3-1.7,2.4-3.4,3.5-5.2l6.1,2.6l6.5-15.6l-6.1-2.6c0.6-2.1,1-4.3,1.3-6.6H926.2z"/>
			<path class="st18" d="M860.2,384.4c-16.4,0-29.7,13.2-29.7,29.6c0,16.3,13.3,29.6,29.7,29.6c16.4,0,29.7-13.2,29.7-29.6
				C889.9,397.6,876.6,384.4,860.2,384.4z M860.2,428.4c-8,0-14.5-6.5-14.5-14.5c0-8,6.5-14.5,14.5-14.5c8,0,14.5,6.5,14.5,14.5
				C874.7,422,868.2,428.4,860.2,428.4z"/>
		</g>
		<g>
			<g>
				<g>
					<path class="st19" d="M960.5,464.6c1.6-1.5,5.6-6.5,4.3-9.4c-1.1-2.4-2.4-2.6-2.4-2.6c-14.2-4.1-27.4-6.8-38.3-8.1
						c-10.7-1.3-3.7,6.3-3.7,6.3C931.3,455.6,941.4,461.1,960.5,464.6z"/>
				</g>
			</g>
		</g>
		<path class="st19" d="M919.4,441.7c2.5,2,4.9,4.2,4.5,5.2l-0.1,0.2c-0.3-0.1-0.5-0.1-0.8-0.2c0,0,0.7,0.4-0.3-0.1
			c-0.1,0-0.2,0-0.2-0.1c0.7,0.7,1,1.5,0.6,2.4c-1.3,3.1-5.8,1.3-8.1,0.7c-1.9-0.5-3.6-1.4-5.3-2.3c-2-1.1-4.1-5.1-2.4-7.1
			c1.7-2.1,3.8,1.4,5.2-0.3c0.8-0.9-1.2-4.2,1.7-2.5C914.8,438.2,917.1,439.8,919.4,441.7z"/>
		<g>
			<g>
				<path class="st26" d="M926.4,444.7c10.5,1.4,23.7,2.9,37.1,6.7c2.3,3.3,0.2,1.4,1.3,3.8c1.3,2.9-0.4,11.9-2,13.4
					c-17.3-3.2-29.2-11.3-39.1-15.7L926.4,444.7z"/>
			</g>
		</g>
		<g>
			<g>
				<path class="st6" d="M927.7,454.8c-1.4-0.7-2.7-1.3-4-1.9l2.6-8.2c1.5,0.2,3,0.4,4.5,0.6L927.7,454.8z"/>
			</g>
		</g>
	</g>
	<g>
		<g>
			<path class="st25" d="M703.5,316.6c0,3.2-2.6,5.8-5.8,5.8h-45.2c-3.2,0-5.8-2.6-5.8-5.8v-18.9c0-3.2,2.6-5.8,5.8-5.8h45.2
				c3.2,0,5.8,2.6,5.8,5.8V316.6z"/>
			<path class="st29" d="M652.5,322.4h9.3c6.4-3.2,12.9-6.2,19.6-8.7h-34.7v2.9C646.7,319.8,649.3,322.4,652.5,322.4z"/>
			<path class="st29" d="M663.7,301.6c6.7-1.2,13.4-2.3,19.9-4c3.9-1,7.7-2.2,11.5-3.6H648c-0.8,1-1.3,2.3-1.3,3.7v5.8h6.6
				C656.8,302.9,660.2,302.2,663.7,301.6z"/>
			<path class="st29" d="M647.3,303.9c-0.3,0.8-0.4,1.7-0.4,2.6v7h6.6c3.5-0.8,6.9-1.6,10.4-2.4c6.7-1.5,13.4-2.7,19.9-4.8
				c2.4-0.8,4.7-1.6,7.1-2.5H647.3z"/>
			<g>
				<path class="st30" d="M654.7,243"/>
				<path class="st30" d="M666.3,293.1"/>
				<path class="st30" d="M683.8,293.1"/>
			</g>
			<path class="st25" d="M709.9,293.8c0,1.2-0.7,2.1-1.5,2.1h-66.7c-0.8,0-1.5-0.9-1.5-2.1l0,0c0-1.2,0.7-2.1,1.5-2.1h66.7
				C709.2,291.7,709.9,292.7,709.9,293.8L709.9,293.8z"/>
			<path class="st25" d="M709.9,293.8c0,1.2-0.7,2.1-1.5,2.1h-66.7c-0.8,0-1.5-0.9-1.5-2.1l0,0c0-1.2,0.7-2.1,1.5-2.1h66.7
				C709.2,291.7,709.9,292.7,709.9,293.8L709.9,293.8z"/>
			<path class="st25" d="M709.9,303.8c0,1.2-0.7,2.1-1.5,2.1h-66.7c-0.8,0-1.5-0.9-1.5-2.1l0,0c0-1.2,0.7-2.1,1.5-2.1h66.7
				C709.2,301.6,709.9,302.6,709.9,303.8L709.9,303.8z"/>
			<path class="st25" d="M709.9,313.7c0,1.2-0.7,2.1-1.5,2.1h-66.7c-0.8,0-1.5-0.9-1.5-2.1l0,0c0-1.2,0.7-2.1,1.5-2.1h66.7
				C709.2,311.6,709.9,312.5,709.9,313.7L709.9,313.7z"/>
			<path class="st31" d="M709.9,293.5c-0.1-1-0.7-1.8-1.4-1.8h-27.7L709.9,293.5z"/>
			<path class="st31" d="M709.9,303.4c-0.1-1-0.7-1.7-1.4-1.7h-27.7L709.9,303.4z"/>
			<path class="st31" d="M709.9,313.4c-0.1-1-0.7-1.8-1.4-1.8h-27.7L709.9,313.4z"/>
		</g>
	</g>
</g>
<g>
	<g>
		<g>
			<path class="st32" d="M709,651c-10.6-7.2-32.7-12.2-58.2-12.2c-25.6,0-47.6,5-58.2,12.2h-6.8v9.6h0.1c0,12.1,29.1,21.8,64.9,21.8
				c35.8,0,64.9-9.8,64.9-21.8V651H709z"/>
			<path class="st33" d="M715.6,651.1c0,12.1-29.1,21.8-64.9,21.8c-35.8,0-64.9-9.8-64.9-21.8c0-12.1,29.1-21.8,64.9-21.8
				C686.6,629.3,715.6,639.1,715.6,651.1z"/>
			<g>
				<path class="st34" d="M704.6,651.1c0,10-24.1,18.1-53.9,18.1s-53.9-8.1-53.9-18.1c0-10,24.1-18.1,53.9-18.1
					S704.6,641.1,704.6,651.1z"/>
				<path class="st35" d="M606.5,667.1c30.5-10.3,61.1-20.6,91.7-30.9c-2.2-0.8-4.7-1.6-7.3-2.3c-30.5,10.2-60.9,20.4-91.2,30.6
					C601.8,665.5,604.1,666.3,606.5,667.1z"/>
				<path class="st35" d="M707.5,640.6c-2-1.2-4.3-2.4-6.9-3.4c-30.5,10.2-60.9,20.5-91.4,30.7c3.2,0.9,6.6,1.7,10.3,2.4
					C648.9,660.4,678.2,650.5,707.5,640.6z"/>
				<path class="st34" d="M704.6,651.1c0,10-24.1,18.1-53.9,18.1s-53.9-8.1-53.9-18.1c0-10,24.1-18.1,53.9-18.1
					S704.6,641.1,704.6,651.1z"/>
				<path class="st34" d="M680.1,635.9c-8.5-1.9-18.6-2.9-29.4-2.9c-29.8,0-53.9,8.1-53.9,18.1c0,3.6,3.2,7,8.7,9.9
					C630.4,652.6,655.2,644.3,680.1,635.9z"/>
				<path class="st34" d="M631.1,668c6.1,0.8,12.7,1.2,19.6,1.2c29.8,0,53.9-8.1,53.9-18.1c0-2.3-1.3-4.6-3.8-6.6
					C677.7,652.3,654.4,660.2,631.1,668z"/>
				<path class="st36" d="M599.2,652.4c0-10,24.1-18.1,53.9-18.1c18.3,0,34.5,3.1,44.3,7.8c-9.3-5.4-26.7-9-46.6-9
					c-29.8,0-53.9,8.1-53.9,18.1c0,3.8,3.6,7.4,9.6,10.3C601.8,658.8,599.2,655.7,599.2,652.4z"/>
			</g>
			<g>
				<path class="st33" d="M648.9,638.4h7.3v2c5.9,0.2,11.1,0.9,15.4,2.3l-8.1,3.4c-3-0.8-5.4-1.4-7.4-1.6v4.3
					c11.2,1.2,16.9,3.3,16.9,6.4c0,1.6-1.4,2.9-4.3,4c-2.9,1.1-7.1,1.8-12.7,2.1v2.6h-7.2v-2.6h-1.2c-2.7,0-5.9-0.3-9.5-0.8
					c-3.6-0.5-6.4-1.2-8.5-2l7.7-3.3c3.3,1.1,7.1,1.9,11.4,2.1v-5c-5.4-0.5-9.5-1.3-12.3-2.4c-2.8-1.1-4.2-2.4-4.2-3.9
					c0-1.6,1.4-2.9,4.1-4c2.7-1.1,6.9-1.7,12.5-1.8V638.4z M648.8,648.1v-3.7c-2.7,0.3-4.1,0.9-4.1,1.8
					C644.7,647.1,646.1,647.8,648.8,648.1z M656.1,653.4v3.9c3-0.3,4.6-0.9,4.6-1.9C660.7,654.4,659.1,653.7,656.1,653.4z"/>
			</g>
			<g>
				<path class="st32" d="M647.1,638.4h7.3v2c5.9,0.2,11.1,0.9,15.4,2.3l-8.1,3.4c-3-0.8-5.4-1.4-7.4-1.6v4.3
					c11.2,1.2,16.9,3.3,16.9,6.4c0,1.6-1.4,2.9-4.3,4c-2.9,1.1-7.1,1.8-12.7,2.1v2.6H647v-2.6h-1.2c-2.7,0-5.9-0.3-9.5-0.8
					c-3.6-0.5-6.4-1.2-8.5-2l7.7-3.3c3.3,1.1,7.1,1.9,11.4,2.1v-5c-5.4-0.5-9.5-1.3-12.3-2.4c-2.8-1.1-4.2-2.4-4.2-3.9
					c0-1.6,1.4-2.9,4.1-4c2.7-1.1,6.9-1.7,12.5-1.8V638.4z M647,648.1v-3.7c-2.7,0.3-4.1,0.9-4.1,1.8
					C642.9,647.1,644.3,647.8,647,648.1z M654.3,653.4v3.9c3-0.3,4.6-0.9,4.6-1.9C658.9,654.4,657.4,653.7,654.3,653.4z"/>
			</g>
			<g>
				<path class="st33" d="M648.9,638.4h7.3v2c5.9,0.2,11.1,0.9,15.4,2.3l-8.1,3.4c-3-0.8-5.4-1.4-7.4-1.6v4.3
					c11.2,1.2,16.9,3.3,16.9,6.4c0,1.6-1.4,2.9-4.3,4c-2.9,1.1-7.1,1.8-12.7,2.1v2.6h-7.2v-2.6h-1.2c-2.7,0-5.9-0.3-9.5-0.8
					c-3.6-0.5-6.4-1.2-8.5-2l7.7-3.3c3.3,1.1,7.1,1.9,11.4,2.1v-5c-5.4-0.5-9.5-1.3-12.3-2.4c-2.8-1.1-4.2-2.4-4.2-3.9
					c0-1.6,1.4-2.9,4.1-4c2.7-1.1,6.9-1.7,12.5-1.8V638.4z M648.8,648.1v-3.7c-2.7,0.3-4.1,0.9-4.1,1.8
					C644.7,647.1,646.1,647.8,648.8,648.1z M656.1,653.4v3.9c3-0.3,4.6-0.9,4.6-1.9C660.7,654.4,659.1,653.7,656.1,653.4z"/>
			</g>
			<path class="st37" d="M614.3,664.5c25.4-8.6,50.7-17.1,76.1-25.6c-2.2-0.8-4.7-1.6-7.3-2.2c-25.2,8.4-50.4,16.9-75.5,25.4
				C609.6,662.9,611.8,663.7,614.3,664.5z"/>
			<path class="st37" d="M699.4,643.3c-1.8-1.3-4-2.5-6.6-3.5c-25.3,8.5-50.5,17-75.8,25.5c3.3,0.9,6.8,1.6,10.7,2.2
				C651.6,659.5,675.5,651.4,699.4,643.3z"/>
		</g>
		<g>
			<path class="st32" d="M709,638.1c-10.6-7.2-32.7-12.2-58.2-12.2c-25.6,0-47.6,5-58.2,12.2h-6.8v9.6h0.1
				c0,12.1,29.1,21.8,64.9,21.8c35.8,0,64.9-9.8,64.9-21.8v-9.6H709z"/>
			<ellipse class="st33" cx="650.7" cy="638.2" rx="64.9" ry="21.8"/>
			<g>
				<path class="st34" d="M704.6,638.2c0,10-24.1,18.1-53.9,18.1s-53.9-8.1-53.9-18.1c0-10,24.1-18.1,53.9-18.1
					S704.6,628.2,704.6,638.2z"/>
				<path class="st35" d="M606.5,654.2c30.5-10.3,61.1-20.6,91.7-30.9c-2.2-0.8-4.7-1.6-7.3-2.3c-30.5,10.2-60.9,20.4-91.2,30.6
					C601.8,652.6,604.1,653.4,606.5,654.2z"/>
				<path class="st35" d="M707.5,627.6c-2-1.2-4.3-2.4-6.9-3.4c-30.5,10.2-60.9,20.5-91.4,30.7c3.2,0.9,6.6,1.7,10.3,2.4
					C648.9,647.4,678.2,637.6,707.5,627.6z"/>
				<path class="st34" d="M704.6,638.2c0,10-24.1,18.1-53.9,18.1s-53.9-8.1-53.9-18.1c0-10,24.1-18.1,53.9-18.1
					S704.6,628.2,704.6,638.2z"/>
				<path class="st34" d="M680.1,623c-8.5-1.9-18.6-2.9-29.4-2.9c-29.8,0-53.9,8.1-53.9,18.1c0,3.6,3.2,7,8.7,9.9
					C630.4,639.7,655.2,631.4,680.1,623z"/>
				<path class="st34" d="M631.1,655.1c6.1,0.8,12.7,1.2,19.6,1.2c29.8,0,53.9-8.1,53.9-18.1c0-2.3-1.3-4.6-3.8-6.7
					C677.7,639.4,654.4,647.3,631.1,655.1z"/>
				<path class="st36" d="M599.2,639.4c0-10,24.1-18.1,53.9-18.1c18.3,0,34.5,3.1,44.3,7.8c-9.3-5.4-26.7-9-46.6-9
					c-29.8,0-53.9,8.1-53.9,18.1c0,3.8,3.6,7.4,9.6,10.3C601.8,645.9,599.2,642.8,599.2,639.4z"/>
			</g>
			<g>
				<path class="st33" d="M648.9,625.5h7.3v2c5.9,0.2,11.1,0.9,15.4,2.3l-8.1,3.4c-3-0.8-5.4-1.4-7.4-1.6v4.3
					c11.2,1.2,16.9,3.3,16.9,6.4c0,1.6-1.4,2.9-4.3,4c-2.9,1.1-7.1,1.8-12.7,2.1v2.6h-7.2v-2.6h-1.2c-2.7,0-5.9-0.3-9.5-0.8
					c-3.6-0.5-6.4-1.2-8.5-2l7.7-3.3c3.3,1.1,7.1,1.9,11.4,2.1v-5c-5.4-0.5-9.5-1.3-12.3-2.4c-2.8-1.1-4.2-2.4-4.2-3.9
					c0-1.6,1.4-2.9,4.1-4c2.7-1.1,6.9-1.7,12.5-1.8V625.5z M648.8,635.2v-3.7c-2.7,0.3-4.1,0.9-4.1,1.8
					C644.7,634.2,646.1,634.8,648.8,635.2z M656.1,640.4v3.9c3-0.3,4.6-0.9,4.6-1.9C660.7,641.5,659.1,640.8,656.1,640.4z"/>
			</g>
			<g>
				<path class="st32" d="M647.1,625.5h7.3v2c5.9,0.2,11.1,0.9,15.4,2.3l-8.1,3.4c-3-0.8-5.4-1.4-7.4-1.6v4.3
					c11.2,1.2,16.9,3.3,16.9,6.4c0,1.6-1.4,2.9-4.3,4c-2.9,1.1-7.1,1.8-12.7,2.1v2.6H647v-2.6h-1.2c-2.7,0-5.9-0.3-9.5-0.8
					c-3.6-0.5-6.4-1.2-8.5-2l7.7-3.3c3.3,1.1,7.1,1.9,11.4,2.1v-5c-5.4-0.5-9.5-1.3-12.3-2.4c-2.8-1.1-4.2-2.4-4.2-3.9
					c0-1.6,1.4-2.9,4.1-4c2.7-1.1,6.9-1.7,12.5-1.8V625.5z M647,635.2v-3.7c-2.7,0.3-4.1,0.9-4.1,1.8
					C642.9,634.2,644.3,634.8,647,635.2z M654.3,640.4v3.9c3-0.3,4.6-0.9,4.6-1.9C658.9,641.5,657.4,640.8,654.3,640.4z"/>
			</g>
			<g>
				<path class="st33" d="M648.9,625.5h7.3v2c5.9,0.2,11.1,0.9,15.4,2.3l-8.1,3.4c-3-0.8-5.4-1.4-7.4-1.6v4.3
					c11.2,1.2,16.9,3.3,16.9,6.4c0,1.6-1.4,2.9-4.3,4c-2.9,1.1-7.1,1.8-12.7,2.1v2.6h-7.2v-2.6h-1.2c-2.7,0-5.9-0.3-9.5-0.8
					c-3.6-0.5-6.4-1.2-8.5-2l7.7-3.3c3.3,1.1,7.1,1.9,11.4,2.1v-5c-5.4-0.5-9.5-1.3-12.3-2.4c-2.8-1.1-4.2-2.4-4.2-3.9
					c0-1.6,1.4-2.9,4.1-4c2.7-1.1,6.9-1.7,12.5-1.8V625.5z M648.8,635.2v-3.7c-2.7,0.3-4.1,0.9-4.1,1.8
					C644.7,634.2,646.1,634.8,648.8,635.2z M656.1,640.4v3.9c3-0.3,4.6-0.9,4.6-1.9C660.7,641.5,659.1,640.8,656.1,640.4z"/>
			</g>
			<path class="st37" d="M614.3,651.6c25.4-8.6,50.7-17.1,76.1-25.6c-2.2-0.8-4.7-1.6-7.3-2.2c-25.2,8.4-50.4,16.9-75.5,25.4
				C609.6,650,611.8,650.8,614.3,651.6z"/>
			<path class="st37" d="M699.4,630.4c-1.8-1.3-4-2.5-6.6-3.5c-25.3,8.5-50.5,17-75.8,25.5c3.3,0.9,6.8,1.6,10.7,2.2
				C651.6,646.5,675.5,638.5,699.4,630.4z"/>
		</g>
		<g>
			<path class="st32" d="M709,623.9c-10.6-7.2-32.7-12.2-58.2-12.2c-25.6,0-47.6,5-58.2,12.2h-6.8v9.6h0.1
				c0,12.1,29.1,21.8,64.9,21.8c35.8,0,64.9-9.8,64.9-21.8v-9.6H709z"/>
			<path class="st33" d="M715.6,624c0,12.1-29.1,21.8-64.9,21.8c-35.8,0-64.9-9.8-64.9-21.8c0-12.1,29.1-21.8,64.9-21.8
				C686.6,602.2,715.6,611.9,715.6,624z"/>
			<g>
				<path class="st34" d="M704.6,624c0,10-24.1,18.1-53.9,18.1s-53.9-8.1-53.9-18.1c0-10,24.1-18.1,53.9-18.1S704.6,614,704.6,624z"
					/>
				<path class="st35" d="M606.5,640c30.5-10.3,61.1-20.6,91.7-30.9c-2.2-0.8-4.7-1.6-7.3-2.3c-30.5,10.2-60.9,20.4-91.2,30.6
					C601.8,638.4,604.1,639.2,606.5,640z"/>
				<path class="st35" d="M707.5,613.4c-2-1.2-4.3-2.4-6.9-3.4c-30.5,10.2-60.9,20.5-91.4,30.7c3.2,0.9,6.6,1.7,10.3,2.4
					C648.9,633.2,678.2,623.3,707.5,613.4z"/>
				<path class="st34" d="M704.6,624c0,10-24.1,18.1-53.9,18.1s-53.9-8.1-53.9-18.1c0-10,24.1-18.1,53.9-18.1S704.6,614,704.6,624z"
					/>
				<path class="st34" d="M680.1,608.8c-8.5-1.9-18.6-2.9-29.4-2.9c-29.8,0-53.9,8.1-53.9,18.1c0,3.6,3.2,7,8.7,9.9
					C630.4,625.5,655.2,617.1,680.1,608.8z"/>
				<path class="st34" d="M631.1,640.9c6.1,0.8,12.7,1.2,19.6,1.2c29.8,0,53.9-8.1,53.9-18.1c0-2.3-1.3-4.6-3.8-6.6
					C677.7,625.2,654.4,633,631.1,640.9z"/>
				<path class="st36" d="M599.2,625.2c0-10,24.1-18.1,53.9-18.1c18.3,0,34.5,3.1,44.3,7.8c-9.3-5.4-26.7-9-46.6-9
					c-29.8,0-53.9,8.1-53.9,18.1c0,3.8,3.6,7.4,9.6,10.3C601.8,631.7,599.2,628.5,599.2,625.2z"/>
			</g>
			<g>
				<path class="st33" d="M648.9,611.3h7.3v2c5.9,0.2,11.1,0.9,15.4,2.3l-8.1,3.4c-3-0.8-5.4-1.4-7.4-1.6v4.3
					c11.2,1.2,16.9,3.3,16.9,6.4c0,1.6-1.4,2.9-4.3,4c-2.9,1.1-7.1,1.8-12.7,2.1v2.6h-7.2v-2.6h-1.2c-2.7,0-5.9-0.3-9.5-0.8
					c-3.6-0.5-6.4-1.2-8.5-2l7.7-3.3c3.3,1.1,7.1,1.9,11.4,2.1v-5c-5.4-0.5-9.5-1.3-12.3-2.4c-2.8-1.1-4.2-2.4-4.2-3.9
					c0-1.6,1.4-2.9,4.1-4c2.7-1.1,6.9-1.7,12.5-1.8V611.3z M648.8,621v-3.7c-2.7,0.3-4.1,0.9-4.1,1.8
					C644.7,620,646.1,620.6,648.8,621z M656.1,626.2v3.9c3-0.3,4.6-0.9,4.6-1.9C660.7,627.2,659.1,626.6,656.1,626.2z"/>
			</g>
			<g>
				<path class="st32" d="M647.1,611.3h7.3v2c5.9,0.2,11.1,0.9,15.4,2.3l-8.1,3.4c-3-0.8-5.4-1.4-7.4-1.6v4.3
					c11.2,1.2,16.9,3.3,16.9,6.4c0,1.6-1.4,2.9-4.3,4c-2.9,1.1-7.1,1.8-12.7,2.1v2.6H647v-2.6h-1.2c-2.7,0-5.9-0.3-9.5-0.8
					c-3.6-0.5-6.4-1.2-8.5-2l7.7-3.3c3.3,1.1,7.1,1.9,11.4,2.1v-5c-5.4-0.5-9.5-1.3-12.3-2.4c-2.8-1.1-4.2-2.4-4.2-3.9
					c0-1.6,1.4-2.9,4.1-4c2.7-1.1,6.9-1.7,12.5-1.8V611.3z M647,621v-3.7c-2.7,0.3-4.1,0.9-4.1,1.8C642.9,620,644.3,620.6,647,621z
					 M654.3,626.2v3.9c3-0.3,4.6-0.9,4.6-1.9C658.9,627.2,657.4,626.6,654.3,626.2z"/>
			</g>
			<g>
				<path class="st33" d="M648.9,611.3h7.3v2c5.9,0.2,11.1,0.9,15.4,2.3l-8.1,3.4c-3-0.8-5.4-1.4-7.4-1.6v4.3
					c11.2,1.2,16.9,3.3,16.9,6.4c0,1.6-1.4,2.9-4.3,4c-2.9,1.1-7.1,1.8-12.7,2.1v2.6h-7.2v-2.6h-1.2c-2.7,0-5.9-0.3-9.5-0.8
					c-3.6-0.5-6.4-1.2-8.5-2l7.7-3.3c3.3,1.1,7.1,1.9,11.4,2.1v-5c-5.4-0.5-9.5-1.3-12.3-2.4c-2.8-1.1-4.2-2.4-4.2-3.9
					c0-1.6,1.4-2.9,4.1-4c2.7-1.1,6.9-1.7,12.5-1.8V611.3z M648.8,621v-3.7c-2.7,0.3-4.1,0.9-4.1,1.8
					C644.7,620,646.1,620.6,648.8,621z M656.1,626.2v3.9c3-0.3,4.6-0.9,4.6-1.9C660.7,627.2,659.1,626.6,656.1,626.2z"/>
			</g>
			<path class="st37" d="M614.3,637.4c25.4-8.6,50.7-17.1,76.1-25.6c-2.2-0.8-4.7-1.6-7.3-2.2c-25.2,8.4-50.4,16.9-75.5,25.4
				C609.6,635.8,611.8,636.6,614.3,637.4z"/>
			<path class="st37" d="M699.4,616.2c-1.8-1.3-4-2.5-6.6-3.5c-25.3,8.5-50.5,17-75.8,25.5c3.3,0.9,6.8,1.6,10.7,2.2
				C651.6,632.3,675.5,624.3,699.4,616.2z"/>
		</g>
		<g>
			<path class="st32" d="M709,611c-10.6-7.2-32.7-12.2-58.2-12.2c-25.6,0-47.6,5-58.2,12.2h-6.8v9.6h0.1c0,12.1,29.1,21.8,64.9,21.8
				c35.8,0,64.9-9.8,64.9-21.8V611H709z"/>
			<path class="st33" d="M715.6,611.1c0,12.1-29.1,21.8-64.9,21.8c-35.8,0-64.9-9.8-64.9-21.8c0-12.1,29.1-21.8,64.9-21.8
				C686.6,589.2,715.6,599,715.6,611.1z"/>
			<g>
				<path class="st34" d="M704.6,611.1c0,10-24.1,18.1-53.9,18.1s-53.9-8.1-53.9-18.1c0-10,24.1-18.1,53.9-18.1
					S704.6,601.1,704.6,611.1z"/>
				<path class="st35" d="M606.5,627c30.5-10.3,61.1-20.6,91.7-30.9c-2.2-0.8-4.7-1.6-7.3-2.3c-30.5,10.2-60.9,20.4-91.2,30.6
					C601.8,625.5,604.1,626.3,606.5,627z"/>
				<path class="st35" d="M707.5,600.5c-2-1.2-4.3-2.4-6.9-3.4c-30.5,10.2-60.9,20.5-91.4,30.7c3.2,0.9,6.6,1.7,10.3,2.4
					C648.9,620.3,678.2,610.4,707.5,600.5z"/>
				<path class="st34" d="M704.6,611.1c0,10-24.1,18.1-53.9,18.1s-53.9-8.1-53.9-18.1c0-10,24.1-18.1,53.9-18.1
					S704.6,601.1,704.6,611.1z"/>
				<path class="st34" d="M680.1,595.9c-8.5-1.9-18.6-2.9-29.4-2.9c-29.8,0-53.9,8.1-53.9,18.1c0,3.6,3.2,7,8.7,9.9
					C630.4,612.6,655.2,604.2,680.1,595.9z"/>
				<path class="st34" d="M631.1,628c6.1,0.8,12.7,1.2,19.6,1.2c29.8,0,53.9-8.1,53.9-18.1c0-2.3-1.3-4.6-3.8-6.6
					C677.7,612.3,654.4,620.1,631.1,628z"/>
				<path class="st36" d="M599.2,612.3c0-10,24.1-18.1,53.9-18.1c18.3,0,34.5,3.1,44.3,7.8c-9.3-5.4-26.7-9-46.6-9
					c-29.8,0-53.9,8.1-53.9,18.1c0,3.8,3.6,7.4,9.6,10.3C601.8,618.7,599.2,615.6,599.2,612.3z"/>
			</g>
			<g>
				<path class="st33" d="M648.9,598.3h7.3v2c5.9,0.2,11.1,0.9,15.4,2.3l-8.1,3.4c-3-0.8-5.4-1.4-7.4-1.6v4.3
					c11.2,1.2,16.9,3.3,16.9,6.4c0,1.6-1.4,2.9-4.3,4c-2.9,1.1-7.1,1.8-12.7,2.1v2.6h-7.2v-2.6h-1.2c-2.7,0-5.9-0.3-9.5-0.8
					c-3.6-0.5-6.4-1.2-8.5-2l7.7-3.3c3.3,1.1,7.1,1.9,11.4,2.1v-5c-5.4-0.5-9.5-1.3-12.3-2.4c-2.8-1.1-4.2-2.4-4.2-3.9
					c0-1.6,1.4-2.9,4.1-4c2.7-1.1,6.9-1.7,12.5-1.8V598.3z M648.8,608v-3.7c-2.7,0.3-4.1,0.9-4.1,1.8
					C644.7,607.1,646.1,607.7,648.8,608z M656.1,613.3v3.9c3-0.3,4.6-0.9,4.6-1.9C660.7,614.3,659.1,613.7,656.1,613.3z"/>
			</g>
			<g>
				<path class="st32" d="M647.1,598.3h7.3v2c5.9,0.2,11.1,0.9,15.4,2.3l-8.1,3.4c-3-0.8-5.4-1.4-7.4-1.6v4.3
					c11.2,1.2,16.9,3.3,16.9,6.4c0,1.6-1.4,2.9-4.3,4c-2.9,1.1-7.1,1.8-12.7,2.1v2.6H647v-2.6h-1.2c-2.7,0-5.9-0.3-9.5-0.8
					c-3.6-0.5-6.4-1.2-8.5-2l7.7-3.3c3.3,1.1,7.1,1.9,11.4,2.1v-5c-5.4-0.5-9.5-1.3-12.3-2.4c-2.8-1.1-4.2-2.4-4.2-3.9
					c0-1.6,1.4-2.9,4.1-4c2.7-1.1,6.9-1.7,12.5-1.8V598.3z M647,608v-3.7c-2.7,0.3-4.1,0.9-4.1,1.8C642.9,607.1,644.3,607.7,647,608
					z M654.3,613.3v3.9c3-0.3,4.6-0.9,4.6-1.9C658.9,614.3,657.4,613.7,654.3,613.3z"/>
			</g>
			<g>
				<path class="st33" d="M648.9,598.3h7.3v2c5.9,0.2,11.1,0.9,15.4,2.3l-8.1,3.4c-3-0.8-5.4-1.4-7.4-1.6v4.3
					c11.2,1.2,16.9,3.3,16.9,6.4c0,1.6-1.4,2.9-4.3,4c-2.9,1.1-7.1,1.8-12.7,2.1v2.6h-7.2v-2.6h-1.2c-2.7,0-5.9-0.3-9.5-0.8
					c-3.6-0.5-6.4-1.2-8.5-2l7.7-3.3c3.3,1.1,7.1,1.9,11.4,2.1v-5c-5.4-0.5-9.5-1.3-12.3-2.4c-2.8-1.1-4.2-2.4-4.2-3.9
					c0-1.6,1.4-2.9,4.1-4c2.7-1.1,6.9-1.7,12.5-1.8V598.3z M648.8,608v-3.7c-2.7,0.3-4.1,0.9-4.1,1.8
					C644.7,607.1,646.1,607.7,648.8,608z M656.1,613.3v3.9c3-0.3,4.6-0.9,4.6-1.9C660.7,614.3,659.1,613.7,656.1,613.3z"/>
			</g>
			<path class="st37" d="M614.3,624.4c25.4-8.6,50.7-17.1,76.1-25.6c-2.2-0.8-4.7-1.6-7.3-2.2c-25.2,8.4-50.4,16.9-75.5,25.4
				C609.6,622.8,611.8,623.7,614.3,624.4z"/>
			<path class="st37" d="M699.4,603.2c-1.8-1.3-4-2.5-6.6-3.5c-25.3,8.5-50.5,17-75.8,25.5c3.3,0.9,6.8,1.6,10.7,2.2
				C651.6,619.4,675.5,611.3,699.4,603.2z"/>
		</g>
	</g>
	<g>
		<g>
			<path class="st32" d="M709,598.9c-10.6-7.2-32.7-12.2-58.2-12.2c-25.6,0-47.6,5-58.2,12.2h-6.8v9.6h0.1
				c0,12.1,29.1,21.8,64.9,21.8c35.8,0,64.9-9.8,64.9-21.8v-9.6H709z"/>
			<path class="st33" d="M715.6,599c0,12.1-29.1,21.8-64.9,21.8c-35.8,0-64.9-9.8-64.9-21.8c0-12.1,29.1-21.8,64.9-21.8
				C686.6,577.1,715.6,586.9,715.6,599z"/>
			<g>
				<path class="st34" d="M704.6,599c0,10-24.1,18.1-53.9,18.1s-53.9-8.1-53.9-18.1c0-10,24.1-18.1,53.9-18.1S704.6,589,704.6,599z"
					/>
				<path class="st35" d="M606.5,615c30.5-10.3,61.1-20.6,91.7-30.9c-2.2-0.8-4.7-1.6-7.3-2.3c-30.5,10.2-60.9,20.4-91.2,30.6
					C601.8,613.4,604.1,614.2,606.5,615z"/>
				<path class="st35" d="M707.5,588.4c-2-1.2-4.3-2.4-6.9-3.4c-30.5,10.2-60.9,20.5-91.4,30.7c3.2,0.9,6.6,1.7,10.3,2.4
					C648.9,608.2,678.2,598.3,707.5,588.4z"/>
				<path class="st34" d="M704.6,599c0,10-24.1,18.1-53.9,18.1s-53.9-8.1-53.9-18.1c0-10,24.1-18.1,53.9-18.1S704.6,589,704.6,599z"
					/>
				<path class="st34" d="M680.1,583.8c-8.5-1.9-18.6-2.9-29.4-2.9c-29.8,0-53.9,8.1-53.9,18.1c0,3.6,3.2,7,8.7,9.9
					C630.4,600.5,655.2,592.1,680.1,583.8z"/>
				<path class="st34" d="M631.1,615.9c6.1,0.8,12.7,1.2,19.6,1.2c29.8,0,53.9-8.1,53.9-18.1c0-2.3-1.3-4.6-3.8-6.6
					C677.7,600.2,654.4,608,631.1,615.9z"/>
				<path class="st36" d="M599.2,600.2c0-10,24.1-18.1,53.9-18.1c18.3,0,34.5,3.1,44.3,7.8c-9.3-5.4-26.7-9-46.6-9
					c-29.8,0-53.9,8.1-53.9,18.1c0,3.8,3.6,7.4,9.6,10.3C601.8,606.6,599.2,603.5,599.2,600.2z"/>
			</g>
			<g>
				<path class="st33" d="M648.9,586.2h7.3v2c5.9,0.2,11.1,0.9,15.4,2.3l-8.1,3.4c-3-0.8-5.4-1.4-7.4-1.6v4.3
					c11.2,1.2,16.9,3.3,16.9,6.4c0,1.6-1.4,2.9-4.3,4c-2.9,1.1-7.1,1.8-12.7,2.1v2.6h-7.2v-2.6h-1.2c-2.7,0-5.9-0.3-9.5-0.8
					c-3.6-0.5-6.4-1.2-8.5-2l7.7-3.3c3.3,1.1,7.1,1.9,11.4,2.1v-5c-5.4-0.5-9.5-1.3-12.3-2.4c-2.8-1.1-4.2-2.4-4.2-3.9
					c0-1.6,1.4-2.9,4.1-4c2.7-1.1,6.9-1.7,12.5-1.8V586.2z M648.8,595.9v-3.7c-2.7,0.3-4.1,0.9-4.1,1.8
					C644.7,595,646.1,595.6,648.8,595.9z M656.1,601.2v3.9c3-0.3,4.6-0.9,4.6-1.9C660.7,602.2,659.1,601.6,656.1,601.2z"/>
			</g>
			<g>
				<path class="st32" d="M647.1,586.2h7.3v2c5.9,0.2,11.1,0.9,15.4,2.3l-8.1,3.4c-3-0.8-5.4-1.4-7.4-1.6v4.3
					c11.2,1.2,16.9,3.3,16.9,6.4c0,1.6-1.4,2.9-4.3,4c-2.9,1.1-7.1,1.8-12.7,2.1v2.6H647v-2.6h-1.2c-2.7,0-5.9-0.3-9.5-0.8
					c-3.6-0.5-6.4-1.2-8.5-2l7.7-3.3c3.3,1.1,7.1,1.9,11.4,2.1v-5c-5.4-0.5-9.5-1.3-12.3-2.4c-2.8-1.1-4.2-2.4-4.2-3.9
					c0-1.6,1.4-2.9,4.1-4c2.7-1.1,6.9-1.7,12.5-1.8V586.2z M647,595.9v-3.7c-2.7,0.3-4.1,0.9-4.1,1.8
					C642.9,595,644.3,595.6,647,595.9z M654.3,601.2v3.9c3-0.3,4.6-0.9,4.6-1.9C658.9,602.2,657.4,601.6,654.3,601.2z"/>
			</g>
			<g>
				<path class="st33" d="M648.9,586.2h7.3v2c5.9,0.2,11.1,0.9,15.4,2.3l-8.1,3.4c-3-0.8-5.4-1.4-7.4-1.6v4.3
					c11.2,1.2,16.9,3.3,16.9,6.4c0,1.6-1.4,2.9-4.3,4c-2.9,1.1-7.1,1.8-12.7,2.1v2.6h-7.2v-2.6h-1.2c-2.7,0-5.9-0.3-9.5-0.8
					c-3.6-0.5-6.4-1.2-8.5-2l7.7-3.3c3.3,1.1,7.1,1.9,11.4,2.1v-5c-5.4-0.5-9.5-1.3-12.3-2.4c-2.8-1.1-4.2-2.4-4.2-3.9
					c0-1.6,1.4-2.9,4.1-4c2.7-1.1,6.9-1.7,12.5-1.8V586.2z M648.8,595.9v-3.7c-2.7,0.3-4.1,0.9-4.1,1.8
					C644.7,595,646.1,595.6,648.8,595.9z M656.1,601.2v3.9c3-0.3,4.6-0.9,4.6-1.9C660.7,602.2,659.1,601.6,656.1,601.2z"/>
			</g>
			<path class="st37" d="M614.3,612.3c25.4-8.6,50.7-17.1,76.1-25.6c-2.2-0.8-4.7-1.6-7.3-2.2c-25.2,8.4-50.4,16.9-75.5,25.4
				C609.6,610.7,611.8,611.6,614.3,612.3z"/>
			<path class="st37" d="M699.4,591.2c-1.8-1.3-4-2.5-6.6-3.5c-25.3,8.5-50.5,17-75.8,25.5c3.3,0.9,6.8,1.6,10.7,2.2
				C651.6,607.3,675.5,599.2,699.4,591.2z"/>
		</g>
		<g>
			<path class="st32" d="M709,586c-10.6-7.2-32.7-12.2-58.2-12.2c-25.6,0-47.6,5-58.2,12.2h-6.8v9.6h0.1c0,12.1,29.1,21.8,64.9,21.8
				c35.8,0,64.9-9.8,64.9-21.8V586H709z"/>
			<path class="st33" d="M715.6,586.1c0,12.1-29.1,21.8-64.9,21.8c-35.8,0-64.9-9.8-64.9-21.8c0-12.1,29.1-21.8,64.9-21.8
				C686.6,564.2,715.6,574,715.6,586.1z"/>
			<g>
				<path class="st34" d="M704.6,586.1c0,10-24.1,18.1-53.9,18.1s-53.9-8.1-53.9-18.1c0-10,24.1-18.1,53.9-18.1
					S704.6,576,704.6,586.1z"/>
				<path class="st35" d="M606.5,602c30.5-10.3,61.1-20.6,91.7-30.9c-2.2-0.8-4.7-1.6-7.3-2.3c-30.5,10.2-60.9,20.4-91.2,30.6
					C601.8,600.4,604.1,601.3,606.5,602z"/>
				<path class="st35" d="M707.5,575.5c-2-1.2-4.3-2.4-6.9-3.4c-30.5,10.2-60.9,20.5-91.4,30.7c3.2,0.9,6.6,1.7,10.3,2.4
					C648.9,595.3,678.2,585.4,707.5,575.5z"/>
				<path class="st34" d="M704.6,586.1c0,10-24.1,18.1-53.9,18.1s-53.9-8.1-53.9-18.1c0-10,24.1-18.1,53.9-18.1
					S704.6,576,704.6,586.1z"/>
				<path class="st34" d="M680.1,570.9c-8.5-1.9-18.6-2.9-29.4-2.9c-29.8,0-53.9,8.1-53.9,18.1c0,3.6,3.2,7,8.7,9.9
					C630.4,587.6,655.2,579.2,680.1,570.9z"/>
				<path class="st34" d="M631.1,603c6.1,0.8,12.7,1.2,19.6,1.2c29.8,0,53.9-8.1,53.9-18.1c0-2.3-1.3-4.6-3.8-6.6
					C677.7,587.3,654.4,595.1,631.1,603z"/>
				<path class="st36" d="M599.2,587.3c0-10,24.1-18.1,53.9-18.1c18.3,0,34.5,3.1,44.3,7.8c-9.3-5.4-26.7-9-46.6-9
					c-29.8,0-53.9,8.1-53.9,18.1c0,3.8,3.6,7.4,9.6,10.3C601.8,593.7,599.2,590.6,599.2,587.3z"/>
			</g>
			<g>
				<path class="st33" d="M648.9,573.3h7.3v2c5.9,0.2,11.1,0.9,15.4,2.3l-8.1,3.4c-3-0.8-5.4-1.4-7.4-1.6v4.3
					c11.2,1.2,16.9,3.3,16.9,6.4c0,1.6-1.4,2.9-4.3,4c-2.9,1.1-7.1,1.8-12.7,2.1v2.6h-7.2v-2.6h-1.2c-2.7,0-5.9-0.3-9.5-0.8
					c-3.6-0.5-6.4-1.2-8.5-2l7.7-3.3c3.3,1.1,7.1,1.9,11.4,2.1v-5c-5.4-0.5-9.5-1.3-12.3-2.4c-2.8-1.1-4.2-2.4-4.2-3.9
					c0-1.6,1.4-2.9,4.1-4c2.7-1.1,6.9-1.7,12.5-1.8V573.3z M648.8,583v-3.7c-2.7,0.3-4.1,0.9-4.1,1.8
					C644.7,582.1,646.1,582.7,648.8,583z M656.1,588.3v3.9c3-0.3,4.6-0.9,4.6-1.9C660.7,589.3,659.1,588.7,656.1,588.3z"/>
			</g>
			<g>
				<path class="st32" d="M647.1,573.3h7.3v2c5.9,0.2,11.1,0.9,15.4,2.3l-8.1,3.4c-3-0.8-5.4-1.4-7.4-1.6v4.3
					c11.2,1.2,16.9,3.3,16.9,6.4c0,1.6-1.4,2.9-4.3,4c-2.9,1.1-7.1,1.8-12.7,2.1v2.6H647v-2.6h-1.2c-2.7,0-5.9-0.3-9.5-0.8
					c-3.6-0.5-6.4-1.2-8.5-2l7.7-3.3c3.3,1.1,7.1,1.9,11.4,2.1v-5c-5.4-0.5-9.5-1.3-12.3-2.4c-2.8-1.1-4.2-2.4-4.2-3.9
					c0-1.6,1.4-2.9,4.1-4c2.7-1.1,6.9-1.7,12.5-1.8V573.3z M647,583v-3.7c-2.7,0.3-4.1,0.9-4.1,1.8C642.9,582.1,644.3,582.7,647,583
					z M654.3,588.3v3.9c3-0.3,4.6-0.9,4.6-1.9C658.9,589.3,657.4,588.7,654.3,588.3z"/>
			</g>
			<g>
				<path class="st33" d="M648.9,573.3h7.3v2c5.9,0.2,11.1,0.9,15.4,2.3l-8.1,3.4c-3-0.8-5.4-1.4-7.4-1.6v4.3
					c11.2,1.2,16.9,3.3,16.9,6.4c0,1.6-1.4,2.9-4.3,4c-2.9,1.1-7.1,1.8-12.7,2.1v2.6h-7.2v-2.6h-1.2c-2.7,0-5.9-0.3-9.5-0.8
					c-3.6-0.5-6.4-1.2-8.5-2l7.7-3.3c3.3,1.1,7.1,1.9,11.4,2.1v-5c-5.4-0.5-9.5-1.3-12.3-2.4c-2.8-1.1-4.2-2.4-4.2-3.9
					c0-1.6,1.4-2.9,4.1-4c2.7-1.1,6.9-1.7,12.5-1.8V573.3z M648.8,583v-3.7c-2.7,0.3-4.1,0.9-4.1,1.8
					C644.7,582.1,646.1,582.7,648.8,583z M656.1,588.3v3.9c3-0.3,4.6-0.9,4.6-1.9C660.7,589.3,659.1,588.7,656.1,588.3z"/>
			</g>
			<path class="st37" d="M614.3,599.4c25.4-8.6,50.7-17.1,76.1-25.6c-2.2-0.8-4.7-1.6-7.3-2.2c-25.2,8.4-50.4,16.9-75.5,25.4
				C609.6,597.8,611.8,598.7,614.3,599.4z"/>
			<path class="st37" d="M699.4,578.2c-1.8-1.3-4-2.5-6.6-3.5c-25.3,8.5-50.5,17-75.8,25.5c3.3,0.9,6.8,1.6,10.7,2.2
				C651.6,594.4,675.5,586.3,699.4,578.2z"/>
		</g>
		<g>
			<path class="st32" d="M709,571.7c-10.6-7.2-32.7-12.2-58.2-12.2c-25.6,0-47.6,5-58.2,12.2h-6.8v9.6h0.1
				c0,12.1,29.1,21.8,64.9,21.8c35.8,0,64.9-9.8,64.9-21.8v-9.6H709z"/>
			<path class="st33" d="M715.6,571.8c0,12.1-29.1,21.8-64.9,21.8c-35.8,0-64.9-9.8-64.9-21.8c0-12.1,29.1-21.8,64.9-21.8
				C686.6,550,715.6,559.8,715.6,571.8z"/>
			<g>
				<path class="st34" d="M704.6,571.8c0,10-24.1,18.1-53.9,18.1s-53.9-8.1-53.9-18.1c0-10,24.1-18.1,53.9-18.1
					S704.6,561.8,704.6,571.8z"/>
				<path class="st35" d="M606.5,587.8c30.5-10.3,61.1-20.6,91.7-30.9c-2.2-0.8-4.7-1.6-7.3-2.3c-30.5,10.2-60.9,20.4-91.2,30.6
					C601.8,586.2,604.1,587.1,606.5,587.8z"/>
				<path class="st35" d="M707.5,561.3c-2-1.2-4.3-2.4-6.9-3.4c-30.5,10.2-60.9,20.5-91.4,30.7c3.2,0.9,6.6,1.7,10.3,2.4
					C648.9,581.1,678.2,571.2,707.5,561.3z"/>
				<path class="st34" d="M704.6,571.8c0,10-24.1,18.1-53.9,18.1s-53.9-8.1-53.9-18.1c0-10,24.1-18.1,53.9-18.1
					S704.6,561.8,704.6,571.8z"/>
				<path class="st34" d="M680.1,556.6c-8.5-1.9-18.6-2.9-29.4-2.9c-29.8,0-53.9,8.1-53.9,18.1c0,3.6,3.2,7,8.7,9.9
					C630.4,573.3,655.2,565,680.1,556.6z"/>
				<path class="st34" d="M631.1,588.7c6.1,0.8,12.7,1.2,19.6,1.2c29.8,0,53.9-8.1,53.9-18.1c0-2.3-1.3-4.6-3.8-6.7
					C677.7,573.1,654.4,580.9,631.1,588.7z"/>
				<path class="st36" d="M599.2,573.1c0-10,24.1-18.1,53.9-18.1c18.3,0,34.5,3.1,44.3,7.8c-9.3-5.4-26.7-9-46.6-9
					c-29.8,0-53.9,8.1-53.9,18.1c0,3.8,3.6,7.4,9.6,10.3C601.8,579.5,599.2,576.4,599.2,573.1z"/>
			</g>
			<g>
				<path class="st33" d="M648.9,559.1h7.3v2c5.9,0.2,11.1,0.9,15.4,2.3l-8.1,3.4c-3-0.8-5.4-1.4-7.4-1.6v4.3
					c11.2,1.2,16.9,3.3,16.9,6.4c0,1.6-1.4,2.9-4.3,4c-2.9,1.1-7.1,1.8-12.7,2.1v2.6h-7.2v-2.6h-1.2c-2.7,0-5.9-0.3-9.5-0.8
					c-3.6-0.5-6.4-1.2-8.5-2l7.7-3.3c3.3,1.1,7.1,1.9,11.4,2.1v-5c-5.4-0.5-9.5-1.3-12.3-2.4c-2.8-1.1-4.2-2.4-4.2-3.9
					c0-1.6,1.4-2.9,4.1-4c2.7-1.1,6.9-1.7,12.5-1.8V559.1z M648.8,568.8v-3.7c-2.7,0.3-4.1,0.9-4.1,1.8
					C644.7,567.8,646.1,568.5,648.8,568.8z M656.1,574.1v3.9c3-0.3,4.6-0.9,4.6-1.9C660.7,575.1,659.1,574.4,656.1,574.1z"/>
			</g>
			<g>
				<path class="st32" d="M647.1,559.1h7.3v2c5.9,0.2,11.1,0.9,15.4,2.3l-8.1,3.4c-3-0.8-5.4-1.4-7.4-1.6v4.3
					c11.2,1.2,16.9,3.3,16.9,6.4c0,1.6-1.4,2.9-4.3,4c-2.9,1.1-7.1,1.8-12.7,2.1v2.6H647v-2.6h-1.2c-2.7,0-5.9-0.3-9.5-0.8
					c-3.6-0.5-6.4-1.2-8.5-2l7.7-3.3c3.3,1.1,7.1,1.9,11.4,2.1v-5c-5.4-0.5-9.5-1.3-12.3-2.4c-2.8-1.1-4.2-2.4-4.2-3.9
					c0-1.6,1.4-2.9,4.1-4c2.7-1.1,6.9-1.7,12.5-1.8V559.1z M647,568.8v-3.7c-2.7,0.3-4.1,0.9-4.1,1.8
					C642.9,567.8,644.3,568.5,647,568.8z M654.3,574.1v3.9c3-0.3,4.6-0.9,4.6-1.9C658.9,575.1,657.4,574.4,654.3,574.1z"/>
			</g>
			<g>
				<path class="st33" d="M648.9,559.1h7.3v2c5.9,0.2,11.1,0.9,15.4,2.3l-8.1,3.4c-3-0.8-5.4-1.4-7.4-1.6v4.3
					c11.2,1.2,16.9,3.3,16.9,6.4c0,1.6-1.4,2.9-4.3,4c-2.9,1.1-7.1,1.8-12.7,2.1v2.6h-7.2v-2.6h-1.2c-2.7,0-5.9-0.3-9.5-0.8
					c-3.6-0.5-6.4-1.2-8.5-2l7.7-3.3c3.3,1.1,7.1,1.9,11.4,2.1v-5c-5.4-0.5-9.5-1.3-12.3-2.4c-2.8-1.1-4.2-2.4-4.2-3.9
					c0-1.6,1.4-2.9,4.1-4c2.7-1.1,6.9-1.7,12.5-1.8V559.1z M648.8,568.8v-3.7c-2.7,0.3-4.1,0.9-4.1,1.8
					C644.7,567.8,646.1,568.5,648.8,568.8z M656.1,574.1v3.9c3-0.3,4.6-0.9,4.6-1.9C660.7,575.1,659.1,574.4,656.1,574.1z"/>
			</g>
			<path class="st37" d="M614.3,585.2c25.4-8.6,50.7-17.1,76.1-25.6c-2.2-0.8-4.7-1.6-7.3-2.2c-25.2,8.4-50.4,16.9-75.5,25.4
				C609.6,583.6,611.8,584.4,614.3,585.2z"/>
			<path class="st37" d="M699.4,564c-1.8-1.3-4-2.5-6.6-3.5c-25.3,8.5-50.5,17-75.8,25.5c3.3,0.9,6.8,1.6,10.7,2.2
				C651.6,580.2,675.5,572.1,699.4,564z"/>
		</g>
		<g>
			<path class="st32" d="M709,558.8c-10.6-7.2-32.7-12.2-58.2-12.2c-25.6,0-47.6,5-58.2,12.2h-6.8v9.6h0.1
				c0,12.1,29.1,21.8,64.9,21.8c35.8,0,64.9-9.8,64.9-21.8v-9.6H709z"/>
			<path class="st33" d="M715.6,558.9c0,12.1-29.1,21.8-64.9,21.8c-35.8,0-64.9-9.8-64.9-21.8c0-12.1,29.1-21.8,64.9-21.8
				C686.6,537.1,715.6,546.9,715.6,558.9z"/>
			<g>
				<path class="st34" d="M704.6,558.9c0,10-24.1,18.1-53.9,18.1s-53.9-8.1-53.9-18.1c0-10,24.1-18.1,53.9-18.1
					S704.6,548.9,704.6,558.9z"/>
				<path class="st35" d="M606.5,574.9c30.5-10.3,61.1-20.6,91.7-30.9c-2.2-0.8-4.7-1.6-7.3-2.3c-30.5,10.2-60.9,20.4-91.2,30.6
					C601.8,573.3,604.1,574.1,606.5,574.9z"/>
				<path class="st35" d="M707.5,548.4c-2-1.2-4.3-2.4-6.9-3.4c-30.5,10.2-60.9,20.5-91.4,30.7c3.2,0.9,6.6,1.7,10.3,2.4
					C648.9,568.2,678.2,558.3,707.5,548.4z"/>
				<path class="st34" d="M704.6,558.9c0,10-24.1,18.1-53.9,18.1s-53.9-8.1-53.9-18.1c0-10,24.1-18.1,53.9-18.1
					S704.6,548.9,704.6,558.9z"/>
				<path class="st34" d="M680.1,543.7c-8.5-1.9-18.6-2.9-29.4-2.9c-29.8,0-53.9,8.1-53.9,18.1c0,3.6,3.2,7,8.7,9.9
					C630.4,560.4,655.2,552.1,680.1,543.7z"/>
				<path class="st34" d="M631.1,575.8c6.1,0.8,12.7,1.2,19.6,1.2c29.8,0,53.9-8.1,53.9-18.1c0-2.3-1.3-4.6-3.8-6.6
					C677.7,560.1,654.4,568,631.1,575.8z"/>
				<path class="st36" d="M599.2,560.2c0-10,24.1-18.1,53.9-18.1c18.3,0,34.5,3.1,44.3,7.8c-9.3-5.4-26.7-9-46.6-9
					c-29.8,0-53.9,8.1-53.9,18.1c0,3.8,3.6,7.4,9.6,10.3C601.8,566.6,599.2,563.5,599.2,560.2z"/>
			</g>
			<g>
				<path class="st33" d="M648.9,546.2h7.3v2c5.9,0.2,11.1,0.9,15.4,2.3l-8.1,3.4c-3-0.8-5.4-1.4-7.4-1.6v4.3
					c11.2,1.2,16.9,3.3,16.9,6.4c0,1.6-1.4,2.9-4.3,4c-2.9,1.1-7.1,1.8-12.7,2.1v2.6h-7.2v-2.6h-1.2c-2.7,0-5.9-0.3-9.5-0.8
					c-3.6-0.5-6.4-1.2-8.5-2l7.7-3.3c3.3,1.1,7.1,1.9,11.4,2.1v-5c-5.4-0.5-9.5-1.3-12.3-2.4c-2.8-1.1-4.2-2.4-4.2-3.9
					c0-1.6,1.4-2.9,4.1-4c2.7-1.1,6.9-1.7,12.5-1.8V546.2z M648.8,555.9v-3.7c-2.7,0.3-4.1,0.9-4.1,1.8
					C644.7,554.9,646.1,555.6,648.8,555.9z M656.1,561.2v3.9c3-0.3,4.6-0.9,4.6-1.9C660.7,562.2,659.1,561.5,656.1,561.2z"/>
			</g>
			<g>
				<path class="st32" d="M647.1,546.2h7.3v2c5.9,0.2,11.1,0.9,15.4,2.3l-8.1,3.4c-3-0.8-5.4-1.4-7.4-1.6v4.3
					c11.2,1.2,16.9,3.3,16.9,6.4c0,1.6-1.4,2.9-4.3,4c-2.9,1.1-7.1,1.8-12.7,2.1v2.6H647v-2.6h-1.2c-2.7,0-5.9-0.3-9.5-0.8
					c-3.6-0.5-6.4-1.2-8.5-2l7.7-3.3c3.3,1.1,7.1,1.9,11.4,2.1v-5c-5.4-0.5-9.5-1.3-12.3-2.4c-2.8-1.1-4.2-2.4-4.2-3.9
					c0-1.6,1.4-2.9,4.1-4c2.7-1.1,6.9-1.7,12.5-1.8V546.2z M647,555.9v-3.7c-2.7,0.3-4.1,0.9-4.1,1.8
					C642.9,554.9,644.3,555.6,647,555.9z M654.3,561.2v3.9c3-0.3,4.6-0.9,4.6-1.9C658.9,562.2,657.4,561.5,654.3,561.2z"/>
			</g>
			<g>
				<path class="st33" d="M648.9,546.2h7.3v2c5.9,0.2,11.1,0.9,15.4,2.3l-8.1,3.4c-3-0.8-5.4-1.4-7.4-1.6v4.3
					c11.2,1.2,16.9,3.3,16.9,6.4c0,1.6-1.4,2.9-4.3,4c-2.9,1.1-7.1,1.8-12.7,2.1v2.6h-7.2v-2.6h-1.2c-2.7,0-5.9-0.3-9.5-0.8
					c-3.6-0.5-6.4-1.2-8.5-2l7.7-3.3c3.3,1.1,7.1,1.9,11.4,2.1v-5c-5.4-0.5-9.5-1.3-12.3-2.4c-2.8-1.1-4.2-2.4-4.2-3.9
					c0-1.6,1.4-2.9,4.1-4c2.7-1.1,6.9-1.7,12.5-1.8V546.2z M648.8,555.9v-3.7c-2.7,0.3-4.1,0.9-4.1,1.8
					C644.7,554.9,646.1,555.6,648.8,555.9z M656.1,561.2v3.9c3-0.3,4.6-0.9,4.6-1.9C660.7,562.2,659.1,561.5,656.1,561.2z"/>
			</g>
			<path class="st37" d="M614.3,572.3c25.4-8.6,50.7-17.1,76.1-25.6c-2.2-0.8-4.7-1.6-7.3-2.2c-25.2,8.4-50.4,16.9-75.5,25.4
				C609.6,570.7,611.8,571.5,614.3,572.3z"/>
			<path class="st37" d="M699.4,551.1c-1.8-1.3-4-2.5-6.6-3.5c-25.3,8.5-50.5,17-75.8,25.5c3.3,0.9,6.8,1.6,10.7,2.2
				C651.6,567.2,675.5,559.2,699.4,551.1z"/>
		</g>
	</g>
</g>
</svg>
