<?xml version="1.0" encoding="utf-8"?>
<!-- Generator: Adobe Illustrator 22.0.1, SVG Export Plug-In . SVG Version: 6.00 Build 0)  -->
<svg version="1.1" id="_x31_c04cb57-5b83-4fe5-b665-05639f110a33"
	 xmlns="http://www.w3.org/2000/svg" xmlns:xlink="http://www.w3.org/1999/xlink" x="0px" y="0px" viewBox="0 0 1134 812.3"
	 style="enable-background:new 0 0 1134 812.3;" xml:space="preserve">
<style type="text/css">
	.st0{opacity:0.1;fill:#6C63FF;enable-background:new    ;}
	.st1{opacity:0.3;fill:#FFFFFF;enable-background:new    ;}
	.st2{fill:#FFE6F2;}
	.st3{fill:#0984E3;}
	.st4{fill:#838383;}
	.st5{fill:#00CEC9;}
	.st6{fill:#D63031;}
	.st7{fill:#9B9B9B;}
	.st8{fill:#CECECE;}
	.st9{fill:#ECECEC;}
	.st10{fill:#6BD9E7;}
	.st11{fill:#A6E7F0;}
</style>
<title>city driver</title>
<ellipse class="st0" cx="1023.4" cy="788.6" rx="29.9" ry="5.1"/>
<ellipse class="st0" cx="1117.2" cy="694.2" rx="16.9" ry="2.8"/>
<path class="st1" d="M514.3,784.5c1.3-0.8,2.7-1.3,4.2-1.4c2.8,0.3,5.6,0.2,8.4-0.3c-0.7,2.4-0.9,4.9-0.6,7.4l-2.5-0.1
	C523.7,790.1,514.2,788,514.3,784.5z"/>
<g>
	<g id="XMLID_1_">
		<g>
			<path class="st2" d="M961.4,252.2c18.7,69.6,21.9,144.5-4.6,208.8c-28.6,69.4-92.5,122-167.4,138.2c-22.9,5-46.8,6.7-68.2,15.5
				c-18.6,7.7-34.4,21.4-39.5,41.1c-4.2,16.2-7.7,26.3-19,39.4c-23.6,27.3-51.4,50.5-82.6,69.2c-1.3,0.8-2.6,1.5-3.9,2.2
				c-82.1,47.9-184.7,64.5-281.4,40c-2.6-0.6-5.1-1.3-7.7-2c-60.5-16.9-120.1-51.8-149.4-106.9c-26.4-49.5-25-107.7-13.1-160.1
				c15.9-70.6,50.4-135.5,97.9-189c8.2-9.4,17-18.4,26.2-27.1c31.6-30.2,67.6-55.7,107.1-75.6c11.4-5.8,23-11,34.9-15.8
				c19.9-8,40.4-14.5,61.4-19.6c5.3-1.2,10.6-2.4,16-3.5c3.8-0.8,7.5-1.5,11.2-2.1c7.8-1.6,15.5-3.5,22.7-6.8
				c2.2-0.9,4.2-2.1,6.3-3.2c20.3-12,33.1-34.1,41.5-56.4c6.4-16.9,10.9-34.8,17.3-51.6c2.8-7.5,6.2-14.8,10.1-21.8
				c8.9-15.6,21.2-28.8,36.1-38.9l1.3-0.9c2.2-1.5,4.3-2.8,6.5-4.1l1.4-0.8c2.2-1.2,4.4-2.5,6.6-3.5l1.5-0.7
				c2.4-1.2,4.7-2.2,7.1-3.2c0.8-0.3,1.7-0.7,2.5-1c13.7-5.4,28.3-8.8,43.4-9.9c0.3,0,0.8,0,1.3-0.2c2.1-0.1,4.3-0.3,6.5-0.3
				c0.8,0,1.6-0.1,2.4-0.1c2.6,0,5.1,0.1,7.7,0.2c0.4-0.1,0.8,0.1,1.1,0.1c10.6,0.6,21.2,2.5,31.6,5.6c0.3,0.1,0.7,0.2,1,0.3
				c3.2,1,6.4,2.2,9.7,3.4c1.3,0.6,2.6,1.1,4.1,1.7c0.4,0.2,0.8,0.3,1.2,0.5c18.7,8.4,35.7,20.8,52.4,33.6c1.9,1.5,3.9,3,5.9,4.5
				c26.7,20.7,53.9,42,77.5,66.1c0.2,0.1,0.3,0.4,0.5,0.5c8,8.1,15.5,16.5,22.6,25.4c7.4,9.3,14.3,18.9,20.3,29.1
				C943.8,197,953.8,224.4,961.4,252.2z"/>
		</g>
		<g>
		</g>
	</g>
</g>
<g>
	<g id="XMLID_2_">
		<g>
			<path class="st3" d="M686.3,356.2c5.4,10.8,4.4,21.8,4.4,35.8v11.3c0,12.7,0.3,21.5-7.7,23.4c-0.1-3.5-1.8-6.4-4-6.8
				c1.2-4.1,1.1-9.8,1.1-16.7v-8.5c0-14-0.6-23.2-6-34l-9.8-19.7l-0.4-6l0,0l2.3-6.3c1.3-3.6,5-3,6.6,0.2L686.3,356.2z"/>
			<path class="st3" d="M686.5,162.9v14.7c0,6.3-3.1,11.4-7,11.4H642c3.8,0,7-5.1,7-11.4v-14.7c0-14.4-7.3-26.1-16.1-26.1h37.5
				C679.2,136.9,686.5,148.6,686.5,162.9z"/>
			<path class="st4" d="M674.2,546c6.8,0,12.3,8.9,12.3,19.8s-5.5,19.8-12.3,19.8h-24.7c6.8,0,12.3-8.9,12.3-19.8
				c0-10.9-5.5-19.8-12.3-19.8L674.2,546L674.2,546z"/>
			<path class="st4" d="M683,427.1v23.1c0,16.9-8.5,30.6-18.9,30.6h-43.3c-0.3,0-0.5,0-0.8-0.1v-7.1v-7.1c0.3-0.1,0.5-0.1,0.8-0.1
				h43.3c5.5,0,10-7.3,10-16.2V427h3.7h1.4c1.4,0,2.7-0.1,3.8-0.4C683,426.8,683,427,683,427.1z"/>
			<path class="st3" d="M679,420c2.2,0.3,3.9,3.2,4,6.8c-1.1,0.3-2.4,0.4-3.8,0.4h-1.4h-3.7c0-0.3,0-0.7,0.1-1
				C676.7,425,678.2,422.9,679,420z"/>
			<path class="st5" d="M680.1,403.3c0,6.9,0.1,12.6-1.1,16.7c-0.1,0-0.3,0-0.4,0c-2.3,0-4.1,2.7-4.4,6.2c-1.5,0.7-3.3,1-5.6,1h-3.5
				c-3.7,0-4.5-0.5-6-6l-7.5-28.4c-2.3-8.9-4.2-12.4-1.3-20.6l2.9-7.9l12.3-6.5l-1.2-16.6l9.8,19.7c5.4,10.8,6,20,6,34L680.1,403.3
				L680.1,403.3z"/>
			<path class="st5" d="M678.5,419.9c0.1,0,0.3,0,0.4,0c-0.8,2.9-2.3,5-4.8,6.1C674.4,422.6,676.3,419.9,678.5,419.9z"/>
			<path class="st5" d="M674.1,426.1c0,0.3-0.1,0.7-0.1,1h-5.5C670.8,427.1,672.7,426.8,674.1,426.1z"/>
			<polygon class="st5" points="664.3,341 665.5,357.6 653.2,364.1 658.5,349.6 658.5,349.6 662.8,337.9 			"/>
			<polygon class="st6" points="664.3,341 662.8,337.9 663.8,335 			"/>
			<path class="st4" d="M663.8,335L663.8,335l-1.1,3l-4.2,11.6l-6.4-10.9c-6.2-10.3-7.4-10-15.6-10h-16.6v-14.6h21.9
				c8.1,0,9.4-0.3,15.6,10L663.8,335z"/>
			<polygon class="st4" points="662.8,337.9 658.5,349.6 658.5,349.6 			"/>
			<path class="st7" d="M649.5,546c6.8,0,12.3,8.9,12.3,19.8s-5.5,19.8-12.3,19.8H410c-6.8,0-12.3-8.9-12.3-19.8
				c0-10.9,5.5-19.8,12.3-19.8h5.1l11.5,16.3l11.5-16.3h31.5l0,0l80.3,17.5l83.9-17.5L649.5,546L649.5,546z"/>
			<path class="st7" d="M652.1,338.7l6.4,10.9l-5.3,14.6l-3.9-7c-3.2-5.5-4.9-10.6-10.2-10.6h-19.2v-17.8h16.6
				C644.7,328.7,645.9,328.4,652.1,338.7z"/>
			<path class="st5" d="M649,162.9v14.7c0,6.3-3.2,11.4-7,11.4H438.2l-11.4-8.3l-11.7,8.3h-10.3c-3.8,0-7-5.1-7-11.4v-14.7
				c0-14.4,7.3-26.1,16.1-26.1h219C641.8,136.9,649,148.6,649,162.9z"/>
			<path class="st3" d="M633.8,527.8V546h-13.9h-1.2v-18.2c0-6.7-2.3-12.6-5.6-15.7l6.8-2.4h2.7
				C628.8,509.8,633.8,517.8,633.8,527.8z"/>
			<polygon class="st7" points="633.8,546 550,563.5 469.7,546 481.2,546 618.8,546 619.9,546 			"/>
			<path class="st8" d="M619.9,480.7v29h-12.4h-1.3V479V286v-18.2c0-14.8-7.5-27-16.7-27h13.8c9.2,0,16.7,12.1,16.7,27V314l-6,13.6
				l6,18.8v120c-2.1,0.6-3.7,3.5-3.7,7.1S617.9,480.1,619.9,480.7z"/>
			<path class="st8" d="M619.9,473.6v7.1c-2.1-0.6-3.7-3.5-3.7-7.1s1.6-6.5,3.7-7.1V473.6z"/>
			<polygon class="st8" points="619.9,328.7 619.9,346.5 614,327.7 619.9,314.1 			"/>
			<path class="st6" d="M619.9,509.8l-6.8,2.4l0,0c-1.7-1.5-3.6-2.4-5.6-2.4H619.9z"/>
			<path class="st5" d="M618.8,527.8V546H481.2h-11.4v-18.2c0-10,5.1-18.2,11.2-18.2h0.2l70.6,24.2l61.4-21.8
				C616.5,515.3,618.8,521.2,618.8,527.8z"/>
			<path class="st5" d="M613.1,512.2L551.7,534l-70.5-24.2h125h1.3C609.6,509.8,611.5,510.6,613.1,512.2L613.1,512.2z"/>
			<path class="st9" d="M606.2,479v30.7h-125V267.9c0-14.8,7.5-27,16.7-27h91.7c9.2,0,16.7,12.1,16.7,27V286V479H606.2z M598.7,362
				v-75.9c0-3.6-1.2-6.9-3-8.6c-0.9-0.9-2-1.5-3.2-1.5h-29.4h-20.2h-30.6c-1.2,0-2.3,0.5-3.3,1.5c-1.8,1.8-3,5-3,8.6v9.3v66.7
				c0,5.5,2.8,10.1,6.3,10.1h35.6h9.5h30.1h5C595.9,372.1,598.7,367.6,598.7,362z M592.6,407.7c0-4-2-7.2-4.5-7.2h-22.8
				c-2.5,0-4.5,3.2-4.5,7.2s2,7.2,4.5,7.2h22.8C590.6,414.9,592.6,411.7,592.6,407.7z M592.6,442.1c0-4-2-7.2-4.5-7.2h-22.8
				c-2.5,0-4.5,3.2-4.5,7.2s2,7.2,4.5,7.2h22.8C590.6,449.3,592.6,446.1,592.6,442.1z M544.3,407.7c0-4-2-7.2-4.5-7.2H517
				c-2.5,0-4.5,3.2-4.5,7.2s2,7.2,4.5,7.2h22.8C542.3,414.9,544.3,411.7,544.3,407.7z M544.3,442.1c0-4-2-7.2-4.5-7.2H517
				c-2.5,0-4.5,3.2-4.5,7.2s2,7.2,4.5,7.2h22.8C542.3,449.3,544.3,446.1,544.3,442.1z"/>
			<path class="st10" d="M598.7,286.1V362c0,5.5-2.8,10.1-6.3,10.1h-5v-71.4c0-3.8-0.4-5.3-3.9-5.3H506v-9.3c0-3.6,1.2-6.9,3-8.6
				c0.9-0.9,2.1-1.5,3.3-1.5h80.1c1.2,0,2.3,0.5,3.2,1.5C597.5,279.1,598.7,282.4,598.7,286.1z"/>
			<path class="st10" d="M592.5,276c1.2,0,2.3,0.5,3.2,1.5C594.8,276.5,593.7,276,592.5,276h-80.1c-1.2,0-2.3,0.5-3.3,1.5
				c0.9-0.9,2.1-1.5,3.3-1.5H543h20.2H592.5z"/>
			<path class="st4" d="M588.1,400.5c2.5,0,4.5,3.2,4.5,7.2s-2,7.2-4.5,7.2h-22.8c-2.5,0-4.5-3.2-4.5-7.2s2-7.2,4.5-7.2H588.1z"/>
			<path class="st4" d="M588.1,434.9c2.5,0,4.5,3.2,4.5,7.2s-2,7.2-4.5,7.2h-22.8c-2.5,0-4.5-3.2-4.5-7.2s2-7.2,4.5-7.2H588.1z"/>
			<path class="st11" d="M587.5,300.6v71.4h-30.1l13.4-42.6c1.1-3.5,0.2-7.9-2-9.7c-2.2-1.8-4.9-0.4-6,3.1l-14.4,45.9
				c-0.3,1.1-0.5,2.2-0.5,3.3h-35.6c-3.5,0-6.3-4.6-6.3-10.1v-66.7h77.5C587.1,295.3,587.5,296.9,587.5,300.6z"/>
			<path class="st4" d="M568.9,319.8c2.2,1.8,3.1,6.1,2,9.7l-13.4,42.6H548c0-1.1,0.1-2.2,0.5-3.3l14.4-45.9
				C564,319.4,566.7,318,568.9,319.8z"/>
			<path class="st4" d="M539.8,400.5c2.5,0,4.5,3.2,4.5,7.2s-2,7.2-4.5,7.2H517c-2.5,0-4.5-3.2-4.5-7.2s2-7.2,4.5-7.2H539.8z"/>
			<path class="st4" d="M539.8,434.9c2.5,0,4.5,3.2,4.5,7.2s-2,7.2-4.5,7.2H517c-2.5,0-4.5-3.2-4.5-7.2s2-7.2,4.5-7.2H539.8z"/>
			<rect x="426.7" y="188.9" class="st8" width="11.5" height="357.1"/>
			<polygon class="st7" points="438.2,546 426.7,562.4 415.2,546 426.7,546 			"/>
			<polygon class="st5" points="438.2,188.9 426.7,188.9 415.2,188.9 426.9,180.6 			"/>
			<rect x="415.2" y="188.9" class="st9" width="11.5" height="357.1"/>
		</g>
	</g>
</g>
</svg>
